<?xml version="1.0" standalone="no"?>
<!DOCTYPE svg PUBLIC "-//W3C//DTD SVG 20010904//EN"
 "http://www.w3.org/TR/2001/REC-SVG-20010904/DTD/svg10.dtd">
<svg version="1.0" xmlns="http://www.w3.org/2000/svg"
 width="1678.000000pt" height="441.000000pt" viewBox="0 0 1678.000000 441.000000"
 preserveAspectRatio="xMidYMid meet">

<g transform="translate(0.000000,441.000000) scale(0.100000,-0.100000)"
fill="#000000" stroke="none">
<path d="M15650 4109 l-385 -300 -462 -1182 c-255 -650 -465 -1190 -468 -1199
-6 -17 19 -18 404 -20 l410 -3 -530 -410 -529 -410 538 -3 c426 -2 539 0 545
10 5 7 223 564 486 1238 l477 1225 317 3 c174 1 317 4 317 7 0 3 -159 294
-353 647 -195 354 -360 655 -368 670 l-14 27 -385 -300z"/>
<path d="M13801 3808 c-60 -156 -933 -2393 -944 -2420 l-16 -38 -315 0 c-174
0 -316 -2 -316 -4 0 -1 164 -302 365 -667 217 -394 371 -664 379 -663 7 1 182
133 389 294 l375 293 160 411 c89 226 298 763 466 1193 169 431 306 785 306
788 0 3 -184 6 -409 7 l-409 3 529 409 c291 226 529 411 529 413 0 2 -243 3
-540 3 l-540 0 -9 -22z"/>
</g>
</svg>
