<?xml version="1.0" standalone="no"?>
<!DOCTYPE svg PUBLIC "-//W3C//DTD SVG 20010904//EN"
 "http://www.w3.org/TR/2001/REC-SVG-20010904/DTD/svg10.dtd">
<svg version="1.0" xmlns="http://www.w3.org/2000/svg"
 width="1024.000000pt" height="448.000000pt" viewBox="0 0 1024.000000 448.000000"
 preserveAspectRatio="xMidYMid meet">

<g transform="translate(0.000000,448.000000) scale(0.100000,-0.100000)"
fill="#000000" stroke="none">
<path d="M2460 4455 c-18 -19 -22 -32 -17 -59 4 -26 1 -38 -14 -52 -10 -9 -19
-25 -19 -34 0 -25 -17 -35 -85 -49 -85 -18 -194 -65 -280 -122 -80 -52 -92
-75 -55 -106 11 -10 20 -22 20 -29 0 -6 -9 -19 -20 -29 -11 -10 -20 -30 -20
-45 0 -15 9 -35 20 -45 24 -22 25 -29 4 -49 -9 -9 -19 -29 -23 -43 -6 -23 -21
-33 -94 -61 -101 -39 -95 -24 -71 -191 l17 -113 -30 -29 c-18 -19 -35 -27 -44
-23 -8 4 -45 41 -84 84 -38 43 -78 78 -87 79 -10 1 -66 -46 -125 -104 l-108
-105 -160 25 c-307 47 -736 90 -1015 100 l-155 6 41 -38 c152 -140 206 -183
230 -183 17 0 52 -22 101 -62 l76 -63 -52 -5 -52 -5 142 -117 c85 -72 150
-118 163 -118 24 0 146 -84 146 -100 0 -6 -20 -10 -45 -10 -25 0 -45 -3 -44
-7 0 -5 42 -39 92 -78 l92 -70 -34 -5 c-48 -7 -53 -29 -54 -260 0 -254 34
-476 108 -695 37 -112 130 -292 155 -300 11 -3 70 -5 130 -4 l110 3 78 -81
c244 -254 569 -416 925 -458 l57 -7 0 -178 c0 -140 3 -180 14 -189 9 -8 52
-11 127 -9 l114 3 3 186 2 187 83 12 c327 46 636 200 867 432 l101 101 130 -1
c71 0 138 2 149 5 46 12 197 362 236 545 40 188 55 452 37 641 l-6 67 -64 0
c-39 0 -62 4 -58 10 3 5 47 40 97 77 l92 68 -60 5 -59 5 69 53 c38 28 79 52
92 52 14 0 71 40 151 106 184 153 175 142 106 136 -39 -3 -55 -1 -48 6 65 65
144 122 168 122 22 0 56 24 149 108 l120 107 -63 3 c-150 7 -809 -55 -1139
-108 l-125 -20 -108 105 c-60 58 -115 105 -123 105 -8 0 -53 -39 -99 -87 l-84
-88 -32 32 -32 32 16 118 c10 65 17 125 17 135 0 11 -26 26 -85 50 -69 27 -85
37 -85 54 0 11 -9 29 -20 39 -11 10 -20 25 -20 34 0 9 9 24 20 34 27 22 25 46
-5 81 l-25 29 25 29 c14 16 25 35 25 41 0 11 -77 66 -160 115 -43 25 -209 82
-240 82 -25 0 -49 26 -50 53 0 10 -7 20 -16 24 -12 4 -14 14 -9 44 6 32 3 42
-19 64 -32 32 -66 32 -96 0z m73 -68 c-2 -35 1 -49 12 -53 32 -13 12 -24 -42
-24 l-56 0 23 25 c20 21 22 28 12 50 -16 35 -5 57 27 53 24 -3 26 -6 24 -51z
m37 -107 c0 -6 -27 -10 -60 -10 -33 0 -60 4 -60 10 0 6 27 10 60 10 33 0 60
-4 60 -10z m192 -75 c73 -26 192 -86 218 -111 12 -12 -52 -14 -470 -14 l-485
1 25 20 c35 29 154 89 220 110 44 14 91 18 238 18 169 1 187 -1 254 -24z m224
-167 c-21 -30 -20 -47 6 -75 l21 -23 -503 0 c-487 0 -503 1 -487 18 19 20 23
67 7 77 -35 22 26 25 481 25 l490 0 -15 -22z m14 -127 c0 -5 -7 -14 -15 -21
-19 -16 -19 -41 0 -66 8 -10 15 -22 15 -26 0 -11 -978 -10 -984 1 -3 5 1 14 9
21 17 14 20 66 5 75 -35 22 26 25 480 25 274 0 490 -4 490 -9z m-13 -159 c-21
-23 -21 -42 -2 -68 8 -10 15 -22 15 -25 0 -4 -221 -7 -491 -7 -451 0 -490 1
-483 17 14 33 16 72 4 86 -11 13 45 15 480 15 477 0 493 -1 477 -18z m-981
-34 c4 -7 -2 -18 -14 -26 -29 -19 -29 -68 0 -99 l22 -23 -22 -20 c-33 -31 -32
-62 1 -98 l22 -24 -24 -19 c-30 -25 -30 -63 0 -95 l24 -25 -21 -17 c-44 -35
-37 -59 38 -138 37 -38 39 -44 39 -105 0 -35 0 -69 0 -75 -1 -6 -23 -21 -51
-33 l-50 -23 0 -74 c0 -41 -4 -74 -8 -74 -29 0 -122 24 -122 32 0 40 95 150
171 199 27 17 49 34 49 39 0 4 -18 28 -40 53 -66 75 -173 127 -385 188 -89 26
-117 38 -147 67 -21 20 -38 41 -38 48 0 13 116 125 128 123 4 0 41 -38 82 -84
41 -46 82 -83 90 -84 25 -1 170 130 170 153 0 12 -7 61 -16 109 -8 49 -13 94
-11 100 3 11 61 35 89 36 9 1 20 -4 24 -11z m1074 -4 c22 -9 40 -19 40 -23 0
-3 -8 -55 -19 -114 l-18 -108 86 -75 86 -75 88 92 c87 92 87 92 110 73 53 -44
107 -99 107 -109 0 -6 -17 -27 -37 -47 -28 -26 -55 -41 -100 -52 -237 -61
-415 -153 -458 -237 -14 -27 -14 -28 23 -50 76 -47 182 -165 182 -203 0 -4
-92 -26 -110 -26 -5 0 -10 30 -12 68 l-3 67 -52 28 -53 28 0 66 c0 65 0 66 55
130 60 70 66 90 35 118 -11 10 -20 23 -20 30 0 7 9 20 20 30 11 10 20 28 20
40 0 12 -9 30 -20 40 -11 10 -20 23 -20 30 0 7 9 20 20 30 11 10 20 28 20 40
0 12 -9 30 -20 40 -11 10 -20 23 -20 30 0 7 9 20 20 30 11 10 20 28 20 40 0
12 -9 30 -20 40 -24 21 -26 45 -5 45 8 0 33 -7 55 -16z m-1196 -139 c14 -93
14 -101 -1 -112 -9 -7 -20 -13 -25 -13 -4 0 -8 6 -8 13 0 6 -7 55 -15 107 -13
88 -13 96 2 108 9 6 20 9 24 5 4 -5 14 -53 23 -108z m1301 89 c0 -5 -6 -55
-14 -111 -14 -102 -24 -120 -50 -89 -8 10 -7 40 6 119 16 99 18 105 37 97 12
-4 21 -11 21 -16z m-185 -33 c0 -5 -7 -14 -15 -21 -19 -16 -19 -41 0 -66 8
-10 15 -21 15 -24 0 -3 -223 -6 -496 -7 -476 -2 -496 -1 -480 16 20 22 21 65
1 81 -8 7 -12 16 -9 21 7 12 984 12 984 0z m-625 -161 c-12 -13 -31 -20 -55
-20 -49 0 -128 -28 -163 -57 -23 -18 -40 -23 -89 -23 -59 0 -60 1 -45 18 10
10 17 29 17 42 0 13 -7 32 -17 42 -16 17 -9 18 177 18 192 0 193 0 175 -20z
m611 -2 c-22 -30 -20 -47 6 -75 l22 -24 -160 3 c-156 3 -159 3 -159 25 0 17
15 30 65 57 60 32 72 35 153 36 l88 0 -15 -22z m-311 -15 c-16 -8 -31 -17 -33
-18 -2 -2 1 -18 6 -37 6 -18 33 -111 61 -207 28 -96 50 -175 49 -177 -2 -1
-37 5 -78 13 -52 10 -117 13 -212 11 -76 -3 -138 -4 -138 -4 0 1 9 35 20 76
11 41 20 78 20 83 0 17 -67 47 -107 47 -66 0 -91 -14 -95 -52 l-4 -33 -17 37
c-23 49 -21 75 6 128 27 56 74 80 163 88 56 4 68 9 87 33 l22 28 140 0 c134 0
139 0 110 -16z m-2095 -63 c747 -66 1234 -179 1395 -324 33 -30 37 -37 25 -45
-47 -29 -124 -99 -149 -135 -32 -45 -61 -123 -61 -161 0 -81 86 -206 190 -276
70 -48 76 -73 42 -197 l-27 -97 -129 -3 c-128 -3 -129 -2 -175 27 -26 17 -60
44 -76 61 l-29 30 55 0 c30 0 60 5 67 12 8 8 12 48 12 115 0 91 -3 110 -25
153 l-25 50 -70 0 c-84 0 -84 2 -36 98 43 85 106 174 174 247 29 31 50 60 47
65 -17 28 -318 117 -520 154 -144 26 -433 63 -665 85 -118 11 -242 23 -275 27
-58 5 -63 8 -135 75 l-75 70 125 -6 c69 -4 222 -15 340 -25z m4240 -40 c-82
-76 -77 -74 -240 -85 -379 -27 -854 -96 -1097 -160 -97 -26 -249 -81 -257 -94
-3 -4 21 -36 52 -72 79 -87 123 -151 166 -236 53 -106 54 -103 -67 -103 l-103
0 -22 -45 c-20 -42 -22 -60 -22 -225 l0 -180 -98 0 -99 0 -31 116 c-37 131
-36 137 32 183 92 64 165 165 181 253 16 84 -45 197 -151 279 -30 23 -54 47
-54 54 0 22 73 73 162 114 206 95 625 179 1153 231 250 24 416 37 505 38 l65
1 -75 -69z m-3360 -32 c0 -11 -31 -10 -49 1 -12 8 -13 12 -1 25 12 15 14 15
31 0 11 -10 19 -21 19 -26z m2150 11 c0 -9 -62 -29 -69 -22 -3 1 6 14 19 28
18 19 26 22 37 14 7 -6 13 -15 13 -20z m-1504 -1 c-4 -13 -10 -40 -13 -60 -5
-35 -8 -38 -39 -38 -33 0 -45 12 -24 25 6 3 10 19 10 35 0 16 -4 32 -10 35
-23 14 -7 25 36 25 43 0 46 -1 40 -22z m880 0 c-20 -28 -20 -52 -1 -68 8 -7
15 -16 15 -21 0 -4 -57 -7 -127 -6 -127 2 -128 2 -140 28 -7 15 -16 41 -19 58
l-6 31 146 0 147 0 -15 -22z m-2370 -103 c134 -14 340 -38 419 -50 138 -20
193 -29 280 -46 93 -19 118 -24 218 -50 57 -15 147 -105 147 -147 0 -5 -53 4
-117 19 -218 53 -531 99 -836 123 l-178 14 -42 35 c-23 19 -62 53 -87 75 l-45
41 46 1 c26 0 113 -7 195 -15z m3937 -60 c-98 -83 -84 -79 -298 -95 -301 -22
-704 -85 -870 -134 -27 -9 -51 -14 -53 -12 -10 10 30 76 66 108 42 38 55 43
202 77 207 48 794 126 978 130 l63 1 -88 -75z m-2458 42 c24 -59 39 -79 74
-97 55 -28 61 -26 50 12 -5 18 -9 43 -9 55 0 20 5 23 43 23 67 0 72 -7 58 -80
-20 -103 -19 -101 -114 -131 l-87 -27 0 70 0 69 -50 53 c-27 29 -47 55 -44 59
5 5 76 0 79 -6z m905 3 c0 -3 -21 -29 -46 -58 -45 -51 -47 -57 -49 -120 -1
-37 -3 -68 -4 -69 0 -1 -21 5 -45 13 -43 15 -46 19 -65 77 -35 110 -43 149
-32 156 13 8 241 9 241 1z m-2305 -160 c242 -20 546 -58 715 -90 80 -15 180
-93 180 -139 0 -17 -4 -17 -104 0 -221 37 -618 79 -758 79 l-67 0 -95 80 c-53
45 -96 83 -96 86 0 2 21 2 48 -1 26 -2 106 -10 177 -15z m3854 16 c-2 -1 -47
-39 -99 -82 l-96 -80 -195 -12 c-214 -14 -466 -42 -632 -70 -118 -21 -123 -18
-84 38 46 68 89 87 252 115 225 38 873 107 854 91z m-1797 -84 c86 -23 228
-78 243 -93 11 -12 -37 -59 -60 -59 -7 0 -35 11 -62 24 -125 63 -272 92 -418
82 -109 -6 -188 -26 -307 -75 l-77 -32 -30 22 c-17 13 -31 26 -31 30 0 12 143
70 234 94 130 34 127 34 286 31 109 -3 164 -8 222 -24z m-158 -68 l46 -7 0
-304 c0 -268 -2 -304 -16 -310 -13 -5 -13 -7 -2 -14 9 -6 6 -9 -10 -9 -13 0
-35 -9 -49 -20 -14 -11 -33 -20 -42 -20 -9 0 -26 -6 -37 -14 -11 -8 -38 -16
-60 -18 -34 -3 -39 -6 -42 -31 -3 -26 -1 -27 25 -21 15 4 40 13 55 20 15 8 34
14 43 14 8 0 15 5 15 10 0 6 13 10 28 10 15 0 32 4 37 9 6 5 20 12 33 16 21 6
22 5 22 -72 l0 -78 -64 -44 c-71 -48 -64 -48 -158 12 l-48 30 0 225 c0 203 -1
223 -16 211 -22 -18 -222 -19 -233 0 -14 21 -35 160 -35 231 l-1 65 69 33
c132 64 308 94 440 76z m-1414 -75 c220 -25 237 -30 294 -80 56 -49 61 -75 14
-65 -45 9 -307 33 -453 42 l-120 6 -72 54 c-40 30 -75 60 -79 66 -9 15 180 5
416 -23z m3060 17 c-8 -8 -43 -36 -77 -63 l-62 -49 -193 -13 c-106 -7 -242
-19 -303 -26 -60 -7 -112 -11 -114 -9 -8 8 36 59 75 87 33 23 59 30 159 43
180 24 371 42 455 43 64 1 72 -1 60 -13z m-2209 -29 c24 -20 27 -30 32 -127
18 -309 169 -587 388 -713 31 -18 38 -28 41 -60 2 -21 1 -40 -3 -43 -4 -2 -41
19 -83 46 -207 139 -356 405 -395 705 -17 130 -22 215 -14 215 4 -1 20 -11 34
-23z m985 -74 c-15 -204 -69 -393 -157 -549 -54 -96 -209 -257 -286 -298 l-53
-27 0 43 c0 41 3 44 51 73 111 66 236 216 292 350 52 126 87 289 87 407 0 39
5 50 31 72 17 14 33 26 36 26 3 0 3 -44 -1 -97z m-1114 -24 c29 -6 56 -14 61
-18 4 -4 14 -45 22 -92 8 -46 17 -101 21 -123 7 -36 6 -38 -13 -28 -72 39
-168 162 -173 222 -5 57 -4 57 82 39z m1287 -36 c-12 -65 -49 -122 -116 -182
-64 -56 -79 -62 -69 -28 4 12 14 67 23 122 9 55 19 103 23 108 7 8 81 24 121
26 26 1 26 0 18 -46z m-1989 7 c134 -9 150 -13 210 -43 114 -57 104 -60 -182
-56 l-254 4 -57 39 c-31 22 -65 48 -74 58 -17 19 -15 19 97 13 63 -3 180 -10
260 -15z m2980 13 c-1 -5 -30 -29 -66 -55 -73 -53 -57 -49 -349 -69 -230 -16
-237 -16 -242 -2 -5 15 44 61 87 81 40 17 244 39 399 41 58 1 107 4 110 7 7 7
61 4 61 -3z m-233 -184 c-17 -28 -36 -53 -42 -55 -5 -2 -75 -7 -155 -13 -129
-8 -146 -8 -157 7 -23 28 -14 43 42 68 52 24 152 38 297 43 l47 1 -32 -51z
m-2317 -59 l0 -80 -295 0 -295 0 -6 -23 c-7 -29 14 -259 24 -269 4 -4 118 -9
252 -10 l245 -3 0 -80 c0 -57 -4 -80 -12 -81 -7 -1 -110 -2 -228 -3 l-215 -1
0 -23 c0 -34 55 -212 100 -326 22 -54 40 -101 40 -105 0 -3 -42 -6 -94 -6
l-93 0 -41 88 c-62 133 -117 345 -142 542 -11 90 -14 400 -4 438 l6 22 379 0
379 0 0 -80z m1974 -125 c65 -117 118 -201 128 -203 12 -2 53 51 144 190 69
106 129 198 131 205 4 9 32 13 98 13 l93 0 7 -127 c16 -309 -49 -649 -168
-878 l-42 -80 -97 -3 -97 -3 48 103 c60 127 101 241 135 378 30 120 39 245 18
245 -8 0 -66 -87 -131 -194 -64 -107 -121 -196 -127 -198 -5 -2 -58 83 -116
190 -59 106 -110 195 -113 199 -4 4 -13 4 -21 1 -12 -4 -14 -65 -14 -364 l0
-359 -85 0 -85 0 0 545 0 546 91 -3 91 -3 112 -200z m249 40 l-36 -55 -77 0
-76 0 -17 35 -17 35 33 17 c28 15 198 35 219 25 4 -1 -9 -27 -29 -57z m-863
-155 c13 -47 23 -88 24 -91 1 -3 -48 -65 -107 -137 l-108 -131 46 -85 c25 -46
45 -86 45 -89 0 -2 -21 -12 -46 -22 -54 -20 -37 -32 -154 114 -77 98 -81 105
-64 117 108 75 229 219 289 341 22 45 42 79 46 75 3 -4 16 -45 29 -92z m-805
-125 c42 -59 129 -147 194 -195 l33 -25 -88 -110 c-48 -61 -89 -112 -90 -113
-4 -5 -77 19 -87 28 -5 4 10 44 32 89 23 44 41 86 41 93 0 6 -21 37 -48 67
-26 31 -73 88 -104 127 l-57 71 20 74 c11 41 22 81 25 89 3 8 21 -16 45 -60
23 -41 60 -102 84 -135z m1605 190 c0 -3 -12 -23 -26 -45 l-27 -40 -23 37
c-13 21 -24 41 -24 46 0 4 23 7 50 7 28 0 50 -2 50 -5z m-2215 -55 l29 -30
-160 1 c-153 1 -161 2 -219 29 l-60 28 191 1 190 1 29 -30z m-372 -35 l76 -35
176 0 c219 0 235 -6 235 -85 0 -79 29 -231 62 -324 16 -45 27 -85 25 -87 -2
-3 -24 0 -48 6 -107 25 -322 22 -432 -6 -19 -4 -26 3 -50 51 -15 30 -27 62
-27 70 0 12 34 15 208 17 l207 3 3 112 c2 99 0 118 -19 155 -12 24 -27 46 -33
50 -6 4 -113 8 -238 8 l-228 0 0 50 c0 28 2 50 4 50 2 0 37 -16 79 -35z m611
-150 c3 -8 1 -15 -4 -15 -6 0 -10 7 -10 15 0 8 2 15 4 15 2 0 6 -7 10 -15z
m-63 -42 c-8 -15 -10 -15 -11 -2 0 17 10 32 18 25 2 -3 -1 -13 -7 -23z m1412
-58 c-3 -9 -8 -14 -10 -11 -3 3 -2 9 2 15 9 16 15 13 8 -4z m-1403 -16 c0 -6
-4 -7 -10 -4 -5 3 -10 11 -10 16 0 6 5 7 10 4 6 -3 10 -11 10 -16z m2170 -4
c0 -3 -21 -67 -46 -143 -78 -235 -156 -361 -321 -525 -127 -125 -228 -198
-388 -277 -178 -88 -386 -150 -501 -150 -35 0 -35 0 -32 42 l3 41 100 17 c189
32 391 111 547 214 165 108 369 326 449 481 52 101 174 304 182 305 4 0 7 -2
7 -5z m-330 -132 c36 -65 66 -121 68 -125 2 -4 -9 -6 -25 -3 -15 2 -49 7 -75
10 l-48 6 0 115 c0 63 3 114 8 114 4 0 36 -53 72 -117z m-1099 50 c15 -3 37 0
48 7 27 14 34 9 92 -66 l42 -55 -21 -42 c-19 -39 -21 -40 -21 -14 l-1 27 -126
0 c-120 0 -126 -1 -131 -21 -6 -21 -6 -21 -19 2 -21 38 -17 52 34 117 32 42
52 59 62 55 8 -3 27 -8 41 -10z m-711 -28 c0 -8 -4 -15 -9 -15 -5 0 -11 7 -15
15 -3 9 0 15 9 15 8 0 15 -7 15 -15z m-459 -291 c106 -158 297 -332 476 -433
136 -77 345 -148 488 -166 84 -11 85 -12 85 -60 l0 -44 -37 5 c-193 27 -356
75 -504 149 -155 78 -256 151 -380 275 -113 112 -117 118 -157 215 -50 122
-92 242 -92 258 1 7 16 -18 34 -54 19 -37 58 -102 87 -145z m840 124 c22 -6
39 -15 39 -19 0 -4 -12 -22 -27 -40 l-27 -32 21 -16 c12 -9 37 -29 57 -44 24
-19 36 -36 36 -52 0 -30 -5 -31 -37 -5 -24 19 -41 20 -257 20 -181 -1 -236 -4
-256 -15 -14 -8 -28 -14 -32 -15 -14 0 -8 27 10 49 15 19 30 22 122 26 85 4
119 10 179 34 68 26 77 33 98 75 26 52 22 50 74 34z m762 -37 c26 -46 31 -50
116 -81 49 -17 102 -31 117 -29 51 4 64 0 64 -21 0 -19 -7 -20 -207 -20 l-207
0 -28 -27 -28 -27 0 35 c0 32 6 40 55 74 30 20 55 40 55 43 0 3 -14 21 -32 39
l-31 32 24 9 c13 5 31 12 39 15 30 11 37 6 63 -42z m165 42 c-10 -2 -26 -2
-35 0 -10 3 -2 5 17 5 19 0 27 -2 18 -5z m-508 -567 c0 -532 -1 -564 -17 -561
-10 2 -46 4 -80 4 l-63 1 0 560 0 560 80 0 80 0 0 -564z m-650 454 c-20 -13
-143 -13 -135 0 3 6 39 10 78 10 50 0 67 -3 57 -10z m1275 0 c8 -13 -105 -13
-125 0 -11 7 5 10 52 10 37 0 70 -4 73 -10z m-1781 -38 c2 -4 -4 -8 -14 -8
-10 0 -16 4 -14 8 3 4 9 8 14 8 5 0 11 -4 14 -8z m333 -136 c0 -8 -6 -12 -15
-9 -11 5 -11 7 0 14 7 5 13 9 14 9 0 0 1 -6 1 -14z m1506 -73 c-7 -2 -19 -2
-25 0 -7 3 -2 5 12 5 14 0 19 -2 13 -5z m-1594 -37 c9 -10 8 -15 -2 -19 -8 -3
-13 3 -13 14 0 23 0 23 15 5z m1418 -18 c-3 -7 -5 -2 -5 12 0 14 2 19 5 13 2
-7 2 -19 0 -25z m-1170 -10 c-3 -8 -6 -5 -6 6 -1 11 2 17 5 13 3 -3 4 -12 1
-19z m-162 -58 c3 -6 -1 -7 -9 -4 -18 7 -21 14 -7 14 6 0 13 -4 16 -10z m1470
0 c13 -6 15 -9 5 -9 -8 0 -22 4 -30 9 -18 12 -2 12 25 0z m-35 -28 c0 -4 -9
-13 -20 -20 -16 -10 -20 -10 -20 2 0 8 6 17 13 19 19 8 27 8 27 -1z m-962
-139 l142 -6 0 -28 c0 -22 -5 -29 -19 -29 -57 0 -321 63 -321 77 0 3 12 2 28
-1 15 -4 91 -10 170 -13z m702 3 c0 -11 -241 -66 -287 -66 -10 0 -13 8 -11 25
l3 26 124 4 c68 2 126 6 129 9 6 7 42 8 42 2z"/>
<path d="M2440 3401 c0 -11 88 -34 101 -26 5 4 9 13 9 21 0 10 -14 14 -55 14
-30 0 -55 -4 -55 -9z"/>
</g>
</svg>
