<?xml version="1.0" encoding="UTF-8"?>
<svg id="Livello_1" xmlns="http://www.w3.org/2000/svg" version="1.1" viewBox="0 0 368.51 300.5">
  <!-- Generator: Adobe Illustrator 30.5.0, SVG Export Plug-In . SVG Version: 2.1.4 Build 167)  -->
  <defs>
    <style>
      .st0 {
        fill: #009cde;
      }

      .st1 {
        fill: #fff;
      }
    </style>
  </defs>
  <g>
    <polygon class="st0" points="59.24 102.6 125.01 140.58 184.25 106.38 0 0 0 212.76 59.24 178.56 59.24 102.6"/>
    <polygon class="st0" points="309.27 102.6 243.49 140.58 184.25 106.38 368.5 0 368.5 212.76 309.27 178.56 309.27 102.6"/>
  </g>
  <g>
    <path class="st1" d="M0,242.62h14.05l15.57,24.47,15.57-24.47h14.04v57.88h-12.94v-37.25l-16.67,24.72h-.34l-16.5-24.47v37H0v-57.87Z"/>
    <path class="st1" d="M91.52,242.62h11.98l25.32,57.88h-13.59l-5.22-12.12h-25.35l-5.21,12.12h-13.25l25.32-57.88ZM105.37,277.14l-8.03-19.22-8.04,19.22h16.07Z"/>
    <path class="st1" d="M135.9,242.62h27.41c7.62,0,13.54,2.07,17.48,5.87,3.34,3.22,5.14,8,5.14,13.45v.16c0,9.35-5.22,15.44-12.85,18.17l14.65,20.22h-15.42l-12.85-18.07h-10.37v18.07h-13.19v-57.88ZM162.46,271.19c6.42,0,10.11-3.53,10.11-8.41v-.16c0-5.46-3.94-8.5-10.37-8.5h-13.11v17.07h13.37Z"/>
    <path class="st1" d="M197.48,242.62h44.56v11.33h-31.65v11.74h27.85v11.33h-27.85v12.16h32.07v11.33h-44.98v-57.88Z"/>
    <path class="st1" d="M253.91,242.62h13v46.3h29.01v11.58h-42.01v-57.88Z"/>
    <path class="st1" d="M305.13,242.62h13v46.3h29.01v11.58h-42.01v-57.88Z"/>
    <path class="st1" d="M355.51,242.62h13v57.88h-13v-57.88Z"/>
  </g>
</svg>