<?xml version="1.0" standalone="no"?>
<!DOCTYPE svg PUBLIC "-//W3C//DTD SVG 20010904//EN"
 "http://www.w3.org/TR/2001/REC-SVG-20010904/DTD/svg10.dtd">
<svg version="1.0" xmlns="http://www.w3.org/2000/svg"
 width="1761.000000pt" height="251.000000pt" viewBox="0 0 1761.000000 251.000000"
 preserveAspectRatio="xMidYMid meet">

<g transform="translate(0.000000,251.000000) scale(0.100000,-0.100000)"
fill="#000000" stroke="none">
<path d="M16755 2490 c-27 -5 -90 -14 -140 -20 -207 -26 -538 -101 -800 -181
-116 -36 -144 -46 -490 -174 -169 -63 -491 -204 -715 -315 -282 -139 -322
-161 -308 -175 3 -4 60 5 125 20 509 114 1018 167 1328 136 241 -23 420 -113
483 -241 77 -158 44 -389 -95 -665 -37 -74 -64 -137 -61 -141 7 -6 52 20 243
144 605 392 1032 764 1198 1044 50 85 91 215 85 272 -23 199 -250 308 -638
305 -91 -1 -187 -5 -215 -9z"/>
</g>
</svg>
