<?xml version="1.0" encoding="UTF-8"?>
<svg xmlns="http://www.w3.org/2000/svg" id="Livello_2" data-name="Livello 2" viewBox="0 0 449.8 90.5">
  <defs>
    <style>
      .cls-1 {
        fill: #1d1d1b;
      }

      .cls-1, .cls-2, .cls-3 {
        stroke-width: 0px;
      }

      .cls-4 {
        fill: none;
        stroke: #1d1d1b;
        stroke-miterlimit: 3.86;
        stroke-width: .11px;
      }

      .cls-2 {
        fill: #e30613;
      }

      .cls-3 {
        fill: #ffed00;
      }
    </style>
  </defs>
  <g id="Livello_1-2" data-name="Livello 1">
    <polyline class="cls-2" points="122.1 81.65 115.27 81.65 118.75 80.3 132.5 80.31 129.03 81.66 124.91 81.66 120 90.25 117.18 90.25 122.1 81.65"></polyline>
    <polyline class="cls-2" points="128.31 90.26 134 80.31 147.72 80.32 144.35 81.67 136.04 81.66 134.42 84.5 144.03 84.51 140.61 85.86 133.65 85.85 131.9 88.91 142.8 88.92 139.44 90.27 128.31 90.26"></polyline>
    <polyline class="cls-2" points="149.43 81.67 152.97 80.33 162.63 80.33 164.46 81.68 152.25 81.67 148.11 88.92 160.48 88.94 157.11 90.28 147.28 90.27 145.29 88.92 149.43 81.67"></polyline>
    <polyline class="cls-2" points="167.86 80.17 170.33 80.79 168.19 84.53 176.37 84.53 178.86 80.18 181.32 80.8 175.89 90.3 173.07 90.29 175.59 85.88 167.42 85.88 164.9 90.29 162.08 90.29 167.86 80.17"></polyline>
    <polyline class="cls-2" points="185.41 80.8 188.41 80.19 193.51 87.84 193.56 87.84 197.58 80.81 200.58 80.2 194.8 90.31 192.12 90.31 187.07 82.63 187.01 82.63 182.62 90.3 179.97 90.3 185.41 80.8"></polyline>
    <path class="cls-2" d="M203.63,81.72l3.42-1.35h9.86s1.88,1.36,1.88,1.36l-4.14,7.25-3.42,1.34h-9.85s-1.88-1.36-1.88-1.36l4.14-7.25M202.31,88.97h9.53s4.14-7.24,4.14-7.24h-9.52s-4.15,7.24-4.15,7.24"></path>
    <polyline class="cls-2" points="223.75 80.21 226.21 80.83 221.55 88.98 230.19 88.99 226.74 90.34 217.96 90.33 223.75 80.21"></polyline>
    <path class="cls-2" d="M235.83,81.74l3.42-1.35h9.86s1.88,1.36,1.88,1.36l-4.14,7.25-3.42,1.35h-9.86s-1.88-1.36-1.88-1.36l4.14-7.25M234.5,88.99h9.53s4.15-7.25,4.15-7.25h-9.53s-4.15,7.25-4.15,7.25"></path>
    <polyline class="cls-2" points="254.74 81.76 258.44 80.41 270.65 80.42 267 81.76 257.56 81.76 253.42 89.01 262.64 89.02 264.33 86.06 257.7 86.06 261.18 84.71 267.92 84.72 265.46 89.02 262.03 90.36 252.59 90.36 250.6 89.01 254.74 81.76"></polyline>
    <polyline class="cls-2" points="274.31 80.25 277.59 84.67 285.85 80.26 287.79 81.02 278.27 85.99 275.76 90.38 272.94 90.37 275.45 85.99 271.5 81.01 274.31 80.25"></polyline>
    <polyline class="cls-2" points="298.65 80.44 312.62 80.45 309.26 81.8 300.7 81.79 299.01 84.74 308.67 84.75 305.2 86.09 298.24 86.09 295.78 90.39 292.96 90.39 298.65 80.44"></polyline>
    <path class="cls-2" d="M313.07,81.8l3.42-1.35h9.86s1.89,1.36,1.89,1.36l-4.15,7.25-3.42,1.35h-9.86s-1.88-1.36-1.88-1.36l4.15-7.25M311.74,89.05h9.53s4.15-7.24,4.15-7.24h-9.53s-4.15,7.24-4.15,7.24"></path>
    <path class="cls-2" d="M332.92,80.47h12.46s1.81,1.28,1.81,1.28l-1.6,2.81-2.56.76,1.64.84-2.44,4.27h-2.81l2.49-4.36h-9.36s-2.49,4.35-2.49,4.35h-2.82s5.69-9.95,5.69-9.95M333.31,84.71h9.36s1.65-2.89,1.65-2.89h-9.36s-1.66,2.89-1.66,2.89"></path>
    <polyline class="cls-2" points="359.82 81.84 363.3 80.49 377.11 80.5 373.57 81.85 362.63 81.84 361.03 84.65 370.25 84.66 372.14 86.09 370.47 89.02 366.94 90.45 353.35 90.44 356.72 89.09 367.6 89.1 369.37 86.01 359.98 86 358.16 84.73 359.82 81.84"></polyline>
    <path class="cls-2" d="M379.45,80.51h12.21s1.77,1.36,1.77,1.36l-2.06,3.6-3.31,1.35h-9.39s-2.09,3.65-2.09,3.65h-2.82s5.69-9.95,5.69-9.95M379.44,85.45h9.11s2.06-3.59,2.06-3.59h-9.11s-2.06,3.59-2.06,3.59"></path>
    <path class="cls-2" d="M396.41,81.87l3.42-1.35h9.86s1.88,1.36,1.88,1.36l-4.15,7.25-3.42,1.35h-9.86s-1.88-1.36-1.88-1.36l4.14-7.25M395.08,89.12h9.52s4.15-7.24,4.15-7.24h-9.53s-4.14,7.24-4.14,7.24"></path>
    <path class="cls-2" d="M416.26,80.53h12.45s1.82,1.27,1.82,1.27l-1.61,2.81-2.55.76,1.64.84-2.45,4.27h-2.81s2.49-4.36,2.49-4.36h-9.36s-2.49,4.35-2.49,4.35h-2.82s5.69-9.95,5.69-9.95M416.64,84.78h9.37s1.65-2.89,1.65-2.89h-9.36s-1.66,2.89-1.66,2.89"></path>
    <polyline class="cls-2" points="438.63 81.9 431.81 81.89 435.28 80.55 449.04 80.56 445.56 81.9 441.44 81.9 436.53 90.5 433.71 90.5 438.63 81.9"></polyline>
    <path class="cls-1" d="M194.46,31.96v-.92c3.91-2.17,7.29-6,9.11-10.41h1.3v9.35h7.22v1.98h-7.22v20.49c0,4.81,1.89,5.47,3.45,5.47s3.13-1.19,4.1-2.31l1.11.73c-2.15,2.83-4.43,5.27-8.14,5.27-5.6,0-6.25-4.41-6.25-9.09v-20.55h-4.69"></path>
    <path class="cls-1" d="M294.65,70.8c0,3.66,2.07,3.72,5.4,3.72v1.3h-16.74v-1.3c2.93,0,5.47-.07,5.47-3.72v-14.17c-3,2.81-6.67,4.57-10.8,4.57-8.27,0-11.74-7.64-11.74-14.75,0-9.4,5.74-17.23,15.74-17.23,3.67,0,6.2,2.02,7.6,2.02,1.67,0,3.6-1.44,5.07-2.02v41.59M282.45,57.16c1.73,0,6.33-1.63,6.33-3.65v-16.65c0-4.9-4.13-5.68-6.67-5.68-7.27,0-10,6.46-10,12.79s2.8,13.19,10.34,13.19Z"></path>
    <path class="cls-1" d="M326.92,54.09c0,2.7,2.27,3.03,4.67,3.09v1.32c-3.37.86-6.81,1.71-9.92,2.89h-.26v-5.39c-2.79,2.76-5.38,5.39-9.6,5.39-5.25,0-8.88-2.7-8.88-8.16v-18.62c0-3.16-2.53-4.22-4.67-4.22v-1.25s10.38.01,10.38.01v21.97c0,3.55,1.82,6.18,5.64,6.18,3.37,0,6.16-2.63,6.94-4.14v-18.55c0-3.16-2.53-4.19-4.67-4.19v-1.28h10.37v24.95"></path>
    <path class="cls-1" d="M357.15,54.9c0,1.37.13,3.07,1.9,3.07.98,0,1.83-.78,2.42-1.5l.79.71c-1.64,2.54-3.73,4.04-6.87,4.04-2.29,0-3.73-2.22-3.86-4.3-3.08,2.28-6.54,4.3-10.53,4.3s-7.33-3.07-7.33-7.17c0-4.37,3.14-7.17,6.94-9.13,3.27-1.7,7.92-2.93,10.8-3.85v-3.39c0-2.93-.72-6.46-5.56-6.46-1.7,0-4.97.59-5.04,2.8-.07.72.13,1.43.13,2.15,0,1.89-.85,3.46-3.01,3.46-1.9,0-2.75-1.37-2.75-3.2,0-5.22,7.07-7.17,11.26-7.17,8.05,0,10.73,4.04,10.73,11.41v14.22M344.98,57.96c2.88,0,6.41-2.48,6.41-4.04v-11.22c-4.38,1.83-11.97,3.85-11.97,9.72,0,3.52,1.96,5.54,5.56,5.54Z"></path>
    <path class="cls-1" d="M367.02,20.82c0-2.17-2.04-2.57-4-2.57h-1.46v-1.15c3.72-.72,8.62-2.14,11.64-3v41.39c0,3.89,1.47,4.42,5.19,4.42v1.32h-16.57v-1.32c3.72,0,5.19-.53,5.19-4.42V20.82"></path>
    <path class="cls-1" d="M380.85,32.36c4-.59,7.93-1.98,11.37-3.04v25.98c0,3.9,1.47,4.43,5.19,4.43v1.32h-16.56v-1.32c3.72,0,5.19-.53,5.19-4.43v-17.98c0-2.51-1.05-3.09-4.28-3.09l-.91-.02v-1.85"></path>
    <path class="cls-1" d="M112.56,59.76c3.37,0,4.75-.53,4.75-4.42v-17.96c0-2.51-.99-3.63-4.03-3.63h-.73v-1.32c3.63-.59,7.33-1.98,10.56-3.04v5.15c3.1-2.44,6.14-5.15,10.3-5.15s6.27,1.78,7.86,5.48c4.49-3.7,7.39-5.48,10.76-5.48,5.22,0,8.32,2.84,8.32,10.83v15.12c0,3.9,1.39,4.42,4.75,4.42v1.32h-15.45v-1.32c3.5,0,4.89-.53,4.89-4.42v-15.32c0-4.69-2.44-6.54-5.81-6.54-2.18,0-4.82,1.25-7,3.3v18.56c0,3.9,1.39,4.42,4.75,4.42v1.32h-15.45v-1.32c3.5,0,4.89-.53,4.89-4.42v-15.32c0-4.69-2.44-6.54-5.81-6.54-2.71,0-5.02,1.58-7,3.3v18.56c0,3.9,1.39,4.42,4.89,4.42v1.32h-15.45v-1.32"></path>
    <path class="cls-1" d="M179.98,61.74c-9.24,0-15.78-6.93-15.78-16.05s6.8-16.31,15.78-16.31c10.1,0,15.91,6.34,15.91,16.31,0,8.98-6.93,16.05-15.91,16.05M181.23,59.76c5.88,0,8.32-6.6,8.32-11.49,0-7.07-2.05-16.9-10.04-16.9-6.74,0-8.98,6.14-8.98,12.02,0,6.41,2.64,16.38,10.7,16.38Z"></path>
    <path class="cls-1" d="M229.08,61.74c-9.36,0-15.98-7.02-15.98-16.24s6.89-16.51,15.98-16.51c10.23,0,16.11,6.42,16.11,16.51,0,9.09-7.02,16.24-16.11,16.24M230.35,59.74c5.95,0,8.42-6.69,8.42-11.63,0-7.15-2.07-17.11-10.16-17.11-6.82,0-9.09,6.22-9.09,12.17,0,6.48,2.67,16.58,10.83,16.58Z"></path>
    <path class="cls-1" d="M244.45,59.74c5.08-.27,5.28-1.2,5.28-6.15v-14.64c0-4.81-.6-5.41-5.28-5.41v-1.34c3.68-.94,7.42-2.01,10.83-3.21h.33v5.95c1.94-2.14,5.08-5.95,8.36-5.95,2,0,3.94,1.2,3.94,3.41,0,1.74-1.54,3.01-3.21,3.01-1.07,0-1.74-.47-2.27-.94-.54-.47-1-.93-1.8-.93-2.41,0-5.01,4.28-5.01,4.61v15.58c0,5.28.73,6.02,5.68,6.02v1.34h-16.84v-1.34"></path>
    <path class="cls-1" d="M388.72,13.89c2.1,0,3.79,1.6,3.79,3.61s-1.68,3.61-3.79,3.61-3.79-1.6-3.79-3.61,1.68-3.61,3.79-3.61"></path>
    <path class="cls-1" d="M397.64,31.74v-.92c3.9-2.17,7.29-6,9.11-10.41h1.3v9.36h7.22v1.98h-7.22v20.49c0,4.81,1.89,5.47,3.45,5.47s3.12-1.19,4.1-2.31l1.11.72c-2.15,2.83-4.43,5.27-8.13,5.27-5.6,0-6.25-4.41-6.25-9.09v-20.55h-4.69"></path>
    <path class="cls-1" d="M432.45,29.85v1.29c-2.97,0-3.99.71-3.99,2.06,0,.84.41,1.93,1.01,3.35l7.16,16.42,5.6-15.52c1.01-2.58,1.08-3.48,1.08-4.25,0-1.8-2.09-2.06-3.71-2.06v-1.29h10.19v1.29c-2.7.39-3.31,2.77-4.32,5.34l-9.79,25.24c-1.82,4.71-3.98,9.6-7.02,11.92-1.42,1.09-3.17,1.54-5.06,1.54-2.09,0-4.12-1.16-4.12-3.15,0-1.8,1.28-3.03,3.17-3.03,2.36,0,2.7,1.29,4.79,1.29,2.56,0,4.12-4.31,5.4-7.54l.81-2.06-11.48-25.5c-.95-2.06-1.82-3.86-4.25-4.06v-1.29h14.52"></path>
    <path class="cls-1" d="M31.32,24.27c1.38-2.81,4.13-4.61,7.47-4.61,2.53,0,4.82,1.11,6.37,2.87,1.55-1.76,3.82-2.87,6.35-2.87,4.67,0,8.4,3.79,8.4,8.46v3.44c3.38-7.01,10.57-11.84,18.87-11.84,11.55,0,20.86,9.37,20.86,20.92v35.61s-20.9,0-20.9,0c-13.66,0-25.61-7.69-31.58-18.98l.04-.05v4.38h-29.42v-20.98l-.02-.04C17.75,29.57,10.15,20.3.06,17.47V.06h.25c13.97,2.27,25.6,11.58,31.01,24.21"></path>
    <path class="cls-4" d="M31.32,24.27c1.38-2.81,4.13-4.61,7.47-4.61,2.53,0,4.82,1.11,6.37,2.87,1.55-1.76,3.82-2.87,6.35-2.87,4.67,0,8.4,3.79,8.4,8.46v3.44c3.38-7.01,10.57-11.84,18.87-11.84,11.55,0,20.86,9.37,20.86,20.92v35.61s-20.9,0-20.9,0c-13.66,0-25.61-7.69-31.58-18.98l.04-.05v4.38h-29.42v-20.98l-.02-.04C17.75,29.57,10.15,20.3.06,17.47V.06h.25c13.97,2.27,25.6,11.58,31.01,24.21Z"></path>
    <path class="cls-3" d="M32.41,38.49v-10.41c0-3.52,2.85-6.31,6.37-6.31s6.37,2.85,6.37,6.37c0-3.52,2.85-6.37,6.37-6.37s6.34,2.79,6.34,6.31v12.52c0,11.55,9.37,20.93,20.92,20.93h3.97v12.52l-4.01.04c-17.87,0-32.68-14.11-33.72-31.73,0-.05,0,.05,0,0-.03-.61,0,17.01,0,17.01h-25.04v-18.84c0-11.56-7.38-21.38-17.75-24.9V2.72l.09-.06c16.13,3.6,28.38,17.28,29.96,34.07.11,1.21.15,1.76.15,1.76"></path>
    <path class="cls-3" d="M97.51,74.04h-12.53v-14.66h-6.23c-10.41-.01-18.85-8.45-18.85-18.86s8.44-18.85,18.85-18.85,18.78,8.44,18.78,18.85l-.02,33.52"></path>
    <path class="cls-1" d="M97.09,19.54c1.38,0,2.47,1.12,2.47,2.52s-1.1,2.53-2.48,2.53-2.5-1.11-2.5-2.53,1.12-2.52,2.5-2.52h.01M97.08,19.94c-1.11,0-2.02.95-2.02,2.13s.91,2.14,2.03,2.14c1.12.01,2.02-.94,2.02-2.13s-.89-2.14-2.02-2.14h-.01ZM96.61,23.53h-.45v-2.81c.23-.03.46-.07.79-.07.43,0,.71.09.87.21.17.12.26.31.26.58,0,.37-.25.59-.55.68v.02c.25.04.41.27.47.68.07.44.13.6.18.69h-.47c-.07-.09-.13-.35-.19-.72-.07-.36-.25-.49-.6-.49h-.31v1.21ZM96.61,21.97h.33c.37,0,.68-.13.68-.48,0-.25-.18-.49-.68-.49-.15,0-.25.01-.33.02v.95Z"></path>
  </g>
</svg>
