<?xml version="1.0" encoding="UTF-8"?>
<svg id="Livello_2" xmlns="http://www.w3.org/2000/svg" version="1.1" viewBox="0 0 449.73 90.44">
  <!-- Generator: Adobe Illustrator 30.5.0, SVG Export Plug-In . SVG Version: 2.1.4 Build 167)  -->
  <defs>
    <style>
      .st0 {
        fill: none;
      }

      .st1 {
        fill: #fff;
      }

      .st2 {
        fill: #ffed00;
      }

      .st3 {
        fill: #e30613;
      }
    </style>
  </defs>
  <g id="Livello_1-2">
    <polyline class="st3" points="122.04 81.59 115.21 81.59 118.69 80.24 132.44 80.25 128.97 81.6 124.85 81.6 119.94 90.19 117.12 90.19 122.04 81.59"/>
    <polyline class="st3" points="128.25 90.2 133.94 80.25 147.66 80.26 144.29 81.61 135.98 81.6 134.36 84.44 143.97 84.45 140.55 85.8 133.59 85.79 131.84 88.85 142.74 88.86 139.38 90.21 128.25 90.2"/>
    <polyline class="st3" points="149.37 81.61 152.91 80.27 162.57 80.27 164.4 81.62 152.19 81.61 148.05 88.86 160.42 88.88 157.05 90.22 147.22 90.21 145.23 88.86 149.37 81.61"/>
    <polyline class="st3" points="167.8 80.11 170.27 80.73 168.13 84.47 176.31 84.47 178.8 80.12 181.26 80.74 175.83 90.24 173.01 90.23 175.53 85.82 167.36 85.82 164.84 90.23 162.02 90.23 167.8 80.11"/>
    <polyline class="st3" points="185.35 80.74 188.35 80.13 193.45 87.78 193.5 87.78 197.52 80.75 200.52 80.14 194.74 90.25 192.06 90.25 187.01 82.57 186.95 82.57 182.56 90.24 179.91 90.24 185.35 80.74"/>
    <path class="st3" d="M203.57,81.66l3.42-1.35h9.86l1.88,1.36-4.14,7.25-3.42,1.34h-9.85l-1.88-1.36,4.14-7.25M202.25,88.91h9.53l4.14-7.24h-9.52l-4.15,7.24"/>
    <polyline class="st3" points="223.69 80.15 226.15 80.77 221.49 88.92 230.13 88.93 226.68 90.28 217.9 90.27 223.69 80.15"/>
    <path class="st3" d="M235.77,81.68l3.42-1.35h9.86l1.88,1.36-4.14,7.25-3.42,1.35h-9.86l-1.88-1.36,4.14-7.25M234.44,88.93h9.53l4.15-7.25h-9.53l-4.15,7.25"/>
    <polyline class="st3" points="254.68 81.7 258.38 80.35 270.59 80.36 266.94 81.7 257.5 81.7 253.36 88.95 262.58 88.96 264.27 86 257.64 86 261.12 84.65 267.86 84.66 265.4 88.96 261.97 90.3 252.53 90.3 250.54 88.95 254.68 81.7"/>
    <polyline class="st3" points="274.25 80.19 277.53 84.61 285.79 80.2 287.73 80.96 278.21 85.93 275.7 90.32 272.88 90.31 275.39 85.93 271.44 80.95 274.25 80.19"/>
    <polyline class="st3" points="298.59 80.38 312.56 80.39 309.2 81.74 300.64 81.73 298.95 84.68 308.61 84.69 305.14 86.03 298.18 86.03 295.72 90.33 292.9 90.33 298.59 80.38"/>
    <path class="st3" d="M313.01,81.74l3.42-1.35h9.86l1.89,1.36-4.15,7.25-3.42,1.35h-9.86l-1.88-1.36,4.15-7.25M311.68,88.99h9.53l4.15-7.24h-9.53l-4.15,7.24"/>
    <path class="st3" d="M332.86,80.41h12.46l1.81,1.28-1.6,2.81-2.56.76,1.64.84-2.44,4.27h-2.81l2.49-4.36h-9.36l-2.49,4.35h-2.82l5.69-9.95M333.25,84.65h9.36l1.65-2.89h-9.36l-1.66,2.89"/>
    <polyline class="st3" points="359.76 81.78 363.24 80.43 377.05 80.44 373.51 81.79 362.57 81.78 360.97 84.59 370.19 84.6 372.08 86.03 370.41 88.96 366.88 90.39 353.29 90.38 356.66 89.03 367.54 89.04 369.31 85.95 359.92 85.94 358.1 84.67 359.76 81.78"/>
    <path class="st3" d="M379.39,80.45h12.21l1.77,1.36-2.06,3.6-3.31,1.35h-9.39l-2.09,3.65h-2.82l5.69-9.95M379.38,85.39h9.11l2.06-3.59h-9.11l-2.06,3.59"/>
    <path class="st3" d="M396.35,81.81l3.42-1.35h9.86l1.88,1.36-4.15,7.25-3.42,1.35h-9.86l-1.88-1.36,4.14-7.25M395.02,89.06h9.52l4.15-7.24h-9.53l-4.14,7.24"/>
    <path class="st3" d="M416.2,80.47h12.45l1.82,1.27-1.61,2.81-2.55.76,1.64.84-2.45,4.27h-2.81l2.49-4.36h-9.36l-2.49,4.35h-2.82l5.69-9.95M416.58,84.72h9.37l1.65-2.89h-9.36l-1.66,2.89"/>
    <polyline class="st3" points="438.57 81.84 431.75 81.83 435.22 80.49 448.98 80.5 445.5 81.84 441.38 81.84 436.47 90.44 433.65 90.44 438.57 81.84"/>
    <path class="st1" d="M194.4,31.9v-.92c3.91-2.17,7.29-6,9.11-10.41h1.3v9.35h7.22v1.98h-7.22v20.49c0,4.81,1.89,5.47,3.45,5.47s3.13-1.19,4.1-2.31l1.11.73c-2.15,2.83-4.43,5.27-8.14,5.27-5.6,0-6.25-4.41-6.25-9.09v-20.55h-4.69"/>
    <path class="st1" d="M294.59,70.74c0,3.66,2.07,3.72,5.4,3.72v1.3h-16.74v-1.3c2.93,0,5.47-.07,5.47-3.72v-14.17c-3,2.81-6.67,4.57-10.8,4.57-8.27,0-11.74-7.64-11.74-14.75,0-9.4,5.74-17.23,15.74-17.23,3.67,0,6.2,2.02,7.6,2.02,1.67,0,3.6-1.44,5.07-2.02v41.59M282.39,57.1c1.73,0,6.33-1.63,6.33-3.65v-16.65c0-4.9-4.13-5.68-6.67-5.68-7.27,0-10,6.46-10,12.79s2.8,13.19,10.34,13.19h0Z"/>
    <path class="st1" d="M326.86,54.03c0,2.7,2.27,3.03,4.67,3.09v1.32c-3.37.86-6.81,1.71-9.92,2.89h-.26v-5.39c-2.79,2.76-5.38,5.39-9.6,5.39-5.25,0-8.88-2.7-8.88-8.16v-18.62c0-3.16-2.53-4.22-4.67-4.22v-1.25h10.38v21.98c0,3.55,1.82,6.18,5.64,6.18,3.37,0,6.16-2.63,6.94-4.14v-18.55c0-3.16-2.53-4.19-4.67-4.19v-1.28h10.37v24.95"/>
    <path class="st1" d="M357.09,54.84c0,1.37.13,3.07,1.9,3.07.98,0,1.83-.78,2.42-1.5l.79.71c-1.64,2.54-3.73,4.04-6.87,4.04-2.29,0-3.73-2.22-3.86-4.3-3.08,2.28-6.54,4.3-10.53,4.3s-7.33-3.07-7.33-7.17c0-4.37,3.14-7.17,6.94-9.13,3.27-1.7,7.92-2.93,10.8-3.85v-3.39c0-2.93-.72-6.46-5.56-6.46-1.7,0-4.97.59-5.04,2.8-.07.72.13,1.43.13,2.15,0,1.89-.85,3.46-3.01,3.46-1.9,0-2.75-1.37-2.75-3.2,0-5.22,7.07-7.17,11.26-7.17,8.05,0,10.73,4.04,10.73,11.41v14.22M344.92,57.9c2.88,0,6.41-2.48,6.41-4.04v-11.22c-4.38,1.83-11.97,3.85-11.97,9.72,0,3.52,1.96,5.54,5.56,5.54Z"/>
    <path class="st1" d="M366.96,20.76c0-2.17-2.04-2.57-4-2.57h-1.46v-1.15c3.72-.72,8.62-2.14,11.64-3v41.39c0,3.89,1.47,4.42,5.19,4.42v1.32h-16.57v-1.32c3.72,0,5.19-.53,5.19-4.42V20.76"/>
    <path class="st1" d="M380.79,32.3c4-.59,7.93-1.98,11.37-3.04v25.98c0,3.9,1.47,4.43,5.19,4.43v1.32h-16.56v-1.32c3.72,0,5.19-.53,5.19-4.43v-17.98c0-2.51-1.05-3.09-4.28-3.09l-.91-.02v-1.85"/>
    <path class="st1" d="M112.5,59.7c3.37,0,4.75-.53,4.75-4.42v-17.96c0-2.51-.99-3.63-4.03-3.63h-.73v-1.32c3.63-.59,7.33-1.98,10.56-3.04v5.15c3.1-2.44,6.14-5.15,10.3-5.15s6.27,1.78,7.86,5.48c4.49-3.7,7.39-5.48,10.76-5.48,5.22,0,8.32,2.84,8.32,10.83v15.12c0,3.9,1.39,4.42,4.75,4.42v1.32h-15.45v-1.32c3.5,0,4.89-.53,4.89-4.42v-15.32c0-4.69-2.44-6.54-5.81-6.54-2.18,0-4.82,1.25-7,3.3v18.56c0,3.9,1.39,4.42,4.75,4.42v1.32h-15.45v-1.32c3.5,0,4.89-.53,4.89-4.42v-15.32c0-4.69-2.44-6.54-5.81-6.54-2.71,0-5.02,1.58-7,3.3v18.56c0,3.9,1.39,4.42,4.89,4.42v1.32h-15.45v-1.32"/>
    <path class="st1" d="M179.92,61.68c-9.24,0-15.78-6.93-15.78-16.05s6.8-16.31,15.78-16.31c10.1,0,15.91,6.34,15.91,16.31,0,8.98-6.93,16.05-15.91,16.05M181.17,59.7c5.88,0,8.32-6.6,8.32-11.49,0-7.07-2.05-16.9-10.04-16.9-6.74,0-8.98,6.14-8.98,12.02,0,6.41,2.64,16.38,10.7,16.38h0Z"/>
    <path class="st1" d="M229.02,61.68c-9.36,0-15.98-7.02-15.98-16.24s6.89-16.51,15.98-16.51c10.23,0,16.11,6.42,16.11,16.51,0,9.09-7.02,16.24-16.11,16.24M230.29,59.68c5.95,0,8.42-6.69,8.42-11.63,0-7.15-2.07-17.11-10.16-17.11-6.82,0-9.09,6.22-9.09,12.17,0,6.48,2.67,16.58,10.83,16.58h0Z"/>
    <path class="st1" d="M244.39,59.68c5.08-.27,5.28-1.2,5.28-6.15v-14.64c0-4.81-.6-5.41-5.28-5.41v-1.34c3.68-.94,7.42-2.01,10.83-3.21h.33v5.95c1.94-2.14,5.08-5.95,8.36-5.95,2,0,3.94,1.2,3.94,3.41,0,1.74-1.54,3.01-3.21,3.01-1.07,0-1.74-.47-2.27-.94-.54-.47-1-.93-1.8-.93-2.41,0-5.01,4.28-5.01,4.61v15.58c0,5.28.73,6.02,5.68,6.02v1.34h-16.84v-1.34"/>
    <path class="st1" d="M388.66,13.83c2.1,0,3.79,1.6,3.79,3.61s-1.68,3.61-3.79,3.61-3.79-1.6-3.79-3.61,1.68-3.61,3.79-3.61"/>
    <path class="st1" d="M397.58,31.68v-.92c3.9-2.17,7.29-6,9.11-10.41h1.3v9.36h7.22v1.98h-7.22v20.49c0,4.81,1.89,5.47,3.45,5.47s3.12-1.19,4.1-2.31l1.11.72c-2.15,2.83-4.43,5.27-8.13,5.27-5.6,0-6.25-4.41-6.25-9.09v-20.55h-4.69"/>
    <path class="st1" d="M432.39,29.79v1.29c-2.97,0-3.99.71-3.99,2.06,0,.84.41,1.93,1.01,3.35l7.16,16.42,5.6-15.52c1.01-2.58,1.08-3.48,1.08-4.25,0-1.8-2.09-2.06-3.71-2.06v-1.29h10.19v1.29c-2.7.39-3.31,2.77-4.32,5.34l-9.79,25.24c-1.82,4.71-3.98,9.6-7.02,11.92-1.42,1.09-3.17,1.54-5.06,1.54-2.09,0-4.12-1.16-4.12-3.15,0-1.8,1.28-3.03,3.17-3.03,2.36,0,2.7,1.29,4.79,1.29,2.56,0,4.12-4.31,5.4-7.54l.81-2.06-11.48-25.5c-.95-2.06-1.82-3.86-4.25-4.06v-1.29h14.52"/>
    <path class="st1" d="M31.26,24.21c1.38-2.81,4.13-4.61,7.47-4.61,2.53,0,4.82,1.11,6.37,2.87,1.55-1.76,3.82-2.87,6.35-2.87,4.67,0,8.4,3.79,8.4,8.46v3.44c3.38-7.01,10.57-11.84,18.87-11.84,11.55,0,20.86,9.37,20.86,20.92v35.61h-20.9c-13.66,0-25.61-7.69-31.58-18.98l.04-.05v4.38h-29.42v-20.98l-.02-.04c0-11.01-7.61-20.28-17.7-23.11V0h.25c13.97,2.27,25.6,11.58,31.01,24.21"/>
    <path class="st0" d="M31.26,24.21c1.38-2.81,4.13-4.61,7.47-4.61,2.53,0,4.82,1.11,6.37,2.87,1.55-1.76,3.82-2.87,6.35-2.87,4.67,0,8.4,3.79,8.4,8.46v3.44c3.38-7.01,10.57-11.84,18.87-11.84,11.55,0,20.86,9.37,20.86,20.92v35.61h-20.9c-13.66,0-25.61-7.69-31.58-18.98l.04-.05v4.38h-29.42v-20.98l-.02-.04c0-11.01-7.61-20.28-17.7-23.11V0h.25c13.97,2.27,25.6,11.58,31.01,24.21Z"/>
    <path class="st2" d="M32.35,38.43v-10.41c0-3.52,2.85-6.31,6.37-6.31s6.37,2.85,6.37,6.37c0-3.52,2.85-6.37,6.37-6.37s6.34,2.79,6.34,6.31v12.52c0,11.55,9.37,20.93,20.92,20.93h3.97v12.52l-4.01.04c-17.87,0-32.68-14.11-33.72-31.73,0-.05,0,.05,0,0-.03-.61,0,17.01,0,17.01h-25.04v-18.84c0-11.56-7.38-21.38-17.75-24.9V2.66l.09-.06c16.13,3.6,28.38,17.28,29.96,34.07.11,1.21.15,1.76.15,1.76"/>
    <path class="st2" d="M97.45,73.98h-12.53v-14.66h-6.23c-10.41,0-18.85-8.45-18.85-18.86s8.44-18.85,18.85-18.85,18.78,8.44,18.78,18.85l-.02,33.52"/>
    <path class="st1" d="M97.03,19.48c1.38,0,2.47,1.12,2.47,2.52s-1.1,2.53-2.48,2.53-2.5-1.11-2.5-2.53,1.12-2.52,2.5-2.52h.01M97.02,19.88c-1.11,0-2.02.95-2.02,2.13s.91,2.14,2.03,2.14c1.12.01,2.02-.94,2.02-2.13s-.89-2.14-2.02-2.14c0,0-.01,0-.01,0ZM96.55,23.47h-.45v-2.81c.23-.03.46-.07.79-.07.43,0,.71.09.87.21.17.12.26.31.26.58,0,.37-.25.59-.55.68v.02c.25.04.41.27.47.68.07.44.13.6.18.69h-.47c-.07-.09-.13-.35-.19-.72-.07-.36-.25-.49-.6-.49h-.31v1.23ZM96.55,21.91h.33c.37,0,.68-.13.68-.48,0-.25-.18-.49-.68-.49-.15,0-.25.01-.33.02,0,0,0,.95,0,.95Z"/>
  </g>
</svg>