<?xml version="1.0" encoding="utf-8"?>
<!DOCTYPE svg PUBLIC "-//W3C//DTD SVG 20010904//EN" "http://www.w3.org/TR/2001/REC-SVG-20010904/DTD/svg10.dtd">
<svg version="1.0" xmlns="http://www.w3.org/2000/svg" width="223pt" height="79pt" viewBox="0 0 223 79" preserveAspectRatio="xMidYMid meet">
<g fill="#1452ACFF">
<path d="M 123.20 48.31 C 121.93 48.05 120.52 46.87 120.07 45.67 C 119.27 43.58 119.57 32.82 120.49 30.25 C 121.11 28.53 137.00 28.48 137.00 30.20 C 137.00 31.13 137.27 31.13 138.20 30.20 C 138.94 29.46 142.55 29.00 147.58 29.00 C 157.74 29.00 158.42 29.63 158.09 38.76 C 157.74 48.50 157.29 49.00 148.90 49.00 C 138.61 49.00 138.00 48.47 138.00 39.46 L 138.00 32.00 L 130.50 32.00 L 123.00 32.00 L 123.00 38.50 L 123.00 45.00 L 130.07 45.00 C 136.27 45.00 137.11 45.22 136.81 46.75 C 136.55 48.14 135.36 48.53 130.99 48.64 C 127.97 48.71 124.46 48.56 123.20 48.31ZM 154.07 44.25 C 154.12 43.84 154.36 42.38 154.62 41.00 C 154.88 39.62 154.83 37.02 154.49 35.20 L 153.89 31.91 L 147.70 32.20 L 141.50 32.50 L 141.19 37.37 C 140.73 44.62 141.07 45.00 147.97 45.00 C 151.29 45.00 154.03 44.66 154.07 44.25Z"/></g>
<g fill="#A4AAACFF">
<path d="M 65.00 71.37 C 54.92 70.01 31.11 64.51 30.02 63.30 C 29.74 62.98 31.07 63.02 33.00 63.39 C 44.04 65.53 54.73 67.08 64.00 67.89 C 76.83 69.01 116.37 68.50 128.00 67.06 C 145.57 64.90 158.88 62.62 158.41 61.86 C 158.15 61.43 159.96 61.25 162.45 61.46 C 164.94 61.67 167.23 61.44 167.53 60.94 C 167.85 60.43 168.93 60.56 170.00 61.23 C 171.60 62.23 172.31 62.06 174.29 60.20 L 176.67 57.96 L 176.50 60.23 C 176.36 62.18 175.33 62.73 168.92 64.24 C 159.95 66.35 136.23 69.94 130.00 70.13 C 125.61 70.26 125.59 70.28 129.00 70.88 C 130.93 71.22 120.91 71.34 106.75 71.15 C 88.48 70.90 81.00 71.12 81.00 71.90 C 81.00 73.26 78.31 73.18 65.00 71.37Z"/></g>
<g fill="#1452ACFF">
<path d="M 44.75 48.28 C 43.24 48.05 41.95 47.56 41.88 47.18 C 41.14 42.94 41.35 31.28 42.18 30.28 C 43.79 28.34 59.00 28.50 59.00 30.45 C 59.00 31.55 57.35 31.98 52.25 32.20 C 46.12 32.47 45.47 32.71 45.18 34.75 C 44.87 36.90 45.17 37.00 52.01 37.00 C 57.29 37.00 59.06 37.33 58.76 38.25 C 58.51 39.00 55.79 39.70 51.92 40.00 C 46.28 40.44 45.46 40.76 45.19 42.67 C 44.90 44.70 45.35 44.86 52.19 45.17 C 56.21 45.35 62.76 45.37 66.75 45.21 C 73.66 44.93 74.00 44.80 74.00 42.50 C 74.00 40.25 73.60 40.08 67.76 39.80 L 61.53 39.50 L 60.87 35.50 C 59.90 29.63 61.00 28.87 69.91 29.21 C 78.85 29.55 79.69 31.27 71.27 32.00 C 66.23 32.44 65.46 32.78 65.18 34.75 C 64.88 36.85 65.23 37.00 70.46 37.00 C 75.42 37.00 76.15 37.27 76.95 39.37 C 78.14 42.51 77.59 47.01 75.88 48.10 C 73.81 49.41 62.58 49.18 61.20 47.80 C 60.27 46.87 59.73 46.87 58.80 47.80 C 57.66 48.94 50.69 49.18 44.75 48.28Z"/></g>
<g fill="#A4AAACFF">
<path d="M 56.50 64.97 C 45.79 63.75 43.75 63.30 48.31 63.14 C 50.40 63.06 51.87 62.60 51.56 62.10 C 51.26 61.61 51.71 60.94 52.57 60.61 C 53.44 60.28 53.81 59.50 53.41 58.85 C 52.95 58.11 53.13 57.96 53.89 58.43 C 54.83 59.01 54.83 59.50 53.90 60.62 C 52.88 61.85 53.10 61.91 55.39 61.04 C 57.53 60.23 58.19 60.33 58.66 61.56 C 59.13 62.79 60.83 63.06 67.04 62.91 C 73.72 62.75 74.75 62.49 74.28 61.11 C 73.87 59.91 74.10 59.97 75.19 61.36 C 76.37 62.88 77.47 63.11 81.01 62.62 C 83.41 62.28 85.75 61.44 86.21 60.75 C 86.84 59.79 87.35 59.91 88.37 61.23 C 89.10 62.19 89.99 62.68 90.35 62.32 C 90.71 61.96 91.00 62.19 91.00 62.83 C 91.00 63.47 91.48 64.00 92.06 64.00 C 92.64 64.00 92.91 63.66 92.65 63.25 C 92.09 62.33 97.23 62.40 98.73 63.33 C 99.32 63.70 100.74 62.54 101.89 60.75 C 103.03 58.96 103.97 58.06 103.98 58.75 C 103.99 59.44 105.15 60.00 106.56 60.00 C 108.24 60.00 108.87 60.40 108.40 61.15 C 107.96 61.88 108.13 62.04 108.88 61.58 C 109.75 61.04 109.48 59.85 107.91 57.17 L 105.76 53.50 L 108.34 56.50 C 109.76 58.15 110.94 59.81 110.96 60.19 C 110.98 60.57 112.24 60.76 113.75 60.62 C 115.26 60.47 117.11 60.82 117.86 61.39 C 118.85 62.15 119.56 61.95 120.51 60.66 C 121.39 59.45 121.93 59.28 122.21 60.12 C 122.65 61.46 126.91 62.13 128.50 61.11 C 130.07 60.10 133.30 60.40 133.70 61.59 C 134.63 64.40 74.70 67.03 56.50 64.97ZM 106.00 61.84 C 106.00 61.38 105.55 61.00 105.00 61.00 C 104.45 61.00 103.66 61.00 103.25 61.00 C 102.84 61.00 102.49 61.34 102.48 61.75 C 102.48 62.16 102.11 63.07 101.67 63.76 C 101.04 64.76 101.40 64.77 103.44 63.85 C 104.85 63.20 106.00 62.30 106.00 61.84Z"/></g>
<g fill="#1452ACFF">
<path d="M 160.66 48.26 C 160.37 47.79 160.44 43.38 160.82 38.46 L 161.50 29.50 L 171.35 29.21 C 176.77 29.05 181.73 29.36 182.37 29.89 C 183.09 30.49 183.52 34.17 183.52 39.68 C 183.50 47.83 183.35 48.50 181.50 48.50 C 179.68 48.50 179.50 47.83 179.50 41.00 L 179.50 33.50 L 176.50 33.50 L 173.50 33.50 L 173.41 40.00 C 173.29 48.70 173.22 49.00 171.54 49.00 C 170.42 49.00 170.02 47.24 169.79 41.25 C 169.51 33.73 169.43 33.50 167.00 33.50 C 164.60 33.50 164.48 33.81 164.00 40.92 C 163.55 47.64 162.16 50.69 160.66 48.26Z"/></g>
<g fill="#1452ACFF">
<path d="M 37.28 48.26 C 36.61 48.04 35.77 46.31 35.42 44.43 C 34.79 41.08 34.66 41.00 29.89 41.00 L 25.00 41.00 L 25.00 44.50 C 25.00 48.09 22.78 49.47 21.66 46.56 C 20.99 44.81 21.69 31.31 22.52 29.96 C 22.85 29.43 26.23 29.00 30.02 29.00 C 35.92 29.00 37.09 29.29 38.01 31.01 C 39.52 33.83 38.89 48.80 37.28 48.26ZM 34.82 35.25 C 34.53 32.73 34.10 32.47 29.75 32.20 C 25.05 31.89 25.00 31.92 25.00 34.95 C 25.00 37.95 25.08 38.00 30.07 38.00 C 35.00 38.00 35.12 37.93 34.82 35.25Z"/></g>
<g fill="#A4AAACFF">
<path d="M 189.68 59.34 C 189.31 58.98 189.51 58.10 190.10 57.38 C 190.70 56.66 191.00 55.50 190.77 54.81 C 190.53 54.09 192.39 52.62 195.19 51.32 C 207.17 45.77 213.77 38.78 212.50 32.98 C 211.61 28.93 207.76 24.53 202.35 21.36 C 196.37 17.85 197.43 17.27 203.60 20.67 C 211.14 24.83 215.16 28.14 214.56 29.71 C 214.26 30.48 214.42 30.86 214.90 30.56 C 215.38 30.27 216.30 30.65 216.94 31.42 C 217.73 32.38 217.77 33.03 217.05 33.47 C 216.47 33.83 216.00 35.24 216.00 36.61 C 216.00 40.12 213.62 44.30 209.79 47.53 C 207.98 49.05 206.50 50.64 206.50 51.06 C 206.50 51.49 206.09 52.21 205.59 52.67 C 205.05 53.16 205.01 52.93 205.48 52.12 C 206.03 51.17 205.85 50.90 204.89 51.25 C 204.13 51.52 203.62 52.29 203.77 52.95 C 203.93 53.61 203.63 53.89 203.12 53.58 C 202.61 53.26 199.34 54.35 195.85 56.00 C 192.36 57.65 190.62 58.74 192.00 58.43 C 193.94 58.00 194.16 58.10 193.00 58.92 C 191.24 60.15 190.57 60.24 189.68 59.34Z"/></g>
<g fill="#1452ACFF">
<path d="M 82.75 48.92 C 81.79 48.36 81.00 47.25 81.00 46.45 C 81.00 45.33 82.49 45.00 87.50 45.00 C 93.73 45.00 94.00 44.90 94.00 42.55 C 94.00 40.24 93.64 40.08 87.75 39.80 L 81.50 39.50 L 81.50 34.50 L 81.50 29.50 L 89.85 29.21 C 96.32 28.98 98.10 29.21 97.77 30.21 C 97.51 31.01 94.91 31.69 90.92 32.00 C 85.25 32.44 84.46 32.76 84.19 34.70 C 83.90 36.74 84.33 36.92 90.15 37.20 C 96.37 37.50 96.43 37.53 97.10 40.82 C 98.30 46.72 97.38 48.00 91.94 48.00 C 89.29 48.00 86.84 48.45 86.50 49.00 C 85.73 50.24 84.99 50.22 82.75 48.92Z"/></g>
<g fill="#1452ACFF">
<path d="M 101.13 45.75 C 100.07 42.86 100.54 31.06 101.76 29.84 C 103.01 28.59 117.57 29.21 117.27 30.50 C 117.14 31.05 113.99 31.73 110.27 32.00 C 104.19 32.45 103.47 32.73 103.18 34.75 C 102.87 36.90 103.17 37.00 109.93 37.00 C 115.55 37.00 117.00 37.31 117.00 38.50 C 117.00 39.69 115.55 40.00 109.93 40.00 C 103.17 40.00 102.87 40.10 103.18 42.25 C 103.47 44.29 104.12 44.53 110.25 44.80 C 115.35 45.02 117.00 45.45 117.00 46.55 C 117.00 47.69 115.39 48.00 109.48 48.00 C 102.58 48.00 101.88 47.81 101.13 45.75Z"/></g>
<g fill="#4A5965FF">
<path d="M 124.00 72.31 C 150.50 70.76 188.00 63.14 188.00 59.30 C 188.00 58.51 188.68 57.18 189.50 56.36 C 190.32 55.53 191.00 55.25 191.00 55.73 C 191.00 56.21 190.51 57.09 189.91 57.69 C 189.13 58.47 189.13 58.96 189.92 59.45 C 191.71 60.56 205.32 53.42 210.79 48.50 C 213.71 45.87 216.36 42.43 217.03 40.40 C 218.54 35.82 219.25 36.51 217.93 41.28 C 215.68 49.46 205.57 56.55 187.66 62.53 C 170.42 68.28 140.17 73.25 125.01 72.82 L 118.50 72.63 L 124.00 72.31Z"/></g>
<g fill="#A4AAACFF">
<path d="M 168.48 52.92 C 168.11 51.78 168.08 50.58 168.41 50.26 C 168.73 49.93 169.00 50.42 169.00 51.34 C 169.00 52.76 169.31 52.83 170.96 51.79 C 172.39 50.90 172.59 50.35 171.71 49.75 C 171.04 49.31 171.81 49.24 173.41 49.62 C 175.54 50.11 176.64 49.85 177.54 48.62 C 178.49 47.32 178.88 47.24 179.27 48.27 C 179.56 49.02 181.61 49.70 183.96 49.84 C 187.80 50.07 188.11 49.90 187.82 47.79 C 187.58 46.09 188.02 45.46 189.50 45.36 C 190.60 45.28 192.09 45.16 192.81 45.11 C 193.58 45.04 193.81 44.49 193.37 43.75 C 192.79 42.79 192.99 42.80 194.20 43.78 C 195.55 44.88 196.55 44.36 200.99 40.28 C 206.33 35.37 207.20 33.04 205.61 28.00 L 204.81 25.50 L 206.52 27.84 C 208.83 30.98 207.87 36.48 204.40 40.10 C 200.76 43.90 188.85 50.09 181.34 52.08 C 176.35 53.40 175.27 53.46 175.69 52.36 C 175.98 51.61 175.72 51.00 175.11 51.00 C 174.50 51.00 174.00 51.48 174.00 52.06 C 174.00 52.64 173.60 52.87 173.10 52.56 C 172.61 52.26 171.95 52.68 171.64 53.51 C 170.82 55.64 169.25 55.35 168.48 52.92Z"/></g>
<g fill="#4A5965FF">
<path d="M 183.45 41.08 C 183.52 32.07 183.98 30.25 185.93 31.46 C 187.46 32.40 187.25 35.00 185.65 35.00 C 184.75 35.00 184.31 36.31 184.31 39.00 C 184.31 42.16 184.68 43.00 186.07 43.00 C 187.04 43.00 188.55 43.27 189.42 43.61 C 190.70 44.10 191.00 43.44 191.00 40.11 C 191.00 36.21 192.91 34.05 193.08 37.75 C 193.13 38.71 193.25 40.74 193.36 42.25 C 193.55 44.75 193.26 45.00 190.17 45.00 C 187.06 45.00 186.83 45.20 187.41 47.50 C 187.94 49.63 187.69 50.00 185.72 50.00 C 183.46 50.00 183.40 49.76 183.45 41.08Z"/></g>
<g fill="#C0C8CDFF">
<path d="M 157.00 55.01 C 157.62 52.84 157.45 52.00 156.33 51.57 C 154.04 50.69 153.33 50.92 155.00 52.00 C 156.25 52.81 156.17 52.99 154.50 53.10 C 153.40 53.18 152.16 53.18 151.75 53.12 C 151.34 53.05 150.99 53.56 150.97 54.25 C 150.95 54.94 150.49 54.72 149.92 53.75 C 149.36 52.79 147.95 52.00 146.78 52.00 C 142.20 52.00 146.47 50.52 151.67 50.31 C 154.71 50.18 157.79 49.59 158.51 48.99 C 159.46 48.20 160.02 48.22 160.54 49.06 C 160.93 49.70 160.64 50.67 159.88 51.21 C 158.88 51.92 159.05 51.98 160.50 51.45 C 161.60 51.04 163.40 50.69 164.50 50.66 C 165.60 50.63 167.05 49.91 167.72 49.05 C 168.47 48.09 168.95 47.96 168.97 48.69 C 168.99 49.35 168.54 50.16 167.98 50.51 C 167.42 50.86 167.23 51.56 167.54 52.07 C 168.38 53.42 166.61 53.21 165.20 51.80 C 164.34 50.94 164.00 50.93 164.00 51.73 C 164.00 52.36 162.76 53.01 161.25 53.18 C 159.39 53.40 158.54 54.05 158.63 55.19 C 158.70 56.12 158.18 57.10 157.47 57.37 C 156.49 57.75 156.38 57.18 157.00 55.01Z"/></g>
<g fill="#A4AAACFF">
<path d="M 49.01 43.97 C 50.18 43.23 49.96 43.02 48.00 43.00 C 46.02 42.98 45.81 42.77 47.00 42.00 C 48.79 40.84 59.33 40.65 58.63 41.79 C 58.36 42.22 59.12 42.67 60.32 42.80 C 61.52 42.92 64.75 43.40 67.50 43.87 C 71.65 44.59 70.38 44.75 60.01 44.82 C 51.83 44.89 48.03 44.59 49.01 43.97Z"/></g>
<g fill="#4A5965FF">
<path d="M 29.00 51.69 C 29.00 50.83 28.21 49.89 27.25 49.58 C 25.96 49.17 25.53 48.03 25.60 45.26 L 25.70 41.50 L 30.60 41.37 L 35.50 41.25 L 30.50 41.97 L 25.50 42.69 L 30.25 42.84 C 34.80 42.99 37.25 45.00 32.89 45.00 C 31.10 45.00 30.84 45.47 31.22 48.02 C 31.48 49.81 31.12 51.49 30.33 52.14 C 29.32 52.98 29.00 52.87 29.00 51.69Z"/></g>
<g fill="#1452ACFF">
<path d="M 183.25 60.29 C 182.01 60.05 181.00 59.22 181.00 58.43 C 181.00 57.64 180.55 57.00 180.00 57.00 C 179.45 57.00 179.00 57.67 179.00 58.50 C 179.00 59.33 178.54 60.00 177.98 60.00 C 177.09 60.00 177.53 55.85 178.64 53.84 C 179.55 52.19 183.00 54.38 183.00 56.62 C 183.00 59.62 184.22 59.69 185.51 56.75 C 186.09 55.44 187.54 54.38 189.00 54.22 C 191.45 53.95 191.46 53.97 189.50 55.52 C 188.40 56.38 187.50 57.82 187.50 58.71 C 187.49 60.54 186.51 60.90 183.25 60.29Z"/></g>
<g fill="#A4AAACFF">
<path d="M 88.65 72.75 C 89.21 71.85 114.20 71.93 122.00 72.85 C 125.09 73.21 118.89 73.50 107.85 73.50 C 97.04 73.50 88.40 73.16 88.65 72.75Z"/></g>
<g fill="#4A5965FF">
<path d="M 173.44 41.75 L 173.50 33.50 L 176.50 33.25 L 179.50 32.99 L 176.97 34.25 C 175.23 35.11 174.42 36.36 174.36 38.25 C 174.31 39.76 174.78 41.01 175.39 41.02 C 176.00 41.02 175.82 41.47 175.00 42.00 C 173.83 42.76 174.11 42.97 176.25 42.98 C 177.76 42.99 179.00 43.45 179.00 44.00 C 179.00 44.55 178.32 45.00 177.48 45.00 C 176.36 45.00 176.13 45.66 176.59 47.50 C 177.10 49.52 176.85 50.00 175.30 50.00 C 173.55 50.00 173.38 49.24 173.44 41.75Z"/></g>
<g fill="#1452ACFF">
<path d="M 61.99 59.50 C 61.97 57.88 61.79 57.78 61.04 58.97 C 60.24 60.23 60.01 60.20 59.45 58.72 C 58.72 56.83 56.85 56.32 57.25 58.12 C 57.39 58.74 56.89 59.47 56.15 59.74 C 55.13 60.11 55.04 59.78 55.77 58.37 C 56.30 57.34 56.53 55.94 56.28 55.25 C 55.96 54.37 57.18 54.00 60.42 54.00 C 65.44 54.00 65.71 54.41 63.51 58.64 C 62.29 60.96 62.01 61.13 61.99 59.50Z"/></g>
<g fill="#C0C8CDFF">
<path d="M 142.62 40.25 L 142.74 35.50 L 147.62 35.36 C 151.80 35.24 152.00 35.31 149.00 35.86 C 146.10 36.39 145.50 36.93 145.50 39.00 C 145.50 40.97 146.13 41.63 148.50 42.12 L 151.50 42.74 L 148.00 42.94 C 145.09 43.11 144.83 43.28 146.50 44.00 C 148.22 44.74 148.08 44.87 145.50 44.93 C 142.56 45.00 142.50 44.90 142.62 40.25Z"/></g>
<g fill="#1452ACFF">
<path d="M 111.90 57.25 C 112.53 54.88 113.21 54.46 116.82 54.19 C 121.30 53.86 122.08 54.99 119.61 58.25 C 118.22 60.08 116.43 60.72 117.49 59.01 C 117.84 58.44 117.44 58.28 116.55 58.62 C 115.70 58.95 115.00 58.72 115.00 58.11 C 115.00 57.50 114.55 57.00 114.00 57.00 C 113.45 57.00 113.00 57.67 113.00 58.50 C 113.00 59.33 112.59 60.00 112.09 60.00 C 111.58 60.00 111.50 58.78 111.90 57.25Z"/></g>
<g fill="#DBD78CFF">
<path d="M 145.50 39.00 C 145.50 36.28 145.81 36.00 148.75 36.00 C 151.69 36.00 152.00 36.28 152.00 39.00 C 152.00 41.72 151.69 42.00 148.75 42.00 C 145.81 42.00 145.50 41.72 145.50 39.00Z"/></g>
<g fill="#1452ACFF">
<path d="M 149.02 59.56 C 149.02 58.98 149.47 57.83 150.00 57.00 C 150.82 55.73 150.97 55.78 150.98 57.31 C 150.99 58.30 151.45 58.84 152.00 58.50 C 152.55 58.16 153.00 57.01 153.00 55.94 C 153.00 54.87 153.50 54.00 154.12 54.00 C 154.78 54.00 155.03 55.05 154.74 56.58 C 154.32 58.80 154.54 59.08 156.37 58.64 C 157.54 58.35 159.30 58.71 160.27 59.43 C 161.79 60.57 161.13 60.74 155.52 60.69 C 151.61 60.65 149.01 60.20 149.02 59.56Z"/></g>
<g fill="#4A5965FF">
<path d="M 39.62 49.08 C 39.45 48.76 39.23 44.48 39.11 39.57 C 39.00 34.67 38.67 30.28 38.40 29.84 C 38.12 29.39 38.57 29.28 39.40 29.60 C 40.58 30.05 40.83 31.51 40.52 36.28 C 40.27 40.15 40.66 43.64 41.57 45.81 C 42.35 47.70 43.00 49.34 43.00 49.46 C 43.00 49.95 39.88 49.61 39.62 49.08Z"/></g>
<g fill="#1452ACFF">
<path d="M 76.10 60.08 C 75.21 59.52 74.98 58.54 75.46 57.35 C 76.19 55.57 76.24 55.57 76.93 57.43 C 77.43 58.76 77.88 59.00 78.39 58.18 C 78.79 57.53 78.86 56.58 78.54 56.07 C 77.99 55.18 82.08 50.00 83.33 50.00 C 84.00 50.00 82.98 53.21 82.06 54.00 C 81.74 54.27 81.03 55.81 80.49 57.42 C 79.39 60.67 78.18 61.40 76.10 60.08Z"/></g>
<g fill="#DBD78CFF">
<path d="M 10.46 39.30 C 10.51 36.02 11.56 35.03 15.00 35.03 C 16.75 35.03 17.10 35.28 16.16 35.88 C 15.43 36.34 14.98 37.80 15.16 39.11 C 15.43 41.03 15.00 41.56 12.96 41.80 C 10.76 42.05 10.42 41.71 10.46 39.30Z"/></g>
<g fill="#1452ACFF">
<path d="M 134.29 59.02 C 134.58 57.91 134.40 56.75 133.91 56.44 C 133.41 56.13 133.00 56.84 133.00 58.00 C 133.00 59.16 132.61 59.87 132.12 59.58 C 131.64 59.28 131.25 57.90 131.25 56.52 C 131.25 54.41 131.72 54.00 134.12 54.00 C 136.63 54.00 137.00 54.37 137.00 56.89 C 137.00 58.64 136.36 60.03 135.38 60.41 C 134.13 60.89 133.88 60.56 134.29 59.02Z"/></g>
<g fill="#1452ACFF">
<path d="M 123.43 60.40 C 122.17 59.88 122.80 54.00 124.11 54.00 C 124.60 54.00 125.01 55.01 125.03 56.25 L 125.07 58.50 L 127.10 56.05 L 129.14 53.61 L 128.82 56.55 C 128.40 60.46 126.62 61.72 123.43 60.40Z"/></g>
<g fill="#9D9B4CFF">
<path d="M 15.20 39.00 C 15.00 36.40 15.30 36.00 17.50 36.00 C 19.70 36.00 20.00 36.40 19.80 39.00 C 19.63 41.30 19.09 42.00 17.50 42.00 C 15.91 42.00 15.37 41.30 15.20 39.00Z"/></g>
<g fill="#C0C8CDFF">
<path d="M 137.07 53.12 C 133.60 52.15 133.52 50.62 136.89 49.35 C 140.63 47.94 143.38 49.37 140.77 51.37 C 139.81 52.10 139.32 52.99 139.68 53.35 C 140.04 53.71 140.15 53.96 139.92 53.90 C 139.69 53.85 138.41 53.50 137.07 53.12Z"/></g>
<g fill="#A4AAACFF">
<path d="M 47.00 36.00 C 45.95 35.32 47.50 35.03 52.19 35.02 C 55.87 35.01 59.16 35.45 59.50 36.00 C 60.31 37.31 49.03 37.31 47.00 36.00Z"/></g>
<g fill="#C0C8CDFF">
<path d="M 64.82 43.48 C 64.58 43.25 62.93 42.95 61.13 42.81 C 58.46 42.61 58.15 42.36 59.40 41.45 C 60.50 40.65 62.52 40.62 66.47 41.33 C 69.51 41.88 71.89 42.42 71.75 42.52 C 71.08 43.03 65.18 43.85 64.82 43.48Z"/></g>
<g fill="#A4AAACFF">
<path d="M 28.50 37.00 L 31.50 36.24 L 28.50 36.02 C 25.57 35.81 25.56 35.78 28.00 35.10 C 31.39 34.14 35.00 34.93 35.00 36.62 C 35.00 37.62 33.68 37.97 30.25 37.88 C 26.01 37.78 25.82 37.68 28.50 37.00Z"/></g>
<g fill="#C0C8CDFF">
<path d="M 61.00 62.23 C 61.00 61.76 62.66 61.49 64.68 61.65 C 66.71 61.81 68.93 61.48 69.62 60.90 C 70.49 60.18 71.50 60.20 72.94 60.97 C 74.07 61.57 75.00 62.21 75.00 62.38 C 75.00 62.56 71.85 62.79 68.00 62.90 C 64.15 63.01 61.00 62.71 61.00 62.23Z"/></g>
<g fill="#A4AAACFF">
<path d="M 146.50 44.00 C 144.80 43.27 144.97 43.13 147.63 43.07 C 150.73 43.00 153.59 40.92 152.32 39.66 C 151.96 39.30 152.22 39.00 152.90 39.00 C 154.32 39.00 154.01 43.13 152.50 44.23 C 151.22 45.17 149.03 45.09 146.50 44.00Z"/></g>
<g fill="#4A5965FF">
<path d="M 25.63 35.50 C 25.82 34.40 25.98 33.16 25.99 32.75 C 25.99 32.34 27.91 32.00 30.25 32.01 L 34.50 32.01 L 31.64 33.51 C 30.06 34.33 28.18 35.00 27.46 35.00 C 26.74 35.00 25.95 35.56 25.72 36.25 C 25.48 36.94 25.44 36.60 25.63 35.50Z"/></g>
<g fill="#A4AAACFF">
<path d="M 99.33 59.96 C 99.56 58.06 100.38 55.33 101.16 53.90 C 102.32 51.75 102.77 51.53 103.82 52.65 C 104.83 53.74 104.83 54.00 103.79 54.02 C 102.83 54.03 102.86 54.26 103.91 54.92 C 105.00 55.61 104.77 55.90 102.93 56.16 C 101.11 56.42 100.48 57.18 100.32 59.37 C 100.20 60.94 99.83 62.50 99.50 62.83 C 99.17 63.16 99.10 61.87 99.33 59.96Z"/></g>
<g fill="#1452ACFF">
<path d="M 49.00 59.00 C 49.00 56.48 52.69 52.69 54.22 53.64 C 54.99 54.11 54.65 54.82 53.18 55.79 C 51.98 56.59 51.00 58.09 51.00 59.12 C 51.00 60.15 50.55 61.00 50.00 61.00 C 49.45 61.00 49.00 60.10 49.00 59.00Z"/></g>
<g fill="#A4AAACFF">
<path d="M 168.00 39.39 C 168.00 36.60 167.66 35.92 166.50 36.36 C 165.68 36.68 165.00 36.50 165.00 35.97 C 165.00 35.44 166.12 35.00 167.48 35.00 C 169.75 35.00 169.94 35.35 169.73 39.00 C 169.44 43.98 168.00 44.31 168.00 39.39Z"/></g>
<g fill="#A4AAACFF">
<path d="M 144.41 51.00 C 144.49 49.87 146.10 49.43 150.97 49.20 C 154.52 49.03 158.12 48.36 158.96 47.70 C 160.31 46.65 160.33 46.72 159.13 48.25 C 158.08 49.59 156.27 50.00 151.45 50.00 C 147.30 50.00 145.00 50.43 144.73 51.25 C 144.48 51.97 144.35 51.87 144.41 51.00Z"/></g>
<g fill="#1452ACFF">
<path d="M 43.70 60.37 C 43.35 60.02 43.54 58.86 44.12 57.78 C 44.69 56.71 44.93 55.59 44.64 55.31 C 43.96 54.63 46.30 52.09 47.14 52.59 C 47.76 52.97 45.88 59.45 44.85 60.48 C 44.57 60.77 44.05 60.72 43.70 60.37Z"/></g>
<g fill="#4A5965FF">
<path d="M 163.79 46.00 C 164.17 43.36 164.60 43.02 167.36 43.14 C 169.72 43.24 169.94 43.38 168.25 43.71 C 166.65 44.01 166.00 44.84 166.00 46.57 C 166.00 47.92 165.41 49.00 164.67 49.00 C 163.77 49.00 163.49 48.05 163.79 46.00Z"/></g>
<g fill="#1452ACFF">
<path d="M 139.20 57.94 C 139.45 54.65 141.39 52.21 142.43 53.88 C 142.76 54.42 142.58 55.14 142.02 55.49 C 141.46 55.84 141.00 57.22 141.00 58.56 C 141.00 59.90 140.54 61.00 139.98 61.00 C 139.43 61.00 139.07 59.62 139.20 57.94Z"/></g>
<g fill="#7DA5DFFF">
<path d="M 137.18 39.32 C 137.02 33.78 136.77 33.09 134.75 32.71 L 132.50 32.27 L 134.78 32.14 C 137.67 31.96 138.21 33.42 137.74 40.12 L 137.37 45.50 L 137.18 39.32Z"/></g>
<g fill="#7DA5DFFF">
<path d="M 92.70 43.06 C 93.14 41.34 92.58 41.07 87.85 40.74 L 82.50 40.37 L 88.25 40.18 C 93.77 40.01 94.00 40.10 94.00 42.50 C 94.00 43.88 93.59 45.00 93.09 45.00 C 92.60 45.00 92.42 44.13 92.70 43.06Z"/></g>
<g fill="#C0C8CDFF">
<path d="M 88.00 60.50 C 86.78 58.23 86.79 57.75 88.03 56.98 C 89.96 55.79 91.25 58.16 90.20 60.98 C 89.42 63.10 89.39 63.09 88.00 60.50Z"/></g>
<g fill="#4A5965FF">
<path d="M 104.75 73.27 C 107.09 73.06 110.91 73.06 113.25 73.27 C 115.59 73.48 113.67 73.65 109.00 73.65 C 104.33 73.65 102.41 73.48 104.75 73.27Z"/></g>
<g fill="#9D9B4CFF">
<path d="M 185.80 38.57 C 186.09 36.14 186.61 35.30 187.60 35.68 C 189.20 36.29 189.50 38.00 188.00 38.00 C 186.78 38.00 187.12 40.22 188.50 41.23 C 189.05 41.64 188.58 41.98 187.45 41.98 C 185.70 42.00 185.46 41.49 185.80 38.57Z"/></g>
<g fill="#1452ACFF">
<path d="M 165.82 60.49 C 164.78 58.85 166.12 54.00 167.62 54.00 C 169.20 54.00 169.42 55.16 168.10 56.55 C 167.60 57.07 167.03 58.40 166.82 59.50 C 166.62 60.60 166.17 61.05 165.82 60.49Z"/></g>
<g fill="#1452ACFF">
<path d="M 83.37 58.76 C 83.70 57.52 83.98 55.94 83.99 55.25 C 83.99 54.56 84.73 54.00 85.62 54.00 C 86.78 54.00 86.96 54.36 86.25 55.25 C 85.70 55.94 85.38 57.26 85.53 58.18 C 85.68 59.11 85.12 60.12 84.28 60.45 C 83.10 60.90 82.90 60.52 83.37 58.76Z"/></g>
<g fill="#7DA5DFFF">
<path d="M 144.25 28.27 C 146.31 28.06 149.69 28.06 151.75 28.27 C 153.81 28.49 152.12 28.66 148.00 28.66 C 143.88 28.66 142.19 28.49 144.25 28.27Z"/></g>
<g fill="#7DA5DFFF">
<path d="M 125.25 28.27 C 127.31 28.06 130.69 28.06 132.75 28.27 C 134.81 28.49 133.12 28.66 129.00 28.66 C 124.88 28.66 123.19 28.49 125.25 28.27Z"/></g>
<g fill="#697D89FF">
<path d="M 46.35 40.76 C 46.09 40.34 48.95 40.05 52.69 40.12 C 59.97 40.24 59.54 40.71 51.66 41.22 C 49.00 41.39 46.61 41.18 46.35 40.76Z"/></g>
<g fill="#A4AAACFF">
<path d="M 50.73 49.28 C 52.50 49.06 55.65 49.05 57.73 49.27 C 59.80 49.49 58.35 49.67 54.50 49.67 C 50.65 49.68 48.95 49.50 50.73 49.28Z"/></g>
<g fill="#1452ACFF">
<path d="M 67.00 57.00 C 67.00 55.17 67.52 54.00 68.33 54.00 C 69.23 54.00 69.51 54.95 69.21 57.00 C 68.97 58.65 68.37 60.00 67.89 60.00 C 67.40 60.00 67.00 58.65 67.00 57.00Z"/></g>
<g fill="#1452ACFF">
<path d="M 39.55 57.64 C 38.72 54.74 40.31 52.46 42.31 53.69 C 42.83 54.01 42.78 54.52 42.21 54.88 C 41.65 55.22 41.01 56.62 40.78 58.00 L 40.36 60.50 L 39.55 57.64Z"/></g>
<g fill="#7DA5DFFF">
<path d="M 106.73 28.28 C 108.50 28.06 111.65 28.05 113.73 28.27 C 115.80 28.49 114.35 28.67 110.50 28.67 C 106.65 28.68 104.95 28.50 106.73 28.28Z"/></g>
<g fill="#7DA5DFFF">
<path d="M 66.73 28.28 C 68.50 28.06 71.65 28.05 73.73 28.27 C 75.80 28.49 74.35 28.67 70.50 28.67 C 66.65 28.68 64.95 28.50 66.73 28.28Z"/></g>
<g fill="#7DA5DFFF">
<path d="M 46.73 28.28 C 48.50 28.06 51.65 28.05 53.73 28.27 C 55.80 28.49 54.35 28.67 50.50 28.67 C 46.65 28.68 44.95 28.50 46.73 28.28Z"/></g>
<g fill="#7DA5DFFF">
<path d="M 106.73 40.28 C 108.50 40.06 111.65 40.05 113.73 40.27 C 115.80 40.49 114.35 40.67 110.50 40.67 C 106.65 40.68 104.95 40.50 106.73 40.28Z"/></g>
<g fill="#4875B4FF">
<path d="M 106.73 48.28 C 108.50 48.06 111.65 48.05 113.73 48.27 C 115.80 48.49 114.35 48.67 110.50 48.67 C 106.65 48.68 104.95 48.50 106.73 48.28Z"/></g>
<g fill="#A4AAACFF">
<path d="M 188.00 37.98 C 189.33 37.11 189.33 36.89 188.00 36.02 C 186.83 35.25 187.14 35.03 189.37 35.02 C 191.66 35.00 192.02 35.27 191.13 36.34 C 190.52 37.08 190.31 37.98 190.68 38.34 C 191.04 38.70 190.25 38.99 188.92 38.98 C 186.98 38.97 186.80 38.77 188.00 37.98Z"/></g>
<g fill="#1452ACFF">
<path d="M 159.00 55.56 C 159.00 53.82 160.64 52.66 161.96 53.47 C 163.29 54.30 162.09 57.00 160.39 57.00 C 159.63 57.00 159.00 56.35 159.00 55.56Z"/></g>
<g fill="#1452ACFF">
<path d="M 28.11 56.35 C 27.27 54.50 27.22 53.38 27.95 52.65 C 28.68 51.92 29.00 52.25 29.00 53.74 C 29.00 54.92 29.45 56.16 30.00 56.50 C 31.21 57.25 31.33 59.00 30.16 59.00 C 29.70 59.00 28.78 57.81 28.11 56.35Z"/></g>
<g fill="#1452ACFF">
<path d="M 93.25 61.34 C 91.55 60.65 91.67 56.82 93.47 54.44 C 95.24 52.10 95.42 52.99 93.85 56.42 C 92.97 58.37 93.00 59.29 93.98 60.47 C 95.31 62.08 95.26 62.15 93.25 61.34Z"/></g>
<g fill="#7DA5DFFF">
<path d="M 86.75 28.28 C 88.54 28.05 91.46 28.05 93.25 28.28 C 95.04 28.50 93.58 28.68 90.00 28.68 C 86.42 28.68 84.96 28.50 86.75 28.28Z"/></g>
<g fill="#C0C8CDFF">
<path d="M 127.75 44.28 C 129.54 44.05 132.46 44.05 134.25 44.28 C 136.04 44.50 134.57 44.68 131.00 44.68 C 127.42 44.68 125.96 44.50 127.75 44.28Z"/></g>
<g fill="#9D9B4CFF">
<path d="M 176.00 39.00 C 176.00 37.35 176.45 36.00 177.00 36.00 C 177.55 36.00 178.00 37.35 178.00 39.00 C 178.00 40.65 177.55 42.00 177.00 42.00 C 176.45 42.00 176.00 40.65 176.00 39.00Z"/></g>
<g fill="#4A5965FF">
<path d="M 16.66 44.55 C 16.22 43.40 16.72 43.00 18.61 43.00 C 20.21 43.00 21.01 43.47 20.75 44.25 C 20.13 46.12 17.34 46.32 16.66 44.55Z"/></g>
<g fill="#A4AAACFF">
<path d="M 40.84 63.13 L 38.19 62.50 L 40.58 60.72 C 42.75 59.09 42.91 59.08 42.31 60.63 C 41.92 61.65 42.06 62.08 42.66 61.71 C 43.22 61.37 43.67 61.74 43.67 62.54 C 43.67 63.34 43.63 63.95 43.58 63.88 C 43.54 63.82 42.31 63.48 40.84 63.13Z"/></g>
<g fill="#1452ACFF">
<path d="M 33.61 57.25 C 34.41 53.84 35.56 52.48 36.45 53.91 C 36.82 54.51 36.64 55.00 36.06 55.00 C 35.48 55.00 35.00 56.12 35.00 57.50 C 35.00 58.88 34.54 60.00 33.98 60.00 C 33.38 60.00 33.23 58.87 33.61 57.25Z"/></g>
<g fill="#C0C8CDFF">
<path d="M 15.50 57.20 C 14.40 56.96 12.60 56.08 11.50 55.26 L 9.50 53.75 L 11.50 54.50 C 12.60 54.91 14.85 55.55 16.49 55.91 C 18.14 56.28 19.04 56.82 18.49 57.11 C 17.95 57.41 16.60 57.45 15.50 57.20Z"/></g>
<g fill="#C0C8CDFF">
<path d="M 94.77 71.28 C 96.57 71.05 99.27 71.06 100.77 71.29 C 102.27 71.51 100.80 71.70 97.50 71.69 C 94.20 71.68 92.97 71.50 94.77 71.28Z"/></g>
<g fill="#4A5965FF">
<path d="M 45.00 36.08 C 45.00 33.95 46.32 32.00 47.76 32.00 C 49.10 32.00 49.08 32.26 47.59 33.90 C 46.26 35.37 46.17 35.91 47.19 36.32 C 48.05 36.66 47.89 36.87 46.75 36.92 C 45.79 36.96 45.00 36.59 45.00 36.08Z"/></g>
</svg>
