<?xml version="1.0" encoding="utf-8"?>
<!DOCTYPE svg PUBLIC "-//W3C//DTD SVG 20010904//EN" "http://www.w3.org/TR/2001/REC-SVG-20010904/DTD/svg10.dtd">
<svg version="1.0" xmlns="http://www.w3.org/2000/svg" width="1680pt" height="443pt" viewBox="0 0 1680 443" preserveAspectRatio="xMidYMid meet">
<g fill="#EC1C25FE">
<path d="M 1448.11 354.25 C 1469.23 337.88 1493.14 319.35 1501.25 313.08 C 1509.36 306.81 1516.00 301.30 1516.00 300.85 C 1516.00 300.39 1497.66 299.90 1475.24 299.76 L 1434.48 299.50 L 1480.97 180.44 L 1527.46 61.39 L 1565.25 31.94 C 1586.04 15.75 1603.40 2.38 1603.84 2.23 C 1604.43 2.02 1676.00 130.61 1677.83 135.17 C 1678.02 135.63 1663.84 136.01 1646.33 136.01 L 1614.50 136.03 L 1566.35 259.76 L 1518.19 383.50 L 1463.96 383.76 L 1409.73 384.02 L 1448.11 354.25Z"/></g>
<g fill="#EC1C25FE">
<path d="M 1258.79 374.25 L 1222.07 307.50 L 1253.81 307.24 L 1285.55 306.97 L 1333.40 184.09 C 1359.72 116.51 1381.56 60.71 1381.94 60.10 C 1382.44 59.29 1397.65 59.05 1436.20 59.24 L 1489.77 59.50 L 1436.89 100.48 C 1407.80 123.03 1384.00 141.81 1384.00 142.22 C 1384.00 142.64 1402.37 143.10 1424.82 143.24 L 1465.64 143.50 L 1419.16 262.53 L 1372.68 381.55 L 1334.91 411.00 C 1314.14 427.20 1296.78 440.57 1296.32 440.73 C 1295.87 440.88 1278.98 410.96 1258.79 374.25Z"/></g>
<g fill="#050308FE">
<path d="M 2.00 283.53 C 2.00 283.28 34.24 232.65 73.63 171.03 L 145.27 59.00 L 199.74 59.00 L 254.22 59.00 L 253.71 61.25 C 253.42 62.49 246.09 113.11 237.40 173.75 L 221.60 284.00 L 187.80 284.00 C 169.21 284.00 154.00 283.77 154.00 283.48 C 154.00 283.19 159.20 247.82 165.55 204.87 C 171.91 161.92 176.97 126.08 176.80 125.23 C 176.52 123.80 102.90 237.69 102.18 240.67 C 101.92 241.75 106.44 242.00 125.93 242.00 C 139.17 242.00 150.01 242.34 150.02 242.75 C 150.03 243.16 146.54 252.60 142.27 263.73 L 134.50 283.96 L 68.25 283.98 C 31.81 283.99 2.00 283.79 2.00 283.53Z"/></g>
<g fill="#050308FE">
<path d="M 414.56 279.76 C 415.91 270.06 418.30 259.49 421.13 250.77 C 425.59 236.99 447.29 184.27 454.17 170.50 C 469.30 140.21 484.89 123.90 505.38 116.90 C 516.74 113.02 526.01 112.00 549.87 112.00 L 570.60 112.00 L 581.22 85.75 L 591.84 59.50 L 624.92 59.24 C 643.11 59.09 658.00 59.13 658.00 59.33 C 658.00 59.52 637.60 110.04 612.67 171.59 L 567.34 283.50 L 490.66 283.76 L 413.97 284.01 L 414.56 279.76ZM 508.29 265.75 C 508.56 265.06 518.57 240.43 530.52 211.00 C 542.48 181.57 552.48 156.71 552.75 155.75 C 553.19 154.16 552.23 154.00 542.29 154.00 C 528.48 154.00 523.25 155.64 517.03 161.92 C 514.53 164.44 511.08 169.20 509.35 172.50 C 504.07 182.58 475.79 253.22 475.26 257.67 C 474.83 261.20 475.16 262.25 477.33 264.42 C 479.85 266.95 480.20 267.00 493.85 267.00 C 504.07 267.00 507.92 266.67 508.29 265.75Z"/></g>
<g fill="#050308FE">
<path d="M 1023.04 281.75 C 1023.58 280.51 1038.61 241.93 1056.44 196.00 L 1088.84 112.50 L 1145.65 112.24 C 1180.47 112.08 1204.55 112.37 1207.87 112.98 C 1219.64 115.16 1228.45 121.28 1232.34 129.99 C 1236.51 139.32 1235.39 157.22 1229.47 175.87 C 1228.14 180.07 1218.30 206.00 1207.60 233.50 L 1188.14 283.50 L 1154.96 283.76 C 1128.55 283.97 1121.88 283.77 1122.27 282.76 C 1152.16 205.73 1164.51 173.60 1165.61 170.00 C 1167.50 163.78 1167.34 159.64 1165.09 156.86 C 1163.27 154.61 1162.60 154.50 1150.96 154.50 L 1138.75 154.50 L 1113.62 219.24 L 1088.50 283.97 L 1055.27 283.99 L 1022.04 284.00 L 1023.04 281.75Z"/></g>
<g fill="#050308FE">
<path d="M 231.24 282.25 C 231.62 280.87 253.18 225.24 296.74 113.21 C 297.15 112.16 308.89 111.97 357.37 112.23 C 414.43 112.53 417.76 112.65 422.68 114.52 C 436.57 119.82 442.26 128.04 442.84 143.62 C 443.24 154.25 441.44 164.35 436.57 178.75 C 432.65 190.36 397.07 282.16 396.07 283.26 C 395.69 283.68 380.70 283.91 362.76 283.76 L 330.14 283.50 L 351.10 229.50 C 362.63 199.80 372.72 173.28 373.53 170.57 C 375.70 163.28 375.43 159.34 372.55 156.45 C 370.22 154.13 369.47 154.00 358.63 154.00 L 347.16 154.00 L 340.22 171.75 C 336.40 181.51 325.03 210.76 314.95 236.75 L 296.63 284.00 L 263.70 284.00 C 232.82 284.00 230.80 283.89 231.24 282.25Z"/></g>
<g fill="#050308FE">
<path d="M 858.00 282.61 C 858.00 277.17 870.73 242.74 879.49 224.50 C 891.03 200.48 904.13 187.39 921.11 182.92 C 923.69 182.24 938.61 181.50 957.33 181.13 L 989.16 180.50 L 992.58 171.65 C 996.53 161.44 996.77 158.77 994.00 156.00 C 992.07 154.07 990.67 154.00 952.50 154.00 C 930.77 154.00 913.00 153.66 913.00 153.25 C 913.01 152.84 916.51 143.50 920.80 132.50 L 928.58 112.50 L 976.54 112.21 C 1009.31 112.00 1026.40 112.27 1030.50 113.05 C 1051.77 117.07 1060.57 130.98 1057.05 155.05 C 1055.09 168.49 1051.90 177.87 1030.78 232.25 L 1010.69 284.00 L 934.35 284.00 C 869.88 284.00 858.00 283.78 858.00 282.61ZM 945.07 266.00 C 949.68 264.72 956.34 258.98 959.53 253.53 C 961.54 250.11 972.00 225.60 972.00 224.32 C 972.00 224.14 964.91 224.00 956.25 224.00 C 934.40 224.01 934.32 224.06 925.91 245.12 C 923.26 251.76 920.58 258.73 919.96 260.63 C 917.99 266.60 918.66 267.00 930.72 266.99 C 936.65 266.99 943.10 266.54 945.07 266.00Z"/></g>
<g fill="#050308FE">
<path d="M 702.02 280.75 C 702.09 270.87 708.19 251.07 723.68 210.50 C 746.31 151.19 759.91 129.71 781.56 119.05 C 794.16 112.84 797.30 112.50 842.00 112.50 C 882.20 112.50 882.54 112.52 887.62 114.82 C 900.21 120.52 904.99 132.06 901.63 148.67 C 899.72 158.10 886.65 192.20 880.57 203.63 C 872.27 219.23 863.06 228.99 851.41 234.50 C 841.37 239.25 835.08 239.96 803.21 239.98 L 773.93 240.00 L 772.11 244.25 C 771.11 246.59 769.27 251.53 768.02 255.23 C 765.88 261.56 765.84 262.11 767.39 264.47 L 769.03 266.98 L 809.86 267.24 L 850.69 267.50 L 847.62 275.75 L 844.54 284.00 L 773.27 284.00 L 702.00 284.00 L 702.02 280.75ZM 825.71 195.03 C 827.56 193.91 830.02 190.92 831.48 188.03 C 835.99 179.15 843.10 159.65 842.80 157.03 C 842.50 154.53 842.40 154.50 832.12 154.21 C 819.10 153.85 813.96 155.38 808.35 161.27 C 806.12 163.59 803.38 167.07 802.24 169.00 C 800.18 172.50 791.00 194.71 791.00 196.21 C 791.00 196.64 798.09 197.00 806.75 197.00 C 820.63 196.99 822.88 196.76 825.71 195.03Z"/></g>
<g fill="#050308FE">
<path d="M 579.00 283.49 C 579.00 281.58 622.30 177.14 627.01 167.69 C 634.82 152.03 642.39 140.83 650.88 132.41 C 659.04 124.31 666.16 119.76 675.81 116.50 C 686.65 112.83 695.93 112.00 726.14 112.00 C 752.74 112.00 754.11 112.09 753.56 113.82 C 753.24 114.82 749.67 124.15 745.62 134.57 L 738.26 153.50 L 722.88 154.00 C 705.39 154.57 700.53 156.10 695.01 162.80 C 689.73 169.21 685.68 178.50 664.96 231.75 L 644.62 284.00 L 611.81 284.00 C 593.77 284.00 579.00 283.77 579.00 283.49Z"/></g>
<g fill="#050308FE">
<path d="M 1200.50 280.26 C 1201.32 278.19 1216.34 239.60 1233.87 194.50 L 1265.75 112.50 L 1298.87 112.24 C 1317.09 112.09 1331.99 112.09 1331.98 112.24 C 1331.97 112.38 1317.00 150.97 1298.72 198.00 L 1265.48 283.50 L 1232.24 283.76 L 1199.01 284.03 L 1200.50 280.26Z"/></g>
<g fill="#050308FE">
<path d="M 1272.43 95.26 C 1272.80 94.29 1276.11 85.74 1279.80 76.25 L 1286.50 59.00 L 1319.63 59.00 L 1352.76 59.00 L 1345.44 77.75 L 1338.13 96.50 L 1304.95 96.76 C 1273.61 97.01 1271.81 96.93 1272.43 95.26Z"/></g>
</svg>
