<?xml version="1.0" encoding="utf-8"?>
<!DOCTYPE svg PUBLIC "-//W3C//DTD SVG 20010904//EN" "http://www.w3.org/TR/2001/REC-SVG-20010904/DTD/svg10.dtd">
<svg version="1.0" xmlns="http://www.w3.org/2000/svg" width="223pt" height="107pt" viewBox="0 0 223 107" preserveAspectRatio="xMidYMid meet">
<g fill="#171616FF">
<path d="M 35.08 64.60 C 35.31 64.37 41.11 59.65 47.97 54.10 L 60.43 44.00 L 66.47 44.02 C 69.79 44.02 73.02 44.36 73.65 44.77 C 74.28 45.17 76.34 49.53 78.23 54.45 C 80.13 59.37 82.09 63.51 82.59 63.65 C 83.09 63.79 85.22 60.22 87.32 55.72 L 91.14 47.53 L 88.96 45.77 C 86.86 44.07 87.58 44.00 108.39 44.00 C 128.67 44.00 130.12 44.12 132.00 46.00 C 133.10 47.10 134.00 48.48 134.00 49.07 C 134.00 52.95 128.91 56.00 122.41 56.00 C 116.97 56.00 117.57 57.75 124.21 61.22 L 130.50 64.50 L 124.14 64.80 C 118.23 65.08 117.26 64.80 110.36 60.85 C 100.88 55.43 100.80 53.55 110.07 53.89 C 116.84 54.13 122.00 52.63 122.00 50.41 C 122.00 49.03 105.31 47.95 102.15 49.13 C 101.23 49.48 98.96 53.19 97.12 57.38 L 93.77 65.00 L 81.99 65.00 C 72.45 65.00 70.10 64.72 69.64 63.50 C 69.18 62.29 66.93 62.00 58.15 62.00 C 49.68 62.00 46.97 62.33 46.00 63.50 C 45.19 64.47 42.97 65.00 39.71 65.00 C 36.94 65.00 34.85 64.82 35.08 64.60ZM 66.57 56.67 C 67.29 54.81 65.30 50.00 63.82 50.00 C 62.45 50.00 56.00 55.94 56.00 57.20 C 56.00 58.62 66.02 58.12 66.57 56.67Z"/></g>
<g fill="#171616FF">
<path d="M 135.14 56.96 C 137.26 52.53 139.00 48.33 139.00 47.61 C 139.00 46.89 137.99 45.82 136.75 45.22 C 135.05 44.40 139.86 44.12 156.25 44.07 C 176.72 44.00 178.12 44.12 180.00 46.00 C 182.40 48.40 182.50 49.84 180.47 52.74 C 178.35 55.77 174.02 56.73 161.55 56.93 C 153.12 57.06 150.89 56.82 151.23 55.80 C 151.51 54.94 154.36 54.32 159.58 53.97 C 168.02 53.41 170.00 52.74 170.00 50.44 C 170.00 49.28 168.00 49.00 159.72 49.00 L 149.44 49.00 L 145.80 57.00 L 142.17 65.00 L 136.72 65.00 L 131.28 65.00 L 135.14 56.96Z"/></g>
<g fill="#D6463BFF">
<path d="M 29.50 73.33 C 13.12 69.78 6.38 60.67 14.29 52.78 C 19.24 47.86 29.47 43.09 40.72 40.49 C 47.44 38.93 51.28 38.63 47.00 40.00 C 44.60 40.77 44.59 40.80 46.75 40.90 C 50.24 41.06 49.41 42.56 45.12 43.85 C 39.55 45.51 32.88 49.44 28.66 53.54 C 22.20 59.81 22.57 65.16 29.84 70.71 C 33.97 73.86 33.92 74.29 29.50 73.33Z"/></g>
<g fill="#D6463BFF">
<path d="M 176.63 76.31 C 176.90 75.26 180.30 72.83 184.52 70.65 C 192.25 66.67 197.53 61.73 198.60 57.46 C 199.54 53.73 197.17 49.14 192.82 46.26 C 190.70 44.86 189.16 43.50 189.41 43.25 C 190.15 42.51 200.16 46.03 204.70 48.63 C 215.56 54.83 214.25 62.92 201.30 69.71 C 195.46 72.78 183.78 76.85 181.00 76.79 C 180.18 76.78 178.75 77.08 177.82 77.46 C 176.54 78.00 176.26 77.73 176.63 76.31Z"/></g>
<g fill="#E49585FF">
<path d="M 58.43 39.43 C 59.90 38.36 60.00 37.96 58.90 37.61 C 55.18 36.42 54.80 36.02 57.80 36.48 C 59.83 36.78 60.86 36.59 60.49 35.98 C 60.14 35.42 61.25 35.00 63.11 35.00 C 64.88 35.00 69.08 34.52 72.43 33.94 C 75.78 33.36 80.99 33.02 84.01 33.19 L 89.50 33.50 L 81.50 35.28 C 56.81 40.76 56.53 40.81 58.43 39.43Z"/></g>
<g fill="#E49585FF">
<path d="M 142.00 82.55 C 145.03 81.75 149.59 80.96 152.15 80.80 C 154.71 80.63 156.55 80.10 156.25 79.61 C 155.95 79.11 156.88 78.93 158.32 79.21 C 159.75 79.48 161.06 79.36 161.22 78.93 C 161.37 78.50 162.85 77.85 164.50 77.49 C 166.54 77.05 167.06 77.15 166.14 77.79 C 163.96 79.33 166.53 80.24 171.29 79.60 C 175.06 79.10 175.18 79.15 172.50 80.03 C 170.85 80.58 167.70 80.80 165.50 80.52 C 162.88 80.18 162.17 80.29 163.45 80.84 C 165.13 81.55 164.91 81.77 161.95 82.37 C 160.05 82.75 153.55 83.27 147.50 83.53 L 136.50 84.00 L 142.00 82.55Z"/></g>
<g fill="#D77360FF">
<path d="M 49.00 41.91 C 49.00 41.41 48.21 40.99 47.25 40.98 C 46.29 40.98 44.83 40.53 44.00 39.99 C 42.94 39.29 43.52 39.17 46.00 39.59 C 48.37 39.98 49.06 39.86 48.15 39.21 C 47.19 38.54 48.48 38.05 52.55 37.54 C 55.72 37.14 58.81 36.71 59.41 36.57 C 60.01 36.44 60.16 36.52 59.74 36.75 C 59.33 36.98 59.20 37.51 59.46 37.93 C 59.96 38.75 57.54 40.03 52.25 41.76 C 50.40 42.37 49.00 42.43 49.00 41.91Z"/></g>
<g fill="#A09E9EFF">
<path d="M 134.87 43.73 C 135.29 43.31 145.28 43.08 157.07 43.23 L 178.50 43.50 L 156.30 44.00 C 144.09 44.28 134.44 44.15 134.87 43.73Z"/></g>
<g fill="#A09E9EFF">
<path d="M 96.19 43.25 C 102.08 43.08 111.98 43.08 118.19 43.25 C 124.41 43.43 119.60 43.57 107.50 43.57 C 95.40 43.57 90.31 43.43 96.19 43.25Z"/></g>
<g fill="#D77360FF">
<path d="M 163.76 80.29 C 165.01 80.05 165.80 79.48 165.51 79.02 C 164.92 78.06 173.85 74.79 175.04 75.52 C 175.47 75.79 176.06 75.45 176.34 74.76 C 176.62 74.07 176.79 74.72 176.71 76.22 C 176.60 78.26 176.06 78.93 174.53 78.89 C 173.42 78.87 170.70 79.32 168.50 79.90 C 166.30 80.48 163.82 80.90 163.00 80.84 C 162.18 80.78 162.52 80.53 163.76 80.29Z"/></g>
<g fill="#E0BEB5FF">
<path d="M 87.50 34.12 C 89.38 33.30 89.35 33.22 87.00 32.76 C 85.62 32.49 89.22 32.25 95.00 32.22 C 101.76 32.19 104.55 32.46 102.84 32.98 C 98.96 34.15 85.06 35.18 87.50 34.12Z"/></g>
<g fill="#E0BEB5FF">
<path d="M 128.15 83.82 C 130.48 83.20 134.26 83.19 138.65 83.80 L 145.50 84.74 L 135.00 84.77 C 126.40 84.79 125.16 84.62 128.15 83.82Z"/></g>
<g fill="#545354FF">
<path d="M 118.15 65.52 C 118.95 64.72 142.85 64.45 142.35 65.25 C 142.09 65.66 136.43 66.00 129.77 66.00 C 123.12 66.00 117.88 65.78 118.15 65.52Z"/></g>
<g fill="#545354FF">
<path d="M 46.88 62.71 C 47.32 62.28 52.58 62.06 58.59 62.22 L 69.50 62.51 L 57.80 63.01 C 51.36 63.28 46.45 63.15 46.88 62.71Z"/></g>
<g fill="#545354FF">
<path d="M 76.25 65.26 C 79.41 65.06 84.59 65.06 87.75 65.26 C 90.91 65.46 88.33 65.62 82.00 65.62 C 75.67 65.62 73.09 65.46 76.25 65.26Z"/></g>
<g fill="#A09E9EFF">
<path d="M 150.67 57.33 C 150.30 56.97 150.01 56.18 150.02 55.58 C 150.02 54.91 150.32 54.96 150.80 55.71 C 151.28 56.46 154.95 57.04 160.53 57.25 L 169.50 57.59 L 160.42 57.79 C 155.42 57.91 151.03 57.70 150.67 57.33Z"/></g>
<g fill="#E0BEB5FF">
<path d="M 160.50 50.00 L 151.50 49.38 L 160.19 49.19 C 165.12 49.08 169.15 49.43 169.50 50.00 C 169.84 50.55 169.98 50.91 169.81 50.81 C 169.64 50.71 165.45 50.34 160.50 50.00Z"/></g>
<g fill="#E0BEB5FF">
<path d="M 105.75 49.27 C 108.09 49.06 111.91 49.06 114.25 49.27 C 116.59 49.48 114.67 49.65 110.00 49.65 C 105.33 49.65 103.41 49.48 105.75 49.27Z"/></g>
<g fill="#545354FF">
<path d="M 151.89 53.70 C 152.34 53.26 155.80 53.04 159.60 53.21 L 166.50 53.52 L 158.80 54.01 C 154.56 54.28 151.45 54.14 151.89 53.70Z"/></g>
<g fill="#A09E9EFF">
<path d="M 146.49 75.99 C 146.11 75.37 146.07 74.60 146.40 74.27 C 146.73 73.94 147.00 74.19 147.00 74.83 C 147.00 75.47 147.47 76.00 148.04 76.00 C 148.74 76.00 148.75 75.40 148.06 74.11 C 147.30 72.69 147.43 71.89 148.55 70.96 C 149.37 70.28 150.34 70.00 150.69 70.36 C 151.04 70.71 150.87 71.00 150.31 71.00 C 149.75 71.00 149.33 72.20 149.39 73.66 C 149.51 76.44 147.68 77.91 146.49 75.99Z"/></g>
<g fill="#545354FF">
<path d="M 107.73 53.28 C 109.50 53.06 112.65 53.05 114.73 53.27 C 116.80 53.49 115.35 53.67 111.50 53.67 C 107.65 53.68 105.95 53.50 107.73 53.28Z"/></g>
<g fill="#A09E9EFF">
<path d="M 62.73 43.28 C 64.50 43.06 67.65 43.05 69.73 43.27 C 71.80 43.49 70.35 43.67 66.50 43.67 C 62.65 43.68 60.95 43.50 62.73 43.28Z"/></g>
<g fill="#545354FF">
<path d="M 34.00 65.20 C 34.00 64.76 35.69 64.56 37.75 64.76 C 44.18 65.37 44.70 65.76 39.25 65.88 C 36.36 65.95 34.00 65.64 34.00 65.20Z"/></g>
<g fill="#A09E9EFF">
<path d="M 93.32 76.30 C 95.08 75.84 95.08 75.78 93.32 74.44 C 92.15 73.55 91.96 73.05 92.81 73.03 C 93.53 73.01 93.84 72.55 93.50 72.00 C 93.16 71.45 93.41 71.00 94.05 71.00 C 94.69 71.00 94.96 71.66 94.65 72.47 C 94.34 73.28 94.53 74.21 95.06 74.54 C 96.46 75.41 95.18 77.02 93.19 76.88 C 91.74 76.78 91.76 76.70 93.32 76.30Z"/></g>
</svg>
