<?xml version="1.0" encoding="utf-8"?>
<!DOCTYPE svg PUBLIC "-//W3C//DTD SVG 20010904//EN" "http://www.w3.org/TR/2001/REC-SVG-20010904/DTD/svg10.dtd">
<svg version="1.0" xmlns="http://www.w3.org/2000/svg" width="2002pt" height="586pt" viewBox="0 0 2002 586" preserveAspectRatio="xMidYMid meet">
<g fill="#E00716FE">
<path d="M 1599.74 323.39 C 1590.79 317.27 1578.56 314.02 1564.50 314.02 C 1552.26 314.02 1545.24 315.62 1534.86 320.81 L 1525.22 325.62 L 1520.02 323.33 C 1502.29 315.51 1486.13 298.27 1478.27 278.82 C 1472.79 265.25 1470.73 254.52 1470.63 239.00 C 1470.50 218.22 1474.78 201.44 1484.23 185.75 C 1502.01 156.22 1529.50 141.69 1567.50 141.73 C 1584.87 141.75 1596.45 144.46 1611.50 152.02 C 1621.66 157.12 1637.39 169.13 1636.81 171.34 C 1636.64 171.98 1630.88 177.96 1624.00 184.63 L 1611.50 196.76 L 1606.09 192.45 C 1598.35 186.28 1592.65 183.44 1583.03 180.95 C 1561.45 175.35 1536.84 182.15 1523.39 197.41 C 1507.70 215.22 1504.61 246.32 1516.33 268.49 C 1527.30 289.22 1554.56 300.19 1581.11 294.56 C 1589.45 292.80 1602.05 286.50 1608.33 280.95 L 1613.16 276.69 L 1625.05 288.55 C 1631.58 295.07 1637.09 300.20 1637.27 299.95 C 1637.77 299.30 1644.43 284.58 1658.75 252.50 C 1665.63 237.10 1673.20 220.22 1675.57 215.00 C 1677.94 209.78 1685.93 192.00 1693.32 175.50 L 1706.76 145.50 L 1727.21 145.23 L 1747.66 144.96 L 1748.96 147.73 C 1749.68 149.25 1753.76 158.38 1758.02 168.00 C 1768.49 191.62 1773.67 203.17 1780.45 218.00 C 1792.35 244.06 1795.09 250.12 1805.06 272.50 C 1810.69 285.15 1817.75 300.90 1820.74 307.50 C 1823.74 314.10 1826.85 321.02 1827.66 322.87 L 1829.13 326.24 L 1825.31 323.93 C 1823.22 322.66 1820.60 321.07 1819.50 320.39 C 1814.11 317.06 1804.16 314.78 1792.62 314.25 L 1780.74 313.69 L 1776.40 304.35 L 1772.07 295.00 L 1727.66 295.00 C 1693.13 295.00 1683.01 295.28 1682.20 296.26 C 1681.62 296.96 1679.41 301.57 1677.27 306.51 L 1673.39 315.50 L 1651.72 315.77 C 1632.02 316.01 1630.10 315.89 1630.67 314.41 C 1631.32 312.71 1630.23 313.25 1618.89 320.18 C 1616.47 321.66 1612.25 323.71 1609.50 324.76 L 1604.50 326.65 L 1599.74 323.39ZM 1754.67 258.22 C 1755.50 257.70 1754.00 253.24 1749.54 242.99 C 1746.08 235.02 1739.93 220.89 1735.87 211.58 C 1731.82 202.27 1728.02 194.50 1727.42 194.30 C 1726.83 194.11 1722.25 203.52 1717.24 215.22 C 1712.23 226.93 1706.08 241.16 1703.57 246.86 C 1701.07 252.56 1699.26 257.62 1699.57 258.11 C 1700.23 259.18 1753.00 259.29 1754.67 258.22Z"/></g>
<g fill="#E00716FE">
<path d="M 624.00 332.32 C 611.03 330.99 593.65 325.04 583.20 318.35 C 565.88 307.27 551.86 286.81 546.46 264.73 C 538.92 233.94 544.88 200.96 562.22 177.50 C 573.34 162.45 586.78 152.53 603.45 147.06 C 616.59 142.75 623.89 141.63 638.50 141.67 C 658.24 141.73 674.25 145.85 689.12 154.69 C 729.97 178.99 744.54 237.58 721.46 284.72 C 706.01 316.26 675.53 333.53 636.53 332.84 C 631.56 332.75 625.92 332.52 624.00 332.32ZM 657.01 294.08 C 673.19 289.08 684.50 277.43 690.60 259.50 C 693.04 252.33 693.33 250.05 693.36 237.50 C 693.39 224.89 693.13 222.69 690.68 215.34 C 681.75 188.47 657.19 173.56 629.06 177.92 C 617.00 179.79 607.73 184.26 600.01 191.92 C 592.53 199.33 589.00 205.09 585.27 216.00 C 583.06 222.44 582.69 225.27 582.66 236.00 C 582.63 242.92 583.19 250.96 583.91 254.00 C 585.71 261.63 592.10 274.63 596.64 279.91 C 603.63 288.04 615.20 294.12 627.39 296.07 C 635.17 297.31 649.71 296.33 657.01 294.08Z"/></g>
<g fill="#E00716FE">
<path d="M 3.00 328.70 C 3.00 328.31 11.82 308.51 16.46 298.50 C 18.50 294.10 25.47 278.57 31.96 264.00 C 38.45 249.43 47.23 229.85 51.47 220.50 C 65.92 188.65 76.77 164.52 81.04 154.73 L 85.30 144.96 L 105.83 145.23 L 126.35 145.50 L 135.26 165.50 C 140.17 176.50 148.48 194.95 153.74 206.50 C 165.35 232.00 172.26 247.36 175.99 256.00 C 177.54 259.57 181.37 268.12 184.50 275.00 C 187.62 281.88 191.46 290.43 193.02 294.00 C 194.57 297.57 198.80 306.80 202.40 314.50 L 208.96 328.50 L 188.26 328.77 C 176.87 328.92 167.05 328.85 166.43 328.61 C 165.81 328.37 162.49 321.73 159.05 313.84 C 155.61 305.95 152.15 298.48 151.37 297.24 L 149.94 294.98 L 105.31 295.24 L 60.68 295.50 L 53.12 312.25 L 45.57 329.00 L 24.28 329.00 C 12.58 329.00 3.00 328.87 3.00 328.70ZM 133.48 258.03 C 133.81 257.50 132.75 254.02 131.13 250.28 C 117.70 219.40 110.49 202.78 108.75 198.72 C 107.63 196.08 106.22 194.09 105.62 194.29 C 105.03 194.49 102.91 198.44 100.92 203.08 C 98.92 207.71 94.50 218.03 91.08 226.00 C 87.67 233.97 83.27 243.96 81.31 248.19 C 79.35 252.42 78.01 256.58 78.34 257.44 C 78.86 258.80 82.40 259.00 105.91 259.00 C 122.18 259.00 133.12 258.62 133.48 258.03Z"/></g>
<g fill="#E00716FE">
<path d="M 1230.00 237.00 L 1230.00 145.00 L 1245.75 145.00 L 1261.50 145.00 L 1281.17 169.75 C 1291.98 183.36 1309.08 204.85 1319.16 217.50 C 1329.24 230.15 1338.73 242.19 1340.25 244.25 C 1341.77 246.31 1343.46 248.00 1344.01 248.00 C 1344.65 248.00 1345.00 229.95 1345.00 196.50 L 1345.00 145.00 L 1365.00 145.00 L 1385.00 145.00 L 1385.00 230.50 L 1385.00 316.00 L 1375.00 316.00 L 1365.00 316.00 L 1365.00 322.50 L 1365.00 329.00 L 1362.07 329.00 C 1359.47 329.00 1357.71 327.19 1346.76 313.25 C 1329.93 291.83 1289.40 239.91 1284.61 233.61 C 1275.59 221.77 1270.77 216.00 1269.91 216.00 C 1269.37 216.00 1269.00 239.05 1269.00 272.50 L 1269.00 329.00 L 1249.50 329.00 L 1230.00 329.00 L 1230.00 237.00Z"/></g>
<g fill="#E00716FE">
<path d="M 898.24 237.25 L 898.50 145.50 L 968.25 145.24 L 1038.00 144.99 L 1038.00 163.98 L 1038.00 182.98 L 987.75 183.24 L 937.50 183.50 L 937.50 201.00 L 937.50 218.50 L 985.75 218.76 L 1034.00 219.02 L 1034.00 237.01 L 1034.00 255.00 L 987.08 255.00 C 961.28 255.00 939.45 255.27 938.58 255.61 C 937.23 256.13 937.00 258.63 937.00 273.11 L 937.00 290.00 L 987.50 290.00 L 1038.00 290.00 L 1038.00 309.50 L 1038.00 329.00 L 967.99 329.00 L 897.99 329.00 L 898.24 237.25Z"/></g>
<g fill="#E00716FE">
<path d="M 273.00 332.03 C 245.37 328.49 224.35 314.49 212.71 291.85 C 204.02 274.94 202.83 262.99 203.21 196.00 L 203.50 145.50 L 223.00 145.50 L 242.50 145.50 L 243.03 205.00 C 243.39 245.80 243.91 265.51 244.69 267.70 C 250.72 284.61 261.22 293.51 278.30 296.16 C 297.08 299.08 314.10 291.62 321.35 277.28 C 326.44 267.24 326.37 268.09 326.95 205.00 L 327.50 145.50 L 346.79 145.23 L 366.09 144.96 L 365.78 207.23 L 365.47 269.50 L 362.68 278.46 C 357.70 294.45 349.23 307.79 338.76 316.13 C 331.96 321.54 317.40 328.38 308.50 330.34 C 299.76 332.27 281.59 333.13 273.00 332.03Z"/></g>
<g fill="#E00716FE">
<path d="M 1133.91 332.04 C 1098.27 327.49 1072.68 307.92 1060.44 275.86 C 1055.48 262.85 1054.00 254.15 1054.00 238.00 C 1054.00 221.51 1055.58 212.44 1060.71 199.50 C 1074.17 165.57 1100.67 146.32 1140.00 141.89 C 1168.17 138.72 1196.44 148.24 1217.28 167.90 L 1221.06 171.46 L 1207.78 184.14 L 1194.50 196.81 L 1192.00 194.54 C 1175.92 179.89 1151.66 175.17 1129.50 182.39 C 1104.28 190.60 1089.17 216.95 1092.92 246.18 C 1096.26 272.26 1111.39 289.37 1135.67 294.52 C 1155.36 298.69 1177.07 293.53 1190.83 281.40 L 1196.17 276.70 L 1209.59 290.09 C 1216.97 297.45 1222.89 303.80 1222.75 304.18 C 1222.21 305.71 1209.89 315.68 1204.66 318.83 C 1197.24 323.31 1186.23 327.71 1176.50 330.10 C 1167.35 332.35 1144.47 333.39 1133.91 332.04Z"/></g>
<g fill="#A4A3A3FE">
<path d="M 1555.97 438.00 C 1532.32 435.14 1515.58 422.42 1507.66 401.29 C 1503.87 391.20 1502.63 383.11 1503.32 373.18 C 1504.77 352.59 1515.14 333.68 1530.41 323.81 C 1533.67 321.70 1539.98 318.79 1544.42 317.34 C 1551.20 315.12 1554.35 314.69 1564.00 314.66 C 1583.75 314.59 1594.88 318.88 1607.62 331.47 C 1621.17 344.88 1626.56 359.10 1625.78 379.39 C 1624.65 408.46 1608.03 430.01 1581.89 436.30 C 1573.39 438.35 1563.95 438.96 1555.97 438.00ZM 1577.36 412.80 C 1586.60 409.79 1591.92 404.97 1596.73 395.24 C 1600.40 387.80 1600.50 387.32 1600.50 376.55 C 1600.50 366.15 1600.31 365.12 1597.30 358.97 C 1593.70 351.61 1585.30 342.90 1579.30 340.29 C 1576.54 339.09 1572.49 338.64 1564.50 338.63 C 1554.97 338.61 1552.91 338.92 1549.11 340.90 C 1542.86 344.15 1535.86 351.55 1532.44 358.51 C 1529.89 363.70 1529.46 365.85 1529.16 374.57 C 1528.77 386.50 1529.69 390.52 1534.73 398.69 C 1539.53 406.49 1543.37 409.62 1551.77 412.58 C 1560.45 415.65 1568.40 415.71 1577.36 412.80Z"/></g>
<g fill="#A4A3A3FE">
<path d="M 1783.00 438.36 C 1774.42 437.37 1763.98 434.50 1757.94 431.47 C 1737.62 421.25 1724.51 391.70 1729.07 366.43 C 1732.93 345.06 1744.04 328.92 1760.50 320.74 C 1769.98 316.03 1776.61 314.64 1789.50 314.66 C 1799.75 314.68 1802.68 315.06 1809.58 317.33 C 1832.83 324.96 1846.33 342.14 1849.96 368.73 C 1853.44 394.20 1840.54 421.22 1820.00 431.53 C 1810.11 436.49 1793.44 439.57 1783.00 438.36ZM 1800.12 413.58 C 1814.87 409.10 1822.67 399.61 1824.81 383.50 C 1827.34 364.50 1819.64 348.02 1805.00 341.13 C 1800.14 338.84 1798.27 338.54 1789.00 338.58 C 1780.03 338.63 1777.85 338.97 1774.03 340.95 C 1766.69 344.75 1763.90 347.20 1759.90 353.33 C 1750.02 368.48 1751.47 390.69 1763.17 403.49 C 1768.50 409.32 1771.74 411.46 1778.50 413.60 C 1783.89 415.31 1794.46 415.29 1800.12 413.58Z"/></g>
<g fill="#E00716FE">
<path d="M 787.76 255.25 L 787.50 181.50 L 759.25 181.23 L 731.00 180.97 L 731.00 162.98 L 731.00 145.00 L 807.50 145.00 L 884.00 145.00 L 884.00 163.00 L 884.00 181.00 L 855.50 181.00 L 827.00 181.00 L 827.00 255.00 L 827.00 329.00 L 807.51 329.00 L 788.01 329.00 L 787.76 255.25Z"/></g>
<g fill="#E00716FE">
<path d="M 440.00 255.00 L 440.00 181.00 L 411.50 181.00 L 383.00 181.00 L 383.00 163.00 L 383.00 145.00 L 459.50 145.00 L 536.00 145.00 L 536.00 162.98 L 536.00 180.97 L 507.75 181.23 L 479.50 181.50 L 479.24 255.25 L 478.99 329.00 L 459.49 329.00 L 440.00 329.00 L 440.00 255.00Z"/></g>
<g fill="#A4A3A3FE">
<path d="M 1864.00 375.92 L 1864.00 315.84 L 1896.75 316.55 C 1927.11 317.20 1930.02 317.42 1936.65 319.55 C 1944.66 322.13 1946.28 323.21 1953.72 330.90 C 1960.38 337.79 1963.46 346.04 1963.46 357.00 C 1963.47 373.21 1956.10 385.91 1943.33 391.67 C 1940.12 393.11 1937.32 394.44 1937.11 394.62 C 1936.57 395.08 1943.11 402.95 1948.55 408.39 C 1958.45 418.29 1969.00 431.32 1969.00 433.65 L 1969.00 436.00 L 1955.14 436.00 L 1941.28 436.00 L 1932.34 426.25 C 1927.43 420.89 1919.63 412.10 1915.03 406.71 L 1906.65 396.93 L 1897.57 397.21 L 1888.50 397.50 L 1888.23 416.75 L 1887.96 436.00 L 1875.98 436.00 L 1864.00 436.00 L 1864.00 375.92ZM 1930.62 371.44 C 1935.51 367.78 1937.35 364.40 1937.76 358.26 C 1938.09 353.28 1937.77 351.93 1935.40 348.32 C 1930.82 341.37 1927.61 340.50 1906.54 340.50 L 1888.50 340.50 L 1888.22 355.96 C 1888.07 364.46 1888.18 372.03 1888.47 372.78 C 1888.90 373.89 1892.68 374.09 1908.43 373.83 C 1926.21 373.53 1928.09 373.32 1930.62 371.44Z"/></g>
<g fill="#A4A3A3FE">
<path d="M 1365.99 386.25 C 1365.99 358.89 1365.70 332.11 1365.34 326.75 L 1364.70 317.00 L 1379.16 317.00 L 1393.62 317.00 L 1399.32 324.75 C 1402.46 329.01 1407.04 335.20 1409.49 338.50 C 1411.95 341.80 1417.00 348.87 1420.73 354.21 C 1424.45 359.56 1427.95 363.92 1428.50 363.92 C 1429.05 363.91 1432.57 359.76 1436.32 354.70 C 1452.48 332.88 1462.23 319.41 1462.70 318.25 C 1463.08 317.33 1467.03 317.00 1477.61 317.00 L 1492.00 317.00 L 1492.00 376.50 L 1492.00 436.00 L 1479.00 436.00 L 1466.00 436.00 L 1466.00 397.50 C 1466.00 374.38 1465.63 359.00 1465.07 359.00 C 1464.56 359.00 1463.14 360.46 1461.91 362.25 C 1460.69 364.04 1459.19 365.95 1458.57 366.50 C 1457.96 367.05 1453.68 372.68 1449.06 379.00 C 1433.42 400.43 1431.98 401.99 1427.85 402.00 C 1424.58 402.00 1423.89 401.50 1421.07 397.11 C 1419.34 394.42 1416.90 391.10 1415.63 389.74 C 1414.37 388.37 1412.47 385.89 1411.42 384.21 C 1405.95 375.52 1393.43 359.00 1392.30 359.00 C 1391.26 359.00 1391.00 366.63 1391.00 397.50 L 1391.00 436.00 L 1378.50 436.00 L 1366.00 436.00 L 1365.99 386.25Z"/></g>
<g fill="#E00716FE">
<path d="M 1410.00 237.00 L 1410.00 145.00 L 1429.50 145.00 L 1449.00 145.00 L 1449.00 237.00 L 1449.00 329.00 L 1429.50 329.00 L 1410.00 329.00 L 1410.00 237.00Z"/></g>
<g fill="#A4A3A3FE">
<path d="M 1662.00 389.58 C 1662.00 364.05 1661.73 342.45 1661.39 341.58 C 1660.87 340.22 1658.29 340.00 1642.89 340.00 L 1625.00 340.00 L 1625.00 328.50 L 1625.00 317.00 L 1674.00 317.00 L 1723.00 317.00 L 1723.00 328.50 L 1723.00 340.00 L 1705.00 340.00 L 1687.00 340.00 L 1687.00 388.00 L 1687.00 436.00 L 1674.50 436.00 L 1662.00 436.00 L 1662.00 389.58Z"/></g>
<g fill="#A4A3A3FE">
<path d="M 1975.00 376.50 L 1975.00 317.00 L 1988.00 317.00 L 2001.00 317.00 L 2001.00 376.50 L 2001.00 436.00 L 1988.00 436.00 L 1975.00 436.00 L 1975.00 376.50Z"/></g>
</svg>
