<?xml version="1.0" encoding="utf-8"?>
<!DOCTYPE svg PUBLIC "-//W3C//DTD SVG 20010904//EN" "http://www.w3.org/TR/2001/REC-SVG-20010904/DTD/svg10.dtd">
<svg version="1.0" xmlns="http://www.w3.org/2000/svg" width="223pt" height="84pt" viewBox="0 0 223 84" preserveAspectRatio="xMidYMid meet">
<g fill="#E2290AFF">
<path d="M 18.50 47.78 C 6.49 43.52 -0.57 31.48 2.35 20.22 C 3.69 15.06 6.41 10.00 7.84 10.00 C 8.28 10.00 10.85 13.94 13.54 18.75 C 20.93 31.95 24.02 34.23 29.01 30.19 C 31.75 27.97 31.94 23.69 29.41 20.90 C 28.04 19.38 26.59 18.95 23.68 19.18 C 19.87 19.49 19.72 19.37 15.91 13.09 C 11.38 5.61 11.64 4.83 19.37 2.58 C 23.81 1.29 25.31 1.26 29.58 2.39 C 36.44 4.20 38.18 5.26 42.72 10.42 C 48.91 17.45 50.26 23.94 47.33 32.54 C 43.29 44.39 29.50 51.68 18.50 47.78ZM 35.37 40.98 C 46.87 33.68 46.64 17.40 34.91 9.58 C 29.81 6.17 18.97 5.61 19.03 8.75 C 19.08 11.42 21.47 14.00 23.89 14.00 C 27.50 14.00 32.74 16.67 34.55 19.44 C 35.78 21.31 36.11 23.31 35.75 26.56 C 35.15 31.83 33.41 34.09 28.63 35.82 C 22.92 37.88 18.30 35.21 13.11 26.84 C 10.78 23.08 8.50 20.00 8.05 20.00 C 6.65 20.00 5.93 24.73 6.65 29.19 C 7.16 32.41 8.44 34.54 12.03 38.12 C 16.91 43.01 18.45 43.64 26.05 43.86 C 29.55 43.97 31.71 43.30 35.37 40.98Z"/></g>
<g fill="#030303FF">
<path d="M 115.64 70.50 C 114.82 69.68 113.59 66.52 112.91 63.48 C 111.82 58.62 111.43 58.04 109.59 58.54 C 107.56 59.09 107.56 59.06 109.39 57.59 C 111.23 56.11 111.21 55.96 108.54 52.47 C 105.85 48.93 105.84 48.86 107.90 48.32 C 109.20 47.98 110.01 46.95 110.02 45.63 C 110.03 44.15 110.28 43.89 110.85 44.79 C 111.49 45.80 113.58 45.52 120.87 43.43 C 130.51 40.67 135.67 40.69 138.02 43.52 C 140.26 46.22 136.75 49.60 128.53 52.69 C 124.40 54.23 121.02 55.77 121.01 56.10 C 120.99 57.06 135.20 58.00 139.38 57.33 C 142.08 56.89 143.41 56.06 144.03 54.42 C 144.51 53.15 145.80 51.64 146.89 51.06 C 149.63 49.59 153.04 49.71 152.48 51.25 C 152.23 51.94 152.41 53.11 152.88 53.85 C 153.56 54.91 154.21 54.96 155.87 54.07 C 157.04 53.44 158.00 52.53 158.00 52.04 C 158.00 50.64 160.99 48.00 162.57 48.00 C 163.36 48.00 164.00 48.40 164.00 48.89 C 164.00 49.38 163.21 49.72 162.25 49.64 C 161.14 49.55 160.38 50.33 160.18 51.75 C 159.74 54.84 161.76 54.55 166.00 50.93 C 169.38 48.04 169.52 48.00 170.00 50.04 C 170.49 52.08 170.62 52.06 174.65 49.14 C 176.93 47.48 179.13 45.60 179.53 44.96 C 180.07 44.08 180.46 44.12 181.06 45.10 C 181.72 46.16 182.25 46.08 183.77 44.71 C 185.91 42.77 187.00 42.53 187.00 44.00 C 187.00 44.55 186.35 45.00 185.55 45.00 C 184.75 45.00 182.89 46.59 181.41 48.53 C 179.93 50.47 178.49 51.83 178.22 51.55 C 177.94 51.27 178.29 50.35 179.00 49.50 C 181.48 46.51 179.03 46.77 175.50 49.87 C 171.87 53.05 169.59 53.76 168.53 52.05 C 168.21 51.52 166.33 52.19 164.33 53.55 C 161.56 55.43 160.39 55.74 159.36 54.88 C 158.35 54.04 157.63 54.06 156.56 54.95 C 155.77 55.61 154.26 56.00 153.21 55.82 C 152.16 55.65 150.56 56.12 149.65 56.87 C 147.53 58.63 131.03 59.38 121.50 58.15 C 117.65 57.66 114.19 57.43 113.82 57.64 C 113.44 57.86 114.20 61.18 115.51 65.02 C 116.81 68.86 117.71 72.00 117.51 72.00 C 117.31 72.00 116.47 71.33 115.64 70.50ZM 149.17 55.35 C 151.29 53.43 151.59 51.00 149.70 51.00 C 147.84 51.00 146.00 53.09 146.00 55.20 C 146.00 57.44 146.82 57.47 149.17 55.35ZM 120.99 53.96 C 129.61 51.72 137.08 46.55 135.46 43.94 C 134.38 42.18 123.65 43.35 116.75 45.96 C 111.39 48.00 111.04 48.33 111.58 50.82 C 112.63 55.64 112.97 56.14 114.75 55.63 C 115.71 55.35 118.52 54.60 120.99 53.96Z"/></g>
<g fill="#E2290AFF">
<path d="M 59.63 38.29 C 58.72 37.38 58.89 22.73 59.83 21.25 C 60.36 20.40 61.72 21.95 63.99 25.99 C 65.85 29.28 68.23 32.26 69.29 32.59 C 72.08 33.48 74.41 30.78 73.61 27.58 C 73.10 25.56 72.34 25.00 70.10 25.00 C 66.88 25.00 66.43 24.55 62.41 17.28 C 59.31 11.66 59.84 9.18 63.90 10.47 C 65.61 11.01 66.00 11.94 66.00 15.54 C 66.00 19.90 66.03 19.94 68.99 19.35 C 75.14 18.12 81.00 23.05 81.00 29.43 C 81.00 30.83 79.74 33.38 78.19 35.11 C 75.58 38.04 74.85 38.28 67.82 38.59 C 63.66 38.77 59.97 38.64 59.63 38.29Z"/></g>
<g fill="#E2290AFF">
<path d="M 152.63 38.30 C 151.75 37.42 151.97 24.94 152.91 22.54 C 153.56 20.88 154.19 21.48 157.15 26.54 C 160.98 33.10 164.04 34.33 166.67 30.37 C 167.91 28.50 167.89 28.03 166.47 26.62 C 165.58 25.73 163.80 25.00 162.51 25.00 C 160.73 25.00 159.28 23.60 156.58 19.28 C 152.21 12.31 152.06 10.76 155.75 11.18 C 158.19 11.46 158.53 11.96 158.80 15.61 L 159.10 19.71 L 163.06 19.43 C 166.10 19.21 167.72 19.73 170.01 21.66 C 172.55 23.80 173.00 24.88 173.00 28.91 C 173.00 36.02 170.26 38.17 160.68 38.60 C 156.60 38.78 152.98 38.65 152.63 38.30Z"/></g>
<g fill="#E2290AFF">
<path d="M 131.71 38.38 C 131.32 37.99 131.00 34.82 131.00 31.33 C 131.00 25.39 130.86 25.00 128.70 25.00 C 127.44 25.00 125.93 25.47 125.35 26.05 C 124.61 26.79 123.81 26.36 122.67 24.62 C 119.72 20.12 120.07 19.66 126.50 19.48 C 130.03 19.38 133.28 19.85 134.40 20.60 C 135.97 21.67 136.79 21.64 139.10 20.45 C 143.07 18.39 144.56 18.63 146.97 21.69 C 148.75 23.95 149.03 25.49 148.79 31.44 C 148.51 38.32 148.43 38.51 145.75 38.82 C 143.05 39.13 143.00 39.04 143.00 33.65 C 143.00 26.62 142.33 25.00 139.44 25.00 C 137.24 25.00 137.07 25.42 136.80 31.75 C 136.54 37.67 136.25 38.54 134.46 38.79 C 133.34 38.95 132.10 38.77 131.71 38.38Z"/></g>
<g fill="#E2290AFF">
<path d="M 178.86 36.02 C 176.33 33.49 175.93 32.39 176.19 28.77 C 176.36 26.42 176.88 24.50 177.35 24.50 C 177.82 24.50 179.21 26.30 180.43 28.50 C 182.90 32.92 186.71 34.26 188.98 31.52 C 191.14 28.92 188.82 25.20 184.80 24.82 C 182.03 24.55 181.50 24.10 181.50 22.00 C 181.50 19.86 182.01 19.46 185.00 19.21 C 189.28 18.85 194.84 23.13 195.13 27.00 C 195.59 33.28 195.00 35.03 191.75 37.01 C 186.93 39.95 182.45 39.60 178.86 36.02Z"/></g>
<g fill="#030303FF">
<path d="M 191.25 58.01 C 187.59 55.78 187.28 54.47 189.62 51.14 C 191.60 48.31 190.05 45.88 187.58 47.94 C 186.75 48.63 185.49 48.95 184.78 48.66 C 183.98 48.33 184.36 47.87 185.79 47.44 C 187.08 47.05 188.69 45.28 189.49 43.37 C 190.45 41.07 191.56 40.00 192.98 40.00 C 196.10 40.00 196.58 42.75 193.95 45.55 C 192.69 46.90 192.15 48.00 192.77 48.00 C 193.38 48.00 194.17 47.53 194.53 46.96 C 196.18 44.28 215.39 35.06 216.66 36.33 C 216.92 36.59 215.42 37.36 213.32 38.04 C 207.78 39.83 197.85 44.90 195.33 47.21 C 193.16 49.20 193.16 49.22 195.07 52.35 C 197.25 55.93 197.61 60.00 195.75 60.00 C 195.06 59.99 193.04 59.10 191.25 58.01ZM 196.00 57.58 C 196.00 56.03 192.81 50.02 191.99 50.01 C 191.71 50.00 190.91 50.91 190.22 52.02 C 189.12 53.77 189.29 54.38 191.43 56.52 C 194.20 59.30 196.00 59.71 196.00 57.58ZM 194.36 43.80 C 194.95 42.86 195.09 41.75 194.67 41.33 C 193.60 40.27 190.57 42.36 190.16 44.45 C 189.72 46.68 192.85 46.20 194.36 43.80Z"/></g>
<g fill="#030303FF">
<path d="M 120.00 81.21 C 120.00 80.16 150.48 67.58 169.99 60.57 C 187.40 54.31 186.00 54.72 186.00 55.84 C 186.00 56.30 184.09 57.25 181.75 57.94 C 175.35 59.83 141.72 73.23 131.65 77.90 C 122.94 81.93 120.00 82.77 120.00 81.21Z"/></g>
<g fill="#E2290AFF">
<path d="M 99.96 36.25 C 97.45 34.01 96.87 32.70 96.82 29.20 C 96.76 25.04 97.86 22.34 98.68 24.61 C 98.90 25.23 100.43 27.86 102.07 30.46 C 104.39 34.11 105.46 35.02 106.79 34.44 C 109.81 33.13 115.00 32.73 115.00 33.82 C 115.00 34.39 113.81 35.79 112.37 36.93 C 108.61 39.88 103.72 39.62 99.96 36.25Z"/></g>
<g fill="#E2290AFF">
<path d="M 104.67 28.33 C 103.62 27.28 103.89 25.81 105.01 26.51 C 106.72 27.56 109.95 26.03 109.34 24.45 C 108.70 22.76 105.87 22.53 104.36 24.04 C 103.63 24.77 102.90 24.58 101.95 23.43 C 98.97 19.85 107.30 17.42 111.78 20.56 C 114.30 22.33 117.24 27.42 116.29 28.37 C 115.45 29.21 105.51 29.18 104.67 28.33Z"/></g>
<g fill="#E2290AFF">
<path d="M 83.67 38.33 C 82.69 37.36 82.85 26.00 83.84 26.00 C 85.23 26.00 90.22 35.98 89.62 37.55 C 89.06 39.02 84.90 39.56 83.67 38.33Z"/></g>
<g fill="#E2290AFF">
<path d="M 119.67 38.33 C 118.69 37.36 118.85 27.00 119.84 27.00 C 121.25 27.00 125.30 35.78 124.66 37.44 C 124.06 39.01 120.91 39.57 119.67 38.33Z"/></g>
<g fill="#E2290AFF">
<path d="M 87.16 24.45 C 85.35 20.47 85.70 20.00 90.50 20.00 C 94.28 20.00 95.00 20.31 95.00 21.93 C 95.00 23.09 93.75 24.48 91.85 25.43 C 90.11 26.29 88.61 27.00 88.51 27.00 C 88.40 27.00 87.80 25.85 87.16 24.45Z"/></g>
<g fill="#030303FF">
<path d="M 197.49 51.98 C 196.94 51.10 218.48 45.66 220.23 46.24 C 220.83 46.44 218.67 47.20 215.41 47.92 C 212.16 48.64 206.91 50.03 203.75 51.01 C 200.58 51.99 197.77 52.43 197.49 51.98Z"/></g>
<g fill="#C2452CFF">
<path d="M 142.32 33.00 C 142.32 29.42 142.50 27.96 142.72 29.75 C 142.95 31.54 142.95 34.46 142.72 36.25 C 142.50 38.04 142.32 36.58 142.32 33.00Z"/></g>
<g fill="#EA7A62FF">
<path d="M 107.75 29.28 C 109.54 29.05 112.46 29.05 114.25 29.28 C 116.04 29.50 114.58 29.68 111.00 29.68 C 107.42 29.68 105.96 29.50 107.75 29.28Z"/></g>
<g fill="#434443FF">
<path d="M 175.62 49.19 C 175.31 48.70 176.27 47.21 177.75 45.90 C 179.23 44.58 179.90 44.21 179.24 45.07 C 178.45 46.12 178.38 47.04 179.03 47.82 C 179.57 48.46 179.72 48.77 179.35 48.50 C 178.98 48.23 178.12 48.49 177.43 49.06 C 176.71 49.66 175.94 49.71 175.62 49.19Z"/></g>
<g fill="#FCAF9CFF">
<path d="M 137.31 32.50 C 137.32 29.20 137.50 27.97 137.72 29.77 C 137.95 31.57 137.94 34.27 137.71 35.77 C 137.49 37.27 137.30 35.80 137.31 32.50Z"/></g>
<g fill="#FCAF9CFF">
<path d="M 130.31 32.50 C 130.32 29.20 130.50 27.97 130.72 29.77 C 130.95 31.57 130.94 34.27 130.71 35.77 C 130.49 37.27 130.30 35.80 130.31 32.50Z"/></g>
<g fill="#FCAF9CFF">
<path d="M 86.19 39.31 C 88.83 39.01 90.00 38.33 90.32 36.93 C 90.67 35.40 90.74 35.46 90.63 37.23 C 90.52 39.17 89.91 39.52 86.50 39.62 L 82.50 39.74 L 86.19 39.31Z"/></g>
</svg>
