<?xml version="1.0" encoding="utf-8"?>
<!DOCTYPE svg PUBLIC "-//W3C//DTD SVG 20010904//EN" "http://www.w3.org/TR/2001/REC-SVG-20010904/DTD/svg10.dtd">
<svg version="1.0" xmlns="http://www.w3.org/2000/svg" width="223pt" height="89pt" viewBox="0 0 223 89" preserveAspectRatio="xMidYMid meet">
<g fill="#BC1811FF">
<path d="M 135.54 75.80 C 137.32 67.59 136.54 68.00 150.48 68.00 C 160.94 68.00 163.00 68.25 163.00 69.50 C 163.00 70.43 162.06 71.00 160.54 71.00 C 158.51 71.00 157.89 71.71 157.00 75.00 C 156.18 78.03 155.42 79.00 153.85 79.00 C 152.37 79.00 151.96 78.55 152.40 77.41 C 154.39 72.23 154.27 71.00 151.78 71.00 C 149.81 71.00 149.18 71.70 148.43 74.75 L 147.50 78.50 L 141.16 78.80 L 134.82 79.10 L 135.54 75.80ZM 144.30 76.25 C 144.53 75.84 145.02 74.26 145.38 72.75 C 145.97 70.30 145.76 70.00 143.49 70.00 C 141.14 70.00 139.00 72.88 139.00 76.07 C 139.00 77.17 143.69 77.34 144.30 76.25Z"/></g>
<g fill="#BC1811FF">
<path d="M 163.54 75.80 C 165.18 68.23 165.43 68.00 171.81 68.00 C 175.03 68.00 177.91 68.25 178.22 68.55 C 178.52 68.85 178.01 71.22 177.09 73.80 L 175.41 78.50 L 169.12 78.80 L 162.82 79.10 L 163.54 75.80ZM 173.01 75.75 C 173.02 75.06 173.30 73.49 173.63 72.25 C 174.14 70.35 173.84 70.00 171.71 70.00 C 169.79 70.00 168.94 70.74 168.10 73.15 C 167.49 74.88 167.00 76.46 167.00 76.65 C 167.00 76.84 168.35 77.00 170.00 77.00 C 171.73 77.00 173.01 76.47 173.01 75.75Z"/></g>
<g fill="#0A0C0EFF">
<path d="M 81.40 59.54 C 81.74 58.19 82.45 55.94 82.98 54.54 L 83.95 52.00 L 96.98 52.00 C 104.37 52.00 110.00 52.40 110.00 52.93 C 110.00 53.45 108.80 54.01 107.33 54.18 C 105.30 54.43 104.39 55.33 103.49 58.00 C 102.45 61.11 99.00 63.59 99.00 61.22 C 99.00 58.45 101.38 53.93 102.59 54.40 C 103.33 54.68 104.25 54.41 104.62 53.80 C 105.10 53.02 104.32 52.89 102.03 53.34 C 100.23 53.70 98.13 54.00 97.38 54.00 C 96.62 54.00 96.00 54.62 96.00 55.38 C 96.00 56.14 95.30 57.33 94.45 58.04 C 93.60 58.74 93.14 59.92 93.42 60.66 C 94.18 62.64 90.96 62.31 89.39 60.25 C 87.55 57.83 87.68 57.00 89.89 57.00 C 91.49 57.00 93.00 55.22 93.00 53.35 C 93.00 53.09 91.76 53.01 90.25 53.18 C 87.99 53.44 87.26 54.26 86.16 57.75 C 85.16 60.90 84.29 62.00 82.80 62.00 C 81.16 62.00 80.90 61.54 81.40 59.54Z"/></g>
<g fill="#0A0C0EFF">
<path d="M 202.39 59.80 C 202.75 58.54 203.32 56.26 203.65 54.75 C 204.23 52.10 204.48 52.00 210.62 52.00 C 214.13 52.00 216.99 52.11 216.98 52.25 C 216.98 52.39 216.37 54.52 215.63 57.00 L 214.29 61.50 L 208.01 61.80 C 201.89 62.10 201.76 62.05 202.39 59.80ZM 212.95 54.25 C 212.98 53.56 211.86 53.00 210.48 53.00 C 208.69 53.00 207.67 53.75 206.98 55.57 C 205.57 59.25 205.73 59.82 208.25 60.20 C 210.44 60.53 212.84 57.50 212.95 54.25Z"/></g>
<g fill="#BC1811FF">
<path d="M 119.56 75.25 C 119.19 73.19 118.66 70.71 118.38 69.75 C 117.99 68.42 118.45 68.00 120.31 68.00 C 122.22 68.00 122.88 68.65 123.35 71.00 C 123.68 72.65 124.40 74.00 124.95 74.00 C 125.49 74.00 126.94 72.65 128.16 71.00 C 129.51 69.17 131.28 68.00 132.69 68.00 C 135.35 68.00 135.42 68.39 133.79 74.49 C 132.93 77.71 132.07 79.00 130.79 79.00 C 129.81 79.00 129.00 78.33 129.00 77.50 C 129.00 76.67 128.61 76.00 128.12 76.00 C 127.64 76.00 126.68 76.67 126.00 77.50 C 125.32 78.33 123.74 79.00 122.49 79.00 C 120.65 79.00 120.10 78.28 119.56 75.25Z"/></g>
<g fill="#0A0C0EFF">
<path d="M 18.40 61.28 C 19.83 60.91 19.97 60.60 18.98 59.99 C 17.99 59.38 17.90 58.34 18.61 55.84 C 19.55 52.55 19.67 52.50 25.90 52.20 C 32.22 51.90 32.24 51.91 31.61 54.41 C 29.75 61.85 29.55 62.01 22.77 61.88 C 19.32 61.82 17.35 61.55 18.40 61.28ZM 29.76 57.44 C 30.50 55.02 30.50 53.81 29.75 53.35 C 29.17 52.99 28.92 53.10 29.21 53.60 C 29.49 54.09 29.11 55.85 28.36 57.50 L 26.99 60.50 L 27.63 56.66 L 28.26 52.82 L 24.88 53.15 C 21.37 53.48 19.06 55.41 19.07 58.00 C 19.07 58.89 19.68 58.49 20.57 57.00 L 22.08 54.50 L 21.51 57.54 C 20.95 60.48 21.06 60.58 24.82 60.73 C 28.42 60.87 28.78 60.63 29.76 57.44Z"/></g>
<g fill="#BC1811FF">
<path d="M 178.32 77.60 C 178.62 76.84 179.41 74.36 180.09 72.10 L 181.32 68.00 L 187.66 68.00 C 193.71 68.00 194.00 68.11 194.00 70.43 C 194.00 71.76 193.33 73.53 192.50 74.35 C 191.68 75.18 191.28 76.56 191.61 77.43 C 192.51 79.78 188.31 79.45 187.04 77.07 C 185.49 74.18 185.77 73.00 188.00 73.00 C 189.11 73.00 190.00 72.33 190.00 71.50 C 190.00 70.57 189.06 70.00 187.50 70.00 C 185.37 70.00 184.81 70.69 183.79 74.50 C 182.79 78.25 182.18 79.00 180.19 79.00 C 178.54 79.00 177.96 78.56 178.32 77.60Z"/></g>
<g fill="#0A0C0EFF">
<path d="M 161.50 57.00 C 159.03 52.13 159.02 52.00 161.00 52.00 C 162.21 52.00 163.51 53.02 164.18 54.50 C 164.81 55.88 165.65 57.00 166.05 57.00 C 166.45 57.00 167.07 55.88 167.41 54.50 C 167.76 53.12 168.76 52.00 169.64 52.00 C 170.82 52.00 171.07 52.59 170.59 54.25 C 170.24 55.49 169.68 57.74 169.35 59.25 C 168.90 61.30 168.15 62.00 166.39 62.00 C 164.57 62.00 163.46 60.87 161.50 57.00ZM 166.71 60.38 C 166.37 60.04 166.75 59.11 167.55 58.31 C 168.35 57.51 169.00 56.35 169.00 55.74 C 169.00 55.12 168.32 55.49 167.50 56.56 C 166.03 58.45 165.92 58.42 163.46 55.50 L 160.93 52.50 L 162.02 55.47 C 163.33 59.01 164.86 61.00 166.29 61.00 C 166.86 61.00 167.05 60.72 166.71 60.38Z"/></g>
<g fill="#0A0C0EFF">
<path d="M 38.20 57.47 C 35.52 51.97 35.53 52.00 37.98 52.00 C 39.27 52.00 40.19 52.89 40.60 54.54 C 41.35 57.53 43.36 57.30 43.82 54.17 C 44.02 52.78 44.85 52.00 46.13 52.00 C 47.22 52.00 47.91 52.34 47.66 52.75 C 47.41 53.16 46.69 55.41 46.06 57.75 C 45.15 61.16 44.48 62.00 42.66 62.00 C 40.97 62.00 39.84 60.86 38.20 57.47ZM 44.95 57.00 C 44.94 55.79 44.67 55.84 43.60 57.26 C 42.17 59.14 40.98 58.38 39.69 54.75 C 39.34 53.79 38.61 53.00 38.05 53.00 C 37.41 53.00 37.45 53.90 38.18 55.50 C 38.81 56.88 39.73 58.00 40.22 58.00 C 40.71 58.00 40.86 58.42 40.55 58.92 C 39.75 60.22 43.34 60.82 44.23 59.55 C 44.64 58.97 44.96 57.83 44.95 57.00Z"/></g>
<g fill="#0A0C0EFF">
<path d="M 116.40 59.54 C 118.28 52.06 118.38 51.98 125.73 52.18 C 131.94 52.35 132.07 52.40 127.32 52.73 C 122.51 53.07 122.09 53.31 121.49 56.04 C 121.14 57.65 120.38 59.26 119.82 59.61 C 118.85 60.21 119.18 58.42 120.81 54.09 C 121.15 53.19 120.91 52.94 120.17 53.39 C 119.53 53.79 119.00 54.96 119.00 56.00 C 119.00 57.04 118.55 58.16 118.00 58.50 C 115.85 59.83 117.18 60.87 120.95 60.82 C 123.64 60.78 125.48 60.11 126.70 58.71 C 127.69 57.58 127.94 56.99 127.25 57.39 C 126.56 57.79 126.00 57.64 126.00 57.06 C 126.00 56.48 126.90 56.00 128.00 56.00 C 130.16 56.00 130.28 56.34 129.37 59.75 C 128.82 61.79 128.16 62.00 122.27 62.00 C 115.88 62.00 115.79 61.96 116.40 59.54Z"/></g>
<g fill="#0A0C0EFF">
<path d="M 2.00 61.44 C 2.00 61.14 2.50 58.89 3.12 56.44 L 4.24 52.00 L 11.18 52.00 C 14.99 52.00 17.87 52.40 17.57 52.88 C 17.28 53.36 15.03 53.53 12.58 53.26 C 8.21 52.76 8.10 52.82 7.22 56.13 C 6.63 58.35 5.76 59.45 4.66 59.36 C 3.75 59.28 3.00 59.67 3.00 60.21 C 3.00 60.83 5.25 60.94 9.00 60.50 C 13.11 60.02 15.00 60.15 15.00 60.90 C 15.00 61.59 12.55 62.00 8.50 62.00 C 4.92 62.00 2.00 61.75 2.00 61.44Z"/></g>
<g fill="#0A0C0EFF">
<path d="M 142.11 57.10 C 145.13 53.73 147.32 52.17 149.13 52.10 C 151.44 52.01 151.90 52.55 152.88 56.44 C 154.34 62.22 154.39 62.00 151.50 62.00 C 150.12 62.00 149.00 61.55 149.00 61.00 C 149.00 60.45 148.01 60.00 146.80 60.00 C 145.13 60.00 144.88 59.72 145.76 58.84 C 146.63 57.97 147.31 58.02 148.56 59.05 C 151.49 61.48 153.06 61.11 152.38 58.16 C 151.75 55.44 149.45 52.99 147.56 53.02 C 146.85 53.03 146.86 53.27 147.60 53.77 C 148.21 54.17 149.24 55.62 149.91 57.00 L 151.11 59.50 L 149.08 57.17 L 147.05 54.84 L 144.55 57.67 C 143.18 59.23 142.05 60.84 142.03 61.25 C 142.01 61.66 141.04 62.00 139.86 62.00 C 137.98 62.00 138.25 61.41 142.11 57.10Z"/></g>
<g fill="#0A0C0EFF">
<path d="M 173.83 59.25 C 177.28 54.44 180.69 51.82 183.05 52.17 C 184.79 52.43 185.55 53.55 186.49 57.25 C 187.67 61.91 187.65 62.00 185.35 62.00 C 184.06 62.00 183.00 61.55 183.00 61.00 C 183.00 60.45 182.07 60.00 180.94 60.00 C 179.81 60.00 179.16 59.55 179.50 59.00 C 179.89 58.38 181.18 58.56 183.00 59.50 C 185.79 60.94 185.87 60.92 185.35 58.75 C 185.05 57.51 184.83 55.71 184.84 54.75 C 184.90 51.87 182.84 52.74 178.35 57.50 C 173.67 62.45 170.72 63.60 173.83 59.25Z"/></g>
<g fill="#0A0C0EFF">
<path d="M 48.78 57.00 L 50.38 52.00 L 57.44 52.18 C 63.73 52.35 63.93 52.41 59.25 52.74 L 54.00 53.10 L 52.88 57.55 C 51.97 61.19 51.35 62.00 49.47 62.00 L 47.18 62.00 L 48.78 57.00ZM 50.64 59.50 C 50.32 58.67 50.45 58.00 50.91 58.00 C 51.38 58.00 51.98 56.88 52.24 55.50 C 52.93 51.89 51.61 52.43 50.20 56.32 C 48.72 60.42 48.71 61.00 50.11 61.00 C 50.72 61.00 50.95 60.33 50.64 59.50Z"/></g>
<g fill="#0A0C0EFF">
<path d="M 192.28 57.78 C 192.87 55.46 193.54 54.11 193.76 54.79 C 194.19 56.08 196.00 55.48 196.00 54.05 C 196.00 53.59 194.43 53.43 192.50 53.69 C 190.37 53.98 189.00 53.74 189.00 53.08 C 189.00 52.42 191.51 52.00 195.50 52.00 C 199.17 52.00 202.00 52.44 202.00 53.00 C 202.00 53.55 200.89 54.00 199.54 54.00 C 197.54 54.00 196.86 54.74 195.88 58.00 C 195.08 60.67 194.11 62.00 192.95 62.00 C 191.41 62.00 191.33 61.53 192.28 57.78Z"/></g>
<g fill="#0A0C0EFF">
<path d="M 74.00 61.00 C 74.00 60.45 73.01 60.00 71.80 60.00 C 70.11 60.00 69.87 59.73 70.78 58.82 C 71.68 57.92 72.40 58.05 73.88 59.39 C 76.28 61.57 77.40 60.11 76.49 55.98 C 75.89 53.23 73.00 51.65 73.00 54.06 C 73.00 54.64 73.52 54.80 74.15 54.40 C 74.88 53.95 75.04 54.13 74.57 54.89 C 74.16 55.55 74.20 56.65 74.66 57.34 C 75.12 58.03 74.68 57.70 73.68 56.60 C 72.27 55.05 71.68 54.90 71.06 55.91 C 70.47 56.87 70.06 56.91 69.54 56.06 C 68.44 54.28 70.94 52.00 74.00 52.00 C 76.43 52.00 76.90 52.53 77.88 56.44 C 79.34 62.22 79.39 62.00 76.50 62.00 C 75.12 62.00 74.00 61.55 74.00 61.00Z"/></g>
<g fill="#BC1811FF">
<path d="M 194.34 77.56 C 194.64 76.77 195.39 74.27 196.00 72.00 C 196.75 69.21 197.59 67.98 198.61 68.19 C 200.46 68.57 200.49 68.98 199.10 74.53 C 198.21 78.04 197.52 79.00 195.88 79.00 C 194.47 79.00 193.97 78.53 194.34 77.56Z"/></g>
<g fill="#0A0C0EFF">
<path d="M 110.41 59.75 C 110.76 58.51 111.32 56.26 111.65 54.75 C 112.06 52.87 112.88 52.00 114.24 52.00 C 115.83 52.00 116.10 52.46 115.59 54.25 C 115.24 55.49 114.68 57.74 114.35 59.25 C 113.94 61.13 113.12 62.00 111.76 62.00 C 110.17 62.00 109.90 61.54 110.41 59.75ZM 113.39 58.59 C 113.72 57.27 114.27 55.47 114.60 54.59 C 114.94 53.72 114.77 53.00 114.23 53.00 C 113.69 53.00 112.79 54.80 112.23 57.00 C 111.67 59.20 111.57 61.00 112.00 61.00 C 112.43 61.00 113.06 59.92 113.39 58.59Z"/></g>
<g fill="#0A0C0EFF">
<path d="M 131.34 61.25 C 131.59 60.84 132.31 58.59 132.94 56.25 C 133.76 53.17 134.59 52.00 135.95 52.00 C 137.74 52.00 137.75 52.21 136.22 57.00 C 135.05 60.65 134.11 62.00 132.75 62.00 C 131.72 62.00 131.09 61.66 131.34 61.25Z"/></g>
<g fill="#0A0C0EFF">
<path d="M 94.82 20.49 C 94.56 13.46 94.72 12.25 95.75 13.67 C 97.19 15.65 97.45 27.60 96.07 28.45 C 95.54 28.78 95.01 25.39 94.82 20.49Z"/></g>
<g fill="#908F91FF">
<path d="M 70.62 74.29 C 70.23 73.90 68.02 73.65 65.71 73.73 L 61.50 73.88 L 65.99 72.95 C 68.47 72.44 71.30 72.28 72.29 72.59 C 73.28 72.91 74.64 72.75 75.30 72.24 C 76.09 71.64 77.10 71.95 78.25 73.16 C 80.20 75.21 79.17 75.72 77.08 73.75 C 76.02 72.75 75.66 72.75 75.29 73.75 C 74.80 75.10 71.78 75.45 70.62 74.29Z"/></g>
<g fill="#2C2F31FF">
<path d="M 149.03 59.63 C 147.33 57.93 147.87 56.65 149.66 58.13 C 151.19 59.38 151.22 59.29 150.01 57.00 C 149.29 55.62 148.21 54.12 147.60 53.66 C 146.97 53.17 147.35 53.12 148.50 53.52 C 149.60 53.92 150.99 54.26 151.58 54.29 C 152.18 54.31 152.45 55.43 152.18 56.82 C 151.86 58.50 152.08 59.07 152.84 58.60 C 153.54 58.16 153.77 58.43 153.45 59.28 C 152.82 60.91 150.50 61.10 149.03 59.63Z"/></g>
<g fill="#2C2F31FF">
<path d="M 74.09 59.61 C 73.14 58.47 73.13 57.63 74.03 55.94 C 74.83 54.46 74.85 53.98 74.10 54.44 C 73.49 54.81 73.00 54.64 73.00 54.06 C 73.00 51.59 75.90 53.27 76.52 56.10 C 77.32 59.75 75.90 61.79 74.09 59.61Z"/></g>
<g fill="#2C2F31FF">
<path d="M 41.74 60.23 C 40.77 60.02 40.23 59.43 40.55 58.92 C 40.86 58.42 40.71 58.00 40.22 58.00 C 39.73 58.00 38.81 56.88 38.18 55.50 C 37.39 53.76 37.37 53.00 38.12 53.00 C 38.70 53.00 39.42 53.89 39.71 54.99 C 39.99 56.08 40.70 56.69 41.27 56.33 C 41.85 55.98 42.01 56.17 41.64 56.78 C 41.27 57.37 41.42 58.14 41.98 58.49 C 42.95 59.09 43.46 57.66 43.05 55.50 C 42.94 54.95 43.41 55.05 44.10 55.72 C 45.79 57.38 44.05 60.72 41.74 60.23Z"/></g>
<g fill="#2C2F31FF">
<path d="M 182.58 59.87 C 182.82 59.49 182.45 58.94 181.76 58.66 C 181.03 58.37 181.27 58.12 182.33 58.08 C 183.36 58.03 183.96 57.45 183.71 56.75 C 183.46 56.06 182.76 55.61 182.16 55.74 C 181.56 55.87 181.33 55.31 181.64 54.49 C 182.33 52.69 185.15 52.48 184.93 54.25 C 184.57 56.99 185.04 58.10 186.25 57.37 C 187.25 56.77 187.25 56.93 186.26 58.15 C 185.58 58.99 185.22 59.88 185.46 60.13 C 185.71 60.37 185.06 60.57 184.03 60.57 C 182.99 60.57 182.34 60.26 182.58 59.87Z"/></g>
<g fill="#2C2F31FF">
<path d="M 164.18 59.72 C 163.59 59.01 162.62 57.10 162.02 55.47 L 160.93 52.50 L 163.46 55.50 C 165.92 58.42 166.03 58.45 167.50 56.56 C 168.32 55.49 169.00 55.12 169.00 55.74 C 169.00 56.35 168.35 57.51 167.55 58.31 C 166.75 59.11 166.37 60.04 166.71 60.38 C 167.05 60.72 166.86 61.00 166.29 61.00 C 165.71 61.00 164.77 60.42 164.18 59.72Z"/></g>
<g fill="#2C2F31FF">
<path d="M 2.62 59.45 C 2.29 58.59 2.43 58.15 2.93 58.46 C 3.43 58.77 4.13 57.66 4.50 56.01 C 5.21 52.76 6.44 52.11 7.36 54.49 C 7.68 55.33 7.42 55.87 6.76 55.74 C 6.12 55.61 5.56 55.95 5.53 56.50 C 5.50 57.05 5.06 58.14 4.57 58.92 C 3.91 59.97 4.07 60.19 5.18 59.76 C 6.00 59.44 7.32 59.59 8.09 60.08 C 9.09 60.71 8.59 60.97 6.36 60.98 C 4.43 60.99 2.98 60.40 2.62 59.45Z"/></g>
<g fill="#BC1811FF">
<path d="M 115.24 76.55 C 115.60 74.66 115.22 74.01 113.60 73.69 C 112.26 73.42 112.67 73.22 114.75 73.14 C 118.06 73.00 118.69 74.03 117.39 77.42 C 116.43 79.94 114.72 79.25 115.24 76.55Z"/></g>
<g fill="#0A0C0EFF">
<path d="M 83.20 26.80 C 80.73 24.33 82.28 17.00 85.27 17.00 C 85.75 17.00 85.44 17.71 84.57 18.57 C 82.53 20.61 82.57 23.87 84.65 26.17 C 86.47 28.17 85.14 28.74 83.20 26.80Z"/></g>
<g fill="#0A0C0EFF">
<path d="M 65.47 59.04 C 67.03 57.41 68.72 56.33 69.23 56.64 C 70.45 57.40 66.08 62.00 64.14 62.00 C 63.09 62.00 63.49 61.10 65.47 59.04Z"/></g>
<g fill="#2C2F31FF">
<path d="M 27.24 61.29 C 25.99 61.05 25.23 60.43 25.55 59.91 C 25.88 59.39 26.63 59.27 27.23 59.64 C 27.94 60.08 28.12 59.56 27.75 58.15 C 27.44 56.97 27.59 56.25 28.09 56.56 C 28.97 57.10 29.45 55.55 29.04 53.50 C 28.92 52.95 29.17 52.84 29.59 53.26 C 30.70 54.36 30.73 58.95 29.62 58.27 C 29.09 57.94 28.93 58.62 29.25 59.84 C 29.56 61.03 29.74 61.94 29.66 61.86 C 29.57 61.79 28.48 61.53 27.24 61.29Z"/></g>
<g fill="#0A0C0EFF">
<path d="M 156.37 59.75 C 156.70 58.51 156.98 56.62 156.99 55.55 C 157.00 54.13 157.30 53.90 158.10 54.70 C 159.41 56.01 158.34 62.00 156.80 62.00 C 156.22 62.00 156.03 61.02 156.37 59.75Z"/></g>
<g fill="#F49B97FF">
<path d="M 1.96 75.25 C 2.43 71.26 2.87 70.54 5.25 69.91 C 6.78 69.50 8.00 69.58 8.00 70.09 C 8.00 70.59 6.88 71.00 5.50 71.00 C 3.26 71.00 3.00 71.40 3.00 74.94 C 3.00 77.11 2.65 79.10 2.21 79.37 C 1.78 79.64 1.67 77.78 1.96 75.25Z"/></g>
<g fill="#5F6163FF">
<path d="M 195.50 52.00 L 188.50 51.35 L 195.75 51.18 C 200.03 51.07 203.00 51.41 203.00 52.00 C 203.00 52.55 202.89 52.92 202.75 52.82 C 202.61 52.73 199.35 52.36 195.50 52.00Z"/></g>
<g fill="#0A0C0EFF">
<path d="M 32.62 59.25 C 33.70 54.70 34.93 53.08 34.97 56.17 C 35.01 59.45 34.09 62.00 32.87 62.00 C 32.37 62.00 32.26 60.76 32.62 59.25Z"/></g>
<g fill="#2C2F31FF">
<path d="M 203.77 57.22 C 203.45 56.00 203.59 55.25 204.09 55.56 C 204.59 55.87 205.00 55.48 205.00 54.71 C 205.00 53.80 206.15 53.29 208.25 53.25 C 210.81 53.21 211.08 53.37 209.50 53.98 C 208.40 54.40 207.09 54.51 206.59 54.22 C 206.09 53.93 205.94 54.66 206.25 55.85 C 206.56 57.03 206.44 57.77 205.99 57.50 C 205.54 57.22 204.99 57.54 204.76 58.22 C 204.54 58.89 204.09 58.45 203.77 57.22Z"/></g>
<g fill="#2C2F31FF">
<path d="M 117.00 60.06 C 117.00 59.54 117.45 58.84 118.00 58.50 C 118.55 58.16 119.00 57.04 119.00 56.00 C 119.00 54.96 119.53 53.79 120.17 53.39 C 120.91 52.94 121.15 53.19 120.81 54.09 C 119.12 58.57 118.84 60.21 119.89 59.57 C 120.50 59.19 121.00 59.36 121.00 59.94 C 121.00 60.52 120.10 61.00 119.00 61.00 C 117.90 61.00 117.00 60.58 117.00 60.06Z"/></g>
<g fill="#2C2F31FF">
<path d="M 112.23 57.00 C 112.79 54.80 113.69 53.00 114.23 53.00 C 114.77 53.00 114.94 53.72 114.60 54.59 C 114.27 55.47 113.72 57.27 113.39 58.59 C 113.06 59.92 112.43 61.00 112.00 61.00 C 111.57 61.00 111.67 59.20 112.23 57.00Z"/></g>
<g fill="#2C2F31FF">
<path d="M 49.00 60.32 C 49.00 58.84 51.44 53.00 52.06 53.00 C 52.43 53.00 52.51 54.12 52.24 55.50 C 51.98 56.88 51.38 58.00 50.91 58.00 C 50.45 58.00 50.32 58.67 50.64 59.50 C 50.95 60.33 50.72 61.00 50.11 61.00 C 49.50 61.00 49.00 60.69 49.00 60.32Z"/></g>
<g fill="#5F6163FF">
<path d="M 52.73 51.28 C 54.50 51.06 57.65 51.05 59.73 51.27 C 61.80 51.49 60.35 51.67 56.50 51.67 C 52.65 51.68 50.95 51.50 52.73 51.28Z"/></g>
<g fill="#5F6163FF">
<path d="M 6.73 51.28 C 8.50 51.06 11.65 51.05 13.73 51.27 C 15.80 51.49 14.35 51.67 10.50 51.67 C 6.65 51.68 4.95 51.50 6.73 51.28Z"/></g>
<g fill="#5F6163FF">
<path d="M 211.00 52.00 L 204.50 51.35 L 210.69 51.17 C 214.10 51.08 217.16 51.45 217.50 52.00 C 217.84 52.55 217.98 52.92 217.81 52.83 C 217.64 52.73 214.57 52.36 211.00 52.00Z"/></g>
<g fill="#5F6163FF">
<path d="M 84.02 72.97 C 85.37 72.11 95.88 71.53 94.92 72.36 C 94.69 72.56 91.81 72.99 88.52 73.31 C 84.63 73.70 83.06 73.58 84.02 72.97Z"/></g>
<g fill="#2C2F31FF">
<path d="M 213.29 61.20 C 212.36 60.61 212.38 59.58 213.40 56.60 C 214.65 52.96 214.75 52.90 215.22 55.35 C 215.52 56.93 215.32 57.70 214.71 57.32 C 214.10 56.94 213.91 57.73 214.22 59.35 C 214.49 60.81 214.67 61.99 214.61 61.98 C 214.55 61.98 213.96 61.62 213.29 61.20Z"/></g>
<g fill="#5F6163FF">
<path d="M 99.75 51.28 C 101.54 51.05 104.46 51.05 106.25 51.28 C 108.04 51.50 106.58 51.68 103.00 51.68 C 99.42 51.68 97.96 51.50 99.75 51.28Z"/></g>
<g fill="#5F6163FF">
<path d="M 86.75 51.28 C 88.54 51.05 91.46 51.05 93.25 51.28 C 95.04 51.50 93.58 51.68 90.00 51.68 C 86.42 51.68 84.96 51.50 86.75 51.28Z"/></g>
<g fill="#5F6163FF">
<path d="M 22.75 51.28 C 24.54 51.05 27.46 51.05 29.25 51.28 C 31.04 51.50 29.58 51.68 26.00 51.68 C 22.42 51.68 20.96 51.50 22.75 51.28Z"/></g>
<g fill="#5F6163FF">
<path d="M 108.00 69.28 C 106.62 69.03 105.05 68.37 104.50 67.81 C 103.82 67.12 104.62 67.02 107.00 67.51 C 110.98 68.33 114.62 70.02 112.00 69.83 C 111.17 69.78 109.38 69.53 108.00 69.28Z"/></g>
<g fill="#D86660FF">
<path d="M 50.25 75.81 C 51.95 75.21 54.04 75.18 55.72 75.74 C 58.04 76.51 57.63 76.66 52.97 76.72 C 48.24 76.78 47.87 76.66 50.25 75.81Z"/></g>
<g fill="#F49B97FF">
<path d="M 166.77 79.28 C 168.57 79.05 171.27 79.06 172.77 79.29 C 174.27 79.51 172.80 79.70 169.50 79.69 C 166.20 79.68 164.97 79.50 166.77 79.28Z"/></g>
<g fill="#5F6163FF">
<path d="M 122.77 51.28 C 124.57 51.05 127.27 51.06 128.77 51.29 C 130.27 51.51 128.80 51.70 125.50 51.69 C 122.20 51.68 120.97 51.50 122.77 51.28Z"/></g>
<g fill="#5F6163FF">
<path d="M 98.77 71.28 C 100.57 71.05 103.27 71.06 104.77 71.29 C 106.27 71.51 104.80 71.70 101.50 71.69 C 98.20 71.68 96.97 71.50 98.77 71.28Z"/></g>
</svg>
