<?xml version="1.0" encoding="utf-8"?>
<!DOCTYPE svg PUBLIC "-//W3C//DTD SVG 20010904//EN" "http://www.w3.org/TR/2001/REC-SVG-20010904/DTD/svg10.dtd">
<svg version="1.0" xmlns="http://www.w3.org/2000/svg" width="223pt" height="73pt" viewBox="0 0 223 73" preserveAspectRatio="xMidYMid meet">
<g fill="#E0001BFF">
<path d="M 179.91 66.25 C 183.71 61.50 185.71 56.70 186.56 50.23 C 187.11 46.08 186.83 44.28 185.03 40.56 C 180.44 31.08 166.65 22.26 149.06 17.56 C 119.09 9.56 71.70 12.63 27.07 25.48 C 20.71 27.31 15.34 28.66 15.15 28.48 C 14.44 27.78 55.70 14.89 69.35 11.53 C 95.76 5.04 106.98 3.60 131.50 3.56 C 154.67 3.52 161.99 4.30 179.50 8.63 C 199.62 13.60 217.98 25.03 219.58 33.58 C 221.62 44.43 209.68 55.91 185.08 66.73 C 181.00 68.53 177.50 70.00 177.29 70.00 C 177.08 70.00 178.26 68.31 179.91 66.25Z"/></g>
<g fill="#FDE900FF">
<path d="M 76.00 55.12 C 76.00 54.09 76.67 52.68 77.50 52.00 C 78.37 51.28 79.00 49.10 79.00 46.85 C 79.00 44.29 78.48 42.74 77.50 42.36 C 76.64 42.03 76.00 40.54 76.00 38.89 L 76.00 36.00 L 92.93 36.00 C 113.87 36.00 116.95 36.92 116.98 43.17 C 117.01 46.84 116.05 49.00 114.39 49.00 C 112.36 49.00 112.69 50.79 115.00 52.23 C 116.10 52.92 117.00 54.27 117.00 55.24 C 117.00 56.66 116.13 57.00 112.50 57.00 C 108.38 57.00 108.00 56.79 108.00 54.54 C 108.00 50.96 105.29 50.00 95.22 50.00 C 87.86 50.00 86.02 50.32 84.65 51.83 C 83.74 52.83 83.00 54.41 83.00 55.33 C 83.00 56.57 82.10 57.00 79.50 57.00 C 76.74 57.00 76.00 56.60 76.00 55.12ZM 110.90 45.09 C 111.66 44.60 112.01 43.48 111.68 42.60 C 110.80 40.32 84.00 40.17 84.00 42.45 C 84.00 43.25 84.79 44.36 85.75 44.92 C 87.90 46.17 108.96 46.31 110.90 45.09Z"/></g>
<g fill="#FDE900FF">
<path d="M 30.60 54.69 C 25.70 49.79 26.85 39.15 32.52 36.99 C 33.95 36.45 42.75 36.00 52.07 36.00 L 69.00 36.00 L 69.00 40.50 C 69.00 44.52 68.76 45.00 66.72 45.00 C 65.47 45.00 63.67 44.10 62.73 43.00 C 61.18 41.19 59.78 41.00 48.07 41.00 C 35.81 41.00 35.03 41.12 33.56 43.22 C 31.50 46.16 31.59 47.59 34.00 50.00 C 35.78 51.78 37.33 52.00 48.35 52.00 C 59.42 52.00 60.88 51.79 62.50 50.00 C 63.50 48.90 65.37 48.00 66.65 48.00 C 68.77 48.00 69.00 48.45 69.00 52.50 L 69.00 57.00 L 50.95 57.00 C 33.44 57.00 32.84 56.93 30.60 54.69Z"/></g>
<g fill="#FDE900FF">
<path d="M 125.45 54.55 C 122.25 51.34 121.94 42.53 124.91 38.86 C 126.72 36.62 127.52 36.48 140.66 36.17 C 155.33 35.81 160.74 36.71 162.66 39.82 C 163.79 41.64 163.28 41.68 147.03 41.21 L 130.22 40.73 L 128.58 43.23 C 126.71 46.10 127.69 50.28 130.51 51.36 C 131.42 51.71 137.44 52.00 143.88 52.00 C 155.54 52.00 158.00 51.36 158.00 48.30 C 158.00 46.92 149.94 46.39 148.65 47.69 C 147.42 48.91 144.00 48.70 144.00 47.40 C 144.00 46.48 146.76 46.05 154.00 45.82 C 163.86 45.50 164.00 45.53 164.00 47.80 C 164.00 51.32 161.34 55.67 158.79 56.36 C 157.53 56.70 150.07 56.98 142.20 56.99 C 128.35 57.00 127.83 56.92 125.45 54.55Z"/></g>
<g fill="#28322CFF">
<path d="M 33.25 57.97 C 32.01 57.47 31.00 56.94 31.00 56.78 C 31.00 56.63 39.75 56.63 50.44 56.79 L 69.89 57.08 L 70.26 52.29 C 70.64 47.50 70.64 47.50 70.82 53.25 L 71.00 59.00 L 53.25 58.94 C 43.49 58.90 34.49 58.47 33.25 57.97Z"/></g>
<g fill="#28322CFF">
<path d="M 128.25 58.01 C 127.01 57.49 126.00 56.94 126.00 56.78 C 126.00 56.63 133.63 56.63 142.97 56.80 C 162.06 57.13 162.22 57.07 164.67 49.24 L 165.85 45.50 L 165.92 49.19 C 165.98 51.74 165.25 53.76 163.59 55.69 L 161.18 58.50 L 145.84 58.73 C 137.40 58.86 129.49 58.54 128.25 58.01Z"/></g>
<g fill="#7B6950FF">
<path d="M 28.74 54.74 C 24.85 49.95 25.35 40.44 29.67 37.04 C 32.08 35.15 33.65 35.00 51.13 35.00 L 70.00 35.00 L 70.00 39.94 C 70.00 42.66 69.66 45.09 69.25 45.35 C 68.84 45.60 68.66 43.60 68.85 40.91 L 69.19 36.00 L 51.15 36.00 C 33.52 36.00 33.05 36.06 30.31 38.41 C 27.87 40.51 27.50 41.54 27.50 46.31 C 27.50 50.30 28.02 52.36 29.41 53.90 C 30.46 55.06 31.13 56.20 30.89 56.44 C 30.66 56.67 29.69 55.91 28.74 54.74Z"/></g>
<g fill="#7B6950FF">
<path d="M 86.00 44.28 C 86.00 43.85 91.62 43.64 98.50 43.81 C 107.18 44.02 111.00 43.78 111.00 43.00 C 111.00 42.23 106.92 41.98 97.50 42.20 C 90.07 42.36 84.00 42.15 84.00 41.72 C 84.00 41.29 90.19 41.07 97.75 41.22 C 109.18 41.45 111.50 41.75 111.50 43.00 C 111.50 44.24 109.29 44.55 98.75 44.78 C 91.74 44.93 86.00 44.71 86.00 44.28Z"/></g>
<g fill="#28322CFF">
<path d="M 75.50 58.00 C 75.12 57.39 76.66 57.00 79.44 57.00 C 83.16 57.00 84.00 56.67 84.00 55.20 C 84.00 51.72 86.09 51.00 96.14 51.00 C 101.50 51.00 106.09 51.34 106.35 51.75 C 106.60 52.16 102.24 52.50 96.66 52.50 L 86.50 52.50 L 85.54 55.75 C 84.66 58.75 84.27 59.00 80.35 59.00 C 78.02 59.00 75.84 58.55 75.50 58.00Z"/></g>
<g fill="#7B6950FF">
<path d="M 75.00 35.75 C 75.00 34.78 112.13 34.80 113.66 35.77 C 114.29 36.17 105.86 36.50 94.91 36.50 C 83.96 36.50 75.00 36.16 75.00 35.75Z"/></g>
<g fill="#28322CFF">
<path d="M 34.20 49.80 C 32.66 48.26 32.66 44.74 34.20 43.20 C 35.54 41.86 61.54 41.45 62.35 42.75 C 62.60 43.16 56.67 43.50 49.16 43.50 L 35.50 43.50 L 35.50 47.25 C 35.50 49.31 35.48 51.00 35.45 51.00 C 35.42 51.00 34.86 50.46 34.20 49.80Z"/></g>
<g fill="#28322CFF">
<path d="M 128.78 48.42 C 127.95 46.59 127.91 45.36 128.66 44.17 C 129.56 42.75 131.75 42.49 143.61 42.44 L 157.50 42.38 L 144.00 42.94 L 130.50 43.50 L 130.50 47.25 C 130.50 49.31 130.38 51.00 130.23 51.00 C 130.08 51.00 129.43 49.84 128.78 48.42Z"/></g>
<g fill="#7B6950FF">
<path d="M 127.00 35.75 C 127.00 34.78 158.13 34.80 159.66 35.77 C 160.29 36.17 153.21 36.50 143.91 36.50 C 134.61 36.50 127.00 36.16 127.00 35.75Z"/></g>
<g fill="#7B6950FF">
<path d="M 36.00 51.25 C 36.00 50.84 40.98 50.64 47.08 50.81 C 55.90 51.06 58.65 50.80 60.58 49.54 C 61.91 48.67 63.00 48.40 63.00 48.94 C 63.00 51.12 58.58 52.00 47.57 52.00 C 41.20 52.00 36.00 51.66 36.00 51.25Z"/></g>
<g fill="#28322CFF">
<path d="M 85.00 42.75 C 85.00 42.34 90.96 42.08 98.25 42.18 C 111.57 42.36 109.98 42.74 93.75 43.23 C 88.93 43.38 85.00 43.16 85.00 42.75Z"/></g>
<g fill="#7B6950FF">
<path d="M 123.33 54.38 C 122.16 52.60 121.50 49.75 121.50 46.50 C 121.50 41.68 124.31 34.98 125.74 36.41 C 126.06 36.73 125.46 37.94 124.41 39.10 C 121.80 41.99 121.83 51.05 124.46 53.96 C 125.48 55.09 126.06 56.27 125.74 56.59 C 125.42 56.91 124.34 55.92 123.33 54.38Z"/></g>
<g fill="#7B6950FF">
<path d="M 137.29 41.26 C 141.03 41.06 146.88 41.07 150.29 41.26 C 153.71 41.46 150.65 41.61 143.50 41.61 C 136.35 41.61 133.56 41.45 137.29 41.26Z"/></g>
<g fill="#7B6950FF">
<path d="M 74.15 54.72 C 74.06 53.06 74.61 51.70 75.50 51.36 C 77.20 50.71 77.60 44.49 76.00 43.50 C 75.45 43.16 75.05 42.12 75.12 41.19 C 75.22 39.68 75.28 39.69 75.69 41.26 C 75.94 42.23 76.64 42.72 77.23 42.36 C 77.87 41.96 78.02 42.16 77.60 42.85 C 77.20 43.48 77.35 44.00 77.93 44.00 C 78.80 44.00 78.86 46.23 78.11 51.25 C 78.05 51.66 77.35 52.00 76.57 52.00 C 75.77 52.00 74.95 53.22 74.72 54.75 L 74.30 57.50 L 74.15 54.72Z"/></g>
<g fill="#28322CFF">
<path d="M 108.50 58.00 C 108.12 57.38 109.80 57.00 112.87 57.00 C 117.25 57.00 117.91 56.72 118.29 54.75 C 118.61 53.12 118.77 53.40 118.86 55.75 C 119.00 59.00 118.99 59.00 114.06 59.00 C 111.34 59.00 108.84 58.55 108.50 58.00Z"/></g>
<g fill="#7B6950FF">
<path d="M 41.75 41.26 C 45.19 41.06 50.81 41.06 54.25 41.26 C 57.69 41.45 54.88 41.61 48.00 41.61 C 41.12 41.61 38.31 41.45 41.75 41.26Z"/></g>
<g fill="#C5AD34FF">
<path d="M 92.79 45.26 C 96.25 45.06 101.65 45.06 104.79 45.26 C 107.93 45.46 105.10 45.62 98.50 45.62 C 91.90 45.62 89.33 45.45 92.79 45.26Z"/></g>
<g fill="#28322CFF">
<path d="M 114.00 51.22 C 114.00 50.79 114.90 49.67 116.00 48.73 C 118.44 46.64 118.59 42.31 116.32 38.97 L 114.64 36.50 L 116.82 38.40 C 119.76 40.98 119.86 47.82 116.99 50.28 C 114.79 52.16 114.00 52.41 114.00 51.22Z"/></g>
<g fill="#9F8D73FF">
<path d="M 42.25 50.26 C 45.41 50.06 50.59 50.06 53.75 50.26 C 56.91 50.46 54.33 50.62 48.00 50.62 C 41.67 50.62 39.09 50.46 42.25 50.26Z"/></g>
<g fill="#28322CFF">
<path d="M 158.53 44.06 C 158.13 43.40 159.05 43.00 160.94 43.00 C 164.19 43.00 164.79 41.69 162.75 39.03 C 162.06 38.13 162.53 38.49 163.80 39.81 C 165.06 41.14 165.93 42.73 165.72 43.36 C 165.23 44.85 159.38 45.42 158.53 44.06Z"/></g>
<g fill="#28322CFF">
<path d="M 64.16 46.30 C 64.79 45.55 66.25 45.06 67.40 45.21 C 69.22 45.46 69.58 44.84 70.12 40.50 L 70.75 35.50 L 70.62 40.99 L 70.50 46.47 L 66.76 47.08 C 63.66 47.58 63.21 47.45 64.16 46.30Z"/></g>
<g fill="#28322CFF">
<path d="M 144.00 50.13 C 144.00 49.21 149.69 48.03 154.25 48.01 C 155.76 48.00 157.00 48.36 157.00 48.80 C 157.00 49.24 155.43 49.41 153.50 49.19 C 151.36 48.94 150.00 49.21 150.00 49.89 C 150.00 50.50 148.65 51.00 147.00 51.00 C 145.35 51.00 144.00 50.61 144.00 50.13Z"/></g>
<g fill="#7B6950FF">
<path d="M 142.49 48.99 C 142.15 48.44 142.16 47.09 142.50 45.99 C 143.06 44.24 143.94 44.02 149.82 44.17 L 156.50 44.35 L 150.00 44.92 C 143.97 45.46 143.52 45.66 143.81 47.75 C 144.14 50.12 143.54 50.69 142.49 48.99Z"/></g>
<g fill="#EB987AFF">
<path d="M 126.78 2.26 C 129.69 2.06 134.19 2.06 136.78 2.27 C 139.38 2.47 137.00 2.64 131.50 2.63 C 126.00 2.63 123.88 2.46 126.78 2.26Z"/></g>
<g fill="#C5AD34FF">
<path d="M 148.78 45.26 C 151.69 45.06 156.19 45.06 158.78 45.27 C 161.38 45.47 159.00 45.64 153.50 45.63 C 148.00 45.63 145.88 45.46 148.78 45.26Z"/></g>
<g fill="#7B6950FF">
<path d="M 131.00 50.94 C 131.00 50.36 130.48 50.20 129.85 50.60 C 129.11 51.05 128.96 50.87 129.43 50.11 C 129.98 49.22 130.53 49.20 131.51 50.00 C 132.24 50.61 135.12 51.00 137.91 50.88 C 140.69 50.75 143.28 50.95 143.66 51.32 C 144.03 51.69 141.33 52.00 137.67 52.00 C 133.64 52.00 131.00 51.58 131.00 50.94Z"/></g>
<g fill="#7B6950FF">
<path d="M 69.12 52.82 C 69.01 48.49 68.79 48.11 66.25 47.79 C 63.72 47.47 63.78 47.40 67.00 46.95 L 70.51 46.46 L 70.20 50.48 C 69.71 56.88 69.24 57.89 69.12 52.82Z"/></g>
<g fill="#9F8D73FF">
<path d="M 90.75 50.27 C 93.09 50.06 96.91 50.06 99.25 50.27 C 101.59 50.48 99.67 50.65 95.00 50.65 C 90.33 50.65 88.41 50.48 90.75 50.27Z"/></g>
<g fill="#DFBAAAFF">
<path d="M 91.75 52.27 C 94.09 52.06 97.91 52.06 100.25 52.27 C 102.59 52.48 100.67 52.65 96.00 52.65 C 91.33 52.65 89.41 52.48 91.75 52.27Z"/></g>
</svg>
