<?xml version="1.0" encoding="utf-8"?>
<!DOCTYPE svg PUBLIC "-//W3C//DTD SVG 20010904//EN" "http://www.w3.org/TR/2001/REC-SVG-20010904/DTD/svg10.dtd">
<svg version="1.0" xmlns="http://www.w3.org/2000/svg" width="1774pt" height="319pt" viewBox="0 0 1774 319" preserveAspectRatio="xMidYMid meet">
<g fill="#FBC200FE">
<path d="M 1495.00 316.46 C 1467.93 310.68 1449.71 293.87 1442.86 268.34 C 1440.13 258.15 1439.85 236.25 1442.32 225.00 C 1446.43 206.25 1458.71 190.17 1475.06 182.14 C 1492.36 173.63 1492.25 173.64 1554.29 173.24 C 1618.05 172.82 1618.22 172.83 1624.95 179.85 C 1628.78 183.84 1630.93 188.11 1640.15 210.00 L 1650.90 235.50 L 1580.20 236.00 C 1501.92 236.55 1505.94 236.18 1503.85 243.12 C 1502.53 247.52 1504.19 251.78 1508.00 253.71 C 1509.96 254.70 1528.84 254.97 1594.75 254.99 C 1641.09 254.99 1679.00 254.71 1679.00 254.36 C 1679.00 253.38 1647.07 178.12 1644.42 172.88 C 1641.09 166.26 1634.03 160.43 1626.10 157.77 C 1619.57 155.57 1618.66 155.54 1545.00 155.02 L 1470.50 154.50 L 1465.78 151.72 C 1462.88 150.02 1460.09 147.30 1458.55 144.68 C 1456.28 140.81 1436.00 93.90 1436.00 92.52 C 1436.00 92.20 1479.76 92.07 1533.25 92.23 L 1630.50 92.52 L 1640.13 95.17 C 1663.83 101.69 1681.21 115.12 1694.57 137.22 C 1697.40 141.90 1713.89 179.58 1735.65 231.06 C 1755.64 278.38 1772.00 317.30 1772.00 317.55 C 1772.00 317.80 1711.14 317.96 1636.75 317.92 C 1525.50 317.86 1500.35 317.60 1495.00 316.46Z"/></g>
<g fill="#FBC200FE">
<path d="M 931.00 316.46 C 911.31 312.26 895.12 301.50 886.18 286.67 C 872.08 263.30 872.87 224.28 887.90 202.14 C 896.24 189.86 910.29 180.52 927.50 175.79 C 935.20 173.68 937.56 173.58 990.29 173.24 C 1050.62 172.84 1053.73 173.06 1059.61 178.23 C 1064.04 182.12 1064.35 182.72 1076.56 211.50 L 1086.75 235.50 L 1016.12 236.00 C 977.28 236.28 944.70 236.89 943.71 237.37 C 941.41 238.50 939.00 243.17 939.00 246.53 C 939.00 248.10 940.18 250.33 941.92 252.08 L 944.85 255.00 L 1029.92 255.00 C 1076.72 255.00 1115.00 254.79 1115.00 254.54 C 1115.00 253.47 1080.74 173.27 1079.31 171.00 C 1075.17 164.41 1069.00 160.02 1059.50 156.92 C 1056.42 155.91 1038.38 155.48 981.00 155.06 L 906.50 154.50 L 902.31 152.26 C 900.00 151.03 897.00 148.55 895.63 146.76 C 893.57 144.05 873.92 99.46 872.26 93.72 C 871.77 92.01 876.09 91.95 969.12 92.25 C 1066.35 92.57 1066.51 92.57 1075.00 94.81 C 1079.67 96.05 1088.07 99.28 1093.65 102.00 C 1110.19 110.05 1124.53 125.14 1134.52 145.00 C 1137.18 150.30 1200.86 299.72 1207.71 316.75 C 1208.49 318.69 940.15 318.41 931.00 316.46Z"/></g>
<g fill="#FBC200FE">
<path d="M 412.00 316.46 C 396.56 313.16 384.31 306.42 374.34 295.73 C 367.31 288.19 362.96 280.00 359.85 268.50 C 356.80 257.16 356.79 234.02 359.84 222.70 C 364.76 204.45 376.35 189.86 392.06 182.14 C 409.36 173.63 409.25 173.64 471.29 173.24 C 535.06 172.82 535.23 172.83 541.93 179.85 C 545.72 183.83 547.91 188.19 557.09 210.00 L 567.81 235.50 L 497.16 236.00 C 458.30 236.28 425.70 236.89 424.71 237.37 C 419.52 239.90 418.90 249.20 423.67 252.96 C 426.24 254.98 427.18 255.00 511.13 255.00 C 557.81 255.00 596.00 254.76 596.00 254.47 C 596.00 253.69 563.31 176.51 561.50 172.99 C 557.66 165.57 550.75 160.28 540.50 156.91 C 537.41 155.90 519.59 155.48 462.00 155.05 L 387.50 154.50 L 383.30 152.26 C 380.99 151.02 377.81 148.10 376.22 145.76 C 373.79 142.17 353.00 94.58 353.00 92.60 C 353.00 92.23 396.76 92.07 450.25 92.23 L 547.50 92.52 L 557.21 95.19 C 583.26 102.36 603.78 120.12 616.49 146.50 C 618.98 151.67 685.69 308.88 688.73 316.75 C 689.48 318.69 421.15 318.41 412.00 316.46Z"/></g>
<g fill="#FBC200FE">
<path d="M 100.50 317.33 C 35.27 309.19 -9.50 246.63 3.64 182.00 C 11.52 143.27 40.24 110.62 77.61 97.91 C 94.35 92.21 97.48 92.00 164.82 92.00 C 224.83 92.00 226.47 92.05 230.60 94.05 C 232.93 95.18 236.04 97.68 237.51 99.60 C 238.98 101.53 245.07 114.67 251.05 128.80 L 261.92 154.50 L 182.21 155.00 C 103.33 155.49 102.44 155.52 97.22 157.67 C 84.47 162.90 75.40 171.30 69.52 183.36 C 56.53 209.96 69.07 240.61 97.66 252.14 L 103.50 254.50 L 220.75 254.77 L 338.00 255.04 L 338.00 278.95 C 338.00 293.42 337.58 303.98 336.94 305.68 C 335.42 309.69 331.16 313.95 326.50 316.10 C 322.68 317.87 317.63 317.95 213.00 317.83 C 152.78 317.76 102.15 317.53 100.50 317.33Z"/></g>
<g fill="#FBC200FE">
<path d="M 103.00 234.26 C 96.34 231.91 86.91 222.05 84.71 215.14 C 79.73 199.49 86.21 183.96 100.68 176.83 L 107.46 173.50 L 191.73 173.22 L 276.00 172.94 L 276.00 86.90 L 276.00 0.87 L 300.25 1.19 C 323.67 1.49 324.63 1.58 328.27 3.84 C 330.35 5.13 333.27 7.80 334.77 9.77 L 337.50 13.34 L 337.76 124.67 L 338.03 236.00 L 222.76 235.92 C 120.27 235.85 107.00 235.67 103.00 234.26Z"/></g>
<g fill="#FBC200FE">
<path d="M 1227.24 232.25 C 1227.58 136.71 1227.17 142.47 1234.66 127.00 C 1239.83 116.35 1250.66 105.73 1262.09 100.14 C 1278.09 92.31 1275.16 92.59 1343.50 92.24 C 1411.88 91.88 1410.04 91.71 1416.24 98.98 C 1418.34 101.45 1423.13 111.45 1429.72 127.15 C 1435.34 140.54 1440.22 152.29 1440.57 153.25 C 1441.18 154.91 1437.56 155.00 1373.32 155.00 L 1305.42 155.00 L 1300.98 157.25 C 1298.37 158.57 1295.27 161.30 1293.51 163.84 L 1290.50 168.17 L 1290.23 243.09 L 1289.96 318.00 L 1258.45 318.00 L 1226.94 318.00 L 1227.24 232.25Z"/></g>
<g fill="#FBC200FE">
<path d="M 792.00 159.50 L 792.00 1.00 L 814.25 1.01 C 826.69 1.01 838.17 1.47 840.28 2.06 C 845.19 3.43 850.84 8.45 853.14 13.49 C 854.87 17.31 854.96 24.58 854.98 167.75 L 855.00 318.00 L 823.50 318.00 L 792.00 318.00 L 792.00 159.50Z"/></g>
<g fill="#FBC200FE">
<path d="M 709.00 159.50 L 709.00 1.00 L 731.25 1.01 C 744.31 1.01 755.15 1.47 757.50 2.11 C 763.42 3.74 769.51 10.48 770.90 16.96 C 771.67 20.57 772.00 66.07 772.00 170.05 L 772.00 318.00 L 740.50 318.00 L 709.00 318.00 L 709.00 159.50Z"/></g>
</svg>
