<?xml version="1.0" encoding="utf-8"?>
<!DOCTYPE svg PUBLIC "-//W3C//DTD SVG 20010904//EN" "http://www.w3.org/TR/2001/REC-SVG-20010904/DTD/svg10.dtd">
<svg version="1.0" xmlns="http://www.w3.org/2000/svg" width="182pt" height="90pt" viewBox="0 0 182 90" preserveAspectRatio="xMidYMid meet">
<g fill="#064887FF">
<path d="M 1.70 43.37 C 1.32 42.98 1.00 37.78 1.00 31.81 C 1.00 21.07 1.02 20.97 3.25 21.47 C 4.49 21.76 13.60 23.32 23.50 24.96 C 37.98 27.35 44.78 27.96 58.30 28.05 L 75.10 28.18 L 74.80 32.84 L 74.50 37.50 L 56.50 37.63 C 39.72 37.75 25.62 39.37 4.95 43.55 C 3.55 43.84 2.09 43.75 1.70 43.37Z"/></g>
<g fill="#E23C3BFF">
<path d="M 20.75 21.13 L 1.00 17.50 L 1.00 12.31 C 1.00 9.45 1.39 6.88 1.87 6.58 C 2.34 6.29 11.40 9.19 21.99 13.02 L 41.26 20.00 L 58.20 20.00 L 75.14 20.00 L 74.82 22.25 C 74.50 24.48 74.32 24.50 57.50 24.63 C 41.92 24.76 38.85 24.46 20.75 21.13Z"/></g>
<g fill="#E23C3BFF">
<path d="M 1.00 53.93 C 1.00 47.36 0.09 48.08 11.00 46.06 C 35.37 41.54 40.34 41.00 57.49 41.00 L 75.14 41.00 L 74.82 43.25 C 74.50 45.47 74.25 45.51 55.50 46.07 C 37.36 46.61 36.14 46.77 28.50 49.71 C 24.10 51.41 16.11 54.38 10.75 56.31 L 1.00 59.82 L 1.00 53.93Z"/></g>
<g fill="#110F10FF">
<path d="M 108.92 39.08 C 106.45 36.61 106.00 35.36 106.00 31.02 C 106.00 27.39 106.34 26.09 107.15 26.60 C 107.89 27.05 108.04 26.87 107.55 26.08 C 106.42 24.25 110.80 20.13 114.64 19.41 C 117.06 18.95 118.94 19.36 121.54 20.89 C 125.61 23.29 128.37 23.75 125.44 21.53 C 123.57 20.11 123.59 20.06 126.00 20.03 L 128.50 20.00 L 128.19 31.00 C 127.90 41.04 127.71 42.00 125.97 42.00 C 124.69 42.00 124.25 41.51 124.64 40.50 C 124.95 39.67 125.62 39.00 126.11 39.00 C 127.39 39.00 127.21 35.25 125.89 34.43 C 125.16 33.98 125.00 34.43 125.43 35.77 C 125.93 37.34 125.31 38.27 122.67 39.90 C 117.68 42.98 112.52 42.67 108.92 39.08ZM 122.53 35.65 C 124.92 32.24 124.39 27.46 121.37 25.07 C 117.92 22.36 115.45 22.45 112.52 25.39 C 111.20 26.71 109.93 27.60 109.69 27.36 C 108.91 26.57 110.14 32.47 111.23 34.72 C 112.41 37.16 116.50 38.93 119.28 38.21 C 120.26 37.96 121.72 36.81 122.53 35.65Z"/></g>
<g fill="#110F10FF">
<path d="M 136.66 39.95 C 130.65 35.22 131.46 25.13 138.19 21.03 C 142.37 18.48 145.62 18.47 149.77 21.00 C 156.47 25.08 156.91 35.14 150.63 40.23 C 147.56 42.71 139.98 42.56 136.66 39.95ZM 139.37 37.86 C 138.47 36.86 137.34 36.29 136.87 36.58 C 136.06 37.08 135.57 35.60 135.91 33.68 C 135.99 33.22 135.58 33.14 135.01 33.49 C 133.28 34.56 137.00 39.67 139.51 39.67 C 140.79 39.67 140.77 39.40 139.37 37.86ZM 148.69 35.83 C 151.75 32.94 151.70 28.60 148.55 25.45 C 145.58 22.49 143.10 22.35 139.77 24.97 C 138.39 26.05 137.05 26.72 136.79 26.46 C 135.68 25.35 137.78 35.03 138.96 36.45 C 140.83 38.70 145.97 38.37 148.69 35.83Z"/></g>
<g fill="#33AC51FF">
<path d="M 1.00 80.50 L 1.00 77.00 L 24.50 77.00 L 48.00 77.00 L 48.00 80.50 L 48.00 84.00 L 24.50 84.00 L 1.00 84.00 L 1.00 80.50Z"/></g>
<g fill="#E23C3BFF">
<path d="M 127.46 81.43 L 127.51 77.86 L 150.45 77.96 C 163.08 78.02 173.58 78.24 173.79 78.46 C 174.90 79.57 172.60 83.01 170.68 83.12 C 169.00 83.21 169.18 83.41 171.50 84.00 C 173.16 84.42 164.00 84.82 150.96 84.88 L 127.42 85.00 L 127.46 81.43Z"/></g>
<g fill="#110F10FF">
<path d="M 80.00 37.00 C 80.00 20.50 80.06 20.00 82.06 20.00 C 83.20 20.00 83.84 20.45 83.49 21.02 C 83.14 21.58 82.44 21.77 81.93 21.46 C 80.36 20.49 80.90 21.67 82.69 23.13 C 83.62 23.88 84.08 23.99 83.70 23.36 C 82.86 21.96 88.75 19.00 92.39 19.00 C 93.83 19.00 96.41 20.29 98.23 21.92 C 101.25 24.62 101.50 25.30 101.50 31.00 C 101.50 36.55 101.21 37.42 98.64 39.64 C 96.32 41.63 94.89 42.04 91.14 41.80 C 87.15 41.54 86.54 41.22 86.79 39.50 C 87.01 37.99 86.86 37.83 86.15 38.88 C 85.64 39.64 84.73 39.95 84.12 39.58 C 83.33 39.09 83.37 38.52 84.24 37.59 C 85.23 36.52 86.05 36.54 88.77 37.68 C 91.95 39.01 92.22 38.94 95.04 36.11 C 98.68 32.47 98.86 28.77 95.55 25.45 C 92.40 22.31 89.56 22.34 86.33 25.58 C 84.19 27.72 83.84 28.80 84.28 32.04 C 84.75 35.57 83.25 38.91 81.82 37.49 C 81.55 37.22 81.33 37.65 81.33 38.44 C 81.33 39.24 81.82 39.80 82.42 39.69 C 83.09 39.57 83.61 42.24 83.79 46.75 C 84.07 53.48 83.94 54.00 82.04 54.00 C 80.07 54.00 80.00 53.45 80.00 37.00Z"/></g>
<g fill="#110F10FF">
<path d="M 159.80 27.00 C 160.08 12.90 160.22 12.00 162.05 12.00 C 163.90 12.00 164.00 12.80 164.00 27.00 C 164.00 41.89 163.98 42.00 161.75 42.00 C 159.50 42.00 159.50 41.98 159.80 27.00Z"/></g>
<g fill="#110F10FF">
<path d="M 169.00 31.00 L 169.00 20.00 L 171.50 20.00 L 174.00 20.00 L 174.00 31.00 L 174.00 42.00 L 171.50 42.00 L 169.00 42.00 L 169.00 31.00Z"/></g>
<g fill="#A7B4B4FF">
<path d="M 93.00 57.27 C 93.00 56.84 109.65 56.50 130.00 56.50 C 150.35 56.49 167.00 56.81 167.00 57.20 C 167.00 57.60 150.35 57.94 130.00 57.98 C 109.65 58.01 93.00 57.69 93.00 57.27Z"/></g>
<g fill="#F19191FF">
<path d="M 174.15 80.75 L 174.00 77.00 L 150.58 77.00 C 135.59 77.00 126.98 77.37 126.66 78.03 C 126.38 78.59 126.27 78.48 126.41 77.78 C 126.61 76.79 132.13 76.44 150.36 76.23 C 176.18 75.94 175.60 75.81 174.72 81.67 C 174.37 84.05 174.28 83.90 174.15 80.75Z"/></g>
<g fill="#A7B4B4FF">
<path d="M 12.75 76.25 C 19.49 76.08 30.51 76.08 37.25 76.25 C 43.99 76.43 38.48 76.57 25.00 76.57 C 11.52 76.57 6.01 76.43 12.75 76.25Z"/></g>
<g fill="#6FB385FF">
<path d="M 9.00 84.30 C 30.17 83.59 48.77 83.56 48.35 84.25 C 48.09 84.66 37.22 84.91 24.19 84.79 C 11.16 84.68 4.32 84.46 9.00 84.30Z"/></g>
<g fill="#C0151AFF">
<path d="M 140.31 77.25 C 146.80 77.08 157.15 77.08 163.31 77.25 C 169.46 77.43 164.15 77.57 151.50 77.57 C 138.85 77.57 133.81 77.43 140.31 77.25Z"/></g>
<g fill="#2F3034FF">
<path d="M 79.44 53.71 C 79.17 53.00 79.08 45.02 79.25 35.96 L 79.55 19.50 L 79.78 36.68 C 80.00 53.62 80.03 53.87 82.25 54.29 L 84.50 54.73 L 82.22 54.86 C 80.96 54.94 79.71 54.42 79.44 53.71Z"/></g>
<g fill="#788AA0FF">
<path d="M 47.75 27.25 C 52.84 27.07 61.16 27.07 66.25 27.25 C 71.34 27.44 67.17 27.58 57.00 27.58 C 46.83 27.58 42.66 27.44 47.75 27.25Z"/></g>
<g fill="#F19191FF">
<path d="M 48.20 19.26 C 52.98 19.07 61.08 19.07 66.20 19.25 C 71.31 19.44 67.40 19.59 57.50 19.59 C 47.60 19.59 43.41 19.44 48.20 19.26Z"/></g>
<g fill="#F19191FF">
<path d="M 48.20 40.26 C 52.98 40.07 61.08 40.07 66.20 40.25 C 71.31 40.44 67.40 40.59 57.50 40.59 C 47.60 40.59 43.41 40.44 48.20 40.26Z"/></g>
<g fill="#2F3034FF">
<path d="M 159.40 26.50 C 159.40 18.25 159.56 15.01 159.74 19.30 C 159.93 23.58 159.93 30.33 159.74 34.30 C 159.55 38.26 159.40 34.75 159.40 26.50Z"/></g>
<g fill="#110F10FF">
<path d="M 66.04 80.86 C 67.55 75.60 68.46 75.62 69.99 80.95 C 70.82 83.85 70.75 84.04 69.29 82.83 C 68.02 81.79 67.58 81.77 67.25 82.75 C 66.32 85.52 65.20 83.78 66.04 80.86Z"/></g>
<g fill="#2F3034FF">
<path d="M 128.37 31.50 C 128.38 25.45 128.54 23.10 128.74 26.29 C 128.94 29.47 128.94 34.42 128.74 37.29 C 128.53 40.15 128.37 37.55 128.37 31.50Z"/></g>
<g fill="#110F10FF">
<path d="M 169.00 14.00 C 169.00 12.53 169.67 12.00 171.50 12.00 C 173.33 12.00 174.00 12.53 174.00 14.00 C 174.00 15.47 173.33 16.00 171.50 16.00 C 169.67 16.00 169.00 15.47 169.00 14.00Z"/></g>
<g fill="#110F10FF">
<path d="M 103.03 83.00 C 103.03 80.01 104.28 76.93 105.35 77.28 C 105.95 77.48 106.74 79.09 107.10 80.85 C 107.66 83.57 107.54 83.86 106.30 82.84 C 105.15 81.88 104.66 81.93 103.94 83.06 C 103.16 84.30 103.03 84.29 103.03 83.00Z"/></g>
<g fill="#2F3034FF">
<path d="M 136.66 38.08 C 134.37 35.40 133.92 34.17 135.01 33.49 C 135.58 33.14 135.99 33.22 135.91 33.68 C 135.45 36.28 136.04 37.21 137.41 36.07 C 138.50 35.17 139.01 35.20 139.63 36.20 C 141.77 39.62 139.30 41.18 136.66 38.08Z"/></g>
<g fill="#110F10FF">
<path d="M 72.16 80.32 C 72.31 76.63 72.33 76.61 72.72 79.75 C 72.95 81.54 73.60 83.00 74.18 83.00 C 74.77 83.00 75.04 81.71 74.79 80.00 C 74.54 78.35 74.75 77.00 75.24 77.00 C 76.98 77.00 75.57 83.47 73.75 83.82 C 72.31 84.09 72.03 83.47 72.16 80.32Z"/></g>
<g fill="#A7B4B4FF">
<path d="M 168.35 28.00 C 168.35 23.32 168.52 21.41 168.73 23.75 C 168.94 26.09 168.94 29.91 168.73 32.25 C 168.52 34.59 168.35 32.67 168.35 28.00Z"/></g>
<g fill="#A7B4B4FF">
<path d="M 81.00 57.15 C 81.00 56.17 90.67 56.33 91.66 57.33 C 92.03 57.70 89.78 58.00 86.67 58.00 C 83.55 58.00 81.00 57.62 81.00 57.15Z"/></g>
<g fill="#110F10FF">
<path d="M 78.00 80.50 C 78.00 78.58 78.48 77.00 79.06 77.00 C 79.64 77.00 79.81 77.50 79.43 78.11 C 79.05 78.72 79.36 79.62 80.12 80.10 C 81.12 80.73 81.16 80.97 80.25 80.98 C 78.37 81.01 78.75 82.79 80.75 83.31 C 82.07 83.65 81.94 83.80 80.25 83.88 C 78.32 83.98 78.00 83.50 78.00 80.50Z"/></g>
<g fill="#2F3034FF">
<path d="M 109.24 38.01 C 108.55 36.91 108.43 35.85 108.95 35.53 C 109.45 35.22 110.15 35.43 110.50 36.00 C 110.85 36.57 111.67 36.73 112.32 36.36 C 112.97 35.98 113.17 36.05 112.76 36.50 C 112.35 36.95 112.52 37.92 113.13 38.66 C 113.95 39.65 113.95 40.00 113.12 40.00 C 112.51 40.00 111.99 39.44 111.98 38.75 C 111.97 37.78 111.79 37.78 111.20 38.71 C 110.64 39.59 110.10 39.39 109.24 38.01Z"/></g>
<g fill="#788AA0FF">
<path d="M 84.32 48.00 C 84.32 44.42 84.50 42.96 84.72 44.75 C 84.95 46.54 84.95 49.46 84.72 51.25 C 84.50 53.04 84.32 51.58 84.32 48.00Z"/></g>
<g fill="#2F3034FF">
<path d="M 148.34 25.75 C 147.91 25.06 147.46 23.60 147.34 22.50 C 147.22 21.40 147.36 21.06 147.65 21.75 C 147.93 22.44 148.61 23.00 149.15 23.00 C 149.70 23.00 150.82 23.68 151.64 24.50 C 152.47 25.32 152.69 26.00 152.13 26.00 C 151.57 26.00 150.84 25.55 150.50 25.00 C 150.16 24.45 149.40 24.00 148.82 24.00 C 148.15 24.00 148.21 24.55 149.00 25.50 C 149.68 26.32 149.99 27.00 149.68 27.00 C 149.37 27.00 148.77 26.44 148.34 25.75Z"/></g>
<g fill="#788AA0FF">
<path d="M 144.00 60.79 C 144.00 59.80 144.48 59.00 145.06 59.00 C 145.64 59.00 145.84 59.45 145.50 60.00 C 145.16 60.55 145.32 61.00 145.86 61.00 C 146.39 61.00 147.06 60.44 147.34 59.75 C 147.62 59.06 147.88 59.42 147.92 60.54 C 147.98 61.93 147.37 62.57 146.00 62.57 C 144.75 62.57 144.00 61.90 144.00 60.79Z"/></g>
</svg>
