<?xml version="1.0" encoding="utf-8"?>
<!DOCTYPE svg PUBLIC "-//W3C//DTD SVG 20010904//EN" "http://www.w3.org/TR/2001/REC-SVG-20010904/DTD/svg10.dtd">
<svg version="1.0" xmlns="http://www.w3.org/2000/svg" width="222pt" height="83pt" viewBox="0 0 222 83" preserveAspectRatio="xMidYMid meet">
<g fill="#1A2F84FF">
<path d="M 22.66 60.37 C 15.49 58.17 6.61 48.90 4.40 41.31 C 2.24 33.88 2.99 25.58 6.47 18.46 C 9.07 13.15 15.53 6.59 17.17 7.61 C 17.63 7.89 18.00 7.61 18.00 7.00 C 18.00 6.39 18.45 6.16 19.00 6.50 C 19.55 6.84 20.00 6.61 20.00 6.00 C 20.00 5.39 20.41 5.14 20.91 5.45 C 21.42 5.76 22.02 5.45 22.25 4.76 C 22.56 3.82 27.66 3.42 42.33 3.19 L 62.00 2.88 L 62.00 20.26 C 62.00 41.68 61.13 44.91 53.09 53.11 C 48.73 57.57 46.31 59.17 42.07 60.41 C 35.43 62.35 29.07 62.34 22.66 60.37ZM 39.27 56.62 C 45.13 54.86 49.42 51.78 53.09 46.72 C 57.48 40.66 57.10 40.00 49.25 40.01 C 44.20 40.01 41.75 40.51 39.50 42.00 C 33.32 46.09 24.79 43.97 21.95 37.65 C 19.12 31.33 20.79 25.32 26.31 21.95 C 29.07 20.27 31.40 20.01 43.75 20.00 L 58.00 20.00 L 58.00 13.50 L 58.00 7.00 L 43.37 7.00 C 26.33 7.00 22.55 7.88 16.40 13.30 C 9.90 19.02 7.63 23.98 7.59 32.53 C 7.56 38.42 8.00 40.32 10.28 44.21 C 13.72 50.09 19.23 54.67 25.00 56.46 C 30.83 58.27 33.67 58.31 39.27 56.62ZM 57.50 30.00 L 57.50 24.50 L 45.00 24.50 L 32.50 24.50 L 32.19 28.86 C 31.66 36.20 31.47 36.10 45.23 35.78 L 57.50 35.50 L 57.50 30.00Z"/></g>
<g fill="#1A2F84FF">
<path d="M 79.50 34.79 C 73.44 32.68 70.60 28.12 70.79 20.83 C 70.88 17.43 73.79 11.75 75.04 12.53 C 75.57 12.85 76.00 12.65 76.00 12.08 C 76.00 9.89 82.15 7.90 89.03 7.88 C 96.95 7.86 98.01 8.25 97.31 10.92 C 96.87 12.59 96.15 12.77 91.59 12.30 C 87.85 11.91 85.47 12.22 83.21 13.39 C 72.64 18.86 79.10 34.41 90.75 31.52 C 92.46 31.10 93.00 30.24 93.00 27.98 C 93.00 26.34 92.44 24.93 91.75 24.85 C 91.06 24.76 89.83 24.65 89.00 24.60 C 88.17 24.54 87.50 23.60 87.50 22.50 C 87.50 20.77 88.27 20.46 93.25 20.20 L 99.00 19.90 L 99.00 27.33 L 99.00 34.75 L 95.88 35.38 C 91.29 36.29 82.94 36.00 79.50 34.79Z"/></g>
<g fill="#1A2F84FF">
<path d="M 120.00 22.00 L 120.00 8.00 L 130.00 8.00 C 139.25 8.00 140.00 8.15 140.00 9.95 C 140.00 11.65 139.18 11.94 133.75 12.20 C 127.50 12.50 127.50 12.50 127.19 15.75 L 126.87 19.00 L 132.93 19.00 C 138.77 19.00 138.97 19.09 138.77 21.50 C 138.58 23.85 138.23 24.00 132.78 24.00 L 127.00 24.00 L 127.00 27.50 L 127.00 31.00 L 133.38 31.00 C 138.86 31.00 139.84 31.28 140.27 32.94 C 140.55 34.01 140.53 35.14 140.22 35.44 C 139.92 35.75 135.24 36.00 129.83 36.00 L 120.00 36.00 L 120.00 22.00Z"/></g>
<g fill="#1A2F84FF">
<path d="M 199.33 22.25 L 199.50 8.50 L 208.75 8.21 C 217.41 7.94 218.00 8.05 218.00 9.91 C 218.00 11.66 217.22 11.94 211.75 12.20 C 205.54 12.50 205.50 12.52 205.50 15.50 C 205.50 18.48 205.53 18.50 211.81 18.80 C 217.67 19.08 218.10 19.26 217.81 21.30 C 217.53 23.26 216.82 23.53 211.25 23.80 L 205.00 24.10 L 205.00 27.55 L 205.00 31.00 L 212.00 31.00 C 218.80 31.00 219.00 31.07 219.00 33.50 C 219.00 36.00 218.99 36.00 209.08 36.00 L 199.15 36.00 L 199.33 22.25Z"/></g>
<g fill="#7D88BEFF">
<path d="M 32.42 34.65 C 32.12 33.87 32.01 31.26 32.19 28.86 L 32.50 24.50 L 45.00 24.50 L 57.50 24.50 L 57.50 30.00 L 57.50 35.50 L 45.23 35.78 C 35.38 36.01 32.85 35.78 32.42 34.65ZM 57.00 30.00 L 57.00 25.00 L 45.00 25.00 L 33.00 25.00 L 33.00 30.00 L 33.00 35.00 L 45.00 35.00 L 57.00 35.00 L 57.00 30.00Z"/></g>
<g fill="#1A2F84FF">
<path d="M 146.67 35.33 C 146.30 34.97 146.00 28.67 146.00 21.33 L 146.00 8.00 L 155.39 8.00 C 164.46 8.00 166.00 8.51 166.00 11.53 C 166.00 11.74 163.19 12.04 159.75 12.20 L 153.50 12.50 L 153.50 16.00 L 153.50 19.50 L 159.31 19.80 C 164.15 20.05 165.07 20.39 164.80 21.80 C 164.56 23.08 163.24 23.58 159.49 23.81 C 156.75 23.98 154.19 24.43 153.81 24.81 C 153.43 25.19 153.01 27.86 152.88 30.75 C 152.66 35.71 152.49 36.00 149.99 36.00 C 148.53 36.00 147.03 35.70 146.67 35.33Z"/></g>
<g fill="#1A2F84FF">
<path d="M 172.92 35.59 C 172.69 35.36 172.72 29.17 173.00 21.84 L 173.50 8.50 L 182.53 8.22 C 190.94 7.95 191.58 8.07 191.72 9.92 C 191.85 11.68 191.15 11.94 185.68 12.20 L 179.50 12.50 L 179.50 16.00 L 179.50 19.50 L 185.14 19.80 C 190.18 20.06 190.73 20.30 190.28 22.05 C 189.86 23.64 188.89 24.00 184.94 24.00 C 182.29 24.00 179.89 24.36 179.62 24.81 C 179.34 25.26 179.01 27.96 178.88 30.81 C 178.66 35.70 178.49 36.00 175.99 36.00 C 174.53 36.00 173.15 35.81 172.92 35.59Z"/></g>
<g fill="#1A2F84FF">
<path d="M 106.06 22.06 L 105.92 8.00 L 109.49 8.00 L 113.06 8.00 L 112.78 21.75 L 112.50 35.50 L 109.35 35.81 L 106.20 36.11 L 106.06 22.06Z"/></g>
<g fill="#D91529FF">
<path d="M 58.20 76.80 C 56.30 74.90 56.74 70.21 58.93 69.04 C 61.82 67.49 67.64 67.79 69.43 69.57 C 71.29 71.44 71.48 75.12 69.80 76.80 C 69.14 77.46 66.53 78.00 64.00 78.00 C 61.47 78.00 58.86 77.46 58.20 76.80ZM 66.43 74.32 C 66.79 73.37 66.41 71.98 65.54 71.11 C 64.15 69.73 63.84 69.74 62.36 71.21 C 61.46 72.11 61.00 73.55 61.33 74.42 C 62.13 76.51 65.62 76.44 66.43 74.32Z"/></g>
<g fill="#D91529FF">
<path d="M 73.53 73.25 L 73.62 68.50 L 77.62 68.20 C 83.39 67.77 87.00 69.39 87.00 72.40 C 87.00 76.32 84.49 78.00 78.65 78.00 L 73.45 78.00 L 73.53 73.25ZM 82.00 74.50 C 82.99 73.30 82.99 72.70 82.00 71.50 C 79.50 68.49 75.94 70.79 77.36 74.50 C 77.68 75.33 78.57 76.00 79.35 76.00 C 80.12 76.00 81.32 75.33 82.00 74.50Z"/></g>
<g fill="#D91529FF">
<path d="M 42.33 77.22 C 41.69 76.82 40.86 75.30 40.50 73.85 C 39.69 70.63 42.84 68.00 47.50 68.00 C 52.16 68.00 55.31 70.63 54.50 73.85 C 54.14 75.30 53.31 76.82 52.67 77.22 C 51.15 78.19 43.85 78.19 42.33 77.22ZM 49.84 73.61 C 50.24 71.50 48.36 69.93 46.34 70.70 C 44.92 71.24 44.52 74.19 45.70 75.37 C 46.94 76.61 49.47 75.53 49.84 73.61Z"/></g>
<g fill="#D91529FF">
<path d="M 112.00 73.00 L 112.00 68.00 L 115.93 68.00 C 121.90 68.00 125.00 69.51 125.00 72.40 C 125.00 76.25 122.48 78.00 116.93 78.00 L 112.00 78.00 L 112.00 73.00ZM 120.41 74.37 C 121.13 72.50 119.40 70.00 117.38 70.00 C 116.51 70.00 116.00 71.12 116.00 73.00 C 116.00 75.28 116.46 76.00 117.89 76.00 C 118.93 76.00 120.07 75.27 120.41 74.37Z"/></g>
<g fill="#D91529FF">
<path d="M 89.45 73.25 C 89.64 68.50 89.65 68.50 93.48 68.18 C 98.96 67.72 102.00 68.70 102.00 70.91 C 102.00 71.94 101.26 73.07 100.36 73.41 C 98.87 73.99 98.89 74.22 100.52 76.02 C 102.24 77.92 102.24 78.00 100.47 78.00 C 99.46 78.00 97.59 77.02 96.31 75.83 L 94.00 73.65 L 94.00 75.83 C 94.00 77.45 93.40 78.00 91.63 78.00 C 89.44 78.00 89.27 77.64 89.45 73.25ZM 98.00 71.50 C 98.00 69.91 94.49 69.40 93.59 70.86 C 92.85 72.06 93.99 73.00 96.17 73.00 C 97.17 73.00 98.00 72.33 98.00 71.50Z"/></g>
<g fill="#1A2F84FF">
<path d="M 74.10 55.00 C 73.88 52.68 73.80 52.64 73.00 54.50 C 72.42 55.86 72.16 54.25 72.19 49.50 C 72.22 44.26 72.43 43.25 73.00 45.50 L 73.76 48.50 L 73.88 45.75 C 73.99 43.17 74.27 43.01 78.25 43.17 L 82.50 43.34 L 78.75 43.73 C 75.53 44.07 75.00 44.47 75.00 46.61 C 75.00 49.04 75.15 49.08 81.75 48.80 C 88.20 48.51 88.50 48.39 88.52 46.00 C 88.55 42.46 91.41 42.74 91.82 46.32 C 92.07 48.49 91.67 49.27 90.07 49.69 C 87.59 50.34 87.58 50.43 89.55 53.44 C 92.08 57.29 89.49 57.33 86.56 53.49 C 84.23 50.44 83.35 50.00 79.51 50.00 C 75.17 50.00 75.12 50.05 74.73 53.75 C 74.47 56.24 74.26 56.66 74.10 55.00Z"/></g>
<g fill="#D91529FF">
<path d="M 26.75 76.95 C 24.19 75.42 24.56 71.34 27.42 69.46 C 30.16 67.66 37.12 67.82 37.74 69.69 C 37.99 70.46 36.59 70.99 33.81 71.19 C 30.27 71.44 29.50 71.86 29.50 73.50 C 29.50 74.94 30.27 75.59 32.25 75.82 C 33.76 75.99 35.00 75.65 35.00 75.07 C 35.00 74.48 35.71 74.00 36.57 74.00 C 37.53 74.00 38.02 74.68 37.81 75.75 C 37.57 77.06 36.35 77.56 32.99 77.74 C 30.52 77.88 27.71 77.52 26.75 76.95Z"/></g>
<g fill="#1A2F84FF">
<path d="M 200.20 55.80 C 199.54 55.14 199.00 52.53 199.00 50.00 C 199.00 45.27 200.27 43.00 202.90 43.00 C 204.07 43.00 204.13 43.27 203.20 44.20 C 202.54 44.86 202.00 47.51 202.00 50.09 C 202.00 55.35 202.78 56.00 209.00 56.00 C 214.37 56.00 216.00 55.16 216.00 52.39 C 216.00 50.93 216.58 50.00 217.50 50.00 C 219.31 50.00 219.53 54.07 217.80 55.80 C 216.20 57.40 201.80 57.40 200.20 55.80Z"/></g>
<g fill="#D91529FF">
<path d="M 143.46 73.25 L 143.50 68.50 L 148.75 68.20 C 151.95 68.01 154.00 68.31 154.00 68.95 C 154.00 69.53 152.39 70.00 150.42 70.00 C 145.82 70.00 146.30 72.25 151.08 73.12 L 154.50 73.74 L 150.75 73.87 C 146.01 74.03 145.78 76.00 150.50 76.00 C 152.43 76.00 154.00 76.45 154.00 77.00 C 154.00 77.55 151.62 78.00 148.71 78.00 L 143.42 78.00 L 143.46 73.25Z"/></g>
<g fill="#FA8F99FF">
<path d="M 102.25 77.92 C 103.21 77.36 104.00 75.73 104.00 74.30 C 104.00 71.70 104.00 71.69 101.75 73.60 L 99.50 75.50 L 101.39 73.27 C 104.32 69.81 102.13 68.04 94.63 67.81 L 88.50 67.62 L 94.36 67.26 C 98.72 66.99 100.68 67.30 101.99 68.49 C 103.45 69.81 103.84 69.85 104.29 68.70 C 104.69 67.65 107.01 67.31 113.66 67.34 C 119.63 67.36 120.60 67.49 116.66 67.74 L 110.82 68.11 L 111.16 73.55 C 111.40 77.43 111.14 79.00 110.25 79.00 C 109.40 79.00 109.00 77.23 109.00 73.50 C 109.00 68.59 108.78 68.00 106.91 68.00 C 105.00 68.00 104.84 68.48 105.16 73.50 C 105.49 78.80 105.41 79.00 103.00 78.97 C 100.82 78.94 100.72 78.81 102.25 77.92Z"/></g>
<g fill="#1A2F84FF">
<path d="M 103.58 51.00 C 106.17 47.70 108.90 44.50 109.63 43.89 C 111.45 42.38 114.37 43.60 113.62 45.56 C 113.29 46.41 113.40 46.87 113.87 46.58 C 115.00 45.88 121.00 53.44 121.00 55.56 C 121.00 56.91 120.72 57.01 119.56 56.05 C 118.77 55.39 118.39 54.14 118.73 53.26 C 119.11 52.27 118.93 51.92 118.26 52.34 C 117.66 52.71 115.86 51.21 114.22 48.99 C 111.68 45.54 111.09 45.18 110.02 46.47 C 109.33 47.30 108.30 47.68 107.72 47.32 C 107.06 46.92 106.90 47.29 107.28 48.30 C 107.69 49.36 107.00 50.64 105.32 51.96 C 103.90 53.08 103.07 54.00 103.49 54.00 C 103.90 54.00 103.68 54.67 103.00 55.50 C 102.32 56.33 101.11 57.00 100.31 57.00 C 99.42 57.00 100.66 54.72 103.58 51.00Z"/></g>
<g fill="#FA8F99FF">
<path d="M 142.19 73.20 L 142.00 66.90 L 148.25 67.20 L 154.50 67.50 L 154.66 73.50 C 154.74 76.80 154.60 78.71 154.33 77.75 C 154.02 76.59 152.86 76.00 150.93 76.00 C 149.32 76.00 148.00 75.55 148.00 75.00 C 148.00 74.45 149.35 74.00 151.00 74.00 C 152.65 74.00 154.00 73.55 154.00 73.00 C 154.00 72.45 152.62 72.00 150.94 72.00 C 149.15 72.00 148.14 71.58 148.50 71.00 C 148.84 70.44 150.22 70.27 151.56 70.60 C 153.39 71.06 154.00 70.81 154.00 69.61 C 154.00 68.33 152.89 68.00 148.55 68.00 L 143.10 68.00 L 142.74 73.75 L 142.38 79.50 L 142.19 73.20Z"/></g>
<g fill="#7D88BEFF">
<path d="M 119.44 35.70 C 119.16 34.98 119.07 28.35 119.22 20.95 L 119.50 7.50 L 129.75 7.44 L 140.00 7.39 L 130.00 7.73 L 120.00 8.07 L 120.00 21.95 C 120.00 32.12 120.33 35.97 121.25 36.34 C 122.23 36.73 122.22 36.86 121.22 36.92 C 120.51 36.96 119.71 36.41 119.44 35.70Z"/></g>
<g fill="#1A2F84FF">
<path d="M 130.72 56.25 C 129.86 54.60 130.57 43.65 131.57 43.31 C 132.27 43.08 132.48 44.97 132.20 48.93 C 131.78 54.73 131.84 54.92 134.47 55.58 C 135.96 55.96 139.72 56.00 142.82 55.68 C 146.50 55.30 147.95 55.42 146.98 56.03 C 145.22 57.15 131.29 57.33 130.72 56.25Z"/></g>
<g fill="#7D88BEFF">
<path d="M 153.00 30.66 L 153.50 24.50 L 159.25 24.20 C 164.13 23.95 165.00 23.61 165.00 22.00 C 165.00 20.39 164.13 20.05 159.25 19.80 L 153.50 19.50 L 153.37 16.00 C 153.24 12.60 153.25 12.59 153.68 15.70 C 154.11 18.83 154.24 18.91 159.81 19.20 C 165.13 19.48 165.50 19.66 165.50 22.00 C 165.50 24.34 165.14 24.52 159.75 24.80 L 154.00 25.10 L 154.00 30.49 C 154.00 33.46 153.66 36.09 153.25 36.35 C 152.84 36.60 152.72 34.04 153.00 30.66Z"/></g>
<g fill="#1A2F84FF">
<path d="M 187.08 55.08 C 186.03 54.03 184.83 53.47 184.42 53.83 C 184.01 54.20 184.05 53.86 184.50 53.08 C 185.11 52.03 184.90 51.82 183.70 52.29 C 182.00 52.94 180.57 51.76 181.70 50.64 C 182.05 50.28 183.43 50.70 184.75 51.57 C 188.08 53.75 189.78 52.85 189.24 49.18 C 189.00 47.53 189.28 45.35 189.87 44.34 C 190.70 42.91 190.95 44.11 190.97 49.75 C 191.00 57.37 190.31 58.31 187.08 55.08Z"/></g>
<g fill="#D91529FF">
<path d="M 105.00 73.00 C 105.00 68.67 105.27 68.00 107.00 68.00 C 108.73 68.00 109.00 68.67 109.00 73.00 C 109.00 77.33 108.73 78.00 107.00 78.00 C 105.27 78.00 105.00 77.33 105.00 73.00Z"/></g>
<g fill="#7D88BEFF">
<path d="M 43.95 19.27 L 56.91 18.94 L 57.29 12.72 L 57.67 6.50 L 57.58 13.00 L 57.50 19.50 L 44.25 19.55 L 31.00 19.59 L 43.95 19.27Z"/></g>
<g fill="#FA8F99FF">
<path d="M 35.75 78.29 C 37.12 78.03 38.00 77.13 38.00 76.01 C 38.00 75.00 38.28 73.45 38.61 72.57 C 39.01 71.53 38.75 71.10 37.86 71.32 C 37.11 71.52 36.84 71.48 37.25 71.25 C 37.66 71.02 38.04 70.08 38.08 69.17 C 38.13 68.13 38.35 67.97 38.66 68.75 C 39.05 69.71 39.66 69.65 41.31 68.50 C 42.48 67.67 45.26 67.06 47.47 67.13 L 51.50 67.27 L 46.68 67.94 C 44.03 68.31 41.45 69.26 40.95 70.05 C 39.36 72.57 39.92 75.83 42.22 77.44 C 43.44 78.30 43.95 79.00 43.34 79.00 C 42.74 79.00 41.66 78.30 40.95 77.44 C 39.77 76.02 39.57 76.02 38.78 77.44 C 38.29 78.30 36.91 78.94 35.70 78.86 L 33.50 78.73 L 35.75 78.29Z"/></g>
<g fill="#1A2F84FF">
<path d="M 168.11 50.00 C 168.06 45.44 168.37 43.03 168.89 43.86 C 169.57 44.93 169.85 44.95 170.18 43.96 C 170.50 43.01 171.26 43.13 173.29 44.46 C 174.77 45.43 175.69 46.69 175.34 47.26 C 174.93 47.93 174.30 47.77 173.60 46.81 C 171.91 44.52 170.01 45.81 169.90 49.33 C 169.85 51.08 169.44 53.62 169.00 55.00 C 168.44 56.76 168.17 55.27 168.11 50.00Z"/></g>
<g fill="#7D88BEFF">
<path d="M 105.46 21.50 L 105.50 7.50 L 109.26 7.40 L 113.02 7.29 L 109.54 7.70 L 106.05 8.12 L 105.74 21.81 L 105.42 35.50 L 105.46 21.50Z"/></g>
<g fill="#1A2F84FF">
<path d="M 189.43 73.50 C 189.39 68.79 191.09 67.00 193.63 69.11 C 195.56 70.71 195.37 71.47 192.24 74.90 L 189.47 77.93 L 189.43 73.50Z"/></g>
<g fill="#7D88BEFF">
<path d="M 62.41 19.00 C 62.41 9.38 62.56 5.44 62.74 10.25 C 62.93 15.06 62.93 22.94 62.74 27.75 C 62.56 32.56 62.41 28.62 62.41 19.00Z"/></g>
<g fill="#1A2F84FF">
<path d="M 204.17 73.50 C 204.07 69.94 204.31 68.93 205.00 70.00 C 205.53 70.83 206.00 71.05 206.05 70.50 C 206.09 69.95 206.53 70.51 207.03 71.75 C 208.28 74.85 210.20 74.65 209.41 71.50 C 209.02 69.96 209.21 69.00 209.89 69.00 C 210.55 69.00 210.99 70.93 210.98 73.75 C 210.97 77.19 210.70 78.08 210.00 77.00 C 209.14 75.67 209.02 75.67 208.92 77.00 C 208.85 77.83 208.50 77.41 208.12 76.07 C 207.15 72.61 205.22 72.39 204.72 75.69 C 204.47 77.37 204.25 76.49 204.17 73.50Z"/></g>
<g fill="#7D88BEFF">
<path d="M 156.45 56.73 C 156.15 55.94 156.03 52.42 156.20 48.90 C 156.45 43.65 156.81 42.49 158.27 42.36 C 159.51 42.25 159.58 42.34 158.52 42.68 C 157.35 43.04 157.00 44.75 157.00 50.07 C 157.00 58.84 158.79 59.17 159.28 50.50 L 159.65 43.99 L 159.57 50.67 C 159.53 55.06 159.07 57.48 158.25 57.75 C 157.56 57.98 156.75 57.52 156.45 56.73Z"/></g>
<g fill="#1A2F84FF">
<path d="M 198.25 76.29 C 196.36 75.93 196.10 75.42 196.65 73.18 C 197.01 71.71 197.69 70.35 198.16 70.16 C 198.63 69.98 198.76 69.42 198.45 68.91 C 198.14 68.41 198.31 68.00 198.83 68.00 C 199.36 68.00 200.08 69.24 200.44 70.75 C 200.80 72.26 201.33 74.29 201.61 75.25 C 201.90 76.21 201.77 76.94 201.32 76.86 C 200.87 76.79 199.49 76.53 198.25 76.29Z"/></g>
<g fill="#7D88BEFF">
<path d="M 34.25 2.26 C 38.51 2.07 45.49 2.07 49.75 2.26 C 54.01 2.44 50.53 2.60 42.00 2.60 C 33.47 2.60 29.99 2.44 34.25 2.26Z"/></g>
<g fill="#7D88BEFF">
<path d="M 96.75 35.34 C 98.84 34.90 99.00 34.32 99.00 27.48 L 99.00 20.10 L 93.75 19.73 L 88.50 19.35 L 94.00 19.43 L 99.50 19.50 L 99.50 27.50 C 99.50 35.32 99.44 35.50 97.00 35.66 C 94.80 35.81 94.77 35.77 96.75 35.34Z"/></g>
<g fill="#1A2F84FF">
<path d="M 169.00 73.43 C 169.00 69.93 171.68 67.31 173.86 68.67 C 175.70 69.83 176.72 76.00 175.06 76.00 C 174.48 76.00 174.00 74.65 174.00 73.00 C 174.00 71.10 173.49 70.00 172.61 70.00 C 170.92 70.00 169.85 72.44 170.64 74.50 C 170.95 75.33 170.72 76.00 170.11 76.00 C 169.50 76.00 169.00 74.84 169.00 73.43Z"/></g>
<g fill="#1A2F84FF">
<path d="M 12.53 74.00 C 13.32 70.76 14.73 69.31 15.87 70.55 C 16.35 71.07 17.01 72.62 17.33 74.00 C 17.85 76.24 17.60 76.50 14.91 76.50 C 12.21 76.50 11.97 76.25 12.53 74.00Z"/></g>
<g fill="#7D88BEFF">
<path d="M 202.42 49.50 L 202.50 44.50 L 211.00 44.43 L 219.50 44.36 L 211.30 44.72 L 203.10 45.08 L 202.72 49.79 L 202.34 54.50 L 202.42 49.50Z"/></g>
<g fill="#555F9DFF">
<path d="M 172.39 21.00 C 172.39 13.57 172.55 10.54 172.74 14.25 C 172.93 17.96 172.93 24.04 172.74 27.75 C 172.55 31.46 172.39 28.43 172.39 21.00Z"/></g>
<g fill="#7D88BEFF">
<path d="M 34.29 7.26 C 38.03 7.06 43.88 7.07 47.29 7.26 C 50.71 7.46 47.65 7.61 40.50 7.61 C 33.35 7.61 30.56 7.45 34.29 7.26Z"/></g>
<g fill="#7D88BEFF">
<path d="M 218.12 10.78 L 218.00 8.07 L 207.75 7.75 L 197.50 7.42 L 207.78 7.21 C 218.60 6.99 219.79 7.48 218.70 11.69 C 218.39 12.89 218.19 12.58 218.12 10.78Z"/></g>
<g fill="#7D88BEFF">
<path d="M 192.12 10.78 L 192.00 8.07 L 181.75 7.75 L 171.50 7.42 L 181.78 7.21 C 192.60 6.99 193.79 7.48 192.70 11.69 C 192.39 12.89 192.19 12.58 192.12 10.78Z"/></g>
<g fill="#FA8F99FF">
<path d="M 71.42 74.36 C 71.76 73.46 71.28 71.54 70.35 70.11 C 68.96 67.98 68.94 67.73 70.21 68.78 C 71.49 69.82 71.87 69.78 72.35 68.53 C 72.80 67.37 74.33 67.05 78.72 67.19 L 84.50 67.38 L 78.75 67.74 L 73.00 68.10 L 73.00 72.05 C 73.00 74.27 72.52 76.00 71.89 76.00 C 71.28 76.00 71.07 75.27 71.42 74.36Z"/></g>
<g fill="#7D88BEFF">
<path d="M 166.08 10.28 C 166.00 8.17 165.54 8.06 155.75 7.75 L 145.50 7.42 L 155.78 7.21 C 164.03 7.04 166.17 7.29 166.63 8.47 C 166.94 9.27 166.96 10.51 166.67 11.22 C 166.39 11.92 166.12 11.50 166.08 10.28Z"/></g>
<g fill="#7D88BEFF">
<path d="M 177.69 36.30 C 178.34 35.84 179.02 32.99 179.19 29.98 L 179.50 24.50 L 184.50 24.42 L 189.50 24.34 L 184.80 24.72 L 180.10 25.10 L 179.80 30.72 C 179.59 34.69 179.06 36.46 178.00 36.75 C 176.95 37.03 176.86 36.90 177.69 36.30Z"/></g>
<g fill="#050B5BFF">
<path d="M 130.00 78.27 C 126.54 76.95 126.19 74.15 129.06 70.86 L 131.12 68.50 L 129.54 71.11 C 128.65 72.57 128.25 74.49 128.63 75.47 C 129.19 76.93 130.10 77.13 133.90 76.64 C 138.27 76.08 138.38 76.13 136.00 77.49 C 133.31 79.04 132.34 79.16 130.00 78.27Z"/></g>
<g fill="#1A2F84FF">
<path d="M 133.65 75.99 C 134.83 75.52 136.14 74.59 136.55 73.92 C 137.08 73.07 136.88 72.94 135.90 73.49 C 134.80 74.12 134.76 74.02 135.68 73.01 C 137.22 71.35 140.24 72.52 139.82 74.61 C 139.60 75.72 138.22 76.33 135.50 76.54 C 132.49 76.77 132.03 76.63 133.65 75.99Z"/></g>
<g fill="#555F9DFF">
<path d="M 198.37 23.00 C 198.37 17.22 198.54 14.86 198.74 17.75 C 198.94 20.64 198.94 25.36 198.74 28.25 C 198.54 31.14 198.37 28.78 198.37 23.00Z"/></g>
<g fill="#B1BAE5FF">
<path d="M 204.78 36.26 C 207.69 36.06 212.19 36.06 214.78 36.27 C 217.38 36.47 215.00 36.64 209.50 36.63 C 204.00 36.63 201.88 36.46 204.78 36.26Z"/></g>
<g fill="#7D88BEFF">
<path d="M 76.25 42.26 C 78.86 42.06 83.14 42.06 85.75 42.26 C 88.36 42.47 86.22 42.64 81.00 42.64 C 75.78 42.64 73.64 42.47 76.25 42.26Z"/></g>
<g fill="#1A2F84FF">
<path d="M 186.17 75.95 C 186.08 74.55 185.49 72.89 184.87 72.27 C 184.24 71.64 184.03 70.35 184.40 69.40 C 185.59 66.30 187.15 69.46 186.74 74.11 C 186.52 76.53 186.27 77.35 186.17 75.95Z"/></g>
<g fill="#7D88BEFF">
<path d="M 206.28 42.26 C 208.91 42.06 212.96 42.06 215.28 42.27 C 217.60 42.48 215.45 42.65 210.50 42.65 C 205.55 42.64 203.65 42.47 206.28 42.26Z"/></g>
<g fill="#7D88BEFF">
<path d="M 185.00 76.64 C 185.00 75.25 184.55 73.84 184.00 73.50 C 183.45 73.16 183.02 72.12 183.04 71.19 C 183.08 68.91 185.87 73.74 186.10 76.50 C 186.19 77.64 186.60 77.00 187.04 75.00 L 187.82 71.50 L 187.66 74.92 C 187.47 78.92 185.00 80.52 185.00 76.64Z"/></g>
<g fill="#B1BAE5FF">
<path d="M 127.38 29.56 C 127.08 28.77 127.04 27.30 127.30 26.31 C 127.61 25.10 127.81 25.40 127.88 27.20 C 128.00 29.80 128.25 29.92 134.25 30.26 L 140.50 30.61 L 134.22 30.81 C 129.54 30.95 127.80 30.63 127.38 29.56Z"/></g>
<g fill="#B1BAE5FF">
<path d="M 126.28 36.26 C 128.91 36.06 132.96 36.06 135.28 36.27 C 137.60 36.48 135.45 36.65 130.50 36.65 C 125.55 36.64 123.65 36.47 126.28 36.26Z"/></g>
<g fill="#1A2F84FF">
<path d="M 157.18 50.00 L 157.29 42.50 L 157.98 48.50 C 158.36 51.80 158.31 55.17 157.87 56.00 C 157.40 56.86 157.11 54.31 157.18 50.00Z"/></g>
<g fill="#1A2F84FF">
<path d="M 178.12 73.31 C 178.05 71.00 178.45 68.84 179.01 68.50 C 180.42 67.62 181.44 70.76 180.22 72.26 C 179.67 72.94 178.99 74.40 178.72 75.50 C 178.45 76.60 178.18 75.61 178.12 73.31Z"/></g>
<g fill="#7D88BEFF">
<path d="M 179.39 18.57 C 179.09 17.79 179.04 16.10 179.28 14.82 C 179.63 13.03 179.76 13.22 179.86 15.70 C 180.00 18.82 180.12 18.90 185.25 19.26 L 190.50 19.63 L 185.22 19.82 C 181.44 19.95 179.78 19.59 179.39 18.57Z"/></g>
<g fill="#7D88BEFF">
<path d="M 135.78 42.27 C 138.13 42.06 141.73 42.06 143.78 42.27 C 145.82 42.49 143.90 42.66 139.50 42.66 C 135.10 42.65 133.42 42.48 135.78 42.27Z"/></g>
<g fill="#7D88BEFF">
<path d="M 137.78 44.27 C 140.13 44.06 143.73 44.06 145.78 44.27 C 147.82 44.49 145.90 44.66 141.50 44.66 C 137.10 44.65 135.42 44.48 137.78 44.27Z"/></g>
<g fill="#7D88BEFF">
<path d="M 136.78 57.27 C 139.13 57.06 142.73 57.06 144.78 57.27 C 146.82 57.49 144.90 57.66 140.50 57.66 C 136.10 57.65 134.42 57.48 136.78 57.27Z"/></g>
<g fill="#7D88BEFF">
<path d="M 177.44 77.90 C 176.96 77.13 177.11 76.95 177.85 77.40 C 178.58 77.86 179.00 77.34 179.00 75.99 C 179.00 74.82 179.63 73.23 180.39 72.46 C 181.58 71.27 181.84 71.32 182.18 72.79 C 182.71 75.05 178.49 79.60 177.44 77.90Z"/></g>
<g fill="#1A2F84FF">
<path d="M 214.07 72.77 C 213.18 70.21 213.20 69.80 214.18 70.78 C 215.16 71.76 215.68 71.55 216.67 69.76 C 217.63 68.04 217.94 67.90 217.96 69.18 C 217.98 70.10 217.40 71.46 216.67 72.19 C 215.94 72.92 215.53 74.08 215.75 74.76 C 215.98 75.44 215.95 76.00 215.68 76.00 C 215.41 76.00 214.69 74.55 214.07 72.77Z"/></g>
<g fill="#7D88BEFF">
<path d="M 75.90 44.70 C 76.34 44.25 79.36 44.03 82.60 44.21 L 88.50 44.53 L 81.80 45.01 C 78.11 45.28 75.46 45.14 75.90 44.70Z"/></g>
<g fill="#7D88BEFF">
<path d="M 77.73 48.28 C 79.50 48.06 82.65 48.05 84.73 48.27 C 86.80 48.49 85.35 48.67 81.50 48.67 C 77.65 48.68 75.95 48.50 77.73 48.28Z"/></g>
<g fill="#B1BAE5FF">
<path d="M 49.50 41.00 L 43.50 40.34 L 49.75 40.17 C 53.36 40.07 56.00 40.42 56.00 41.00 C 56.00 41.55 55.89 41.92 55.75 41.83 C 55.61 41.74 52.80 41.37 49.50 41.00Z"/></g>
<g fill="#7D88BEFF">
<path d="M 130.75 12.28 C 132.54 12.05 135.46 12.05 137.25 12.28 C 139.04 12.50 137.57 12.68 134.00 12.68 C 130.43 12.68 128.96 12.50 130.75 12.28Z"/></g>
<g fill="#FA8F99FF">
<path d="M 26.44 68.57 C 27.65 67.59 30.10 67.05 32.94 67.14 L 37.50 67.28 L 32.50 67.91 C 29.75 68.25 26.82 68.90 26.00 69.34 C 25.18 69.79 25.37 69.44 26.44 68.57Z"/></g>
<g fill="#050B5BFF">
<path d="M 180.15 50.54 C 173.53 46.32 172.15 44.94 177.50 47.89 C 181.54 50.12 186.92 53.96 186.00 53.95 C 185.72 53.95 183.09 52.41 180.15 50.54Z"/></g>
<g fill="#B1BAE5FF">
<path d="M 167.32 51.00 C 167.32 47.42 167.50 45.96 167.72 47.75 C 167.95 49.54 167.95 52.46 167.72 54.25 C 167.50 56.04 167.32 54.58 167.32 51.00Z"/></g>
<g fill="#FA8F99FF">
<path d="M 55.67 75.33 C 55.30 74.97 55.00 73.99 55.00 73.16 C 55.00 72.33 54.23 70.72 53.28 69.58 C 51.61 67.56 51.62 67.55 53.48 69.23 C 55.29 70.87 55.49 70.87 57.44 69.23 C 59.49 67.51 59.49 67.51 57.62 69.72 C 56.53 71.02 55.97 72.78 56.28 73.97 C 56.85 76.13 56.73 76.40 55.67 75.33Z"/></g>
<g fill="#B1BAE5FF">
<path d="M 210.77 30.28 C 212.57 30.05 215.27 30.06 216.77 30.29 C 218.27 30.51 216.80 30.70 213.50 30.69 C 210.20 30.68 208.97 30.50 210.77 30.28Z"/></g>
<g fill="#B1BAE5FF">
<path d="M 176.55 75.14 C 176.22 74.12 176.39 72.21 176.92 70.89 C 177.76 68.79 177.88 69.01 177.94 72.75 C 178.00 77.29 177.50 78.16 176.55 75.14Z"/></g>
<g fill="#EE5462FF">
<path d="M 145.77 78.28 C 147.57 78.05 150.27 78.06 151.77 78.29 C 153.27 78.51 151.80 78.70 148.50 78.69 C 145.20 78.68 143.97 78.50 145.77 78.28Z"/></g>
<g fill="#555F9DFF">
<path d="M 136.77 55.28 C 138.57 55.05 141.27 55.06 142.77 55.29 C 144.27 55.51 142.80 55.70 139.50 55.69 C 136.20 55.68 134.97 55.50 136.77 55.28Z"/></g>
</svg>
