<?xml version="1.0" encoding="utf-8"?>
<!DOCTYPE svg PUBLIC "-//W3C//DTD SVG 20010904//EN" "http://www.w3.org/TR/2001/REC-SVG-20010904/DTD/svg10.dtd">
<svg version="1.0" xmlns="http://www.w3.org/2000/svg" width="223pt" height="107pt" viewBox="0 0 223 107" preserveAspectRatio="xMidYMid meet">
<g fill="#F65411FF">
<path d="M 61.51 80.02 C 61.17 79.47 60.97 62.38 61.06 42.04 C 61.19 13.81 61.52 4.81 62.48 4.02 C 63.31 3.32 80.06 3.07 113.11 3.24 L 162.50 3.50 L 162.50 42.00 L 162.50 80.50 L 112.31 80.76 C 79.76 80.93 61.91 80.67 61.51 80.02ZM 143.64 67.80 C 147.38 62.21 151.00 51.28 151.01 45.58 C 151.01 43.34 151.50 39.75 152.09 37.60 L 153.17 33.71 L 145.60 26.37 C 135.64 16.73 128.26 12.97 117.95 12.26 C 108.06 11.58 100.95 13.71 94.17 19.37 C 89.80 23.02 86.00 27.69 86.00 29.40 C 86.00 29.73 96.35 30.00 109.00 30.00 C 130.67 30.00 132.12 30.12 134.00 32.00 C 136.26 34.26 136.43 35.90 134.96 41.22 C 133.55 46.28 129.90 50.36 124.52 52.89 C 120.33 54.85 118.36 55.00 96.06 55.00 L 72.09 55.00 L 71.46 58.37 C 70.86 61.56 73.11 67.84 76.25 71.76 C 77.04 72.74 84.35 72.97 108.88 72.76 L 140.50 72.50 L 143.64 67.80ZM 93.64 43.00 C 95.97 38.33 97.90 34.16 97.93 33.75 C 97.97 33.34 96.96 33.00 95.69 33.00 C 94.02 33.00 92.90 33.99 91.70 36.50 C 90.42 39.19 89.42 40.00 87.40 40.00 C 84.70 40.00 84.59 39.37 86.49 34.75 C 87.07 33.35 86.70 33.00 84.59 33.00 C 82.34 33.00 81.49 33.98 78.53 40.08 C 73.54 50.33 73.40 51.00 76.25 51.00 C 77.98 51.00 79.08 50.05 80.30 47.50 C 81.60 44.77 82.46 44.09 84.23 44.38 C 86.52 44.75 86.70 45.58 85.42 49.84 C 84.81 51.87 85.02 52.13 87.07 51.84 C 88.90 51.57 90.35 49.62 93.64 43.00ZM 98.50 49.00 C 100.43 45.26 101.77 45.17 102.18 48.75 C 102.43 50.93 103.02 51.50 105.00 51.50 C 107.03 51.50 107.56 50.94 107.84 48.54 C 108.02 46.91 109.26 44.29 110.59 42.71 C 113.20 39.60 113.70 36.10 111.80 34.20 C 111.14 33.54 108.44 33.00 105.81 33.00 L 101.02 33.00 L 97.01 41.48 C 94.80 46.14 93.00 50.42 93.00 50.98 C 93.00 53.30 97.03 51.85 98.50 49.00ZM 103.25 39.75 C 103.88 37.86 107.00 37.59 107.00 39.43 C 107.00 40.35 106.15 41.00 104.92 41.00 C 103.69 41.00 103.01 40.48 103.25 39.75ZM 121.93 50.54 C 126.68 48.08 127.59 42.55 123.50 41.00 C 119.70 39.56 120.34 37.65 124.36 38.41 C 126.82 38.87 128.09 38.60 129.07 37.41 C 130.23 36.02 130.14 35.57 128.46 34.32 C 124.70 31.51 117.58 34.17 114.77 39.44 C 113.89 41.08 114.26 41.87 117.11 44.28 L 120.50 47.16 L 116.12 46.83 C 112.76 46.58 111.47 46.92 110.62 48.28 C 109.75 49.66 109.83 50.27 111.00 51.01 C 113.23 52.44 118.72 52.20 121.93 50.54Z"/></g>
<g fill="#F65411FF">
<path d="M 61.85 103.26 C 61.64 102.29 61.47 97.90 61.48 93.50 L 61.50 85.50 L 112.00 85.50 L 162.50 85.50 L 162.50 95.00 L 162.50 104.50 L 112.37 104.76 C 65.22 105.00 62.21 104.91 61.85 103.26ZM 67.50 99.00 C 67.92 98.33 68.74 98.33 69.99 99.00 C 72.80 100.50 75.00 100.21 75.00 98.35 C 75.00 96.81 75.13 96.81 76.83 98.35 C 77.83 99.26 79.62 100.00 80.79 100.00 C 83.10 100.00 87.00 96.43 87.00 94.31 C 87.00 93.59 87.47 93.00 88.05 93.00 C 88.70 93.00 88.84 94.31 88.43 96.50 C 87.91 99.30 88.09 100.00 89.36 100.00 C 90.30 100.00 91.28 98.71 91.77 96.82 C 92.22 95.07 93.21 93.43 93.96 93.18 C 94.80 92.90 95.12 93.25 94.79 94.11 C 94.50 94.88 94.64 96.51 95.10 97.75 C 96.04 100.29 100.70 100.90 102.84 98.76 C 103.73 97.87 104.28 97.83 104.79 98.63 C 105.87 100.31 124.99 100.20 125.63 98.51 C 126.52 96.19 130.25 95.91 131.74 98.04 C 133.25 100.20 136.09 100.56 139.07 98.96 C 140.13 98.40 141.00 98.32 141.00 98.81 C 141.00 99.29 143.00 99.71 145.43 99.75 C 148.73 99.80 149.74 99.48 149.36 98.49 C 148.74 96.88 150.67 93.00 152.08 93.00 C 152.69 93.00 152.83 94.38 152.43 96.50 C 151.57 101.11 154.32 101.40 155.90 96.86 C 156.50 95.14 157.74 93.18 158.65 92.52 C 159.56 91.85 159.99 90.79 159.59 90.15 C 158.69 88.69 152.34 88.64 151.45 90.09 C 150.96 90.87 150.47 90.87 149.69 90.09 C 147.93 88.33 144.16 88.84 143.01 90.98 C 141.96 92.95 141.95 92.95 139.98 90.98 C 137.59 88.59 137.08 88.56 134.21 90.56 C 132.19 91.98 131.84 91.98 130.42 90.56 C 128.67 88.82 125.43 88.49 124.52 89.96 C 124.15 90.57 123.03 90.51 121.51 89.82 C 119.59 88.95 118.57 89.05 116.63 90.32 C 114.49 91.72 114.03 91.74 112.97 90.46 C 111.40 88.57 107.10 88.57 106.38 90.46 C 105.89 91.72 105.47 91.70 103.31 90.28 C 101.23 88.92 100.46 88.86 98.78 89.90 C 97.34 90.81 96.46 90.86 95.68 90.08 C 94.28 88.68 88.72 88.68 87.31 90.09 C 86.52 90.88 85.63 90.87 84.11 90.06 C 82.56 89.23 81.45 89.22 79.94 90.03 C 78.40 90.86 77.50 90.83 76.42 89.93 C 75.26 88.97 74.56 89.09 72.97 90.53 C 71.04 92.28 70.92 92.27 69.55 90.42 C 68.28 88.72 67.96 88.67 66.68 90.00 C 65.89 90.83 64.96 93.41 64.61 95.75 C 64.11 99.09 64.29 100.00 65.43 100.00 C 66.23 100.00 67.16 99.55 67.50 99.00ZM 80.00 95.08 C 80.00 93.85 80.65 93.00 81.57 93.00 C 82.50 93.00 83.01 93.68 82.82 94.67 C 82.34 97.18 80.00 97.52 80.00 95.08ZM 135.00 95.08 C 135.00 93.85 135.65 93.00 136.57 93.00 C 137.50 93.00 138.01 93.68 137.82 94.67 C 137.34 97.18 135.00 97.52 135.00 95.08Z"/></g>
<g fill="#FAB08DFF">
<path d="M 86.00 29.19 C 86.00 28.75 86.71 27.51 87.57 26.44 C 88.44 25.37 88.86 25.06 88.52 25.75 C 88.02 26.74 94.01 27.00 116.88 27.00 C 146.45 27.00 155.93 28.18 135.72 29.34 C 119.83 30.26 86.00 30.16 86.00 29.19Z"/></g>
<g fill="#DC794DFF">
<path d="M 61.00 81.25 C 61.00 80.84 83.95 80.50 112.00 80.50 C 140.05 80.50 163.00 80.84 163.00 81.25 C 163.00 81.66 140.05 82.00 112.00 82.00 C 83.95 82.00 61.00 81.66 61.00 81.25Z"/></g>
<g fill="#FAB08DFF">
<path d="M 86.25 84.25 C 100.41 84.09 123.59 84.09 137.75 84.25 C 151.91 84.41 140.32 84.54 112.00 84.54 C 83.67 84.54 72.09 84.41 86.25 84.25Z"/></g>
<g fill="#DC794DFF">
<path d="M 71.86 57.74 C 72.28 57.32 89.70 57.09 110.56 57.24 L 148.50 57.50 L 109.80 58.00 C 88.51 58.28 71.44 58.16 71.86 57.74Z"/></g>
<g fill="#FAB08DFF">
<path d="M 72.00 55.76 C 72.00 55.34 82.20 55.00 94.67 55.00 C 107.13 55.00 117.14 55.19 116.91 55.42 C 116.13 56.20 72.00 56.53 72.00 55.76Z"/></g>
<g fill="#FAB08DFF">
<path d="M 124.73 98.00 C 125.67 96.90 126.88 96.00 127.42 96.00 C 127.95 96.00 129.77 94.77 131.45 93.26 C 133.13 91.75 133.94 91.16 133.25 91.96 C 132.56 92.75 132.00 94.34 132.00 95.50 C 132.00 96.66 132.56 98.23 133.25 99.00 C 134.31 100.19 134.24 100.21 132.75 99.08 C 131.79 98.35 131.00 97.13 131.00 96.37 C 131.00 95.23 130.61 95.20 128.75 96.24 C 127.51 96.93 126.14 98.06 125.70 98.75 C 125.26 99.44 124.48 100.00 123.96 100.00 C 123.44 100.00 123.79 99.10 124.73 98.00Z"/></g>
<g fill="#DC794DFF">
<path d="M 149.69 91.93 C 149.36 90.64 148.24 89.95 146.34 89.86 C 143.98 89.75 143.88 89.65 145.75 89.29 C 148.47 88.77 153.83 92.47 151.60 93.32 C 150.77 93.64 149.99 93.08 149.69 91.93Z"/></g>
</svg>
