<?xml version="1.0" encoding="utf-8"?>
<!DOCTYPE svg PUBLIC "-//W3C//DTD SVG 20010904//EN" "http://www.w3.org/TR/2001/REC-SVG-20010904/DTD/svg10.dtd">
<svg version="1.0" xmlns="http://www.w3.org/2000/svg" width="1490pt" height="854pt" viewBox="0 0 1490 854" preserveAspectRatio="xMidYMid meet">
<g fill="#EF3231FF">
<path d="M 415.25 757.97 L 413.00 757.06 L 413.00 415.73 C 413.00 151.58 413.27 74.13 414.20 73.20 C 415.95 71.45 1074.05 71.45 1075.80 73.20 C 1076.73 74.13 1077.00 151.58 1077.00 415.72 L 1077.00 757.05 L 1074.43 758.02 C 1071.09 759.30 418.42 759.24 415.25 757.97ZM 773.33 680.34 C 789.22 672.33 795.73 660.25 797.48 635.50 C 798.41 622.35 798.76 621.18 802.20 619.40 C 803.94 618.50 805.60 618.20 806.11 618.71 C 806.59 619.19 807.39 625.39 807.88 632.48 C 808.62 643.07 809.10 645.60 810.58 646.68 C 816.42 650.95 827.07 643.96 834.74 630.84 C 836.37 628.04 836.82 627.86 840.74 628.39 C 845.91 629.08 848.66 628.11 853.45 623.91 C 858.17 619.77 861.89 612.39 863.12 604.74 C 863.65 601.42 865.15 596.85 866.44 594.60 C 867.72 592.34 869.33 588.70 870.01 586.50 C 871.88 580.43 872.98 580.00 873.12 585.30 C 873.19 587.88 873.36 592.70 873.50 596.00 C 873.64 599.30 873.81 603.35 873.88 605.00 C 873.94 606.67 874.56 608.00 875.25 608.00 C 876.68 608.00 887.98 600.19 888.03 599.17 C 888.05 598.80 888.17 591.22 888.31 582.32 C 888.53 568.12 888.78 565.90 890.43 564.07 C 894.51 559.57 895.00 561.00 895.00 577.44 C 895.00 585.93 895.40 593.13 895.88 593.43 C 896.37 593.73 899.63 592.06 903.13 589.72 L 909.50 585.47 L 910.00 568.48 C 910.44 553.55 910.74 551.17 912.50 548.78 C 916.27 543.65 916.90 545.37 917.25 561.89 C 917.53 574.73 918.10 575.77 924.26 574.61 C 930.10 573.52 943.00 560.51 943.00 555.72 C 943.00 553.07 945.04 552.17 948.74 553.19 C 957.19 555.53 967.78 548.22 973.59 536.05 C 976.03 530.93 976.82 530.04 978.50 530.56 C 986.17 532.95 989.58 532.28 995.10 527.29 C 1000.16 522.72 1002.50 518.18 1004.05 509.95 C 1004.72 506.40 1006.73 500.35 1008.51 496.50 C 1012.63 487.59 1013.57 482.72 1011.52 481.01 C 1010.22 479.94 1009.70 480.43 1007.95 484.38 C 1006.83 486.92 1005.39 489.00 1004.76 489.00 C 1004.13 489.00 1002.40 487.84 1000.92 486.42 C 994.90 480.65 983.31 483.40 977.67 491.93 C 971.84 500.73 970.72 505.38 971.43 517.75 C 971.82 524.50 971.71 529.00 971.15 529.00 C 970.64 529.00 969.94 530.12 969.59 531.49 C 968.38 536.32 959.03 539.43 956.67 535.79 C 955.77 534.40 956.07 533.53 958.21 531.29 C 961.32 528.03 965.98 518.47 965.99 515.32 C 966.01 511.72 964.25 508.21 961.54 506.43 C 956.37 503.05 950.33 508.02 944.37 520.56 C 941.26 527.12 941.00 528.44 940.96 537.59 C 940.91 547.82 939.57 553.61 936.44 557.07 C 932.50 561.42 932.00 559.89 932.00 543.62 C 932.00 531.45 931.70 528.00 930.56 527.05 C 928.25 525.14 922.93 528.30 916.08 535.66 C 911.38 540.70 909.59 542.01 908.05 541.52 C 905.10 540.58 902.25 542.46 894.42 550.51 C 888.35 556.75 886.95 557.71 884.65 557.27 C 878.26 556.05 870.71 565.74 865.99 581.24 C 864.56 585.93 863.59 586.54 861.31 584.16 C 858.48 581.21 855.48 580.00 851.02 580.00 C 845.86 580.00 842.21 581.86 838.05 586.60 C 830.97 594.66 827.87 607.33 830.60 617.06 L 832.26 622.97 L 829.58 626.49 C 825.37 632.01 824.30 631.29 823.40 622.33 C 823.07 619.13 821.81 614.25 820.60 611.50 L 818.39 606.50 L 820.62 602.56 C 823.79 596.97 825.20 588.01 823.87 581.82 C 822.27 574.36 814.93 567.00 809.10 567.00 C 808.00 567.00 805.89 565.88 804.41 564.50 C 802.92 563.12 801.42 562.00 801.08 562.00 C 800.73 562.00 799.26 563.35 797.81 565.00 C 796.37 566.65 794.24 568.00 793.09 568.00 C 790.57 568.00 790.55 567.78 792.64 563.70 C 794.67 559.75 795.87 558.93 798.66 559.63 C 801.66 560.38 808.88 555.98 812.94 550.93 C 817.57 545.16 821.97 536.08 821.99 532.25 C 822.01 527.56 819.75 528.17 817.58 533.45 C 815.52 538.43 811.70 542.55 810.07 541.55 C 809.38 541.12 809.00 535.23 809.00 524.97 C 809.00 506.74 809.63 507.47 799.75 514.31 C 796.28 516.71 794.00 519.02 794.00 520.13 C 794.00 521.32 793.04 522.17 791.25 522.55 C 776.82 525.66 768.47 537.89 767.13 557.90 C 766.54 566.68 766.32 567.43 763.71 569.37 C 761.54 570.99 760.55 571.20 759.21 570.35 C 757.77 569.43 757.50 567.56 757.50 558.28 C 757.50 551.70 757.95 546.74 758.62 545.90 C 761.96 541.71 765.48 523.32 764.71 514.10 C 763.57 500.46 758.34 494.57 752.54 500.37 C 749.58 503.33 748.61 506.75 745.49 525.35 C 743.65 536.35 743.00 543.91 743.00 554.46 C 743.00 568.27 742.92 568.79 740.50 571.41 C 737.33 574.83 737.31 578.41 740.45 581.15 C 742.70 583.10 742.79 583.50 741.55 585.89 C 739.29 590.25 735.26 594.04 733.56 593.38 C 732.25 592.88 732.00 590.55 732.00 578.91 C 732.00 565.17 732.04 564.95 735.85 555.27 C 740.82 542.68 742.00 537.66 741.98 529.31 C 741.95 522.06 739.21 513.97 736.80 514.03 C 731.42 514.17 724.12 528.52 719.99 547.03 C 718.32 554.53 718.00 559.66 718.00 578.81 L 718.00 601.64 L 714.60 605.46 C 712.38 607.95 710.65 609.08 709.64 608.69 C 708.25 608.16 708.15 603.89 708.70 569.55 C 709.04 548.35 708.97 531.00 708.54 531.00 C 707.07 531.00 696.49 537.85 694.38 540.17 C 693.21 541.45 691.97 543.74 691.61 545.25 C 691.08 547.50 690.41 548.00 687.95 548.00 C 686.29 548.00 683.38 548.65 681.47 549.45 C 679.56 550.25 678.00 550.73 678.00 550.52 C 678.00 550.31 675.49 552.47 672.42 555.32 C 657.69 569.01 647.19 594.40 646.24 618.64 C 645.65 633.75 647.12 639.08 653.88 646.30 L 658.46 651.20 L 665.05 650.83 C 670.76 650.50 672.23 649.99 676.07 646.98 C 682.59 641.87 688.90 633.44 688.97 629.75 C 689.00 627.87 691.48 627.35 692.50 629.00 C 694.55 632.32 705.16 627.49 711.16 620.50 C 711.63 619.95 713.61 617.62 715.57 615.32 C 718.74 611.58 719.47 611.20 722.49 611.69 C 726.59 612.36 730.52 610.14 736.96 603.56 C 739.41 601.05 741.77 599.00 742.21 599.00 C 743.12 599.00 743.29 616.30 742.42 620.63 C 742.11 622.21 740.60 625.04 739.08 626.90 C 736.54 630.02 735.87 630.29 730.71 630.29 C 724.61 630.29 723.52 631.25 724.63 635.66 C 725.22 638.03 725.50 638.12 730.28 637.46 C 735.81 636.70 739.95 635.13 744.45 632.09 C 747.88 629.77 750.00 630.76 750.00 634.68 C 750.00 637.82 753.23 644.84 756.07 647.86 C 759.28 651.28 764.48 653.19 768.52 652.43 C 773.83 651.43 780.67 646.58 782.88 642.23 C 785.79 636.54 786.54 627.57 784.66 621.22 C 783.28 616.57 783.78 614.21 785.54 617.06 C 785.90 617.65 787.28 618.53 788.60 619.04 C 790.62 619.80 791.00 620.63 791.00 624.23 C 791.00 629.18 788.99 638.99 786.28 647.32 C 782.85 657.84 774.24 665.18 763.64 666.64 L 759.00 667.27 L 759.00 674.05 C 759.00 683.58 759.42 684.35 764.23 683.58 C 766.39 683.23 770.49 681.78 773.33 680.34ZM 761.88 641.75 C 758.04 638.46 755.59 628.67 756.87 621.75 C 759.38 608.16 765.90 596.77 775.17 589.78 C 782.50 584.25 786.31 582.28 790.50 581.82 L 793.50 581.50 L 793.36 588.86 L 793.21 596.22 L 788.11 600.69 C 784.09 604.20 782.86 605.99 782.37 609.08 C 781.66 613.52 781.06 613.83 778.53 611.04 C 776.17 608.42 768.20 605.40 766.96 606.64 C 766.44 607.16 765.72 611.03 765.36 615.22 L 764.72 622.86 L 768.11 624.33 C 769.97 625.14 772.79 627.04 774.36 628.55 C 776.90 630.98 777.17 631.81 776.72 635.81 C 776.36 638.99 775.51 640.87 773.85 642.15 C 770.56 644.68 765.09 644.50 761.88 641.75ZM 670.43 621.04 C 660.76 617.12 661.07 591.34 671.05 570.41 C 677.04 557.83 684.94 551.97 689.35 556.83 C 690.79 558.43 691.00 561.77 690.98 583.58 C 690.95 611.36 690.46 613.91 684.07 619.29 C 680.71 622.11 674.92 622.85 670.43 621.04ZM 541.45 432.50 C 550.20 431.02 560.39 423.74 565.02 415.66 C 566.65 412.82 567.99 409.49 567.99 408.25 C 568.00 406.22 567.52 406.00 563.11 406.00 C 558.59 406.00 558.11 406.24 556.68 409.25 C 554.48 413.88 549.63 418.51 544.19 421.19 C 540.47 423.02 537.84 423.50 531.50 423.50 C 524.27 423.50 522.95 423.18 517.80 420.21 C 511.77 416.72 506.34 410.22 504.21 403.93 C 502.48 398.81 502.79 387.30 504.80 382.21 C 508.73 372.28 518.27 364.88 529.05 363.41 C 538.53 362.11 550.91 368.24 555.46 376.50 C 557.50 380.20 558.02 380.52 562.47 380.81 C 565.12 380.98 567.63 380.76 568.05 380.31 C 569.48 378.81 564.63 370.54 559.04 364.96 C 551.02 356.93 545.78 354.73 533.49 354.21 C 524.47 353.83 522.84 354.05 517.12 356.37 C 495.11 365.32 485.87 391.11 496.98 412.58 C 503.47 425.13 513.33 431.84 527.00 433.02 C 531.12 433.38 535.17 433.56 536.00 433.42 C 536.83 433.29 539.28 432.87 541.45 432.50ZM 630.50 430.80 C 634.85 429.28 638.10 427.17 642.33 423.10 C 651.91 413.89 655.54 404.48 654.81 390.69 C 654.46 383.96 653.77 381.10 651.26 375.92 C 641.48 355.76 617.51 347.87 597.70 358.28 C 590.94 361.84 582.97 370.11 579.86 376.81 C 576.56 383.94 576.05 400.49 578.92 408.00 C 581.14 413.82 588.19 424.05 591.04 425.59 C 591.98 426.09 594.60 427.52 596.87 428.77 C 606.43 434.02 619.08 434.79 630.50 430.80ZM 606.57 422.17 C 600.44 419.94 593.85 414.30 590.32 408.27 C 588.15 404.58 587.54 402.09 587.19 395.48 C 586.80 387.90 587.00 386.79 589.88 380.74 C 595.24 369.52 604.31 363.59 616.00 363.68 C 628.54 363.77 638.87 371.38 642.83 383.44 C 645.51 391.61 645.56 396.45 643.04 403.62 C 637.58 419.17 621.19 427.51 606.57 422.17ZM 718.11 432.25 C 718.92 426.82 718.82 424.51 717.75 423.83 C 717.06 423.39 707.61 423.02 696.75 423.02 C 681.62 423.00 677.00 422.71 677.01 421.75 C 677.01 420.29 678.26 418.34 687.00 406.10 C 695.47 394.25 701.25 386.04 707.91 376.41 C 710.89 372.11 714.83 366.63 716.66 364.22 C 720.29 359.47 721.02 355.35 718.34 354.82 C 717.43 354.65 704.60 354.63 689.84 354.78 L 663.00 355.06 L 663.00 359.53 L 663.00 364.00 L 682.03 364.00 C 697.15 364.00 701.17 364.28 701.58 365.36 C 702.08 366.64 694.95 378.09 690.88 382.56 C 689.85 383.70 689.00 384.92 689.00 385.27 C 689.00 385.62 686.86 388.83 684.25 392.39 C 679.43 398.97 669.58 412.89 662.75 422.77 C 659.16 427.96 658.22 430.89 659.67 432.33 C 660.59 433.26 717.97 433.18 718.11 432.25ZM 784.56 430.60 C 784.89 429.28 785.02 427.15 784.83 425.85 L 784.50 423.50 L 763.75 423.23 C 748.10 423.03 743.02 422.66 743.07 421.73 C 743.16 420.29 744.76 417.69 751.34 408.36 C 754.00 404.59 757.25 399.93 758.57 398.00 C 759.89 396.07 761.32 394.05 761.75 393.50 C 763.73 390.96 766.61 387.06 767.75 385.37 C 768.44 384.34 772.61 378.55 777.01 372.50 C 785.52 360.80 787.56 357.16 786.28 355.88 C 785.69 355.29 744.40 354.60 730.75 354.95 C 729.35 354.99 729.00 355.90 729.00 359.50 L 729.00 364.00 L 748.42 364.00 C 762.86 364.00 767.94 364.31 768.24 365.23 C 768.47 365.90 766.23 369.84 763.27 373.98 C 760.31 378.11 753.98 387.01 749.20 393.75 C 744.41 400.48 739.26 407.68 737.75 409.75 C 726.90 424.58 723.77 430.43 725.67 432.33 C 726.03 432.70 739.30 433.00 755.15 433.00 L 783.96 433.00 L 784.56 430.60ZM 807.76 393.86 L 808.02 355.21 L 804.07 354.84 C 801.90 354.63 799.65 354.62 799.06 354.81 C 797.85 355.22 797.51 431.18 798.71 432.38 C 799.11 432.77 801.24 432.96 803.46 432.80 L 807.50 432.50 L 807.76 393.86ZM 504.29 332.75 C 505.73 331.68 506.01 329.05 506.24 314.50 L 506.50 297.50 L 524.00 297.00 L 541.50 296.50 L 541.81 292.25 C 541.98 289.91 541.98 287.91 541.81 287.81 C 541.64 287.71 533.62 287.37 524.00 287.06 L 506.50 286.50 L 506.50 276.00 L 506.50 265.50 L 525.50 265.00 L 544.50 264.50 L 544.50 260.00 L 544.50 255.50 L 520.50 255.50 L 496.50 255.50 L 496.24 294.18 L 495.98 332.86 L 498.74 333.28 C 500.26 333.51 501.75 333.77 502.06 333.85 C 502.37 333.93 503.37 333.44 504.29 332.75ZM 565.00 331.99 C 565.66 330.77 565.80 325.57 565.38 317.73 C 564.56 302.38 565.09 300.99 571.79 301.01 C 579.31 301.04 580.40 301.72 585.81 309.83 C 588.63 314.05 592.99 320.43 595.51 324.00 C 598.03 327.57 600.45 331.10 600.88 331.83 C 601.65 333.14 610.55 333.78 611.71 332.62 C 612.30 332.04 606.05 321.72 604.77 321.17 C 604.35 320.98 604.00 320.44 604.00 319.96 C 604.00 318.95 595.01 305.80 593.70 304.88 C 591.45 303.32 593.86 300.34 599.52 297.69 C 607.64 293.88 610.18 289.94 610.80 280.19 C 611.41 270.78 609.81 265.85 604.76 261.53 C 599.17 256.74 591.59 255.15 573.50 254.95 C 565.25 254.87 557.71 255.11 556.75 255.50 C 555.13 256.16 555.00 258.95 555.00 294.06 C 555.00 335.42 554.68 333.28 560.93 333.71 C 563.05 333.85 564.28 333.34 565.00 331.99ZM 566.05 288.59 C 564.64 285.97 564.90 268.59 566.38 266.20 C 566.97 265.23 570.19 264.94 578.79 265.07 C 591.96 265.26 594.59 265.92 598.49 269.99 C 600.99 272.60 601.21 273.41 600.80 278.45 C 599.96 288.52 595.46 290.99 577.92 290.99 C 567.75 291.00 567.29 290.91 566.05 288.59ZM 717.00 300.09 C 717.00 276.00 717.32 267.08 718.20 266.20 C 718.99 265.41 723.15 265.00 730.25 265.00 L 741.11 265.00 L 740.80 260.25 L 740.50 255.50 L 714.00 255.22 C 699.42 255.06 686.49 255.19 685.25 255.49 C 683.34 255.96 683.00 256.70 683.00 260.49 L 683.00 264.94 L 694.75 265.22 L 706.50 265.50 L 706.76 299.18 C 707.06 336.56 706.53 333.99 713.75 333.16 L 717.00 332.78 L 717.00 300.09ZM 801.21 331.70 C 802.34 329.92 802.16 325.22 800.94 324.46 C 800.35 324.10 791.49 323.61 781.23 323.37 C 768.05 323.07 762.35 322.58 761.81 321.72 C 760.51 319.68 760.85 299.55 762.20 298.20 C 763.04 297.36 768.58 297.00 780.70 297.00 C 790.22 297.00 798.05 296.66 798.11 296.25 C 798.82 291.63 798.74 289.39 797.83 288.30 C 797.03 287.33 792.50 287.00 779.91 287.00 C 760.29 287.00 761.30 287.59 761.23 276.00 C 761.17 264.42 759.93 265.09 782.27 264.77 L 801.50 264.50 L 801.83 262.15 C 802.02 260.85 801.89 258.71 801.56 257.38 L 800.95 254.97 L 776.23 255.23 L 751.50 255.50 L 751.22 292.50 C 751.07 312.85 751.16 330.40 751.43 331.50 C 751.90 333.44 752.61 333.49 776.18 333.20 C 793.65 332.98 800.66 332.56 801.21 331.70ZM 924.39 332.94 C 924.64 332.69 925.00 330.73 925.18 328.58 C 925.47 325.00 925.26 324.62 922.50 323.85 C 920.85 323.38 913.16 323.25 905.42 323.54 C 896.93 323.86 890.28 323.68 888.67 323.06 L 886.00 322.05 L 886.00 289.04 L 886.00 256.04 L 883.60 255.44 C 882.28 255.11 880.15 254.98 878.85 255.17 L 876.50 255.50 L 876.00 293.43 C 875.65 319.76 875.83 331.69 876.57 332.43 C 877.63 333.48 923.36 333.97 924.39 332.94ZM 630.42 324.25 C 632.49 319.44 634.81 315.00 635.59 314.39 C 637.17 313.15 662.77 312.49 668.40 313.55 C 671.66 314.16 672.08 314.72 675.72 323.35 L 679.58 332.50 L 684.79 332.80 C 687.66 332.97 690.00 332.82 690.00 332.47 C 690.00 331.49 685.05 319.08 682.44 313.50 C 681.15 310.75 679.96 307.82 679.80 307.00 C 679.63 306.18 679.22 305.27 678.87 305.00 C 678.27 304.52 664.47 273.71 661.19 265.51 C 658.17 257.97 654.89 253.00 652.94 253.00 C 650.88 253.00 650.88 253.01 638.72 280.50 C 621.00 320.57 617.00 329.94 617.00 331.36 C 617.00 332.65 618.02 333.00 621.83 333.00 L 626.66 333.00 L 630.42 324.25ZM 641.54 303.21 C 640.31 301.98 641.27 298.86 646.63 286.71 C 649.74 279.68 652.78 274.09 653.39 274.29 C 655.15 274.87 666.12 300.53 665.40 302.39 C 664.87 303.79 663.11 304.01 653.43 303.89 C 647.19 303.81 641.84 303.50 641.54 303.21ZM 865.00 328.50 L 865.00 324.00 L 848.75 323.86 C 833.68 323.73 830.56 323.63 827.26 323.17 C 826.31 323.04 825.97 315.13 825.76 289.25 L 825.50 255.50 L 821.60 255.18 C 819.16 254.98 817.39 255.35 816.87 256.18 C 816.41 256.91 816.02 274.49 816.02 295.25 L 816.00 333.00 L 840.50 333.00 L 865.00 333.00 L 865.00 328.50ZM 945.76 294.25 L 945.50 255.50 L 941.60 255.18 C 939.16 254.98 937.39 255.35 936.87 256.18 C 936.41 256.91 936.02 274.49 936.02 295.25 L 936.00 333.00 L 941.01 333.00 L 946.02 333.00 L 945.76 294.25ZM 541.45 226.40 C 543.40 222.23 545.00 218.68 545.00 218.51 C 545.00 218.34 546.75 214.44 548.89 209.85 C 551.03 205.26 554.62 197.53 556.86 192.67 C 559.11 187.82 561.34 184.09 561.83 184.39 C 562.75 184.96 562.99 186.73 565.91 214.60 C 566.89 224.01 568.02 232.22 568.41 232.85 C 569.19 234.12 576.65 234.45 577.27 233.25 C 577.74 232.33 576.99 223.34 573.58 189.00 C 570.19 154.92 570.13 154.58 566.90 154.20 C 564.60 153.93 563.92 154.81 559.68 163.39 C 557.11 168.62 555.00 173.15 555.00 173.46 C 555.00 173.78 553.20 177.90 551.00 182.62 C 548.80 187.34 547.00 191.36 547.00 191.56 C 547.00 191.75 544.41 197.32 541.24 203.92 C 537.69 211.31 535.07 215.64 534.42 215.21 C 533.36 214.51 512.39 169.84 511.81 167.04 C 511.64 166.24 511.14 165.11 510.71 164.54 C 510.28 163.97 508.93 161.47 507.71 159.00 C 506.01 155.53 504.88 154.43 502.78 154.19 C 499.74 153.84 499.43 154.56 498.65 164.00 C 498.40 167.03 496.79 183.44 495.08 200.49 C 493.37 217.53 492.19 232.04 492.45 232.74 C 492.97 234.09 500.56 234.53 501.34 233.25 C 501.75 232.56 503.96 212.66 505.75 193.50 C 506.30 187.65 506.88 185.50 507.91 185.50 C 509.19 185.50 513.35 193.74 526.75 222.87 C 529.09 227.95 531.00 232.51 531.00 233.00 C 531.00 234.64 534.36 235.88 536.17 234.91 C 537.12 234.40 539.50 230.57 541.45 226.40ZM 636.00 232.24 C 640.72 230.05 645.77 225.24 647.79 221.00 C 651.71 212.78 652.00 210.19 652.00 182.82 L 652.00 155.89 L 647.25 156.20 L 642.50 156.50 L 642.00 184.00 L 641.50 211.50 L 638.74 215.74 C 634.64 222.05 629.36 225.00 622.14 225.00 C 618.90 225.00 614.73 224.36 612.87 223.58 C 609.23 222.05 603.99 217.10 603.65 214.87 C 603.54 214.12 603.01 212.82 602.47 212.00 C 601.94 211.18 601.27 198.35 601.00 183.50 L 600.50 156.50 L 595.75 156.20 C 592.39 155.98 590.97 156.27 590.89 157.20 C 590.21 165.28 590.32 201.33 591.04 207.36 C 592.82 222.34 600.02 231.09 613.00 234.08 C 619.09 235.48 631.07 234.52 636.00 232.24ZM 704.00 232.32 C 709.54 229.85 714.58 224.80 716.09 220.23 C 716.71 218.34 717.03 214.14 716.80 210.91 C 716.46 206.25 715.75 204.25 713.36 201.27 C 710.17 197.29 703.50 193.12 696.00 190.41 C 683.94 186.05 681.01 184.64 678.12 181.81 C 674.47 178.25 674.14 174.93 676.95 170.31 C 681.84 162.29 701.51 163.58 705.06 172.15 C 706.11 174.67 706.75 175.00 710.65 175.00 C 716.09 175.00 716.83 173.55 714.11 168.22 C 711.84 163.77 707.61 159.86 701.91 156.95 C 696.97 154.43 684.05 154.25 678.39 156.61 C 669.36 160.38 665.01 166.47 665.01 175.35 C 665.00 186.53 669.13 190.96 685.40 197.21 C 699.75 202.72 701.52 203.64 704.42 207.08 C 707.30 210.51 707.79 215.38 705.54 218.34 C 702.23 222.71 697.72 225.00 692.43 225.00 C 683.79 225.00 680.96 224.00 676.50 219.34 C 672.90 215.58 671.79 215.00 668.17 215.00 C 663.33 215.00 662.97 216.08 665.91 221.79 C 670.50 230.72 679.56 235.18 692.00 234.66 C 696.76 234.45 701.14 233.60 704.00 232.32ZM 835.88 233.94 C 847.02 231.37 856.54 223.86 862.46 212.95 C 865.26 207.79 865.42 206.86 865.46 195.50 C 865.50 184.42 865.29 183.08 862.78 178.00 C 854.98 162.19 841.08 154.15 823.32 155.15 C 809.52 155.93 795.84 166.21 790.51 179.80 C 787.96 186.30 787.77 187.71 788.21 196.69 C 788.74 207.56 791.45 215.03 797.28 221.66 C 806.46 232.12 822.15 237.11 835.88 233.94ZM 815.40 222.41 C 807.62 218.31 801.46 211.37 799.45 204.48 C 796.73 195.13 798.79 181.99 803.79 176.80 C 804.73 175.82 806.62 173.86 808.00 172.44 C 814.03 166.21 825.38 163.49 834.73 166.02 C 840.11 167.48 849.00 173.44 849.00 175.59 C 849.00 176.36 849.37 177.00 849.83 177.00 C 850.29 177.00 851.75 179.33 853.08 182.18 C 856.34 189.15 856.47 201.28 853.35 208.09 C 850.93 213.40 843.65 220.81 840.00 221.69 C 838.63 222.03 836.61 222.91 835.53 223.65 C 834.36 224.45 830.85 225.00 826.93 225.00 C 821.73 225.00 819.24 224.44 815.40 222.41ZM 779.80 229.39 C 780.09 225.48 779.94 225.24 776.93 224.64 C 775.18 224.29 766.21 224.00 756.99 224.00 C 737.40 224.00 739.32 225.70 739.81 208.75 L 740.13 198.00 L 757.31 197.98 C 766.77 197.98 775.09 197.59 775.82 197.13 C 776.65 196.61 777.02 194.84 776.82 192.40 L 776.50 188.50 L 758.50 188.00 L 740.50 187.50 L 740.22 176.75 L 739.93 166.00 L 758.38 166.00 C 768.53 166.00 777.55 165.73 778.42 165.39 C 779.53 164.97 780.00 163.47 780.00 160.38 L 780.00 155.97 L 754.75 156.23 L 729.50 156.50 L 729.22 193.00 C 729.07 213.07 729.19 230.52 729.49 231.77 L 730.05 234.03 L 754.77 233.77 L 779.50 233.50 L 779.80 229.39Z"/></g>
<g fill="#C85F5FFF">
<path d="M 413.41 72.78 C 413.62 71.75 477.49 71.45 745.33 71.25 C 1060.77 71.01 1077.00 71.08 1076.92 72.75 C 1076.87 73.79 1076.64 74.00 1076.34 73.25 C 1075.68 71.61 414.47 71.39 413.66 73.03 C 413.38 73.59 413.27 73.48 413.41 72.78Z"/></g>
</svg>
