<?xml version="1.0" encoding="utf-8"?>
<!DOCTYPE svg PUBLIC "-//W3C//DTD SVG 20010904//EN" "http://www.w3.org/TR/2001/REC-SVG-20010904/DTD/svg10.dtd">
<svg version="1.0" xmlns="http://www.w3.org/2000/svg" width="824pt" height="293pt" viewBox="0 0 824 293" preserveAspectRatio="xMidYMid meet">
<g fill="#ED1C26FE">
<path d="M 174.44 225.31 C 174.82 224.32 175.65 218.70 176.28 212.84 L 177.42 202.18 L 191.53 201.84 C 204.42 201.53 205.95 201.29 209.08 199.14 C 213.64 196.01 215.73 193.06 217.10 187.84 C 219.37 179.25 213.77 169.42 205.27 167.06 C 203.20 166.48 193.84 166.01 184.48 166.01 L 167.47 166.00 L 164.08 160.25 C 159.98 153.28 154.87 146.70 149.91 142.00 L 146.21 138.50 L 165.36 138.50 C 183.30 138.50 184.76 138.36 188.72 136.25 C 193.47 133.71 197.54 128.37 199.09 122.63 C 201.42 114.06 195.41 102.84 186.74 99.55 C 183.14 98.19 178.26 97.99 154.50 98.22 L 126.50 98.50 L 126.50 112.25 C 126.50 119.81 126.41 126.00 126.31 126.00 C 126.20 126.00 122.09 124.65 117.17 123.00 C 108.14 119.98 91.44 117.55 87.24 118.65 C 85.03 119.23 85.00 119.11 85.00 108.64 L 85.00 98.04 L 63.90 97.77 L 42.81 97.50 L 54.00 84.72 L 65.20 71.94 L 138.35 72.22 L 211.50 72.50 L 218.20 75.67 C 230.12 81.32 237.06 90.45 239.28 103.43 C 242.06 119.67 233.50 136.59 218.80 143.94 C 215.43 145.62 211.43 147.00 209.90 147.00 C 208.37 147.00 206.87 147.40 206.57 147.88 C 206.27 148.37 210.42 148.94 215.80 149.16 C 223.93 149.49 226.51 150.01 231.19 152.31 C 241.74 157.47 248.68 166.32 251.67 178.43 C 253.47 185.75 255.15 187.34 257.97 184.39 C 258.96 183.35 264.58 167.99 270.47 150.25 L 281.17 118.00 L 305.99 118.00 L 330.82 118.00 L 342.16 151.75 C 354.98 189.90 356.72 192.85 356.20 175.50 C 355.69 158.63 360.44 146.35 371.90 134.90 C 396.63 110.17 436.82 114.71 456.17 144.43 C 458.30 147.70 459.69 150.68 459.27 151.07 C 458.85 151.46 452.71 153.86 445.63 156.39 L 432.75 161.00 L 428.66 156.36 C 426.42 153.80 422.76 150.89 420.54 149.88 C 415.55 147.61 405.62 147.42 400.66 149.50 C 391.33 153.40 385.00 162.89 385.00 173.00 C 385.00 180.36 386.59 184.43 391.65 190.05 C 402.53 202.12 421.67 200.79 431.07 187.31 L 432.60 185.13 L 445.74 189.83 C 452.96 192.42 459.13 194.79 459.44 195.11 C 460.38 196.04 452.56 207.38 447.87 211.90 C 437.77 221.62 427.36 226.08 413.10 226.78 C 402.13 227.33 395.13 226.04 386.21 221.83 C 378.58 218.23 368.13 208.70 363.72 201.33 C 361.72 197.98 359.94 196.08 359.00 196.28 C 357.15 196.70 357.10 196.44 362.93 213.27 L 367.70 227.05 L 351.72 226.77 L 335.75 226.50 L 331.00 213.00 L 326.25 199.50 L 306.00 199.50 L 285.75 199.50 L 281.00 213.00 L 276.25 226.50 L 260.63 226.78 C 251.80 226.93 245.00 226.66 245.00 226.15 C 245.00 225.65 247.03 219.33 249.50 212.11 C 254.22 198.33 254.54 197.00 253.13 197.00 C 252.66 197.00 251.28 199.70 250.08 203.00 C 247.23 210.83 238.95 219.89 231.18 223.71 L 225.50 226.50 L 199.62 226.81 C 174.97 227.11 173.77 227.04 174.44 225.31ZM 319.38 172.20 C 319.91 171.34 306.83 132.02 306.00 132.01 C 305.22 132.00 292.17 171.40 292.67 172.25 C 293.27 173.26 318.75 173.21 319.38 172.20Z"/></g>
<g fill="#3E4041FE">
<path d="M 725.48 249.75 C 730.63 240.00 733.00 232.44 733.00 225.82 L 733.00 221.00 L 737.15 221.00 L 741.29 221.00 L 740.72 227.81 C 740.23 233.59 738.46 240.49 735.46 248.25 C 734.83 249.90 736.82 250.00 768.89 250.00 C 808.17 250.00 804.14 251.44 801.44 238.37 C 798.14 222.40 790.83 205.53 781.90 193.30 C 776.52 185.92 758.19 167.10 751.00 161.57 C 737.37 151.08 719.97 143.24 697.53 137.49 C 690.30 135.64 668.16 131.42 648.33 128.11 C 587.03 117.89 578.35 114.98 541.50 92.24 C 490.72 60.92 450.47 41.97 417.72 33.97 C 393.40 28.03 373.17 26.03 330.31 25.30 C 287.47 24.58 256.18 26.40 212.68 32.16 L 195.87 34.38 L 194.38 37.94 C 192.20 43.19 186.52 48.49 179.91 51.46 C 168.06 56.78 164.53 57.00 92.30 57.00 L 25.77 57.00 L 29.13 53.08 L 32.50 49.17 L 52.50 49.07 L 72.50 48.96 L 64.76 44.46 C 59.29 41.27 56.84 39.22 56.40 37.47 C 56.06 36.11 55.62 35.00 55.42 35.00 C 54.18 35.00 17.18 28.85 15.75 28.41 C 13.70 27.77 12.80 24.77 12.63 17.94 L 12.50 13.00 L 58.92 13.00 L 105.33 13.00 L 111.67 19.33 L 118.00 25.67 L 118.00 33.91 L 118.00 42.15 L 110.00 41.83 C 105.60 41.65 102.00 41.79 102.00 42.15 C 102.00 42.51 104.52 44.23 107.61 45.98 L 113.22 49.14 L 140.36 48.79 C 166.12 48.46 167.80 48.32 173.44 46.08 C 181.67 42.80 186.96 37.69 187.68 32.33 C 188.34 27.41 187.15 27.84 207.50 25.07 C 250.43 19.23 275.20 17.54 318.00 17.53 C 394.73 17.51 427.38 23.87 479.63 48.99 C 499.28 58.44 519.91 69.85 542.50 83.78 C 582.23 108.28 589.56 110.73 655.49 121.53 C 696.90 128.31 713.42 132.60 732.87 141.63 C 746.83 148.11 757.99 156.04 769.89 167.93 C 787.52 185.57 797.41 200.44 804.36 219.77 C 807.72 229.11 811.00 245.25 811.00 252.41 L 811.00 258.00 L 766.06 258.00 L 721.12 258.00 L 725.48 249.75ZM 92.00 46.43 C 89.53 45.03 86.75 42.91 85.83 41.72 C 84.62 40.16 82.25 39.24 77.33 38.41 C 73.57 37.78 70.28 37.49 70.00 37.77 C 69.72 38.05 69.95 38.44 70.50 38.64 C 71.05 38.84 75.33 41.23 80.00 43.95 C 86.22 47.57 89.57 48.90 92.50 48.93 L 96.50 48.98 L 92.00 46.43ZM 110.00 31.12 C 110.00 29.02 108.91 27.24 106.00 24.62 L 101.99 21.00 L 66.75 20.99 C 47.36 20.99 29.14 20.70 26.25 20.35 C 23.32 20.00 21.00 20.12 21.00 20.63 C 21.00 21.81 95.60 33.78 103.75 33.90 C 109.99 34.00 110.00 34.00 110.00 31.12Z"/></g>
<g fill="#3E4041FE">
<path d="M 441.75 105.25 L 351.00 104.99 L 351.00 71.37 L 351.00 37.75 L 371.75 38.27 C 384.36 38.59 395.88 39.43 401.12 40.41 C 413.44 42.71 433.04 48.23 444.05 52.49 C 467.11 61.42 499.63 79.31 518.02 93.18 C 524.73 98.25 534.28 106.23 533.00 105.71 C 532.73 105.60 491.66 105.39 441.75 105.25ZM 509.96 97.25 C 509.79 93.91 467.91 70.26 447.00 61.69 C 421.02 51.05 402.72 46.98 377.75 46.28 L 359.00 45.76 L 359.00 71.88 L 359.00 98.00 L 434.50 98.00 C 476.02 98.00 509.98 97.66 509.96 97.25Z"/></g>
<g fill="#3E4041FE">
<path d="M 250.72 99.61 C 249.21 84.99 235.02 70.27 217.34 64.98 L 213.18 63.74 L 214.61 59.69 C 217.71 50.90 224.93 44.80 237.00 40.75 C 243.27 38.65 245.28 38.55 292.75 38.22 L 342.00 37.88 L 342.00 71.44 L 342.00 105.00 L 296.64 105.00 L 251.28 105.00 L 250.72 99.61ZM 335.00 71.96 L 335.00 45.92 L 288.75 46.21 C 242.60 46.50 242.49 46.51 236.56 48.89 C 233.29 50.21 228.85 52.93 226.70 54.94 L 222.79 58.59 L 230.52 62.41 C 244.07 69.11 255.29 82.34 257.52 94.25 L 258.22 98.00 L 296.61 98.00 L 335.00 98.00 L 335.00 71.96Z"/></g>
<g fill="#ED1C26FE">
<path d="M 503.63 225.41 C 485.35 220.99 469.36 205.01 464.49 186.30 C 462.60 179.03 462.60 166.11 464.49 159.01 C 470.18 137.61 488.18 121.78 509.87 119.09 C 531.41 116.43 551.16 125.80 563.19 144.41 L 567.13 150.50 L 563.81 151.86 C 554.63 155.64 539.00 160.84 539.00 160.12 C 539.00 158.51 531.80 151.94 527.69 149.81 C 521.27 146.48 512.05 146.75 505.25 150.46 C 496.39 155.28 492.00 162.81 492.00 173.15 C 492.00 187.13 502.94 198.00 517.00 198.00 C 524.37 198.00 529.12 195.95 534.77 190.33 L 540.03 185.10 L 552.65 189.57 C 559.59 192.04 565.63 194.27 566.06 194.54 C 567.60 195.49 561.52 204.59 555.06 211.03 C 551.45 214.62 545.76 218.99 542.41 220.75 C 531.03 226.72 516.34 228.49 503.63 225.41Z"/></g>
<g fill="#ED1C26FE">
<path d="M 575.77 176.97 L 576.04 126.94 L 589.04 127.22 L 602.04 127.50 L 602.27 177.25 L 602.50 227.00 L 589.00 227.00 L 575.50 227.00 L 575.77 176.97Z"/></g>
<g fill="#3E4041FE">
<path d="M 89.00 276.65 L 89.00 273.30 L 97.36 272.13 C 107.66 270.69 116.12 267.90 123.31 263.57 C 148.93 248.14 161.61 219.42 155.51 190.63 C 151.56 172.01 137.07 153.45 120.00 145.15 C 108.68 139.65 101.65 138.00 89.52 138.00 C 73.69 138.00 59.04 143.06 47.39 152.56 L 43.28 155.90 L 40.55 153.05 L 37.81 150.19 L 43.16 145.94 C 50.40 140.17 64.84 133.49 74.21 131.57 C 116.92 122.85 157.06 150.88 164.04 194.30 C 168.18 220.10 156.71 248.68 135.88 264.47 C 123.96 273.50 106.46 280.00 94.05 280.00 L 89.00 280.00 L 89.00 276.65Z"/></g>
<g fill="#3E4041FE">
<path d="M 654.00 276.42 C 644.09 273.80 636.12 269.17 628.54 261.60 C 617.05 250.14 612.00 238.00 612.00 221.82 C 612.00 205.86 617.06 193.70 628.39 182.42 C 638.53 172.32 652.25 166.04 664.25 166.01 C 669.00 166.00 669.00 166.00 669.00 169.44 C 669.00 172.78 668.87 172.90 664.25 173.53 C 640.62 176.75 624.90 191.14 620.29 213.76 C 616.12 234.19 627.77 256.29 647.68 265.75 C 654.66 269.06 656.49 269.49 665.18 269.84 C 676.45 270.29 685.23 268.16 693.34 263.01 C 706.37 254.73 715.89 238.64 715.98 224.75 C 716.00 221.05 716.05 221.00 720.00 221.00 C 723.85 221.00 724.00 221.12 723.98 224.25 C 723.95 230.67 721.03 241.14 717.30 248.26 C 705.64 270.51 678.08 282.77 654.00 276.42Z"/></g>
<g fill="#ED1C26FE">
<path d="M 458.64 256.50 C 458.32 255.68 458.32 254.32 458.64 253.50 C 459.14 252.19 468.18 252.00 531.61 252.00 L 604.00 252.00 L 604.00 255.00 L 604.00 258.00 L 531.61 258.00 C 468.18 258.00 459.14 257.81 458.64 256.50Z"/></g>
<g fill="#3AB34BFF">
<path d="M 166.00 255.00 L 166.00 252.00 L 238.50 252.00 C 300.42 252.00 311.00 252.21 311.00 253.42 C 311.00 254.20 311.27 255.55 311.61 256.42 C 312.16 257.85 305.36 258.00 239.11 258.00 L 166.00 258.00 L 166.00 255.00Z"/></g>
<g fill="#FDFEFEFF">
<path d="M 312.00 255.00 L 312.00 252.00 L 384.83 252.00 L 457.65 252.00 L 457.21 255.00 L 456.77 258.00 L 384.39 258.00 L 312.00 258.00 L 312.00 255.00Z"/></g>
</svg>
