<?xml version="1.0" encoding="utf-8"?>
<!DOCTYPE svg PUBLIC "-//W3C//DTD SVG 20010904//EN" "http://www.w3.org/TR/2001/REC-SVG-20010904/DTD/svg10.dtd">
<svg version="1.0" xmlns="http://www.w3.org/2000/svg" width="1026pt" height="450pt" viewBox="0 0 1026 450" preserveAspectRatio="xMidYMid meet">
<g fill="#20211AFF">
<path d="M 240.37 405.53 C 240.05 404.68 239.72 396.23 239.64 386.75 L 239.50 369.50 L 229.50 367.85 C 211.71 364.91 199.47 361.22 185.34 354.54 C 168.73 346.69 153.25 335.49 140.03 321.76 L 132.56 314.00 L 119.79 314.00 L 107.02 314.00 L 102.02 304.04 C 99.27 298.56 96.10 291.70 94.98 288.79 C 92.73 282.96 87.70 263.00 85.33 250.50 C 83.57 241.26 82.42 200.98 83.72 194.00 C 84.50 189.73 84.74 189.47 88.34 189.00 L 92.14 188.50 L 82.51 181.25 L 72.87 174.00 L 77.88 174.00 C 80.63 174.00 83.11 173.63 83.39 173.18 C 84.17 171.92 70.33 162.00 67.77 161.99 C 66.52 161.99 62.98 159.85 59.89 157.24 C 56.80 154.63 50.64 149.57 46.19 146.00 C 41.74 142.43 38.07 139.14 38.05 138.71 C 38.02 138.27 39.79 138.02 41.97 138.15 C 44.16 138.28 46.20 138.14 46.51 137.83 C 46.81 137.52 43.81 134.51 39.83 131.13 C 34.94 126.98 31.74 125.00 29.95 125.00 C 28.00 125.00 24.12 122.17 15.21 114.25 C 3.50 103.83 3.22 103.49 6.18 103.18 C 9.99 102.78 50.52 105.55 70.00 107.54 C 88.18 109.40 121.61 113.79 129.36 115.33 L 135.22 116.50 L 146.18 105.75 C 152.21 99.84 157.75 95.00 158.50 95.00 C 159.25 95.00 163.38 98.82 167.68 103.49 C 171.98 108.16 175.98 111.99 176.56 111.99 C 177.15 112.00 178.93 110.64 180.52 108.98 L 183.41 105.96 L 181.70 94.23 C 180.76 87.78 179.99 81.78 180.00 80.89 C 180.00 79.81 182.62 78.25 187.95 76.14 C 192.32 74.41 196.37 73.00 196.95 73.00 C 197.53 73.00 198.00 71.94 198.00 70.65 C 198.00 69.37 198.90 67.50 200.00 66.50 C 201.10 65.50 202.00 64.08 202.00 63.35 C 202.00 62.61 201.10 61.10 200.00 60.00 C 197.44 57.44 197.44 53.81 200.00 51.50 C 202.52 49.22 202.52 47.78 200.00 45.50 C 198.90 44.50 198.01 42.97 198.03 42.10 C 198.12 37.39 223.61 24.38 236.51 22.45 C 240.58 21.84 241.17 21.42 241.69 18.80 C 242.02 17.17 243.10 15.33 244.09 14.71 C 245.54 13.81 245.79 12.75 245.34 9.45 C 244.84 5.80 245.09 5.07 247.52 3.16 C 250.79 0.59 252.27 0.48 255.44 2.55 C 258.24 4.39 259.45 8.28 258.05 10.92 C 257.30 12.30 257.43 13.11 258.54 14.03 C 259.36 14.72 260.75 16.79 261.63 18.64 C 262.76 21.00 263.90 22.00 265.51 22.00 C 274.64 22.00 306.00 37.49 306.00 42.00 C 306.00 42.46 304.81 44.26 303.37 45.98 L 300.73 49.11 L 303.37 51.86 C 306.67 55.31 306.67 56.69 303.37 60.14 L 300.73 62.89 L 303.37 66.02 C 304.81 67.74 306.00 69.93 306.00 70.88 C 306.00 72.10 308.37 73.57 314.07 75.91 C 318.51 77.72 322.34 79.72 322.58 80.36 C 322.83 80.99 322.17 87.09 321.13 93.92 L 319.24 106.33 L 322.34 109.17 C 324.05 110.72 325.91 112.00 326.47 111.99 C 327.04 111.99 330.65 108.43 334.50 104.08 C 338.35 99.73 342.13 95.90 342.89 95.56 C 344.92 94.68 348.34 97.25 358.46 107.24 L 367.46 116.13 L 377.98 114.53 C 420.08 108.14 502.50 100.81 499.50 103.73 C 498.95 104.26 493.42 109.27 487.22 114.85 C 478.65 122.55 475.27 125.00 473.17 125.00 C 471.23 125.00 468.23 126.84 463.20 131.10 C 459.24 134.46 456.00 137.55 456.00 137.96 C 456.00 138.37 458.36 138.49 461.25 138.22 C 464.14 137.96 466.27 137.98 466.00 138.28 C 465.73 138.57 459.20 144.02 451.50 150.39 C 442.81 157.56 436.63 161.96 435.22 161.98 C 432.60 162.00 420.10 170.87 420.04 172.75 C 420.01 173.59 421.67 174.00 425.15 174.00 L 430.30 174.00 L 420.56 181.25 L 410.83 188.50 L 417.67 189.00 L 424.50 189.50 L 425.15 195.00 C 427.36 213.64 425.28 244.16 420.53 263.00 C 416.24 280.02 407.06 302.48 400.84 311.23 L 398.86 314.00 L 384.56 314.00 L 370.26 314.00 L 362.86 321.75 C 353.88 331.16 352.01 332.77 340.25 341.22 C 320.34 355.51 296.39 364.77 269.77 368.46 L 265.04 369.12 L 264.77 387.81 L 264.50 406.50 L 252.73 406.78 C 242.89 407.02 240.86 406.81 240.37 405.53ZM 260.50 339.00 L 260.50 282.50 L 252.27 282.21 L 244.03 281.92 L 243.77 338.54 C 243.62 369.69 243.70 395.37 243.95 395.62 C 244.20 395.87 248.03 395.95 252.45 395.79 L 260.50 395.50 L 260.50 339.00ZM 239.50 361.02 L 239.50 356.54 L 231.50 355.39 C 213.68 352.83 194.95 346.15 178.60 336.53 C 155.61 323.00 140.11 306.70 125.83 281.02 C 122.62 275.26 120.00 270.84 120.00 271.19 C 120.00 271.83 126.33 290.47 129.38 298.83 C 133.10 308.99 137.36 315.14 147.11 324.41 C 162.04 338.60 175.38 347.20 195.25 355.42 C 208.54 360.93 229.40 366.11 236.50 365.68 C 239.36 365.51 239.50 365.29 239.50 361.02ZM 277.07 364.39 C 296.60 361.05 320.23 351.43 336.86 340.04 C 352.25 329.50 370.05 311.31 377.64 298.36 C 381.53 291.72 387.44 277.65 390.87 266.86 C 395.12 253.47 395.24 253.00 394.19 253.00 C 393.15 253.00 384.00 268.00 379.17 277.62 C 374.96 286.02 363.22 303.32 357.15 310.08 C 351.17 316.74 337.66 328.36 330.00 333.43 C 314.19 343.89 288.95 353.30 270.75 355.53 L 265.00 356.23 L 265.00 361.12 C 265.00 366.78 264.26 366.58 277.07 364.39ZM 240.00 351.00 L 240.00 348.00 L 230.75 347.97 C 222.15 347.94 214.25 347.20 204.50 345.54 C 201.51 345.02 200.88 345.12 202.00 345.93 C 205.58 348.50 227.79 353.76 235.75 353.92 C 239.82 354.00 240.00 353.88 240.00 351.00ZM 285.50 350.84 C 290.45 349.69 295.62 348.11 297.00 347.32 L 299.50 345.89 L 297.00 346.49 C 295.62 346.83 287.86 347.37 279.75 347.69 L 265.00 348.29 L 265.00 351.28 L 265.00 354.28 L 270.75 353.60 C 273.91 353.23 280.55 351.99 285.50 350.84ZM 293.50 345.11 C 303.96 343.52 311.31 341.38 318.26 337.88 C 325.67 334.14 339.89 324.21 345.50 318.84 L 349.50 315.02 L 337.81 315.01 C 327.21 315.00 325.98 314.81 324.70 312.98 C 323.29 310.97 323.19 310.99 315.14 314.62 C 307.67 317.99 307.00 318.52 307.00 321.19 C 307.00 322.88 306.04 325.05 304.70 326.39 C 302.80 328.29 302.56 329.17 303.32 331.45 C 304.50 334.99 301.51 339.36 297.59 339.82 C 294.24 340.22 290.00 337.59 290.00 335.11 C 290.00 333.62 288.93 333.15 284.32 332.61 C 279.19 332.01 278.02 332.26 272.07 335.24 C 265.94 338.32 265.48 338.79 265.19 342.20 C 264.90 345.68 265.05 345.88 268.19 346.23 C 273.50 346.81 285.93 346.26 293.50 345.11ZM 239.00 342.57 C 239.00 339.32 238.61 338.94 231.99 335.56 C 225.62 332.32 224.46 332.05 219.49 332.63 C 215.50 333.10 214.00 333.70 214.00 334.81 C 214.00 339.35 207.54 341.47 203.13 338.38 C 201.19 337.02 200.88 336.08 201.23 332.63 C 201.57 329.28 201.21 328.08 199.32 326.30 C 197.89 324.94 197.00 322.94 197.00 321.08 C 197.00 318.24 196.40 317.79 186.25 312.95 C 174.76 307.47 175.74 307.59 167.25 310.75 C 166.41 311.06 166.00 310.12 165.98 307.86 C 165.98 306.01 165.63 303.97 165.21 303.31 C 164.23 301.76 133.11 286.56 132.39 287.28 C 130.91 288.76 145.75 307.70 155.62 316.91 C 178.02 337.83 197.22 345.55 227.75 345.88 L 239.00 346.00 L 239.00 342.57ZM 300.00 337.00 C 302.63 334.37 302.52 332.43 299.61 329.52 C 297.97 327.88 296.53 327.31 295.04 327.70 C 293.02 328.23 292.91 328.01 293.53 324.69 C 294.10 321.66 293.80 320.71 291.59 318.50 C 289.55 316.45 288.17 315.95 285.34 316.19 C 278.32 316.79 275.98 323.98 281.12 329.12 C 283.17 331.17 287.08 331.37 291.05 329.62 C 292.32 329.06 292.53 329.56 292.21 332.35 C 291.89 335.04 292.29 336.09 294.13 337.38 C 297.09 339.45 297.58 339.42 300.00 337.00ZM 211.43 336.43 C 214.11 333.74 213.42 329.99 210.00 328.69 C 206.62 327.42 206.36 326.78 208.48 325.01 C 209.71 323.99 210.13 324.22 210.94 326.33 C 212.86 331.40 219.52 332.57 223.55 328.55 C 226.67 325.42 226.67 321.58 223.55 318.45 C 220.51 315.42 216.20 315.27 212.64 318.07 C 210.24 319.96 209.86 320.00 208.43 318.57 C 207.57 317.71 205.76 316.73 204.42 316.39 C 198.81 314.98 196.66 322.75 201.84 325.72 C 204.57 327.29 204.62 327.46 203.22 330.27 C 201.15 334.41 202.87 338.00 206.91 338.00 C 208.53 338.00 210.56 337.29 211.43 336.43ZM 239.00 333.29 C 239.00 330.98 228.53 314.39 224.14 309.75 L 220.59 306.00 L 209.80 306.00 C 203.86 306.00 199.00 306.41 199.00 306.91 C 199.00 308.18 208.97 317.01 210.36 316.97 C 210.99 316.95 212.37 316.28 213.44 315.47 C 219.87 310.60 230.12 318.54 227.25 326.16 C 226.21 328.90 226.37 329.21 229.82 331.38 C 236.16 335.35 239.00 335.95 239.00 333.29ZM 271.79 333.04 C 278.20 329.65 278.15 329.73 276.86 326.04 C 275.89 323.26 275.99 322.17 277.45 319.47 C 280.28 314.20 285.54 312.68 291.06 315.53 C 293.34 316.71 294.49 316.81 296.10 315.95 C 298.95 314.42 306.00 307.97 306.00 306.88 C 306.00 306.40 300.90 306.00 294.66 306.00 L 283.31 306.00 L 279.16 310.92 C 274.42 316.55 265.00 331.67 265.00 333.67 C 265.00 335.55 267.47 335.32 271.79 333.04ZM 236.35 284.08 C 233.64 277.69 233.63 277.68 232.07 280.03 C 231.20 281.34 229.56 283.35 228.40 284.50 C 227.25 285.66 225.55 287.76 224.63 289.16 C 222.97 291.69 223.00 291.76 226.73 294.53 C 228.80 296.08 230.66 297.46 230.85 297.60 C 231.04 297.74 231.38 300.93 231.60 304.68 C 232.21 314.74 232.73 316.87 235.76 321.65 L 238.50 325.99 L 238.78 308.24 C 239.06 290.87 239.01 290.36 236.35 284.08ZM 269.42 320.28 C 272.76 314.94 273.00 314.02 273.00 306.45 L 273.00 298.34 L 277.51 295.10 C 280.24 293.14 281.76 291.39 281.34 290.68 C 280.97 290.03 278.41 286.88 275.67 283.68 L 270.68 277.86 L 269.27 281.18 C 265.36 290.35 265.03 292.55 265.01 309.25 C 265.01 318.46 265.19 326.00 265.42 326.00 C 265.66 326.00 267.46 323.43 269.42 320.28ZM 366.07 295.54 C 368.18 292.26 369.74 289.40 369.53 289.19 C 369.32 288.98 365.63 290.54 361.32 292.66 L 353.50 296.50 L 353.25 302.00 C 352.85 310.63 353.53 311.18 358.19 306.00 C 360.41 303.52 363.96 298.82 366.07 295.54ZM 228.00 303.75 C 228.00 299.80 227.68 299.30 223.50 296.66 C 221.03 295.10 218.75 293.40 218.43 292.89 C 218.12 292.38 219.02 290.58 220.44 288.89 C 221.85 287.21 222.78 285.46 222.51 285.01 C 222.23 284.56 219.98 283.50 217.52 282.66 L 213.04 281.13 L 210.30 286.01 C 207.95 290.19 206.78 291.17 202.08 292.90 C 199.06 294.01 196.38 294.71 196.13 294.46 C 195.87 294.21 196.22 294.00 196.89 294.00 C 197.57 294.00 197.84 293.55 197.50 293.00 C 196.69 291.68 184.41 291.71 181.93 293.04 C 177.90 295.20 179.90 296.22 187.43 295.84 C 191.52 295.64 194.33 295.81 193.68 296.22 C 193.03 296.63 188.04 296.98 182.58 296.98 C 171.46 297.00 169.00 298.12 169.00 303.17 L 169.00 306.03 L 172.62 304.51 C 175.50 303.31 180.95 303.00 199.07 303.00 L 221.89 303.00 L 224.69 305.47 C 226.24 306.83 227.61 307.95 227.75 307.97 C 227.89 307.99 228.00 306.09 228.00 303.75ZM 280.27 305.25 C 281.94 303.74 285.06 303.43 303.35 303.00 L 324.50 302.50 L 324.50 300.00 C 324.50 297.63 324.14 297.47 317.83 297.00 C 308.91 296.33 308.25 295.34 317.05 295.83 C 323.86 296.22 325.20 295.60 322.80 293.20 C 321.33 291.73 307.00 291.55 307.00 293.00 C 307.00 293.55 307.52 294.00 308.17 294.00 C 308.81 294.00 309.12 294.22 308.85 294.48 C 308.59 294.75 305.93 294.07 302.95 292.98 C 299.97 291.89 297.42 291.00 297.28 291.00 C 297.14 291.00 295.91 288.79 294.54 286.08 L 292.05 281.17 L 287.03 282.77 C 284.26 283.66 282.00 284.89 282.00 285.52 C 282.00 286.14 283.12 287.71 284.50 289.00 C 285.88 290.29 287.00 291.66 287.00 292.05 C 287.00 292.44 284.76 294.27 282.03 296.13 C 277.56 299.16 277.05 299.88 277.03 303.25 C 277.00 307.46 277.50 307.77 280.27 305.25ZM 125.73 302.60 C 126.04 302.30 125.83 301.47 125.28 300.77 C 122.27 296.98 110.48 260.79 111.44 258.31 C 111.83 257.28 116.86 257.00 134.47 257.00 L 157.00 257.00 L 157.00 248.50 L 157.00 240.00 L 132.54 240.00 C 108.60 240.00 108.05 239.95 106.93 237.87 C 106.28 236.65 105.73 230.36 105.65 223.12 L 105.50 210.50 L 135.00 210.24 L 164.50 209.97 L 164.34 201.74 L 164.18 193.50 L 126.40 193.24 C 101.36 193.06 88.28 193.32 87.59 194.01 C 85.83 195.77 86.40 233.90 88.37 245.50 C 91.00 261.02 95.80 279.61 99.72 289.50 C 104.24 300.88 105.52 302.81 108.83 303.19 C 112.86 303.66 125.11 303.23 125.73 302.60ZM 349.24 266.98 C 349.46 236.39 349.71 231.49 351.00 231.26 C 352.00 231.08 354.63 234.91 358.89 242.74 C 370.39 263.88 374.49 270.99 375.20 270.99 C 375.59 271.00 377.43 268.41 379.30 265.25 C 386.17 253.62 399.22 232.47 400.10 231.55 C 400.66 230.95 401.41 231.01 402.11 231.71 C 402.93 232.53 402.80 235.34 401.61 242.28 C 398.80 258.80 391.47 281.03 383.80 296.35 C 382.19 299.57 381.02 302.35 381.20 302.53 C 381.49 302.82 396.51 303.26 399.63 303.07 C 400.25 303.03 402.36 299.95 404.32 296.21 C 412.22 281.18 417.99 262.36 420.51 243.37 C 421.99 232.29 422.39 200.61 421.11 196.00 C 420.45 193.61 420.04 193.49 411.73 193.21 L 403.04 192.92 L 393.40 207.67 C 388.10 215.79 381.98 225.25 379.79 228.71 C 377.61 232.17 375.30 234.99 374.66 234.99 C 373.62 234.97 359.42 211.01 354.12 200.35 C 350.56 193.17 351.00 193.33 335.75 193.87 L 332.00 194.00 L 332.00 248.46 L 332.00 302.92 L 339.75 303.21 C 344.01 303.37 347.83 303.26 348.24 302.96 C 348.64 302.67 349.09 286.47 349.24 266.98ZM 166.00 298.00 C 166.00 297.45 166.47 297.00 167.04 297.00 C 167.61 297.00 169.05 296.10 170.23 295.00 C 171.41 293.90 173.30 293.00 174.44 293.00 C 177.36 292.99 182.47 288.67 181.76 286.82 C 180.80 284.31 169.60 282.50 155.00 282.50 C 147.57 282.50 139.70 282.89 137.50 283.36 L 133.50 284.22 L 148.50 291.59 C 163.51 298.96 166.00 299.87 166.00 298.00ZM 207.02 285.95 C 208.51 282.36 208.06 281.12 201.68 271.25 C 199.28 267.54 196.46 263.06 195.41 261.30 C 186.03 245.60 181.74 239.12 180.41 238.60 C 179.54 238.27 177.32 238.00 175.48 238.00 L 172.12 238.00 L 172.62 245.25 C 173.34 255.83 176.65 269.04 181.23 279.67 L 185.24 289.00 L 195.50 289.00 L 205.76 289.00 L 207.02 285.95ZM 322.04 284.42 C 323.76 280.39 324.00 277.50 324.00 260.42 C 324.00 249.35 323.61 241.00 323.09 241.00 C 322.58 241.00 320.85 243.14 319.23 245.75 C 294.65 285.37 295.94 282.98 297.56 286.11 L 299.05 289.00 L 309.56 289.00 L 320.07 289.00 L 322.04 284.42ZM 269.00 275.30 C 269.00 274.48 266.86 271.16 264.25 267.91 C 260.19 262.87 259.14 262.10 257.00 262.61 C 253.27 263.48 249.75 263.52 247.43 262.71 C 245.72 262.11 244.46 263.09 240.18 268.37 L 234.99 274.76 L 236.94 279.11 L 238.88 283.45 L 239.92 280.72 L 240.95 278.00 L 251.39 278.00 C 257.14 278.00 262.55 278.27 263.42 278.61 C 264.39 278.98 265.01 280.43 265.02 282.36 C 265.04 285.48 265.06 285.47 267.02 281.14 C 268.11 278.74 269.00 276.11 269.00 275.30ZM 289.79 280.50 C 290.71 280.17 289.74 277.45 286.41 271.03 C 282.31 263.15 281.90 261.81 283.09 260.26 C 283.84 259.29 288.62 253.50 293.73 247.38 C 298.83 241.27 303.01 235.42 303.02 234.38 C 303.03 233.02 303.26 232.86 303.85 233.79 C 304.45 234.73 307.32 235.00 314.58 234.79 L 324.50 234.50 L 325.00 215.50 C 325.42 199.65 325.81 195.88 327.36 192.75 L 329.23 189.00 L 339.69 189.00 L 350.16 189.00 L 349.46 185.83 C 348.12 179.73 337.84 164.10 327.60 152.57 C 325.68 150.41 324.31 148.31 324.56 147.91 C 325.20 146.87 338.42 141.90 345.00 140.23 C 355.41 137.57 382.51 132.12 388.00 131.57 C 391.02 131.26 387.65 132.16 380.50 133.55 C 362.77 137.00 347.33 140.77 344.14 142.44 C 339.13 145.06 334.00 151.84 334.00 155.84 C 334.00 157.78 334.15 157.77 342.30 155.53 C 346.87 154.27 352.61 152.97 355.05 152.63 C 359.35 152.04 359.39 152.06 356.43 153.26 C 349.67 155.99 340.07 166.40 342.27 168.60 C 342.57 168.90 348.37 168.22 355.15 167.10 C 370.62 164.54 389.84 162.41 410.50 160.97 C 440.00 158.92 435.99 159.99 446.04 151.47 C 450.93 147.32 455.23 143.44 455.60 142.85 C 456.34 141.65 451.31 141.93 416.00 145.07 C 404.18 146.12 388.43 147.88 381.00 148.98 C 361.04 151.94 358.51 152.15 368.50 150.01 C 382.11 147.09 403.25 144.31 426.55 142.37 L 447.50 140.62 L 456.00 133.68 C 468.41 123.55 468.41 123.58 455.38 124.39 C 449.40 124.76 441.12 125.49 437.00 126.00 C 419.57 128.17 408.87 129.21 408.43 128.76 C 407.58 127.91 461.99 122.12 471.70 122.03 C 474.23 122.01 476.59 120.51 482.93 114.88 C 487.35 110.96 490.71 107.34 490.41 106.85 C 489.84 105.93 482.11 106.24 459.00 108.10 C 389.81 113.67 333.63 124.16 314.03 135.16 C 306.88 139.18 301.00 143.82 301.00 145.46 C 301.00 146.17 303.98 149.17 307.62 152.12 C 316.20 159.08 321.00 166.72 321.43 174.10 C 321.61 177.07 321.56 178.26 321.31 176.75 C 320.81 173.59 320.87 173.61 312.26 175.19 C 304.69 176.59 304.91 176.22 302.68 190.51 C 301.82 196.02 300.82 201.31 300.45 202.26 C 300.09 203.22 300.23 204.00 300.76 204.00 C 302.84 204.00 312.22 195.54 316.01 190.24 C 320.38 184.14 321.42 183.83 317.60 189.77 C 315.00 193.82 308.97 199.76 302.25 204.91 C 298.71 207.62 298.00 208.74 298.00 211.58 C 298.00 213.46 297.64 215.00 297.20 215.00 C 296.76 215.00 293.97 219.84 290.99 225.75 C 286.07 235.54 284.53 237.56 273.79 248.34 L 261.99 260.17 L 264.21 263.34 C 265.43 265.08 266.90 267.01 267.47 267.64 C 268.04 268.27 271.12 272.17 274.33 276.32 L 280.16 283.85 L 284.33 282.41 C 286.62 281.62 289.08 280.76 289.79 280.50ZM 234.20 271.69 L 242.91 260.50 L 240.70 258.71 C 227.03 247.62 216.12 234.63 210.98 223.30 C 209.04 219.02 207.66 217.09 206.87 217.58 C 206.04 218.09 205.86 217.66 206.25 216.16 C 206.88 213.73 205.11 207.00 203.83 207.00 C 203.37 207.00 203.00 205.99 202.99 204.75 C 202.99 203.51 202.09 198.07 200.99 192.65 C 199.90 187.24 199.00 181.51 199.00 179.92 C 199.00 177.75 198.45 176.91 196.75 176.53 C 182.52 173.30 182.24 173.30 181.69 176.75 C 181.45 178.26 181.43 177.08 181.65 174.12 C 182.23 166.34 186.25 159.66 194.57 152.68 C 198.38 149.48 201.65 146.45 201.83 145.95 C 202.26 144.73 196.49 139.45 191.50 136.49 C 181.78 130.74 160.16 123.92 140.50 120.42 C 103.59 113.84 78.39 110.69 37.14 107.50 C 14.71 105.76 12.00 105.69 12.00 106.86 C 12.00 107.33 15.56 110.88 19.91 114.74 L 27.81 121.75 L 37.66 122.45 C 61.55 124.14 110.76 129.91 108.29 130.74 C 107.68 130.94 100.28 130.20 91.84 129.09 C 71.18 126.37 43.83 123.79 39.79 124.18 L 36.50 124.50 L 45.99 132.63 L 55.49 140.76 L 65.99 141.42 C 94.00 143.19 133.78 148.85 155.29 154.12 C 162.33 155.84 168.34 156.99 168.66 156.67 C 170.09 155.24 167.45 150.12 163.17 146.00 C 158.21 141.23 157.56 141.01 128.00 134.50 L 121.50 133.07 L 127.00 133.64 C 139.78 134.95 168.03 142.38 176.10 146.55 C 179.43 148.27 179.11 149.72 174.47 154.00 C 167.68 160.27 153.00 183.29 153.00 187.69 C 153.00 188.51 155.36 189.01 160.25 189.21 L 167.50 189.50 L 169.75 193.96 C 171.69 197.80 172.00 199.99 172.00 209.71 L 172.00 221.00 L 166.06 221.00 C 162.79 221.00 159.88 221.38 159.60 221.84 C 158.89 222.99 164.44 228.14 170.45 231.90 C 175.28 234.93 175.67 235.00 187.65 235.00 C 198.22 235.00 200.05 234.76 201.03 233.25 C 202.08 231.61 202.11 231.62 201.58 233.33 C 201.16 234.64 204.12 238.93 212.08 248.60 L 223.16 262.04 L 218.58 270.51 C 216.06 275.17 214.00 279.21 214.00 279.49 C 214.00 280.41 220.46 282.84 223.00 282.86 C 225.01 282.88 227.20 280.70 234.20 271.69ZM 145.11 280.12 C 155.05 279.42 164.18 279.84 175.20 281.50 L 179.90 282.21 L 176.45 272.27 C 173.14 262.74 170.02 246.54 170.01 238.87 C 170.00 232.64 167.92 232.00 147.63 232.00 L 130.20 232.00 L 121.62 228.06 C 116.91 225.89 112.79 224.52 112.49 225.02 C 112.18 225.52 112.22 228.19 112.59 230.95 L 113.25 235.96 L 136.86 236.23 L 160.47 236.50 L 162.68 241.00 C 164.49 244.70 164.89 247.30 164.94 255.55 C 164.98 262.11 164.58 266.02 163.80 266.80 C 162.95 267.65 156.74 268.00 142.23 268.00 L 121.87 268.00 L 122.56 270.25 C 122.95 271.49 124.36 274.69 125.70 277.36 C 128.03 281.98 128.30 282.19 131.32 281.54 C 133.07 281.17 139.27 280.53 145.11 280.12ZM 367.79 279.75 C 366.99 278.51 363.74 272.88 360.56 267.24 C 357.38 261.60 354.36 256.72 353.86 256.41 C 353.31 256.07 353.05 260.84 353.22 268.17 L 353.50 280.50 L 359.00 281.09 C 369.78 282.24 369.42 282.29 367.79 279.75ZM 215.48 268.91 L 218.93 262.23 L 214.22 256.75 C 209.32 251.05 208.70 250.29 203.17 243.25 L 199.83 239.00 L 192.42 239.00 C 188.34 239.00 185.00 239.24 185.00 239.54 C 185.00 239.84 185.85 241.30 186.88 242.79 C 187.92 244.28 193.43 253.04 199.13 262.26 C 210.81 281.13 209.44 280.57 215.48 268.91ZM 307.32 260.16 C 322.10 236.46 321.45 239.00 312.73 239.00 L 305.39 239.00 L 297.51 248.25 C 293.18 253.34 288.72 258.53 287.61 259.79 L 285.58 262.07 L 290.04 270.46 C 293.34 276.68 294.80 278.58 295.71 277.83 C 296.38 277.27 301.60 269.32 307.32 260.16ZM 251.00 256.60 C 251.00 252.33 250.83 252.10 245.75 249.19 C 234.26 242.63 222.47 228.92 216.10 214.72 C 211.92 205.41 209.04 192.95 208.42 181.50 C 208.12 176.00 207.70 170.60 207.47 169.50 C 207.04 167.40 201.51 163.14 200.35 164.00 C 198.16 165.62 201.93 193.54 206.02 206.06 C 211.93 224.14 219.08 236.20 230.89 248.01 C 237.88 255.00 246.37 260.83 249.75 260.95 C 250.57 260.98 251.00 259.48 251.00 256.60ZM 260.56 257.44 C 280.61 245.43 296.58 218.77 301.46 189.14 C 303.30 177.98 304.22 164.25 303.16 163.60 C 302.71 163.32 300.69 164.46 298.67 166.12 C 295.23 168.96 295.00 169.50 295.00 174.82 C 294.99 187.46 290.34 207.23 284.74 218.45 C 278.38 231.20 265.42 245.24 255.25 250.40 C 252.31 251.89 252.00 252.48 252.00 256.53 C 252.00 262.04 252.75 262.12 260.56 257.44ZM 261.25 244.78 C 263.31 243.16 265.00 241.19 265.00 240.42 C 265.00 239.64 265.79 239.00 266.75 239.00 C 268.68 239.00 272.91 234.89 276.63 229.40 C 279.33 225.43 282.77 218.91 282.81 217.70 C 282.83 217.26 283.56 215.79 284.45 214.43 C 287.62 209.59 292.73 187.59 293.10 177.19 C 293.43 167.77 293.44 167.78 281.00 162.44 C 277.98 161.15 276.13 160.07 276.89 160.04 C 277.66 160.02 282.04 161.61 286.62 163.58 L 294.96 167.16 L 297.82 165.13 C 303.61 161.01 303.55 160.52 296.94 157.55 C 266.85 144.05 240.09 143.57 210.01 155.99 C 200.76 159.81 200.05 160.47 202.57 162.81 C 206.34 166.33 208.24 166.93 211.03 165.49 C 222.01 159.81 239.36 155.94 252.84 156.16 L 262.50 156.32 L 250.00 157.02 C 235.79 157.81 227.91 159.64 216.77 164.73 L 209.00 168.28 L 209.00 174.51 C 209.00 196.28 219.83 224.57 230.59 230.92 C 232.61 232.11 234.39 232.94 234.57 232.76 C 234.74 232.59 235.58 231.11 236.44 229.47 C 237.96 226.56 237.99 226.65 238.03 234.50 C 238.07 243.36 238.02 243.29 247.24 248.52 C 251.13 250.74 251.53 250.78 254.43 249.30 C 256.12 248.43 259.19 246.40 261.25 244.78ZM 162.00 228.01 C 162.00 227.46 160.58 225.66 158.85 224.01 L 155.70 221.00 L 136.35 221.00 C 125.71 221.00 117.00 221.34 117.00 221.75 C 117.00 222.16 119.59 223.91 122.75 225.62 L 128.50 228.75 L 145.25 228.87 C 155.74 228.95 162.00 228.63 162.00 228.01ZM 382.57 216.23 C 384.20 215.11 390.00 206.29 390.00 204.93 C 390.00 203.19 371.78 204.66 367.39 206.75 C 363.48 208.62 363.44 208.76 365.69 213.47 L 367.37 217.00 L 374.44 216.98 C 378.32 216.98 381.98 216.64 382.57 216.23ZM 395.58 197.50 C 397.44 194.75 398.98 192.16 398.98 191.75 C 399.01 190.75 387.65 190.84 376.50 191.93 C 370.28 192.54 366.15 193.54 363.12 195.16 C 357.94 197.93 357.34 199.06 359.37 202.17 L 360.90 204.50 L 376.54 203.50 L 392.18 202.50 L 395.58 197.50ZM 375.50 190.51 C 385.40 189.69 396.25 189.02 399.61 189.01 C 405.38 189.00 406.09 188.72 412.61 183.88 C 421.01 177.63 420.47 178.13 419.69 177.35 C 418.15 175.81 372.67 178.51 365.25 180.59 C 359.41 182.22 353.00 187.20 353.00 190.10 C 353.00 192.41 352.46 192.40 375.50 190.51ZM 147.92 186.40 C 143.14 181.27 139.14 180.09 121.29 178.54 C 101.87 176.85 84.34 176.33 83.26 177.41 C 82.85 177.81 83.19 178.53 84.01 179.00 C 84.83 179.47 88.20 181.90 91.50 184.40 L 97.50 188.95 L 123.92 188.97 L 150.35 189.00 L 147.92 186.40ZM 153.71 179.38 C 154.28 177.65 149.27 172.24 144.64 169.58 C 139.55 166.66 127.44 165.05 83.63 161.45 C 78.22 161.01 75.88 161.14 76.13 161.88 C 76.34 162.47 80.03 165.89 84.35 169.48 L 92.20 176.00 L 99.68 176.00 C 108.04 176.00 140.32 178.76 146.50 180.00 C 151.43 180.99 153.22 180.83 153.71 179.38ZM 363.50 179.05 C 373.63 177.74 396.65 176.01 404.50 175.97 C 410.41 175.94 410.63 175.84 419.34 168.89 C 424.20 165.02 427.97 161.64 427.72 161.39 C 427.04 160.71 401.89 162.71 380.62 165.15 C 362.90 167.19 361.47 167.51 357.20 170.41 C 349.13 175.88 346.70 181.47 352.79 180.51 C 354.28 180.27 359.10 179.61 363.50 179.05ZM 198.21 166.81 L 198.50 159.63 L 203.50 157.06 L 208.50 154.50 L 208.80 147.18 L 209.09 139.86 L 203.55 133.88 C 197.56 127.41 196.90 125.30 200.00 122.50 C 201.10 121.50 202.00 120.15 202.00 119.50 C 202.00 118.85 201.10 117.50 200.00 116.50 C 198.90 115.50 198.00 113.86 198.00 112.85 C 198.00 111.83 198.90 110.10 200.00 109.00 C 201.10 107.90 202.00 106.39 202.00 105.65 C 202.00 104.92 201.10 103.50 200.00 102.50 C 198.90 101.50 198.00 99.70 198.00 98.50 C 198.00 97.30 198.90 95.50 200.00 94.50 C 201.10 93.50 202.00 92.15 202.00 91.50 C 202.00 90.85 201.10 89.50 200.00 88.50 C 198.90 87.50 198.00 85.70 198.00 84.50 C 198.00 83.30 198.90 81.50 200.00 80.50 C 202.16 78.54 202.58 76.48 201.02 75.51 C 200.48 75.18 197.78 75.71 195.02 76.69 C 189.21 78.75 189.32 78.29 191.57 92.00 L 193.12 101.50 L 185.31 108.72 C 181.02 112.69 176.99 115.96 176.37 115.97 C 175.75 115.99 171.77 112.18 167.53 107.50 C 163.28 102.83 159.28 99.00 158.63 99.00 C 157.99 99.00 154.56 101.62 151.02 104.83 L 144.58 110.66 L 148.32 115.22 C 151.21 118.74 153.11 120.04 156.68 120.94 C 167.13 123.57 181.00 128.44 188.78 132.22 C 197.08 136.25 206.00 143.61 206.00 146.43 C 206.00 147.25 203.35 149.72 200.12 151.92 C 191.57 157.73 182.95 169.28 185.37 171.70 C 186.05 172.38 192.32 173.71 195.71 173.89 C 197.76 173.99 197.93 173.51 198.21 166.81ZM 316.76 171.47 L 319.02 170.96 L 316.97 166.93 C 314.17 161.44 309.03 155.96 302.48 151.44 C 299.47 149.37 297.00 147.46 297.00 147.20 C 297.00 145.02 302.15 139.49 307.27 136.18 C 314.71 131.36 323.35 127.81 339.43 122.96 C 350.44 119.64 351.62 119.04 354.83 115.15 L 358.31 110.93 L 351.96 104.97 C 348.47 101.69 345.06 99.00 344.38 99.00 C 343.71 99.00 339.67 102.82 335.41 107.50 C 331.16 112.17 327.19 115.98 326.59 115.96 C 325.99 115.94 321.95 112.65 317.62 108.65 L 309.74 101.38 L 311.37 91.82 C 313.69 78.23 313.77 78.63 308.24 76.86 C 300.84 74.49 298.63 76.42 303.50 81.00 C 306.62 83.94 306.63 85.10 303.52 88.80 L 301.04 91.75 L 303.52 94.42 C 306.64 97.79 306.63 99.21 303.50 102.59 C 302.12 104.08 301.00 105.60 301.00 105.97 C 301.00 106.35 302.12 107.71 303.50 109.00 C 306.65 111.96 306.63 113.10 303.39 116.95 L 300.77 120.06 L 303.39 122.48 C 304.82 123.81 306.00 125.32 306.00 125.82 C 306.00 127.01 302.59 131.53 298.09 136.29 C 295.05 139.51 294.49 140.84 294.29 145.29 C 293.92 153.46 294.49 154.68 299.72 157.00 C 305.62 159.61 306.11 160.40 305.36 166.21 C 304.31 174.34 304.25 174.31 316.76 171.47ZM 161.00 167.40 C 161.00 164.87 157.36 160.43 152.23 156.72 C 148.59 154.09 145.54 152.94 139.00 151.71 C 121.85 148.51 100.90 145.89 77.50 144.05 C 53.87 142.18 47.00 141.80 47.00 142.35 C 47.00 142.66 51.25 146.48 56.44 150.85 C 67.13 159.84 65.09 159.24 91.00 160.97 C 109.10 162.18 141.96 165.77 150.00 167.43 C 159.11 169.30 161.00 169.29 161.00 167.40ZM 221.45 150.15 L 230.41 147.33 L 232.17 139.42 C 233.14 135.06 233.95 131.21 233.97 130.85 C 234.03 129.49 228.13 128.23 224.88 128.90 C 221.23 129.66 220.79 131.26 222.49 137.41 L 223.30 140.31 L 218.90 137.91 C 215.77 136.20 213.93 134.27 212.53 131.25 C 210.65 127.22 210.33 127.00 206.28 127.00 C 203.92 127.00 202.00 127.36 202.00 127.80 C 202.00 128.24 204.25 131.13 207.00 134.21 C 211.93 139.74 212.00 139.92 212.00 146.41 C 212.00 150.03 212.11 152.99 212.25 152.98 C 212.39 152.97 216.53 151.69 221.45 150.15ZM 292.00 145.94 L 292.00 138.88 L 297.00 133.59 C 299.75 130.69 302.00 128.01 302.00 127.65 C 302.00 126.70 276.21 126.85 275.62 127.81 C 275.34 128.25 276.54 133.27 278.28 138.95 C 281.35 149.02 281.54 149.34 285.47 151.12 C 291.80 154.00 292.00 153.84 292.00 145.94ZM 276.00 141.25 C 274.97 137.54 272.30 128.74 270.06 121.70 C 267.83 114.66 266.00 108.08 266.00 107.07 C 266.00 105.98 267.21 104.74 269.00 104.00 C 270.65 103.32 272.00 102.36 272.00 101.88 C 272.00 101.40 265.75 101.00 258.12 101.00 L 244.24 101.00 L 241.37 103.87 C 239.01 106.23 237.40 106.83 232.29 107.27 C 220.81 108.25 214.00 114.40 214.00 123.78 C 214.00 126.16 214.76 129.54 215.69 131.30 L 217.38 134.50 L 218.23 130.34 L 219.08 126.18 L 224.75 125.84 C 230.02 125.52 233.95 126.60 236.42 129.03 C 236.98 129.58 236.62 133.09 235.51 137.97 C 234.50 142.39 233.86 146.18 234.09 146.39 C 234.31 146.61 236.75 146.41 239.50 145.95 C 246.86 144.73 258.54 144.94 266.50 146.45 C 270.35 147.18 274.48 147.83 275.69 147.89 L 277.87 148.00 L 276.00 141.25ZM 211.11 121.50 C 211.44 119.30 212.05 116.71 212.46 115.75 C 213.12 114.23 212.62 114.00 208.67 114.00 C 202.21 114.00 202.02 112.42 208.45 112.24 C 212.34 112.13 214.80 111.40 217.54 109.54 C 221.81 106.64 229.88 104.00 234.46 104.00 C 237.42 104.00 241.53 100.87 240.25 99.58 C 239.49 98.82 202.51 98.82 201.75 99.58 C 201.43 99.90 202.03 101.03 203.08 102.08 C 205.53 104.53 205.51 106.82 203.02 109.48 C 201.04 111.59 201.04 111.60 203.02 115.29 C 205.53 119.98 205.50 120.84 202.77 123.75 L 200.53 126.13 L 205.52 125.81 C 210.49 125.50 210.50 125.50 211.11 121.50ZM 300.65 124.17 C 299.74 123.17 299.00 121.29 299.00 120.00 C 299.00 118.71 299.74 116.83 300.65 115.83 C 302.19 114.13 302.19 114.00 300.65 114.00 C 299.74 114.00 299.00 113.55 299.00 113.00 C 299.00 112.45 299.68 112.00 300.50 112.00 C 301.32 112.00 302.00 111.74 302.00 111.43 C 302.00 111.11 301.32 110.18 300.50 109.36 C 299.68 108.53 299.00 106.82 299.00 105.55 C 299.00 104.28 299.68 102.68 300.50 102.00 C 303.37 99.62 301.95 99.00 293.55 99.00 C 285.59 99.00 284.64 99.24 277.30 103.09 C 273.01 105.35 269.36 107.57 269.19 108.04 C 269.01 108.51 269.43 109.93 270.12 111.19 C 270.80 112.46 271.50 114.74 271.67 116.27 C 271.85 117.79 272.64 120.60 273.44 122.52 L 274.90 126.00 L 288.60 126.00 C 301.82 126.00 302.25 125.93 300.65 124.17ZM 189.43 103.08 C 191.06 101.27 191.07 100.57 189.53 90.86 C 188.62 85.19 187.72 80.39 187.52 80.19 C 187.32 79.98 186.16 80.13 184.95 80.52 C 182.92 81.16 182.80 81.64 183.40 86.86 C 184.52 96.53 186.17 105.00 186.95 105.00 C 187.36 105.00 188.47 104.14 189.43 103.08ZM 318.50 93.39 C 319.98 83.59 320.04 81.64 318.88 80.90 C 315.27 78.62 315.08 79.03 312.91 93.27 C 311.83 100.33 311.88 101.21 313.52 103.02 C 314.50 104.11 315.63 105.00 316.03 105.00 C 316.42 105.00 317.53 99.77 318.50 93.39ZM 302.00 96.97 C 302.00 96.40 301.32 95.68 300.50 95.36 C 299.67 95.04 299.00 93.56 299.00 92.02 C 299.00 90.49 299.68 88.68 300.50 88.00 C 301.32 87.32 302.00 86.36 302.00 85.88 C 302.00 85.39 279.77 85.00 251.43 85.00 L 200.85 85.00 L 202.93 87.63 C 205.56 90.99 205.54 92.80 202.83 95.69 L 200.65 98.00 L 251.33 98.00 C 285.47 98.00 302.00 97.66 302.00 96.97ZM 302.00 83.12 C 302.00 82.64 301.32 81.68 300.50 81.00 C 299.68 80.32 299.00 78.74 299.00 77.50 C 299.00 76.26 299.68 74.68 300.50 74.00 C 301.32 73.32 302.00 72.36 302.00 71.88 C 302.00 71.39 280.02 71.00 252.00 71.00 C 223.98 71.00 202.00 71.39 202.00 71.88 C 202.00 72.36 202.68 73.32 203.50 74.00 C 204.32 74.68 205.00 76.26 205.00 77.50 C 205.00 78.74 204.32 80.32 203.50 81.00 C 202.68 81.68 202.00 82.64 202.00 83.12 C 202.00 83.61 223.98 84.00 252.00 84.00 C 280.02 84.00 302.00 83.61 302.00 83.12ZM 302.00 69.12 C 302.00 68.64 301.32 67.68 300.50 67.00 C 298.51 65.35 298.59 61.11 300.65 58.83 C 302.26 57.06 300.68 57.00 252.15 57.00 C 224.05 57.00 202.00 57.39 202.00 57.88 C 202.00 58.36 202.68 59.32 203.50 60.00 C 205.58 61.73 205.37 64.63 203.00 67.00 C 201.90 68.10 201.00 69.22 201.00 69.50 C 201.00 69.78 223.72 70.00 251.50 70.00 C 279.80 70.00 302.00 69.61 302.00 69.12ZM 301.97 55.25 C 301.95 54.84 301.28 53.63 300.47 52.56 C 298.58 50.06 298.59 46.59 300.49 45.01 C 302.43 43.40 301.55 42.04 299.00 42.71 C 297.88 43.00 297.00 42.74 297.00 42.12 C 297.00 41.50 298.01 40.99 299.25 40.98 L 301.50 40.96 L 299.00 39.00 C 294.97 35.85 284.02 30.35 277.00 27.96 C 271.08 25.93 268.79 25.75 251.25 25.92 C 235.64 26.07 231.00 26.45 226.75 27.92 C 220.04 30.22 208.24 36.16 205.00 38.85 C 202.25 41.14 202.60 41.30 209.75 41.02 C 212.23 40.92 214.00 41.30 214.00 41.93 C 214.00 42.62 212.02 42.87 208.54 42.63 C 205.54 42.42 202.85 42.48 202.58 42.76 C 202.30 43.04 202.73 44.20 203.54 45.35 C 205.53 48.21 205.37 50.35 203.00 52.50 C 201.90 53.50 201.00 54.69 201.00 55.15 C 201.00 55.62 223.72 56.00 251.50 56.00 C 279.27 56.00 301.99 55.66 301.97 55.25ZM 216.00 42.00 C 216.00 41.35 228.81 41.00 252.44 41.00 C 275.66 41.00 289.11 41.36 289.50 42.00 C 289.91 42.66 277.51 43.00 253.06 43.00 C 229.02 43.00 216.00 42.65 216.00 42.00ZM 258.00 20.50 C 258.00 19.40 256.73 18.95 253.25 18.82 L 248.50 18.64 L 253.25 18.26 C 258.46 17.85 259.12 16.99 255.86 14.82 C 254.05 13.62 253.90 13.06 254.86 11.27 C 256.37 8.43 256.30 7.44 254.43 5.57 C 252.38 3.52 251.41 3.59 249.06 5.94 C 247.40 7.60 247.29 8.30 248.28 10.92 C 249.28 13.57 249.17 14.16 247.46 15.46 C 245.90 16.66 245.77 17.14 246.83 17.84 C 247.91 18.55 247.86 18.84 246.58 19.33 C 242.96 20.72 245.32 22.00 251.50 22.00 C 256.61 22.00 258.00 21.68 258.00 20.50Z"/></g>
<g fill="#F8DB0DFF">
<path d="M 177.32 233.30 C 175.58 233.07 173.61 232.24 172.95 231.44 C 172.29 230.65 171.29 230.00 170.72 230.00 C 168.95 230.00 162.93 224.92 163.54 223.93 C 163.86 223.42 165.61 223.00 167.44 223.00 C 172.49 223.00 173.16 221.40 173.20 209.30 C 173.22 200.81 172.80 197.43 171.23 193.50 L 169.24 188.50 L 162.87 188.20 C 159.37 188.03 156.15 187.54 155.71 187.11 C 154.73 186.13 158.16 178.02 161.85 172.61 C 163.40 170.35 165.88 166.72 167.37 164.55 C 168.86 162.37 172.55 157.97 175.57 154.75 C 178.59 151.54 180.85 148.56 180.59 148.14 C 180.14 147.42 172.88 143.70 168.50 141.95 C 165.15 140.61 147.79 135.89 143.00 135.02 C 140.53 134.57 133.60 133.26 127.62 132.11 C 111.20 128.96 74.96 124.31 52.50 122.47 C 41.50 121.57 31.57 120.65 30.43 120.44 C 29.29 120.23 26.79 118.53 24.87 116.66 C 22.95 114.80 20.40 112.75 19.19 112.10 C 17.99 111.46 17.00 110.27 17.00 109.46 C 17.00 107.68 23.62 107.52 37.31 108.98 C 42.36 109.51 52.80 110.44 60.50 111.04 C 68.20 111.63 78.10 112.50 82.50 112.97 C 96.04 114.41 124.98 118.64 133.50 120.42 C 135.15 120.77 138.97 121.53 142.00 122.11 C 166.80 126.91 190.45 135.58 196.74 142.17 L 199.98 145.58 L 192.95 151.91 C 183.76 160.17 180.70 165.98 180.36 175.76 C 180.15 181.99 180.49 183.74 182.81 188.14 C 186.02 194.26 190.77 199.41 197.31 203.89 C 199.95 205.70 202.85 208.71 203.74 210.58 C 205.27 213.80 205.25 214.38 203.26 220.75 C 202.09 224.46 200.89 228.68 200.59 230.12 C 200.13 232.25 199.32 232.84 196.26 233.27 C 191.86 233.89 181.88 233.90 177.32 233.30Z"/></g>
<g fill="#F8DB0DFF">
<path d="M 304.39 230.39 C 303.56 228.41 303.13 226.54 303.43 226.23 C 303.74 225.93 303.55 225.16 303.02 224.53 C 302.50 223.89 301.40 220.55 300.60 217.09 C 299.20 211.11 299.33 208.00 300.96 208.00 C 301.69 208.00 303.93 206.05 313.00 197.56 C 315.48 195.24 318.79 190.78 320.38 187.66 C 322.99 182.48 323.21 181.27 322.79 174.23 C 322.39 167.69 321.85 165.81 319.26 162.00 C 317.57 159.52 314.58 156.03 312.60 154.23 C 310.62 152.42 309.00 150.51 309.00 149.98 C 309.00 149.44 308.39 149.00 307.65 149.00 C 306.92 149.00 305.59 148.21 304.72 147.24 C 303.26 145.63 303.27 145.31 304.81 143.43 C 310.27 136.77 338.04 125.89 356.00 123.36 C 357.93 123.09 360.18 122.60 361.00 122.28 C 361.82 121.96 363.62 121.51 365.00 121.29 C 366.38 121.07 371.32 120.21 376.00 119.38 C 394.19 116.14 430.65 111.61 447.50 110.49 C 452.45 110.16 458.07 109.72 460.00 109.51 C 470.51 108.37 486.00 107.83 486.00 108.60 C 486.00 109.08 483.33 112.01 480.06 115.10 L 474.12 120.72 L 463.35 121.44 C 457.43 121.84 450.99 122.33 449.04 122.53 C 447.09 122.73 438.30 123.60 429.50 124.46 C 420.70 125.31 411.02 126.45 408.00 126.99 C 404.98 127.52 395.98 128.87 388.00 130.00 C 380.02 131.13 372.82 132.24 372.00 132.48 C 371.18 132.72 369.38 133.13 368.00 133.37 C 366.62 133.62 363.25 134.35 360.50 135.00 C 357.75 135.64 354.60 136.35 353.50 136.57 C 352.40 136.79 350.38 137.39 349.00 137.90 C 347.62 138.41 344.93 139.10 343.00 139.43 C 338.32 140.24 327.06 144.69 324.15 146.89 L 321.81 148.65 L 325.40 152.47 C 327.38 154.56 329.00 156.38 329.00 156.51 C 329.00 156.64 330.80 158.72 333.00 161.12 C 335.20 163.53 337.00 166.06 337.00 166.75 C 337.00 167.44 337.34 168.00 337.77 168.00 C 338.74 168.00 344.51 177.68 345.51 181.00 C 345.93 182.38 346.72 183.79 347.28 184.15 C 347.84 184.51 348.01 185.52 347.68 186.40 C 347.18 187.70 345.40 188.00 338.28 188.02 C 333.45 188.02 328.97 188.37 328.31 188.79 C 327.66 189.20 326.20 191.71 325.06 194.35 C 323.25 198.58 323.00 201.22 323.00 215.98 C 323.00 235.28 323.72 234.00 312.87 234.00 L 305.90 234.00 L 304.39 230.39Z"/></g>
<g fill="#F8DB0DFF">
<path d="M 270.50 145.78 C 268.85 145.27 260.52 144.66 252.00 144.42 C 234.34 143.93 235.97 145.12 237.49 133.86 C 238.23 128.40 238.16 128.15 235.42 126.36 C 231.47 123.78 220.99 123.79 218.13 126.38 C 216.14 128.19 216.08 128.17 215.45 125.67 C 214.58 122.20 216.63 116.43 219.74 113.54 C 222.17 111.29 232.45 108.00 237.06 108.00 C 238.24 108.00 240.92 106.65 243.00 105.00 C 246.53 102.20 247.36 102.00 255.14 102.02 C 264.04 102.03 266.41 102.72 265.08 104.88 C 264.08 106.48 264.52 108.34 270.39 127.62 C 276.29 146.98 276.30 147.59 270.50 145.78Z"/></g>
<g fill="#9A100DFF">
<path d="M 266.38 237.54 C 265.78 235.99 265.66 232.48 265.91 224.50 C 265.94 223.40 265.71 208.28 265.39 190.89 C 264.72 154.56 264.20 156.37 274.16 160.39 C 277.10 161.57 281.40 163.16 283.72 163.92 C 289.80 165.91 292.80 170.72 292.60 178.19 C 292.52 181.32 292.13 184.21 291.73 184.61 C 291.33 185.01 291.00 186.98 291.00 189.00 C 291.00 191.02 290.66 193.00 290.25 193.42 C 289.84 193.83 289.47 194.47 289.44 194.83 C 289.05 199.22 287.47 204.86 286.23 206.26 C 285.38 207.22 284.96 208.29 285.30 208.63 C 285.64 208.97 284.36 212.13 282.46 215.65 C 280.56 219.17 279.00 222.83 279.00 223.79 C 279.00 224.74 277.88 226.73 276.50 228.22 C 275.12 229.70 274.00 231.29 274.00 231.76 C 274.00 232.23 272.44 234.12 270.53 235.97 C 267.46 238.94 266.98 239.12 266.38 237.54Z"/></g>
<g fill="#169337FF">
<path d="M 214.50 344.97 C 190.45 342.36 171.72 332.67 151.77 312.52 C 144.23 304.90 134.00 291.76 134.00 289.68 C 134.00 288.05 137.77 289.42 150.22 295.56 C 157.52 299.17 163.80 302.43 164.17 302.81 C 164.53 303.19 164.96 305.07 165.11 307.00 C 165.51 312.05 165.60 312.10 170.69 309.92 L 175.32 307.93 L 185.65 312.98 C 195.82 317.95 195.99 318.09 196.62 322.05 C 196.98 324.26 198.05 326.62 199.01 327.30 C 200.25 328.16 200.72 329.77 200.64 332.85 C 200.51 337.94 202.54 340.00 207.69 340.00 C 211.12 340.00 215.00 337.15 215.00 334.63 C 215.00 333.74 216.63 333.08 219.64 332.74 C 223.35 332.32 225.45 332.77 230.14 334.99 C 233.37 336.52 236.69 338.32 237.51 339.01 C 239.47 340.64 239.42 344.63 237.42 345.39 C 235.40 346.17 223.54 345.95 214.50 344.97Z"/></g>
<g fill="#20211AFF">
<path d="M 658.50 156.33 C 651.02 152.38 648.05 146.84 648.02 136.74 C 647.98 125.13 652.65 118.21 661.92 116.13 C 666.44 115.11 670.66 115.89 674.59 118.47 C 675.88 119.31 677.17 120.00 677.46 120.00 C 677.76 120.00 678.00 115.72 678.00 110.50 L 678.00 101.00 L 681.00 101.00 C 683.15 101.00 684.03 101.49 684.09 102.75 C 684.18 104.33 684.14 142.36 684.04 152.75 C 684.00 156.61 683.77 157.00 681.50 157.00 C 679.67 157.00 679.00 156.47 679.00 155.00 C 679.00 152.47 678.85 152.49 674.40 155.50 C 670.06 158.45 663.18 158.81 658.50 156.33ZM 673.49 150.83 C 680.53 145.29 681.06 131.39 674.49 124.42 C 671.73 121.50 670.60 121.00 666.71 121.00 C 658.69 121.00 653.99 127.13 654.03 137.50 C 654.05 142.45 657.01 149.19 660.11 151.37 C 663.49 153.73 670.14 153.47 673.49 150.83Z"/></g>
<g fill="#20211AFF">
<path d="M 556.00 209.50 L 556.00 181.00 L 561.44 181.00 C 564.43 181.00 567.19 181.50 567.56 182.10 C 567.94 182.71 571.73 193.38 576.00 205.81 C 580.26 218.24 584.15 228.54 584.63 228.69 C 585.11 228.84 589.34 218.28 594.03 205.23 L 602.56 181.50 L 607.78 181.20 L 613.00 180.90 L 613.00 209.45 L 613.00 238.00 L 609.50 238.00 L 606.00 238.00 L 606.00 214.30 C 606.00 198.66 605.66 190.94 605.01 191.59 C 604.47 192.13 600.88 201.21 597.03 211.76 C 587.08 239.11 587.62 238.00 584.20 238.00 C 581.37 238.00 581.17 237.63 575.74 222.75 C 572.68 214.36 568.94 203.90 567.43 199.50 C 565.92 195.10 564.31 191.07 563.84 190.55 C 563.38 190.03 563.00 200.49 563.00 213.80 L 563.00 238.00 L 559.50 238.00 L 556.00 238.00 L 556.00 209.50Z"/></g>
<g fill="#20211AFF">
<path d="M 877.15 155.80 C 870.48 152.30 867.49 146.48 867.52 137.00 C 867.54 131.24 868.05 128.54 869.74 125.35 C 873.49 118.27 881.80 114.63 890.94 116.08 C 901.40 117.73 906.94 125.06 906.98 137.29 C 907.02 150.11 900.51 157.17 888.11 157.77 C 882.76 158.02 880.67 157.65 877.15 155.80ZM 895.01 150.34 C 898.99 146.99 900.10 144.07 900.13 136.90 C 900.18 126.90 895.31 121.00 887.00 121.00 C 878.75 121.00 874.00 126.85 874.00 137.00 C 874.00 147.18 878.75 153.00 887.06 153.00 C 890.78 153.00 892.55 152.41 895.01 150.34Z"/></g>
<g fill="#20211AFF">
<path d="M 701.56 237.51 C 692.89 234.42 689.03 229.25 688.27 219.70 C 687.38 208.47 690.76 201.89 699.50 197.88 C 713.33 191.54 728.01 201.24 727.99 216.72 C 727.98 228.17 722.55 235.86 713.01 237.90 C 706.72 239.25 706.43 239.24 701.56 237.51ZM 715.94 231.03 C 720.94 228.35 722.88 213.59 719.04 207.30 C 715.99 202.29 712.77 200.67 706.97 201.23 C 698.79 202.02 695.00 207.18 695.00 217.58 C 695.00 230.78 704.73 237.03 715.94 231.03Z"/></g>
<g fill="#20211AFF">
<path d="M 636.50 238.31 C 632.07 237.68 625.96 233.05 623.64 228.55 C 621.16 223.75 620.35 214.51 621.97 209.58 C 626.99 194.38 648.84 191.10 657.54 204.24 C 662.70 212.04 661.91 225.61 655.91 232.45 C 651.91 237.01 644.03 239.39 636.50 238.31ZM 648.58 231.20 C 652.76 227.70 654.25 224.20 654.30 217.73 C 654.35 210.72 652.58 206.39 648.27 202.99 C 646.00 201.20 644.55 200.88 640.27 201.23 C 631.82 201.92 628.00 207.02 628.00 217.57 C 628.00 227.94 632.40 232.95 641.50 232.94 C 644.77 232.94 647.22 232.33 648.58 231.20Z"/></g>
<g fill="#F8DB0DFF">
<path d="M 156.05 152.91 C 143.69 149.72 126.75 146.85 103.50 144.00 C 98.55 143.39 91.35 142.49 87.50 141.98 C 83.65 141.48 75.41 140.84 69.20 140.56 C 62.98 140.27 57.30 139.69 56.57 139.27 C 55.84 138.85 53.22 136.68 50.75 134.46 C 48.28 132.24 45.19 129.69 43.88 128.80 C 39.70 125.97 42.56 124.83 51.07 125.94 C 55.15 126.47 63.67 127.43 70.00 128.06 C 76.33 128.70 82.62 129.36 84.00 129.54 C 85.38 129.72 89.20 130.16 92.50 130.52 C 99.85 131.31 132.63 136.59 139.50 138.09 C 154.08 141.28 159.86 143.79 163.92 148.71 C 169.45 155.43 168.27 156.06 156.05 152.91Z"/></g>
<g fill="#F8DB0DFF">
<path d="M 336.74 154.40 C 335.47 153.14 335.89 152.29 339.82 148.07 C 342.41 145.29 345.52 143.31 349.49 141.92 C 363.47 137.01 419.20 128.36 449.25 126.45 C 458.46 125.86 460.00 125.98 460.00 127.27 C 460.00 128.09 458.76 129.57 457.25 130.55 C 455.74 131.52 452.93 133.84 451.00 135.70 C 446.82 139.73 447.14 139.65 429.50 141.02 C 407.38 142.72 406.40 142.82 393.11 144.52 C 381.57 146.01 354.45 150.90 346.00 153.03 C 344.07 153.51 341.37 154.19 339.99 154.53 C 338.61 154.87 337.14 154.81 336.74 154.40Z"/></g>
<g fill="#F8DB0DFF">
<path d="M 152.92 166.58 C 152.29 165.96 129.97 163.18 105.50 160.69 C 89.56 159.07 71.95 157.74 68.29 157.88 C 67.08 157.93 65.73 157.41 65.29 156.74 C 64.86 156.06 62.25 153.71 59.50 151.52 C 51.30 145.00 50.23 143.00 55.25 143.61 C 57.04 143.83 65.03 144.46 73.00 145.01 C 80.97 145.56 89.30 146.24 91.50 146.52 C 93.70 146.79 99.33 147.49 104.00 148.06 C 129.62 151.20 144.58 153.73 147.98 155.49 C 151.38 157.25 159.05 165.11 158.40 166.16 C 157.87 167.02 153.67 167.34 152.92 166.58Z"/></g>
<g fill="#F8DB0DFF">
<path d="M 344.00 165.72 C 344.00 165.13 346.08 162.70 348.63 160.33 C 353.88 155.44 358.01 153.99 374.00 151.40 C 385.01 149.62 388.25 149.24 415.00 146.61 C 424.07 145.71 434.98 144.55 439.24 144.02 C 448.62 142.85 451.39 143.54 449.23 146.51 C 448.04 148.16 438.70 155.60 436.13 156.95 C 434.82 157.64 427.17 158.60 419.13 159.09 C 406.16 159.87 396.36 160.64 375.50 162.52 C 372.20 162.82 367.70 163.48 365.50 163.98 C 354.26 166.56 344.00 167.39 344.00 165.72Z"/></g>
<g fill="#20211AFF">
<path d="M 770.31 156.05 C 766.32 153.61 764.99 151.17 765.03 146.32 C 765.09 139.33 769.12 136.36 781.11 134.47 C 795.56 132.20 795.00 132.44 795.00 128.55 C 795.00 123.46 791.36 121.00 783.82 121.00 C 778.88 121.00 777.51 121.40 775.45 123.45 C 774.10 124.80 773.00 126.38 773.00 126.95 C 773.00 127.53 771.42 128.00 769.50 128.00 C 767.58 128.00 766.00 127.79 766.00 127.53 C 766.00 127.28 766.76 125.48 767.69 123.53 C 770.86 116.88 784.11 113.55 794.17 116.89 C 800.13 118.86 801.16 121.49 801.64 135.88 C 801.87 142.82 802.21 150.41 802.41 152.75 C 802.74 156.87 802.67 157.00 799.78 157.00 C 797.65 157.00 796.66 156.43 796.29 155.00 C 795.63 152.48 795.52 152.49 789.58 155.50 C 783.33 158.67 775.00 158.91 770.31 156.05ZM 787.28 152.64 C 792.15 150.58 794.23 147.62 794.77 142.01 C 795.04 139.25 794.89 137.00 794.46 137.00 C 792.11 137.00 776.24 140.35 774.70 141.16 C 773.71 141.69 772.49 143.22 771.98 144.56 C 769.36 151.44 778.60 156.31 787.28 152.64Z"/></g>
<g fill="#20211AFF">
<path d="M 994.00 237.82 C 989.35 236.50 987.21 234.44 985.88 229.98 C 984.98 226.97 985.07 225.65 986.40 222.85 C 988.73 217.95 992.98 215.88 1004.79 213.91 C 1010.49 212.95 1015.43 211.91 1015.75 211.58 C 1016.08 211.25 1015.93 209.31 1015.42 207.27 C 1014.28 202.66 1011.35 201.03 1004.17 201.01 C 999.68 201.00 998.41 201.43 996.09 203.76 C 994.57 205.28 993.14 207.04 992.91 207.68 C 992.67 208.37 991.37 208.62 989.72 208.30 C 987.44 207.85 987.06 207.38 987.59 205.63 C 989.36 199.82 996.49 196.05 1005.79 196.02 C 1012.54 196.00 1019.15 198.51 1020.85 201.75 C 1021.35 202.71 1022.00 210.25 1022.29 218.50 C 1022.58 226.75 1023.13 234.51 1023.52 235.75 C 1024.16 237.76 1023.89 238.00 1021.09 238.00 C 1018.66 238.00 1017.74 237.43 1017.00 235.50 C 1015.86 232.49 1015.57 232.46 1012.05 234.96 C 1009.42 236.84 1002.15 239.02 999.00 238.89 C 998.17 238.85 995.92 238.37 994.00 237.82ZM 1007.94 232.60 C 1009.84 231.92 1012.25 230.20 1013.30 228.79 C 1015.30 226.12 1016.91 216.99 1015.38 217.01 C 1014.90 217.02 1010.23 217.88 1005.02 218.93 C 997.97 220.35 995.09 221.41 993.77 223.03 C 988.08 230.06 997.45 236.39 1007.94 232.60Z"/></g>
<g fill="#20211AFF">
<path d="M 684.50 317.95 C 678.65 316.05 676.00 312.48 676.00 306.49 C 676.00 303.82 676.76 302.09 678.84 300.00 C 681.84 297.00 684.92 296.00 696.88 294.12 C 700.93 293.48 704.64 292.72 705.13 292.42 C 705.61 292.13 706.00 290.34 706.00 288.46 C 706.00 285.94 705.36 284.63 703.54 283.43 C 697.48 279.46 687.14 280.90 684.46 286.08 C 682.97 288.95 680.69 289.73 678.27 288.19 C 676.21 286.88 680.17 280.87 684.59 278.58 C 689.46 276.04 701.91 275.72 706.50 278.01 C 711.70 280.59 712.80 284.61 713.17 302.25 L 713.50 318.00 L 710.91 318.00 C 709.13 318.00 707.97 317.23 707.20 315.53 L 706.07 313.06 L 701.28 315.53 C 695.79 318.36 688.85 319.36 684.50 317.95ZM 699.39 312.48 C 703.54 310.51 706.00 306.24 706.00 300.99 C 706.00 296.90 705.92 296.80 703.25 297.48 C 701.74 297.86 697.12 298.82 693.00 299.61 C 688.51 300.46 685.00 301.71 684.25 302.71 C 682.38 305.22 682.74 309.74 685.00 312.00 C 687.46 314.46 694.71 314.71 699.39 312.48Z"/></g>
<g fill="#169337FF">
<path d="M 267.75 345.38 C 266.55 345.02 266.01 343.85 266.02 341.68 C 266.04 338.74 266.55 338.26 272.77 335.35 C 278.26 332.79 280.37 332.30 284.21 332.70 C 287.56 333.05 289.09 333.71 289.49 334.97 C 290.27 337.43 293.00 339.61 296.27 340.39 C 300.18 341.32 304.25 337.23 303.90 332.72 C 303.75 330.78 304.52 328.11 305.83 326.00 C 307.02 324.07 307.81 321.98 307.57 321.34 C 306.94 319.67 309.75 317.46 316.34 314.45 C 321.67 312.00 322.26 311.92 323.89 313.40 C 325.28 314.66 327.95 315.00 336.33 315.00 C 342.20 315.00 347.00 315.39 347.00 315.87 C 347.00 317.40 336.76 325.98 328.22 331.60 C 313.55 341.26 301.70 344.86 282.50 345.49 C 275.35 345.72 268.71 345.67 267.75 345.38Z"/></g>
<g fill="#20211AFF">
<path d="M 775.56 318.01 C 767.67 316.49 763.79 308.55 767.71 301.92 C 770.06 297.94 774.38 296.14 785.71 294.44 C 791.05 293.64 795.82 292.58 796.31 292.09 C 797.59 290.81 796.20 285.49 794.08 283.57 C 791.77 281.48 783.33 280.50 779.71 281.90 C 778.17 282.49 776.15 284.33 775.21 285.98 C 774.13 287.88 772.69 288.99 771.31 288.99 C 765.67 289.01 768.08 282.12 774.86 278.81 C 781.06 275.79 792.93 275.62 797.72 278.48 C 802.17 281.13 803.00 284.35 803.00 298.91 C 803.00 305.84 803.42 312.97 803.93 314.76 C 804.83 317.88 804.75 318.00 801.97 318.00 C 799.98 318.00 798.70 317.30 797.90 315.75 C 797.26 314.51 796.59 313.34 796.42 313.14 C 796.25 312.94 794.78 313.74 793.14 314.90 C 790.88 316.51 780.33 319.61 779.61 318.89 C 779.55 318.82 777.73 318.43 775.56 318.01ZM 789.45 312.58 C 791.32 311.80 793.53 310.12 794.37 308.83 C 796.21 306.03 797.56 298.46 796.36 297.74 C 794.82 296.83 776.68 300.98 774.82 302.67 C 772.12 305.11 772.51 309.47 775.63 311.93 C 778.75 314.38 784.51 314.65 789.45 312.58Z"/></g>
<g fill="#20211AFF">
<path d="M 605.03 317.65 C 601.76 316.81 599.95 315.59 598.28 313.10 C 595.01 308.23 595.32 304.48 599.31 300.49 C 602.79 297.01 605.61 296.05 617.99 294.10 C 622.11 293.45 625.87 292.53 626.36 292.04 C 626.85 291.55 626.96 289.59 626.60 287.68 C 626.10 285.02 625.15 283.83 622.57 282.60 C 616.19 279.57 607.08 281.54 604.85 286.43 C 603.91 288.50 603.22 288.85 601.10 288.34 C 597.52 287.48 597.53 287.50 599.67 283.83 C 602.79 278.48 607.11 276.62 616.42 276.60 C 624.47 276.58 629.71 278.17 631.68 281.24 C 632.13 281.93 632.76 289.70 633.10 298.50 C 633.44 307.30 634.05 315.29 634.47 316.25 C 635.09 317.70 634.68 318.00 632.08 318.00 C 629.66 318.00 628.73 317.43 627.99 315.48 L 627.04 312.96 L 622.27 315.38 C 616.28 318.41 610.77 319.14 605.03 317.65ZM 619.51 312.56 C 623.81 310.76 626.99 305.70 627.00 300.64 C 627.00 297.04 626.84 296.82 624.54 297.40 C 623.18 297.74 618.57 298.68 614.29 299.49 C 603.33 301.57 600.01 306.10 605.45 311.55 C 608.34 314.43 614.05 314.84 619.51 312.56Z"/></g>
<g fill="#20211AFF">
<path d="M 970.15 156.93 C 961.83 153.60 957.99 147.37 958.02 137.29 C 958.05 129.07 960.38 123.32 965.14 119.75 C 969.48 116.50 971.99 115.78 978.76 115.86 C 988.42 115.98 995.46 122.67 996.68 132.91 L 997.27 137.95 L 980.89 138.22 L 964.50 138.50 L 964.76 141.00 C 965.53 148.46 970.72 153.00 978.47 153.00 C 982.82 153.00 983.70 152.59 987.11 149.00 C 991.13 144.78 996.00 143.46 996.00 146.60 C 996.00 149.44 991.80 154.19 987.60 156.09 C 983.19 158.10 974.14 158.53 970.15 156.93ZM 989.33 130.01 C 989.05 124.51 984.45 121.00 977.52 121.00 C 972.61 121.00 971.71 121.35 968.53 124.53 C 966.45 126.62 965.00 129.05 965.00 130.47 C 965.00 133.41 966.76 133.78 980.00 133.62 L 989.50 133.50 L 989.33 130.01Z"/></g>
<g fill="#20211AFF">
<path d="M 614.03 156.42 C 606.37 153.09 603.00 147.27 603.00 137.36 C 603.00 125.78 608.45 118.25 618.43 116.02 C 629.76 113.48 640.27 121.07 641.66 132.82 L 642.27 137.95 L 625.89 138.22 L 609.50 138.50 L 609.82 141.47 C 610.59 148.55 615.89 153.00 623.56 153.00 C 627.80 153.00 628.72 152.57 632.11 149.00 C 638.47 142.32 643.91 144.11 638.85 151.21 C 634.50 157.33 622.11 159.92 614.03 156.42ZM 634.82 130.72 C 635.06 128.63 634.27 127.07 631.67 124.47 C 628.66 121.46 627.55 121.00 623.35 121.00 C 617.44 121.01 612.83 123.58 611.06 127.86 C 608.75 133.44 609.57 133.85 622.69 133.67 L 634.50 133.50 L 634.82 130.72Z"/></g>
<g fill="#20211AFF">
<path d="M 704.47 156.60 C 694.04 152.06 689.79 137.79 695.48 126.45 C 696.85 123.73 699.44 120.51 701.23 119.30 C 704.70 116.97 711.90 114.97 714.78 115.54 C 715.72 115.73 717.73 116.14 719.23 116.45 C 722.96 117.24 728.78 122.55 730.55 126.77 C 731.35 128.68 732.00 131.99 732.00 134.12 L 732.00 138.00 L 716.00 138.00 L 700.00 138.00 L 700.00 140.55 C 700.00 143.98 702.38 148.37 705.61 150.91 C 707.55 152.43 709.71 153.00 713.56 153.00 C 718.13 153.00 719.26 152.58 721.92 149.92 C 723.62 148.23 725.00 146.43 725.00 145.92 C 725.00 145.42 726.58 145.00 728.50 145.00 C 732.61 145.00 732.75 145.57 729.74 150.10 C 725.20 156.93 712.64 160.16 704.47 156.60ZM 725.00 130.90 C 725.00 128.71 724.00 126.80 721.60 124.40 C 718.70 121.50 717.51 121.00 713.50 121.00 C 707.71 121.00 703.54 123.34 701.44 127.78 C 698.69 133.57 699.49 134.00 712.97 134.00 L 725.00 134.00 L 725.00 130.90Z"/></g>
<g fill="#169337FF">
<path d="M 184.84 286.79 C 178.51 275.38 173.00 255.63 173.00 244.33 C 173.00 238.78 173.60 238.14 178.19 238.81 C 180.45 239.15 182.11 240.81 186.03 246.64 C 188.76 250.71 191.00 254.25 191.00 254.50 C 191.00 254.75 192.57 257.42 194.50 260.43 C 196.43 263.44 198.00 266.34 198.00 266.87 C 198.00 267.40 198.37 267.98 198.83 268.17 C 199.29 268.35 201.61 271.81 204.00 275.85 C 208.21 282.97 208.29 283.28 206.74 285.85 C 205.20 288.38 204.70 288.51 195.62 288.79 C 186.60 289.06 186.04 288.95 184.84 286.79Z"/></g>
<g fill="#F8DB0DFF">
<path d="M 276.62 276.59 C 274.08 273.62 272.00 270.92 272.00 270.60 C 272.00 270.28 270.72 268.78 269.15 267.26 C 266.60 264.79 264.00 260.95 264.00 259.65 C 264.00 259.39 266.15 257.60 268.77 255.67 C 275.03 251.07 285.00 239.26 290.00 230.50 C 292.20 226.65 294.38 222.82 294.86 222.00 C 295.33 221.18 296.12 220.57 296.61 220.65 C 297.85 220.87 301.75 233.13 301.23 235.18 C 300.81 236.82 293.04 246.42 285.60 254.49 C 280.40 260.13 280.28 261.66 284.42 270.26 C 286.39 274.36 288.00 278.18 288.00 278.76 C 288.00 279.55 283.06 282.00 281.47 282.00 C 281.35 282.00 279.16 279.57 276.62 276.59Z"/></g>
<g fill="#878786FF">
<path d="M 244.60 246.24 C 238.97 242.67 238.68 242.29 238.38 238.00 C 237.81 229.84 238.96 222.45 240.82 222.26 C 245.14 221.81 249.00 220.69 249.00 219.89 C 249.00 219.40 250.01 218.99 251.25 218.98 C 252.49 218.98 255.75 217.44 258.49 215.58 C 261.24 213.71 263.83 212.39 264.24 212.65 C 264.66 212.91 265.00 219.58 265.00 227.48 L 265.00 241.83 L 258.89 245.92 C 255.52 248.16 252.26 250.00 251.64 249.99 C 251.01 249.98 247.84 248.30 244.60 246.24Z"/></g>
<g fill="#20211AFF">
<path d="M 557.00 129.06 L 557.00 101.00 L 577.07 101.00 L 597.13 101.00 L 596.82 103.60 L 596.50 106.20 L 580.25 106.06 C 569.57 105.96 563.98 106.27 563.95 106.96 C 563.93 107.53 563.88 111.71 563.86 116.25 L 563.81 124.50 L 577.90 124.78 L 592.00 125.05 L 592.00 128.00 L 592.00 130.95 L 577.91 131.22 L 563.82 131.50 L 563.66 144.00 L 563.50 156.50 L 560.25 156.81 L 557.00 157.13 L 557.00 129.06Z"/></g>
<g fill="#169337FF">
<path d="M 299.04 286.81 C 296.52 284.10 296.48 282.67 298.87 279.21 C 301.35 275.63 307.56 265.78 312.35 257.87 C 314.47 254.37 317.58 249.25 319.27 246.50 L 322.34 241.50 L 323.18 244.50 C 324.62 249.62 324.02 278.74 322.41 281.82 C 321.64 283.29 321.01 285.05 321.01 285.71 C 320.99 287.95 317.20 289.00 309.10 289.00 C 302.14 289.00 300.81 288.71 299.04 286.81Z"/></g>
<g fill="#F8DB0DFF">
<path d="M 220.25 280.86 C 216.01 279.66 216.06 277.77 220.58 269.56 C 222.99 265.16 223.94 262.39 223.50 260.99 C 222.95 259.26 215.02 249.14 208.22 241.50 C 202.77 235.37 202.80 235.45 203.98 230.85 C 206.00 222.96 207.11 220.85 208.59 222.07 C 209.32 222.68 210.23 224.15 210.60 225.34 C 212.78 232.30 227.29 250.19 235.87 256.50 C 240.64 260.00 240.90 261.26 237.50 264.41 C 236.12 265.69 235.00 267.08 235.00 267.51 C 235.00 267.94 233.31 270.31 231.25 272.78 C 223.46 282.11 223.81 281.86 220.25 280.86Z"/></g>
<g fill="#20211AFF">
<path d="M 743.00 447.29 C 735.70 443.56 734.83 427.68 741.61 421.89 C 744.29 419.59 750.07 418.92 753.03 420.56 C 754.39 421.31 755.84 421.95 756.25 421.96 C 756.66 421.98 757.00 418.85 757.00 415.00 C 757.00 408.67 757.19 408.00 759.00 408.00 C 760.93 408.00 761.00 408.67 761.00 428.00 C 761.00 447.33 760.93 448.00 759.00 448.00 C 757.89 448.00 757.00 447.33 757.00 446.50 C 757.00 444.60 756.10 444.60 754.01 446.49 C 751.31 448.93 746.85 449.26 743.00 447.29ZM 754.81 443.96 C 756.72 442.19 757.00 440.87 757.00 433.79 C 757.00 424.11 755.73 422.00 749.92 422.00 C 744.23 422.00 742.00 425.37 742.00 434.00 C 742.00 439.29 742.44 441.29 744.07 443.37 C 746.66 446.65 751.63 446.93 754.81 443.96Z"/></g>
<g fill="#20211AFF">
<path d="M 877.69 238.07 C 872.76 237.07 868.94 234.23 866.76 229.94 C 865.10 226.69 865.10 226.49 866.76 225.83 C 869.66 224.68 872.00 224.92 872.00 226.36 C 872.00 227.11 873.19 228.91 874.64 230.36 C 876.93 232.65 878.10 233.00 883.56 233.00 C 889.17 233.00 890.08 232.71 891.93 230.37 C 896.15 225.00 893.99 222.59 882.13 219.43 C 877.00 218.06 871.73 216.16 870.43 215.22 C 866.86 212.63 865.58 207.93 867.31 203.79 C 869.35 198.92 873.23 196.78 880.94 196.28 C 889.20 195.74 895.67 198.63 897.71 203.75 L 899.01 207.00 L 895.57 207.00 C 893.08 207.00 891.97 206.48 891.53 205.11 C 890.69 202.44 886.12 200.82 880.50 201.19 C 876.64 201.44 875.31 202.03 873.67 204.23 C 871.70 206.87 871.70 207.01 873.48 208.98 C 874.49 210.10 877.16 211.48 879.41 212.06 C 890.71 214.96 894.12 216.23 896.93 218.60 C 902.51 223.29 900.53 232.60 893.15 236.42 C 889.59 238.26 882.40 239.03 877.69 238.07Z"/></g>
<g fill="#20211AFF">
<path d="M 723.47 316.79 C 723.19 316.04 723.08 306.90 723.23 296.47 L 723.50 277.50 L 726.25 277.18 C 728.62 276.91 729.00 277.22 729.00 279.43 C 729.00 282.08 730.36 282.85 731.57 280.89 C 731.95 280.27 734.28 278.88 736.74 277.79 C 740.17 276.27 742.32 275.97 745.86 276.48 C 756.45 278.02 758.00 281.33 758.00 302.47 L 758.00 318.00 L 755.12 318.00 L 752.24 318.00 L 751.76 302.75 C 751.50 294.36 750.97 286.78 750.59 285.89 C 748.01 279.92 734.35 280.58 731.36 286.81 C 730.91 287.74 730.31 295.02 730.02 303.00 L 729.50 317.50 L 726.74 317.82 C 725.11 318.01 723.78 317.59 723.47 316.79Z"/></g>
<g fill="#20211AFF">
<path d="M 915.23 136.75 L 915.50 116.50 L 918.25 116.18 C 920.74 115.90 921.00 116.17 921.00 119.02 L 921.00 122.18 L 924.05 119.62 C 930.35 114.31 939.61 114.18 945.58 119.31 C 949.00 122.26 949.90 127.28 949.96 143.75 L 950.00 157.00 L 946.50 157.00 L 943.00 157.00 L 943.00 142.08 C 943.00 133.88 942.72 126.44 942.38 125.54 C 940.83 121.52 932.28 119.77 927.15 122.43 C 922.62 124.77 921.64 128.19 921.21 143.25 L 920.81 157.00 L 917.88 157.00 L 914.96 157.00 L 915.23 136.75Z"/></g>
<g fill="#F8DB0DFF">
<path d="M 352.61 178.18 C 352.27 177.63 352.24 176.58 352.55 175.84 C 353.44 173.67 361.26 169.18 366.06 168.08 C 371.33 166.87 399.67 163.95 412.75 163.26 C 424.31 162.65 424.81 163.90 415.43 169.97 L 408.86 174.22 L 394.48 175.07 C 379.53 175.95 361.78 177.59 356.36 178.60 C 354.64 178.92 352.95 178.73 352.61 178.18Z"/></g>
<g fill="#20211AFF">
<path d="M 808.18 154.56 C 808.37 153.10 813.80 146.33 821.75 137.64 C 829.04 129.68 835.00 122.76 835.00 122.26 C 835.00 121.77 829.49 121.39 822.75 121.43 L 810.50 121.50 L 810.50 119.00 L 810.50 116.50 L 827.49 116.50 C 850.11 116.50 849.93 114.99 829.96 137.00 C 821.57 146.25 817.00 151.59 817.00 152.14 C 817.00 152.34 823.52 152.35 831.50 152.16 L 846.00 151.81 L 846.00 154.41 L 846.00 157.00 L 826.93 157.00 L 807.87 157.00 L 808.18 154.56Z"/></g>
<g fill="#F8DB0DFF">
<path d="M 147.89 178.56 C 147.22 177.89 112.85 175.00 105.20 174.98 C 95.61 174.94 91.54 173.72 86.73 169.41 C 84.41 167.33 82.36 165.27 82.18 164.85 C 81.45 163.09 88.13 162.76 100.44 163.95 C 120.64 165.90 121.14 165.95 127.27 167.06 C 130.44 167.63 133.45 167.84 133.95 167.53 C 136.83 165.75 152.17 175.30 150.58 177.88 C 149.86 179.03 148.67 179.34 147.89 178.56Z"/></g>
<g fill="#20211AFF">
<path d="M 916.33 447.59 C 911.47 445.40 909.77 442.01 909.81 434.60 C 909.87 423.79 913.22 419.77 922.15 419.77 C 931.02 419.77 934.73 424.96 933.74 435.98 C 932.96 444.56 930.51 447.49 923.29 448.49 C 921.04 448.80 918.21 448.43 916.33 447.59ZM 925.60 445.23 C 928.34 443.41 929.48 438.42 929.15 429.75 C 928.96 424.92 926.11 422.00 921.57 422.00 C 916.22 422.00 914.00 425.56 914.00 434.18 C 914.00 440.18 914.32 441.41 916.45 443.55 C 918.86 445.95 923.30 446.77 925.60 445.23Z"/></g>
<g fill="#20211AFF">
<path d="M 869.00 447.30 C 864.59 445.03 862.59 440.94 862.66 434.29 C 862.78 424.24 866.71 419.63 875.09 419.74 C 880.81 419.81 883.52 421.18 885.49 424.98 C 888.59 430.97 886.52 443.94 882.03 446.75 C 878.45 448.99 872.76 449.23 869.00 447.30ZM 878.60 445.23 C 880.96 443.66 882.22 439.45 882.19 433.30 C 882.14 424.85 880.36 422.00 875.13 422.00 C 869.41 422.00 867.61 424.57 867.17 433.34 C 866.86 439.50 867.11 440.88 868.98 443.25 C 871.14 445.99 875.97 446.99 878.60 445.23Z"/></g>
<g fill="#F8DB0DFF">
<path d="M 287.00 162.06 C 274.10 156.65 264.58 154.70 251.50 154.80 C 237.95 154.90 230.08 156.34 218.50 160.87 C 209.52 164.37 206.82 164.69 204.97 162.47 C 203.92 161.20 204.03 160.69 205.60 159.53 C 206.65 158.75 208.62 157.83 210.00 157.48 C 211.38 157.13 213.85 156.25 215.50 155.53 C 227.63 150.20 246.22 147.42 260.34 148.82 C 265.93 149.37 272.52 150.47 275.00 151.27 C 277.48 152.06 281.52 153.32 284.00 154.06 C 289.22 155.63 299.00 159.92 299.00 160.64 C 299.00 162.35 296.66 164.98 295.21 164.89 C 294.27 164.83 290.57 163.56 287.00 162.06Z"/></g>
<g fill="#169337FF">
<path d="M 225.12 225.43 C 223.95 223.94 223.00 222.38 223.00 221.96 C 223.00 221.54 221.43 218.42 219.52 215.03 C 215.41 207.77 212.82 200.62 213.58 198.65 C 213.97 197.65 216.64 197.09 222.81 196.71 C 227.59 196.42 232.40 195.90 233.50 195.55 C 237.33 194.33 238.14 197.78 237.39 212.04 L 236.70 224.99 L 233.60 225.89 C 231.90 226.38 229.77 227.08 228.87 227.45 C 227.78 227.90 226.54 227.23 225.12 225.43Z"/></g>
<g fill="#20211AFF">
<path d="M 957.50 237.50 C 948.22 234.21 943.48 223.59 945.95 211.54 C 946.62 208.26 948.10 204.27 949.23 202.67 C 953.39 196.83 964.82 194.23 972.40 197.39 C 976.01 198.90 981.00 204.67 981.00 207.34 C 981.00 208.57 980.09 209.00 977.50 209.00 C 975.01 209.00 974.00 208.55 974.00 207.45 C 974.00 206.60 972.90 204.80 971.55 203.45 C 967.73 199.64 961.06 199.99 956.45 204.25 C 953.58 206.91 952.83 208.44 952.34 212.65 C 951.41 220.65 952.72 226.87 956.01 230.16 C 958.39 232.55 959.67 233.00 964.00 233.00 C 968.36 233.00 969.60 232.55 972.08 230.08 C 973.68 228.47 975.00 226.44 975.00 225.58 C 975.00 224.44 975.98 224.00 978.50 224.00 C 982.49 224.00 982.47 223.95 980.64 228.33 C 978.90 232.49 973.99 236.63 969.22 237.96 C 964.39 239.30 962.36 239.22 957.50 237.50Z"/></g>
<g fill="#20211AFF">
<path d="M 747.31 237.70 C 739.10 235.35 734.93 229.72 734.24 220.06 C 733.43 208.55 736.71 201.40 744.42 197.90 C 752.87 194.06 764.37 196.87 768.30 203.72 C 770.51 207.57 769.89 209.00 766.01 209.00 C 764.00 209.00 762.94 208.39 762.49 206.97 C 761.36 203.41 757.88 201.00 753.88 201.00 C 744.60 201.00 741.01 205.47 741.01 217.00 C 741.01 228.33 744.76 233.29 753.23 233.18 C 758.06 233.11 761.90 230.73 763.35 226.89 C 764.19 224.66 765.07 224.00 767.22 224.00 C 770.72 224.00 770.90 226.37 767.75 231.05 C 763.47 237.39 755.42 240.01 747.31 237.70Z"/></g>
<g fill="#20211AFF">
<path d="M 805.48 238.07 C 801.49 237.11 797.39 234.36 795.03 231.05 C 790.17 224.21 790.01 211.47 794.70 204.24 C 802.35 192.44 823.44 193.77 826.53 206.25 C 827.17 208.80 826.99 209.00 824.18 209.00 C 822.03 209.00 820.95 208.42 820.51 207.03 C 819.42 203.61 815.09 201.00 810.50 201.00 C 802.66 201.00 798.00 207.12 798.00 217.40 C 798.00 227.83 802.05 233.00 810.21 233.00 C 816.42 233.00 818.80 231.72 820.60 227.42 C 821.77 224.61 822.56 224.00 825.01 224.00 C 828.35 224.00 828.64 224.87 826.59 228.80 C 824.39 233.01 819.88 236.71 815.50 237.90 C 811.07 239.11 809.88 239.13 805.48 238.07Z"/></g>
<g fill="#F8DB0DFF">
<path d="M 254.00 256.15 C 254.00 253.05 255.65 251.21 261.00 248.35 C 262.93 247.32 265.72 245.24 267.20 243.74 C 268.69 242.23 270.35 241.00 270.89 241.00 C 271.43 241.00 272.13 240.21 272.44 239.25 C 272.76 238.29 274.93 235.46 277.26 232.97 C 287.20 222.35 294.80 200.19 296.41 177.12 C 296.75 172.17 297.48 169.13 298.61 167.87 C 301.84 164.31 302.31 165.64 301.59 176.25 C 300.45 193.07 295.97 209.40 288.72 223.13 C 282.99 234.00 278.62 240.01 271.24 247.16 C 266.43 251.82 256.25 259.00 254.46 259.00 C 254.21 259.00 254.00 257.72 254.00 256.15Z"/></g>
<g fill="#169337FF">
<path d="M 290.46 269.91 C 286.96 262.97 286.92 262.77 288.63 260.16 C 289.58 258.70 290.85 257.00 291.43 256.39 C 293.68 254.07 304.52 241.68 305.57 240.23 C 306.41 239.09 307.96 238.84 311.86 239.21 C 319.14 239.91 319.22 240.10 315.00 246.50 C 313.91 248.15 312.47 250.62 311.80 252.00 C 311.13 253.38 309.50 255.82 308.19 257.44 C 306.88 259.06 305.40 261.31 304.90 262.44 C 303.60 265.42 301.87 268.05 298.75 271.78 C 297.24 273.59 296.00 275.50 296.00 276.03 C 296.00 278.83 293.62 276.20 290.46 269.91Z"/></g>
<g fill="#169337FF">
<path d="M 206.00 272.23 C 204.07 269.66 202.33 267.09 202.12 266.52 C 201.17 263.99 194.39 253.42 193.26 252.70 C 192.57 252.26 192.00 251.05 192.00 250.01 C 192.00 248.97 191.58 247.86 191.06 247.54 C 189.52 246.58 186.99 240.83 187.64 239.77 C 187.99 239.21 190.69 238.98 193.80 239.23 C 199.77 239.73 199.49 239.51 207.50 249.94 C 209.70 252.80 212.74 256.46 214.25 258.06 C 217.26 261.26 217.82 265.08 215.55 266.96 C 214.76 267.62 213.35 270.15 212.42 272.58 C 211.49 275.01 210.45 276.98 210.11 276.96 C 209.78 276.94 207.93 274.81 206.00 272.23Z"/></g>
<g fill="#F8DB0DFF">
<path d="M 245.50 257.62 C 239.30 254.15 225.00 241.62 225.00 239.65 C 225.00 239.15 224.18 238.01 223.18 237.12 C 222.17 236.23 220.06 233.03 218.47 230.00 C 216.89 226.97 214.99 223.77 214.25 222.87 C 210.04 217.76 203.19 192.42 201.40 175.29 C 200.60 167.60 201.22 165.51 203.89 166.94 C 205.50 167.80 205.92 169.54 206.48 177.73 C 207.16 187.69 208.59 195.79 211.54 206.50 C 214.75 218.16 227.14 237.46 235.34 243.57 C 244.98 250.76 250.00 255.18 250.00 256.49 C 250.00 258.36 247.82 258.91 245.50 257.62Z"/></g>
<g fill="#F8DB0DFF">
<path d="M 356.68 190.34 C 353.85 187.52 360.69 182.81 370.00 181.16 C 373.57 180.52 381.00 179.79 386.50 179.53 C 392.00 179.27 401.00 178.80 406.50 178.50 C 413.43 178.11 416.04 178.25 415.00 178.95 C 414.18 179.51 413.87 179.98 414.33 179.98 C 414.78 179.99 413.81 181.13 412.17 182.51 C 408.04 185.98 401.79 188.00 395.12 188.00 C 389.86 188.01 372.28 189.33 361.93 190.50 C 359.41 190.79 357.05 190.72 356.68 190.34Z"/></g>
<g fill="#20211AFF">
<path d="M 580.86 316.09 C 578.59 314.25 578.49 313.60 578.16 298.09 L 577.82 282.00 L 575.41 282.00 C 573.51 282.00 573.00 281.48 573.00 279.50 C 573.00 277.50 573.50 277.00 575.50 277.00 C 577.85 277.00 578.00 276.69 578.00 271.69 C 578.00 266.60 578.15 266.30 581.50 264.70 L 585.00 263.03 L 585.00 270.02 L 585.00 277.00 L 588.50 277.00 C 591.57 277.00 592.00 277.31 592.00 279.50 C 592.00 281.69 591.57 282.00 588.50 282.00 C 586.39 282.00 584.98 282.50 584.95 283.25 C 584.92 283.94 584.93 290.35 584.98 297.50 C 585.07 311.52 585.62 313.00 590.69 313.00 C 592.49 313.00 593.00 313.56 593.00 315.50 C 593.00 317.83 592.66 318.00 588.11 318.00 C 584.79 318.00 582.46 317.39 580.86 316.09Z"/></g>
<g fill="#20211AFF">
<path d="M 673.74 236.75 C 670.77 234.50 670.00 230.08 670.00 215.43 L 670.00 201.00 L 667.50 201.00 C 665.67 201.00 665.00 200.47 665.00 199.00 C 665.00 197.53 665.67 197.00 667.50 197.00 C 669.85 197.00 670.00 196.69 670.00 191.66 C 670.00 186.08 669.82 186.33 676.25 183.20 C 676.66 183.00 677.00 186.02 677.00 189.92 L 677.00 197.00 L 680.50 197.00 C 683.33 197.00 684.00 197.38 684.00 199.00 C 684.00 200.62 683.33 201.00 680.50 201.00 L 677.00 201.00 L 677.00 216.03 C 677.00 231.92 676.90 231.61 682.00 232.33 C 683.85 232.59 684.58 233.38 684.82 235.34 C 685.12 237.90 684.95 238.00 680.26 238.00 C 677.58 238.00 674.64 237.44 673.74 236.75Z"/></g>
<g fill="#20211AFF">
<path d="M 912.66 235.95 C 910.06 233.90 910.05 233.82 909.77 217.70 L 909.50 201.50 L 906.75 201.18 C 904.84 200.96 904.00 200.29 904.00 199.00 C 904.00 197.71 904.84 197.04 906.75 196.82 C 909.32 196.52 909.52 196.15 909.80 191.25 C 910.07 186.60 910.44 185.82 913.01 184.50 L 915.91 183.00 L 916.20 189.75 L 916.50 196.50 L 920.25 196.81 C 923.14 197.05 924.00 197.55 924.00 199.00 C 924.00 200.45 923.14 200.95 920.25 201.19 L 916.50 201.50 L 916.22 215.36 C 915.92 230.51 916.35 232.00 921.12 232.00 C 923.65 232.00 924.00 232.36 924.00 235.00 C 924.00 237.88 923.82 238.00 919.63 238.00 C 916.75 238.00 914.39 237.31 912.66 235.95Z"/></g>
<g fill="#F8DB0DFF">
<path d="M 100.36 187.27 C 95.35 186.82 87.50 180.73 89.87 179.14 C 91.40 178.13 106.14 178.54 124.50 180.11 C 133.25 180.85 137.70 181.72 140.93 183.32 C 149.53 187.55 147.94 188.01 125.33 187.83 C 113.88 187.73 102.64 187.48 100.36 187.27Z"/></g>
<g fill="#20211AFF">
<path d="M 558.00 289.56 L 558.00 261.00 L 561.52 261.00 L 565.03 261.00 L 564.77 289.25 L 564.50 317.50 L 561.25 317.81 L 558.00 318.13 L 558.00 289.56Z"/></g>
<g fill="#20211AFF">
<path d="M 775.31 447.58 C 770.97 445.63 769.00 441.38 769.00 433.95 C 769.00 423.86 772.79 419.62 781.71 419.75 C 785.71 419.81 786.89 420.31 789.23 422.93 C 791.12 425.05 792.00 427.12 792.00 429.48 L 792.00 432.92 L 782.75 433.21 L 773.50 433.50 L 773.59 437.74 C 773.69 442.83 776.18 446.00 780.07 446.00 C 784.15 446.00 786.05 445.01 787.05 442.36 C 787.58 440.98 788.77 440.00 789.92 440.00 C 791.64 440.00 791.77 440.35 790.93 442.77 C 790.40 444.29 789.09 446.09 788.03 446.75 C 784.83 448.75 778.78 449.14 775.31 447.58Z"/></g>
<g fill="#20211AFF">
<path d="M 716.37 448.35 C 711.26 447.25 707.46 439.26 708.60 432.00 C 709.99 423.14 713.27 419.83 720.64 419.83 C 726.36 419.83 729.64 422.03 730.94 426.74 C 732.72 433.12 732.88 433.00 722.50 433.00 L 713.00 433.00 L 713.00 436.87 C 713.00 442.26 716.10 446.00 720.57 446.00 C 723.89 446.00 728.00 443.23 728.00 441.00 C 728.00 440.45 728.89 440.00 729.97 440.00 C 731.58 440.00 731.79 440.40 731.11 442.22 C 729.44 446.74 722.42 449.66 716.37 448.35Z"/></g>
<g fill="#20211AFF">
<path d="M 640.64 434.97 C 638.64 427.81 637.00 421.51 637.00 420.97 C 637.00 420.44 637.90 420.00 639.00 420.00 C 640.10 420.00 641.00 420.25 641.00 420.56 C 641.00 422.10 646.36 441.61 646.98 442.29 C 647.36 442.73 649.35 437.89 651.38 431.54 C 656.39 415.90 657.59 415.90 662.09 431.50 C 663.91 437.82 665.71 442.66 666.10 442.25 C 666.70 441.60 670.36 428.64 671.75 422.25 C 672.05 420.83 672.97 420.00 674.22 420.00 C 675.59 420.00 676.03 420.47 675.63 421.52 C 675.31 422.36 673.66 427.87 671.97 433.77 C 670.27 439.67 668.66 445.29 668.38 446.25 C 668.08 447.28 666.89 448.00 665.50 448.00 C 663.02 448.00 663.35 448.76 658.59 432.05 C 657.89 429.61 656.88 427.46 656.34 427.28 C 655.80 427.10 653.91 431.69 652.15 437.48 C 649.27 446.91 648.70 448.00 646.61 448.00 C 644.48 448.00 643.98 446.90 640.64 434.97Z"/></g>
<g fill="#20211AFF">
<path d="M 600.78 438.74 C 599.28 433.66 597.39 427.36 596.58 424.75 L 595.10 420.00 L 597.53 420.00 C 599.36 420.00 600.12 420.68 600.59 422.75 C 603.03 433.49 605.27 441.63 605.98 442.36 C 606.44 442.83 608.45 438.00 610.44 431.61 C 615.76 414.58 617.43 415.45 623.06 438.25 C 623.71 440.86 624.52 443.00 624.87 443.00 C 625.22 443.00 626.85 438.00 628.49 431.88 C 631.08 422.23 632.94 418.61 634.50 420.17 C 634.73 420.40 633.62 424.84 632.03 430.04 C 630.44 435.24 628.64 441.41 628.03 443.75 C 627.12 447.26 626.51 448.00 624.52 448.00 C 622.38 448.00 621.84 447.09 619.56 439.61 C 618.15 434.99 616.99 430.60 616.98 429.86 C 616.98 429.11 616.58 427.89 616.11 427.14 C 615.52 426.21 614.06 429.31 611.54 436.89 C 608.34 446.49 607.54 448.00 605.67 447.99 C 603.80 447.99 603.13 446.72 600.78 438.74Z"/></g>
<g fill="#20211AFF">
<path d="M 562.52 446.82 C 561.15 442.97 555.00 421.88 555.00 421.01 C 555.00 420.46 555.83 420.00 556.85 420.00 C 558.36 420.00 559.20 421.96 561.46 430.75 C 562.98 436.66 564.59 441.89 565.03 442.37 C 565.48 442.85 567.25 438.57 568.98 432.87 C 570.70 427.17 572.30 421.94 572.52 421.25 C 572.75 420.56 573.82 420.00 574.89 420.00 C 577.01 420.00 577.38 420.88 581.10 434.75 C 582.32 439.29 583.64 443.00 584.04 443.00 C 584.44 443.00 585.29 440.86 585.94 438.25 C 588.94 426.08 591.14 420.00 592.54 420.00 C 594.35 420.00 594.35 420.56 592.55 426.07 C 591.75 428.51 589.93 434.44 588.49 439.25 C 586.19 446.96 585.60 448.00 583.58 448.00 C 581.53 448.00 580.97 446.94 578.47 438.25 C 576.92 432.89 575.34 427.87 574.96 427.11 C 574.54 426.27 572.89 430.09 570.86 436.61 C 567.96 445.85 567.11 447.55 565.22 447.82 C 563.99 448.00 562.78 447.55 562.52 446.82Z"/></g>
<g fill="#20211AFF">
<path d="M 818.80 434.37 C 818.56 423.52 818.78 420.63 819.87 420.22 C 820.63 419.93 821.66 420.43 822.17 421.34 C 823.00 422.83 823.31 422.84 825.42 421.46 C 829.16 419.01 833.59 418.89 836.49 421.17 C 838.90 423.07 839.21 423.09 841.54 421.56 C 845.40 419.04 850.95 419.22 853.15 421.94 C 854.72 423.87 855.00 426.04 855.00 436.11 C 855.00 447.33 854.89 448.00 853.00 448.00 C 851.11 448.00 851.00 447.33 851.00 436.20 C 851.00 428.36 850.60 424.00 849.80 423.20 C 848.13 421.53 843.87 421.70 841.22 423.56 C 839.15 425.01 839.00 425.87 839.00 436.56 C 839.00 447.33 838.88 448.00 837.00 448.00 C 835.13 448.00 835.00 447.33 834.99 437.75 C 834.97 425.73 833.86 422.64 829.43 422.20 C 823.96 421.66 822.55 424.54 822.16 437.10 C 821.90 445.45 821.51 448.00 820.47 448.00 C 819.40 448.00 819.04 445.03 818.80 434.37Z"/></g>
<g fill="#169337FF">
<path d="M 151.26 292.20 C 135.26 284.08 135.82 283.14 156.50 283.53 C 175.33 283.88 180.00 284.88 180.00 288.59 C 180.00 290.20 176.90 292.00 174.12 292.00 C 173.01 292.00 170.89 293.12 169.41 294.50 C 167.92 295.88 166.36 297.00 165.94 297.00 C 165.51 297.00 164.56 297.20 163.83 297.45 C 163.10 297.70 157.44 295.34 151.26 292.20Z"/></g>
<g fill="#20211AFF">
<path d="M 740.90 154.75 C 740.82 152.88 740.88 121.27 740.97 117.25 C 740.99 116.56 742.12 116.00 743.50 116.00 C 745.48 116.00 746.00 116.50 746.00 118.44 C 746.00 122.09 747.42 122.28 749.87 118.96 C 751.79 116.37 752.68 116.00 757.06 116.00 C 762.54 116.00 763.94 117.37 762.06 120.89 C 761.22 122.45 760.30 122.81 758.23 122.40 C 756.73 122.10 754.24 122.33 752.70 122.92 C 748.20 124.64 747.00 129.08 747.00 143.97 L 747.00 157.00 L 744.00 157.00 C 741.58 157.00 740.98 156.56 740.90 154.75Z"/></g>
<g fill="#F8DB0DFF">
<path d="M 223.15 302.39 C 221.16 301.00 217.78 300.85 197.18 301.24 C 184.16 301.48 172.71 302.03 171.75 302.45 C 170.68 302.92 170.00 302.79 170.00 302.12 C 170.00 300.01 177.19 298.00 184.87 297.96 C 190.57 297.92 194.53 297.21 200.50 295.12 C 207.45 292.69 208.78 291.83 210.60 288.61 C 213.49 283.50 214.47 282.70 216.90 283.47 C 219.05 284.15 220.01 289.00 218.00 289.00 C 217.45 289.00 217.00 290.35 217.00 292.00 C 217.00 293.77 217.52 295.00 218.28 295.00 C 220.16 295.00 226.00 300.63 226.00 302.44 C 226.00 304.37 225.97 304.36 223.15 302.39Z"/></g>
<g fill="#20211AFF">
<path d="M 834.00 209.50 L 834.00 181.00 L 837.00 181.00 L 840.00 181.00 L 840.00 209.50 L 840.00 238.00 L 837.00 238.00 L 834.00 238.00 L 834.00 209.50Z"/></g>
<g fill="#20211AFF">
<path d="M 644.00 289.50 L 644.00 261.00 L 647.00 261.00 L 650.00 261.00 L 650.00 289.50 L 650.00 318.00 L 647.00 318.00 L 644.00 318.00 L 644.00 289.50Z"/></g>
<g fill="#B9BCB8FF">
<path d="M 211.09 182.29 C 209.72 179.29 209.67 171.32 211.01 170.50 C 211.56 170.15 212.28 170.58 212.61 171.44 C 212.97 172.36 214.41 173.00 216.11 173.00 C 217.70 173.00 219.00 173.45 219.00 174.00 C 219.00 175.31 227.73 175.30 229.29 173.98 C 237.60 166.97 238.17 167.09 237.80 175.75 C 237.57 180.85 237.16 182.43 236.12 182.21 C 235.37 182.05 233.96 182.63 233.00 183.50 C 231.63 184.74 229.21 185.03 221.72 184.88 C 212.72 184.69 212.11 184.54 211.09 182.29Z"/></g>
<g fill="#F8DB0DFF">
<path d="M 278.55 303.08 C 277.68 301.67 281.34 297.34 284.16 296.45 C 287.32 295.45 288.38 292.23 286.50 289.35 C 284.22 285.89 285.22 283.91 289.10 284.20 C 291.59 284.39 292.58 285.16 293.87 287.87 C 295.98 292.31 305.79 296.97 314.50 297.68 C 322.16 298.30 323.64 298.76 322.30 300.10 C 321.66 300.74 313.65 301.17 301.39 301.21 C 284.90 301.28 281.32 301.55 280.41 302.80 C 279.57 303.94 279.12 304.01 278.55 303.08Z"/></g>
<g fill="#169337FF">
<path d="M 232.30 332.41 L 227.11 329.90 L 227.69 325.00 C 228.22 320.51 228.01 319.86 225.21 317.06 C 221.86 313.71 217.24 313.02 212.53 315.17 C 210.28 316.20 209.46 315.97 205.73 313.27 C 203.41 311.58 201.50 309.41 201.50 308.45 C 201.50 306.92 202.63 306.68 210.31 306.57 C 222.02 306.40 224.46 308.09 232.57 322.02 C 234.64 325.59 236.67 328.73 237.09 329.01 C 238.23 329.78 239.34 335.01 238.36 334.96 C 237.89 334.94 235.16 333.80 232.30 332.41Z"/></g>
<g fill="#20211AFF">
<path d="M 930.00 217.56 L 930.00 197.00 L 933.52 197.00 L 937.04 197.00 L 936.77 217.25 L 936.50 237.50 L 933.25 237.81 L 930.00 238.13 L 930.00 217.56Z"/></g>
<g fill="#20211AFF">
<path d="M 851.00 217.56 L 851.00 197.00 L 854.52 197.00 L 858.04 197.00 L 857.77 217.25 L 857.50 237.50 L 854.25 237.81 L 851.00 238.13 L 851.00 217.56Z"/></g>
<g fill="#169337FF">
<path d="M 266.00 305.53 C 266.00 296.11 266.40 289.00 266.92 289.00 C 267.43 289.00 268.36 287.43 269.00 285.51 C 270.97 279.54 273.05 279.95 277.64 287.22 C 280.59 291.89 280.59 292.83 277.65 293.94 C 274.13 295.28 272.00 300.77 272.00 308.52 C 272.00 314.56 271.70 315.58 269.00 318.65 L 266.00 322.07 L 266.00 305.53Z"/></g>
<g fill="#20211AFF">
<path d="M 661.71 317.38 C 661.32 316.99 661.00 307.71 661.00 296.77 L 661.00 276.87 L 664.25 277.19 L 667.50 277.50 L 667.50 297.50 L 667.50 317.50 L 664.96 317.80 C 663.57 317.96 662.10 317.77 661.71 317.38Z"/></g>
<g fill="#169337FF">
<path d="M 266.40 333.61 C 265.55 331.39 272.75 319.14 279.30 311.65 C 281.81 308.78 283.80 307.57 287.09 306.94 C 292.28 305.93 304.00 306.85 304.00 308.25 C 304.00 309.68 296.85 316.00 295.24 316.00 C 294.49 316.00 292.97 315.52 291.87 314.93 C 286.87 312.25 278.88 314.45 276.99 319.03 C 276.28 320.73 276.08 323.50 276.48 325.89 L 277.16 329.89 L 272.06 332.47 C 267.88 334.59 266.86 334.79 266.40 333.61Z"/></g>
<g fill="#F8DB0DFF">
<path d="M 360.96 201.45 C 359.96 200.25 360.07 199.58 361.52 197.98 C 362.50 196.89 363.66 196.00 364.09 196.00 C 364.52 196.00 366.14 195.47 367.68 194.82 C 371.02 193.42 370.49 193.49 384.75 192.56 C 397.18 191.75 397.46 191.90 393.99 197.52 C 392.10 200.57 391.54 200.81 384.74 201.42 C 367.53 202.99 362.24 203.00 360.96 201.45Z"/></g>
<g fill="#169337FF">
<path d="M 235.04 319.13 C 232.86 315.92 232.58 314.44 232.60 306.27 C 232.61 301.20 232.41 297.26 232.15 297.52 C 231.89 297.78 231.05 297.09 230.28 295.99 C 229.51 294.90 228.33 294.00 227.64 294.00 C 226.96 294.00 225.88 293.48 225.25 292.85 C 224.39 291.99 224.85 290.63 227.09 287.37 C 228.73 284.98 230.94 282.56 232.01 282.00 C 233.68 281.10 234.22 281.52 236.04 285.07 C 237.86 288.65 238.18 291.31 238.47 305.60 C 238.65 314.62 238.51 322.17 238.15 322.38 C 237.79 322.59 236.39 321.13 235.04 319.13Z"/></g>
<g fill="#B9BCB8FF">
<path d="M 238.33 214.50 C 238.36 206.80 238.55 203.54 238.74 207.26 C 239.09 214.00 239.10 214.01 241.73 213.35 C 243.18 212.99 245.52 212.09 246.93 211.35 C 248.35 210.62 250.13 210.01 250.91 210.01 C 251.68 210.00 253.79 208.88 255.59 207.50 C 257.39 206.12 259.35 205.00 259.93 205.00 C 260.52 205.00 261.03 204.21 261.07 203.25 C 261.13 201.76 261.26 201.80 261.94 203.50 C 262.60 205.15 262.92 204.70 263.76 201.00 C 264.75 196.65 264.79 196.78 264.89 204.81 C 264.95 209.38 264.66 212.91 264.24 212.65 C 263.83 212.39 261.24 213.71 258.49 215.58 C 255.75 217.44 252.49 218.98 251.25 218.98 C 250.01 218.99 249.00 219.40 249.00 219.89 C 249.00 220.69 247.05 221.29 241.50 222.18 C 240.20 222.39 239.28 223.55 238.88 225.50 C 238.54 227.15 238.29 222.20 238.33 214.50Z"/></g>
<g fill="#20211AFF">
<path d="M 853.00 136.50 L 853.00 116.00 L 856.00 116.00 L 859.00 116.00 L 859.00 136.50 L 859.00 157.00 L 856.00 157.00 L 853.00 157.00 L 853.00 136.50Z"/></g>
<g fill="#20211AFF">
<path d="M 777.00 217.50 L 777.00 197.00 L 780.00 197.00 L 783.00 197.00 L 783.00 217.50 L 783.00 238.00 L 780.00 238.00 L 777.00 238.00 L 777.00 217.50Z"/></g>
<g fill="#F8DB0DFF">
<path d="M 194.41 196.67 C 187.59 190.52 181.26 178.19 184.04 176.47 C 185.28 175.71 194.03 176.78 195.89 177.93 C 197.37 178.85 201.12 199.09 200.03 200.29 C 199.64 200.73 197.11 199.10 194.41 196.67Z"/></g>
<g fill="#78B765FF">
<path d="M 213.75 196.27 C 211.42 195.71 211.52 193.29 213.90 192.53 C 215.27 192.10 215.64 191.32 215.23 189.72 C 214.93 188.50 214.20 187.19 213.62 186.80 C 211.31 185.29 214.46 184.63 222.85 184.87 C 229.83 185.07 231.92 184.80 232.95 183.56 C 234.97 181.12 235.63 181.70 235.19 185.51 C 234.94 187.68 235.40 189.96 236.41 191.51 C 237.31 192.88 237.92 194.04 237.77 194.08 C 237.62 194.13 236.38 194.29 235.00 194.45 C 233.62 194.60 229.80 195.04 226.50 195.41 C 223.20 195.79 219.38 196.23 218.00 196.39 C 216.62 196.55 214.71 196.50 213.75 196.27Z"/></g>
<g fill="#F8DB0DFF">
<path d="M 303.00 199.66 C 303.00 197.11 305.95 178.72 306.43 178.24 C 307.06 177.60 314.83 176.10 317.75 176.04 C 319.25 176.01 320.00 176.59 319.99 177.75 C 319.97 181.55 314.85 190.19 309.50 195.46 C 303.44 201.42 303.00 201.70 303.00 199.66Z"/></g>
<g fill="#9A100DFF">
<path d="M 213.74 329.75 C 210.65 327.40 209.79 323.17 211.73 319.88 C 214.65 314.94 221.48 314.74 224.60 319.51 C 228.76 325.85 219.77 334.33 213.74 329.75Z"/></g>
<g fill="#9A100DFF">
<path d="M 281.39 328.66 C 277.86 325.62 277.65 320.51 280.94 317.84 C 283.51 315.77 285.68 315.55 289.45 316.98 C 296.62 319.71 293.43 331.00 285.49 331.00 C 284.73 331.00 282.89 329.95 281.39 328.66Z"/></g>
<g fill="#20211AFF">
<path d="M 899.00 448.31 C 895.64 447.11 895.00 444.69 895.00 433.31 C 895.00 422.67 894.88 422.00 893.00 422.00 C 891.90 422.00 891.00 421.55 891.00 421.00 C 891.00 420.45 891.90 420.00 893.00 420.00 C 894.56 420.00 895.00 419.33 895.00 417.00 C 895.00 415.35 895.19 414.00 895.42 414.00 C 895.65 414.00 896.55 413.73 897.42 413.39 C 898.68 412.91 899.00 413.51 899.00 416.39 C 899.00 419.73 899.22 420.00 902.00 420.00 C 903.65 420.00 905.00 420.45 905.00 421.00 C 905.00 421.55 903.65 422.00 902.00 422.00 L 899.00 422.00 L 899.00 432.43 C 899.00 443.59 900.21 446.70 904.15 445.67 C 905.24 445.38 906.00 445.71 906.00 446.48 C 906.00 447.19 904.99 448.04 903.75 448.37 C 901.21 449.05 901.08 449.05 899.00 448.31Z"/></g>
<g fill="#20211AFF">
<path d="M 695.00 435.00 L 695.00 422.00 L 692.50 422.00 C 689.39 422.00 689.19 420.25 692.25 419.82 C 694.12 419.55 694.55 418.78 694.81 415.23 C 695.04 412.05 695.72 410.57 697.49 409.41 C 700.24 407.61 705.14 407.87 705.79 409.85 C 706.10 410.80 705.66 411.03 704.32 410.60 C 701.51 409.71 699.19 412.00 698.82 416.00 C 698.53 419.17 698.76 419.53 701.25 419.82 C 702.76 419.99 704.00 420.52 704.00 421.00 C 704.00 421.48 702.76 422.01 701.25 422.18 L 698.50 422.50 L 698.50 435.25 C 698.50 446.73 698.33 448.00 696.75 448.00 C 695.17 448.00 695.00 446.71 695.00 435.00Z"/></g>
<g fill="#20211AFF">
<path d="M 970.81 448.32 C 968.12 447.61 966.81 441.72 967.13 431.73 C 967.42 422.86 967.34 422.49 965.21 422.18 C 962.34 421.77 962.36 420.23 965.24 419.82 C 966.83 419.59 967.63 418.65 967.99 416.58 C 968.72 412.42 970.80 412.16 971.18 416.19 C 971.45 418.96 971.95 419.55 974.25 419.82 C 975.76 419.99 977.00 420.52 977.00 421.00 C 977.00 421.48 975.76 422.01 974.25 422.18 L 971.50 422.50 L 971.50 433.29 C 971.50 444.89 972.16 446.45 976.75 445.66 C 979.82 445.14 979.60 446.82 976.43 448.02 C 973.76 449.04 973.57 449.05 970.81 448.32Z"/></g>
<g fill="#F8DB0DFF">
<path d="M 367.57 213.30 L 364.88 210.60 L 367.19 208.84 C 369.42 207.13 372.18 206.55 382.25 205.66 C 386.34 205.30 387.00 205.50 387.00 207.07 C 387.00 208.08 385.36 210.50 383.35 212.45 C 380.21 215.50 379.03 216.00 374.98 216.00 C 371.20 216.00 369.74 215.47 367.57 213.30Z"/></g>
<g fill="#878786FF">
<path d="M 252.25 395.27 L 260.00 394.92 L 260.00 339.00 L 260.00 283.08 L 251.75 282.72 L 243.50 282.36 L 252.00 282.43 L 260.50 282.50 L 260.50 339.00 L 260.50 395.50 L 252.50 395.56 L 244.50 395.62 L 252.25 395.27Z"/></g>
<g fill="#20211AFF">
<path d="M 799.31 434.26 C 799.48 422.07 799.70 420.49 801.25 420.19 C 802.32 419.98 803.00 420.47 803.00 421.43 C 803.00 423.37 803.87 423.42 805.92 421.59 C 808.77 419.05 814.00 419.17 814.00 421.78 C 814.00 423.24 813.31 423.49 810.12 423.18 C 804.17 422.62 803.00 425.01 803.00 437.72 C 803.00 447.23 802.85 448.00 801.06 448.00 C 799.23 448.00 799.13 447.25 799.31 434.26Z"/></g>
<g fill="#F8DB0DFF">
<path d="M 132.35 227.00 C 129.52 226.58 126.71 225.94 126.10 225.56 C 122.93 223.60 126.18 223.00 139.88 223.00 C 152.20 223.00 154.98 223.27 156.06 224.58 C 157.15 225.88 157.13 226.31 155.94 227.06 C 154.26 228.12 139.78 228.08 132.35 227.00Z"/></g>
<g fill="#20211AFF">
<path d="M 953.00 434.00 C 953.00 419.91 953.01 419.86 955.25 420.18 C 957.47 420.50 957.50 420.68 957.27 434.00 C 957.05 446.67 956.91 447.52 955.02 447.82 C 953.07 448.13 953.00 447.62 953.00 434.00Z"/></g>
</svg>
