<?xml version="1.0" encoding="utf-8"?>
<!DOCTYPE svg PUBLIC "-//W3C//DTD SVG 20010904//EN" "http://www.w3.org/TR/2001/REC-SVG-20010904/DTD/svg10.dtd">
<svg version="1.0" xmlns="http://www.w3.org/2000/svg" width="682pt" height="607pt" viewBox="0 0 682 607" preserveAspectRatio="xMidYMid meet">
<g fill="#009CDEFF">
<path d="M 96.00 244.93 L 96.00 103.82 L 101.89 107.16 C 105.14 109.00 160.00 140.65 223.80 177.50 C 309.49 226.98 339.52 244.79 338.66 245.60 C 338.02 246.20 320.51 256.48 299.74 268.45 L 261.98 290.20 L 218.53 265.10 C 194.64 251.29 174.85 240.00 174.55 240.00 C 174.26 240.00 173.90 262.80 173.76 290.66 L 173.50 341.32 L 137.50 362.20 C 117.70 373.68 100.26 383.74 98.75 384.56 L 96.00 386.05 L 96.00 244.93Z"/></g>
<g fill="#009CDEFF">
<path d="M 547.00 363.68 L 508.50 341.44 L 508.24 290.61 C 508.02 247.46 507.77 239.87 506.58 240.33 C 505.80 240.63 486.03 251.95 462.62 265.48 C 420.72 289.72 420.03 290.07 417.29 288.62 C 415.75 287.82 398.16 277.71 378.20 266.17 C 353.65 251.98 342.32 244.91 343.19 244.34 C 343.90 243.88 398.71 212.14 464.99 173.81 L 585.50 104.12 L 585.76 174.56 C 585.90 213.30 585.90 276.71 585.76 315.46 L 585.50 385.93 L 547.00 363.68Z"/></g>
<g fill="#002855FE">
<path d="M 277.00 465.50 L 277.00 427.00 L 297.25 427.02 C 320.16 427.03 326.87 428.11 333.35 432.78 C 339.64 437.33 342.51 443.71 342.44 452.98 C 342.35 464.05 337.96 471.29 329.08 474.97 C 327.19 475.75 326.10 476.81 326.39 477.58 C 326.66 478.29 329.97 483.06 333.73 488.18 C 337.50 493.31 341.60 498.96 342.86 500.75 L 345.14 504.00 L 335.32 503.98 L 325.50 503.96 L 316.67 491.48 L 307.83 479.00 L 300.92 479.00 L 294.00 479.00 L 294.00 491.50 L 294.00 504.00 L 285.50 504.00 L 277.00 504.00 L 277.00 465.50ZM 319.52 463.42 C 322.95 461.80 326.00 456.91 326.00 453.05 C 326.00 449.32 323.00 444.90 319.47 443.42 C 317.22 442.48 312.30 442.00 305.03 442.00 L 294.00 442.00 L 294.00 453.50 L 294.00 465.00 L 305.10 465.00 C 313.13 465.00 317.12 464.56 319.52 463.42Z"/></g>
<g fill="#002855FE">
<path d="M 96.00 465.50 L 96.00 427.00 L 104.92 427.00 L 113.84 427.00 L 124.03 443.00 C 129.64 451.80 134.51 459.00 134.86 459.00 C 135.21 458.99 140.02 451.91 145.54 443.25 L 155.58 427.50 L 164.79 427.21 L 174.00 426.92 L 174.00 465.46 L 174.00 504.00 L 166.00 504.00 L 158.00 504.00 L 158.00 478.94 C 158.00 465.16 157.63 454.11 157.17 454.39 C 156.71 454.68 151.45 462.12 145.48 470.93 L 134.62 486.96 L 123.56 470.33 L 112.50 453.70 L 112.23 478.85 L 111.97 504.00 L 103.98 504.00 L 96.00 504.00 L 96.00 465.50Z"/></g>
<g fill="#002855FE">
<path d="M 184.77 502.20 C 185.17 501.17 192.70 483.82 201.50 463.65 L 217.50 426.97 L 225.39 427.24 L 233.28 427.50 L 250.02 465.75 L 266.77 504.00 L 258.10 504.00 L 249.42 504.00 L 245.93 495.75 L 242.44 487.50 L 225.35 487.23 L 208.26 486.95 L 204.70 495.23 L 201.14 503.50 L 192.59 503.79 C 184.57 504.06 184.08 503.96 184.77 502.20ZM 235.57 471.25 C 231.93 461.41 225.46 447.15 224.90 447.75 C 224.51 448.16 221.93 454.01 219.16 460.75 L 214.11 473.00 L 225.16 473.00 C 235.27 473.00 236.16 472.85 235.57 471.25Z"/></g>
<g fill="#002855FE">
<path d="M 359.00 465.50 L 359.00 427.00 L 388.50 427.00 L 418.00 427.00 L 418.00 433.98 L 418.00 440.96 L 396.75 441.23 L 375.50 441.50 L 375.21 449.75 L 374.92 458.00 L 393.96 458.00 L 413.00 458.00 L 413.00 464.98 L 413.00 471.96 L 394.25 472.23 L 375.50 472.50 L 375.21 480.75 L 374.92 489.00 L 396.46 489.00 L 418.00 489.00 L 418.00 496.50 L 418.00 504.00 L 388.50 504.00 L 359.00 504.00 L 359.00 465.50Z"/></g>
<g fill="#002855FE">
<path d="M 502.00 465.50 L 502.00 427.00 L 510.50 427.00 L 519.00 427.00 L 519.00 458.00 L 519.00 489.00 L 538.50 489.00 L 558.00 489.00 L 558.00 496.50 L 558.00 504.00 L 530.00 504.00 L 502.00 504.00 L 502.00 465.50Z"/></g>
<g fill="#002855FE">
<path d="M 434.00 465.50 L 434.00 427.00 L 442.50 427.00 L 451.00 427.00 L 451.00 458.00 L 451.00 489.00 L 470.00 489.00 L 489.00 489.00 L 489.00 496.50 L 489.00 504.00 L 461.50 504.00 L 434.00 504.00 L 434.00 465.50Z"/></g>
<g fill="#002855FE">
<path d="M 570.00 465.50 L 570.00 427.00 L 578.00 427.00 L 586.00 427.00 L 586.00 465.50 L 586.00 504.00 L 578.00 504.00 L 570.00 504.00 L 570.00 465.50Z"/></g>
</svg>
