<?xml version="1.0" encoding="utf-8"?>
<!DOCTYPE svg PUBLIC "-//W3C//DTD SVG 20010904//EN" "http://www.w3.org/TR/2001/REC-SVG-20010904/DTD/svg10.dtd">
<svg version="1.0" xmlns="http://www.w3.org/2000/svg" width="1763pt" height="253pt" viewBox="0 0 1763 253" preserveAspectRatio="xMidYMid meet">
<g fill="#010000FE">
<path d="M 2.00 249.50 C 2.00 248.68 2.39 248.00 2.86 248.00 C 3.34 248.00 7.95 244.57 13.11 240.39 C 43.50 215.75 57.60 204.41 68.90 195.50 C 75.88 190.00 86.80 181.22 93.15 176.00 C 99.51 170.78 106.45 165.15 108.58 163.50 C 110.70 161.85 114.71 158.67 117.47 156.44 C 120.24 154.21 132.62 144.25 145.00 134.29 C 157.38 124.34 170.20 114.01 173.50 111.32 C 184.66 102.24 181.05 103.00 213.02 103.00 C 233.92 103.00 241.92 103.32 242.80 104.20 C 243.69 105.09 244.00 115.02 244.00 142.70 C 244.00 163.22 244.31 180.00 244.69 180.00 C 245.06 180.00 247.43 178.28 249.94 176.17 C 252.45 174.07 259.90 167.93 266.50 162.54 C 273.10 157.15 280.70 150.88 283.39 148.62 C 286.08 146.35 294.92 139.10 303.04 132.50 C 311.16 125.90 322.63 116.56 328.53 111.74 L 339.25 102.97 L 369.37 103.24 L 399.50 103.50 L 399.50 177.00 L 399.50 250.50 L 360.50 250.50 L 321.50 250.50 L 321.24 217.25 C 321.07 195.92 320.61 184.00 319.97 184.00 C 319.42 184.00 314.37 188.19 308.74 193.31 C 303.11 198.42 286.23 213.50 271.24 226.82 L 243.98 251.02 L 205.24 250.76 L 166.50 250.50 L 166.24 216.75 C 166.09 198.19 165.73 183.00 165.44 183.00 C 165.15 183.00 156.97 190.09 147.26 198.75 C 137.56 207.41 125.99 217.71 121.56 221.62 C 117.13 225.54 107.88 233.73 101.00 239.83 L 88.50 250.91 L 45.25 250.95 C 7.45 250.99 2.00 250.81 2.00 249.50Z"/></g>
<g fill="#ED2528FE">
<path d="M 1609.00 178.05 C 1609.00 177.53 1611.87 171.34 1615.38 164.30 C 1618.89 157.26 1622.27 149.93 1622.88 148.00 C 1627.11 134.68 1628.26 129.42 1628.73 121.31 C 1630.16 96.62 1618.60 82.87 1590.46 75.82 C 1582.28 73.76 1579.15 73.57 1554.50 73.56 C 1534.57 73.56 1523.57 74.03 1512.50 75.37 C 1504.25 76.37 1497.27 77.34 1496.97 77.52 C 1496.68 77.70 1492.63 78.36 1487.97 78.99 C 1480.35 80.02 1439.01 88.06 1433.12 89.66 C 1431.35 90.14 1430.84 89.94 1431.14 88.90 C 1432.09 85.70 1502.38 52.32 1530.09 41.91 C 1534.72 40.17 1541.42 37.65 1545.00 36.31 C 1548.58 34.97 1553.53 33.21 1556.00 32.40 C 1558.47 31.60 1561.24 30.53 1562.15 30.02 C 1563.65 29.19 1577.50 24.78 1594.00 19.89 C 1639.76 6.32 1693.14 -0.84 1719.31 3.08 C 1732.42 5.04 1745.51 9.91 1752.26 15.33 C 1760.18 21.68 1763.46 32.47 1760.53 42.53 C 1755.66 59.28 1745.91 73.06 1723.36 95.04 C 1708.15 109.87 1699.06 117.52 1677.50 133.63 C 1659.15 147.35 1640.63 159.93 1618.26 173.87 C 1609.53 179.30 1609.00 179.55 1609.00 178.05Z"/></g>
<g fill="#010000FE">
<path d="M 1171.50 249.15 C 1165.01 246.93 1156.34 241.06 1152.30 236.15 C 1147.11 229.83 1142.15 219.89 1140.00 211.51 C 1137.40 201.33 1137.21 179.82 1139.63 170.06 C 1143.64 153.95 1154.31 139.40 1166.50 133.44 L 1172.50 130.50 L 1250.50 130.24 C 1339.18 129.94 1331.50 129.21 1338.37 138.67 C 1343.34 145.52 1345.51 153.57 1345.46 165.00 C 1345.40 180.04 1340.37 191.36 1331.40 196.61 L 1326.87 199.27 L 1271.69 199.38 L 1216.50 199.50 L 1216.21 207.74 L 1215.92 215.98 L 1276.21 216.24 L 1336.50 216.50 L 1336.50 233.50 L 1336.50 250.50 L 1256.50 250.68 C 1183.31 250.85 1176.07 250.72 1171.50 249.15ZM 1275.80 173.60 C 1275.96 169.80 1275.68 166.28 1275.17 165.77 C 1274.65 165.25 1261.78 164.86 1245.37 164.88 L 1216.50 164.92 L 1216.20 172.12 C 1216.04 176.07 1216.09 179.80 1216.32 180.41 C 1216.62 181.18 1225.36 181.35 1246.12 181.00 L 1275.50 180.50 L 1275.80 173.60Z"/></g>
<g fill="#010000FE">
<path d="M 796.50 249.33 C 786.60 244.11 781.60 232.90 781.63 216.00 C 781.65 199.01 787.69 186.74 797.94 182.83 C 799.50 182.23 821.37 181.89 854.08 181.96 C 883.55 182.02 908.41 181.78 909.33 181.43 C 911.71 180.51 911.80 165.52 909.43 164.61 C 908.56 164.28 881.51 164.05 849.30 164.11 C 801.74 164.19 790.59 163.96 789.93 162.88 C 789.10 161.54 788.96 133.54 789.77 131.25 C 790.12 130.26 807.29 130.00 871.07 130.00 C 949.39 130.00 952.09 130.06 957.21 131.99 C 968.63 136.30 977.56 145.71 983.37 159.55 C 988.11 170.85 989.37 179.12 988.77 195.11 C 988.33 206.91 987.90 209.49 985.16 216.86 C 983.45 221.46 980.96 227.09 979.62 229.36 C 976.22 235.13 969.37 242.01 963.73 245.31 C 953.82 251.12 956.04 250.98 874.50 250.95 C 808.01 250.92 799.16 250.74 796.50 249.33ZM 911.00 208.02 C 911.00 200.39 910.89 200.01 908.56 199.42 C 905.08 198.55 853.75 199.37 852.25 200.33 C 850.93 201.16 850.43 214.09 851.67 215.33 C 852.03 215.70 865.53 216.00 881.67 216.00 L 911.00 216.00 L 911.00 208.02Z"/></g>
<g fill="#010000FE">
<path d="M 1362.46 249.76 C 1362.20 249.07 1362.10 221.95 1362.24 189.50 L 1362.50 130.50 L 1448.52 130.50 L 1534.54 130.50 L 1541.02 133.69 C 1550.41 138.31 1555.42 143.02 1559.23 150.81 L 1562.50 157.50 L 1562.81 201.95 C 1562.98 226.40 1562.85 247.44 1562.54 248.71 L 1561.96 251.03 L 1527.73 250.76 L 1493.50 250.50 L 1493.00 217.50 C 1492.57 189.36 1492.26 184.06 1490.85 181.50 C 1486.95 174.40 1480.84 170.24 1470.32 167.50 C 1463.60 165.74 1444.70 163.80 1442.52 164.63 C 1441.23 165.13 1440.99 171.01 1440.76 207.85 L 1440.50 250.50 L 1401.72 250.76 C 1371.24 250.97 1362.84 250.75 1362.46 249.76Z"/></g>
<g fill="#010000FE">
<path d="M 451.50 249.60 C 439.80 245.88 431.24 238.10 425.01 225.52 C 412.71 200.68 415.07 167.07 430.60 145.98 C 435.73 139.01 441.11 134.85 448.66 132.03 C 454.00 130.03 455.72 129.99 535.30 130.24 L 616.50 130.50 L 616.77 146.77 C 617.01 160.53 616.82 163.13 615.54 163.62 C 614.71 163.94 590.96 164.27 562.77 164.35 C 505.23 164.52 508.49 164.11 501.65 172.09 C 496.76 177.80 494.45 187.71 496.07 195.96 C 497.51 203.25 500.44 208.46 505.34 212.40 L 509.18 215.50 L 562.84 216.00 L 616.50 216.50 L 616.50 233.50 L 616.50 250.50 L 536.00 250.69 C 473.22 250.83 454.62 250.59 451.50 249.60Z"/></g>
<g fill="#010000FE">
<path d="M 634.24 177.25 L 634.50 103.50 L 672.38 103.24 C 699.51 103.05 710.65 103.30 711.63 104.11 C 712.76 105.04 713.00 115.01 713.00 160.62 L 713.00 216.00 L 737.94 216.00 C 755.44 216.00 763.09 216.34 763.58 217.13 C 764.10 217.97 764.48 244.38 764.05 250.25 C 764.02 250.66 734.75 251.00 698.99 251.00 L 633.99 251.00 L 634.24 177.25Z"/></g>
<g fill="#010000FE">
<path d="M 1007.67 250.33 C 1007.30 249.97 1007.00 225.87 1007.00 196.78 C 1007.00 139.63 1006.86 141.21 1012.37 135.15 C 1017.11 129.94 1015.96 130.04 1073.46 129.98 C 1102.95 129.95 1127.51 130.20 1128.04 130.53 C 1129.29 131.30 1129.27 161.02 1128.02 163.00 C 1127.22 164.27 1124.06 164.45 1107.79 164.21 C 1097.18 164.04 1087.91 164.32 1087.18 164.81 C 1086.12 165.53 1085.87 173.85 1085.91 206.82 C 1085.94 229.44 1085.70 248.63 1085.37 249.47 C 1084.86 250.81 1079.95 251.00 1046.56 251.00 C 1025.54 251.00 1008.03 250.70 1007.67 250.33Z"/></g>
</svg>
