<?xml version="1.0" encoding="utf-8"?>
<!DOCTYPE svg PUBLIC "-//W3C//DTD SVG 20010904//EN" "http://www.w3.org/TR/2001/REC-SVG-20010904/DTD/svg10.dtd">
<svg version="1.0" xmlns="http://www.w3.org/2000/svg" width="802pt" height="110pt" viewBox="0 0 802 110" preserveAspectRatio="xMidYMid meet">
<g fill="#003F6FFE">
<path d="M 471.00 105.35 C 471.00 105.00 473.70 90.55 477.00 73.25 C 480.30 55.96 483.00 41.17 483.00 40.40 C 483.00 39.42 481.72 39.00 478.73 39.00 L 474.45 39.00 L 472.78 29.24 C 471.87 23.86 470.82 18.69 470.45 17.74 C 469.82 16.10 473.48 16.00 534.26 16.00 C 573.81 16.00 600.81 16.39 604.11 17.02 C 611.12 18.34 617.87 21.78 620.45 25.33 C 622.11 27.63 622.49 29.61 622.43 35.83 C 622.33 48.07 617.48 56.59 607.88 61.37 L 602.82 63.90 L 606.16 65.32 C 608.00 66.10 610.62 67.96 612.00 69.45 C 614.23 71.87 614.49 72.98 614.40 79.66 C 614.34 84.03 614.64 86.60 615.13 85.82 C 615.59 85.10 624.41 69.10 634.73 50.28 L 653.50 16.05 L 668.75 16.03 C 677.14 16.01 684.00 16.32 684.00 16.71 C 684.00 18.09 697.08 94.41 697.37 94.70 C 697.53 94.86 704.71 86.93 713.32 77.08 L 728.98 59.16 L 719.57 39.62 C 714.40 28.88 709.87 19.16 709.51 18.02 C 708.86 15.98 709.07 15.95 725.09 16.22 L 741.33 16.50 L 745.52 27.93 L 749.70 39.35 L 758.47 27.68 L 767.24 16.00 L 783.64 16.00 L 800.03 16.00 L 781.01 37.22 C 770.56 48.89 762.00 58.95 762.00 59.56 C 762.00 60.18 766.73 70.73 772.50 83.00 C 778.27 95.27 783.00 105.47 783.00 105.66 C 783.00 105.85 775.64 106.00 766.65 106.00 L 750.30 106.00 L 745.53 93.52 C 742.90 86.65 740.37 81.27 739.90 81.56 C 739.42 81.86 734.92 87.47 729.88 94.05 L 720.73 106.00 L 695.49 106.00 L 670.25 106.00 L 669.62 102.88 C 669.28 101.16 669.00 98.46 669.00 96.88 L 669.00 94.00 L 653.68 94.00 L 638.37 94.00 L 635.50 100.00 L 632.63 106.00 L 607.77 106.00 L 582.91 106.00 L 583.41 102.75 C 585.56 88.64 586.15 82.72 585.60 80.55 C 584.53 76.27 581.01 74.82 571.28 74.65 L 562.50 74.50 L 559.46 90.00 L 556.43 105.50 L 541.64 105.78 C 527.87 106.04 526.88 105.93 527.36 104.28 C 527.64 103.30 530.40 89.00 533.49 72.50 C 536.58 56.00 539.34 41.70 539.63 40.72 C 540.12 39.07 539.18 38.96 526.40 39.22 L 512.65 39.50 L 507.34 67.50 C 504.41 82.90 501.53 97.86 500.94 100.75 L 499.86 106.00 L 485.43 106.00 C 477.49 106.00 471.00 105.71 471.00 105.35ZM 666.41 68.75 C 666.02 64.76 665.17 57.23 664.54 52.00 L 663.38 42.50 L 655.69 58.40 C 651.46 67.14 648.00 74.68 648.00 75.15 C 648.00 75.62 652.30 76.00 657.56 76.00 L 667.12 76.00 L 666.41 68.75ZM 590.20 52.64 C 593.91 50.16 595.56 44.94 593.80 41.28 C 592.00 37.52 586.51 35.85 577.10 36.21 L 569.58 36.50 L 568.42 42.50 C 567.78 45.80 566.97 50.01 566.63 51.86 L 566.01 55.22 L 576.75 54.83 C 584.96 54.53 588.14 54.01 590.20 52.64Z"/></g>
<g fill="#003F6FFE">
<path d="M 211.04 104.25 C 211.06 103.29 214.79 83.15 219.33 59.50 L 227.57 16.50 L 242.31 16.22 L 257.05 15.95 L 256.52 18.22 C 256.23 19.48 253.52 33.55 250.50 49.50 C 247.49 65.45 244.78 79.52 244.48 80.77 L 243.95 83.04 L 264.69 82.77 L 285.42 82.50 L 289.16 63.00 C 291.21 52.27 292.92 42.49 292.95 41.25 C 293.00 39.03 292.83 39.00 280.00 39.00 C 272.61 39.00 267.00 38.60 267.00 38.07 C 267.00 37.55 267.62 34.06 268.39 30.32 C 269.15 26.57 270.07 21.81 270.43 19.75 L 271.09 16.00 L 327.05 16.00 C 371.13 16.00 383.01 16.27 383.02 17.25 C 383.04 17.94 379.32 38.19 374.77 62.25 L 366.50 105.99 L 351.68 106.00 C 338.04 106.00 336.91 105.86 337.38 104.25 C 337.67 103.29 340.40 89.22 343.46 73.00 C 346.52 56.77 349.25 42.49 349.53 41.25 C 350.04 39.00 350.02 39.00 336.54 39.00 C 323.36 39.00 323.03 39.05 322.52 41.25 C 322.23 42.49 319.52 56.55 316.50 72.50 C 313.49 88.45 310.78 102.51 310.49 103.75 L 309.96 106.00 L 260.48 106.00 C 214.01 106.00 211.00 105.89 211.04 104.25Z"/></g>
<g fill="#003F6FFE">
<path d="M 2.03 104.25 C 2.05 103.29 5.77 83.15 10.30 59.50 L 18.52 16.50 L 36.18 16.23 L 53.83 15.95 L 54.37 18.73 C 54.66 20.25 55.91 32.86 57.15 46.75 C 58.38 60.64 59.64 71.98 59.94 71.96 C 60.25 71.94 66.38 59.45 73.57 44.21 L 86.65 16.50 L 104.32 16.23 C 120.70 15.97 122.00 16.08 121.94 17.73 C 121.91 18.70 118.17 38.85 113.64 62.50 L 105.40 105.50 L 92.17 105.78 L 78.95 106.06 L 79.45 103.78 C 79.73 102.53 81.56 93.44 83.50 83.58 C 85.45 73.73 88.16 61.84 89.51 57.16 C 90.87 52.48 91.79 48.46 91.56 48.23 C 91.33 47.99 88.94 52.46 86.25 58.15 C 83.56 63.84 77.36 76.94 72.48 87.25 L 63.60 106.00 L 53.30 106.00 C 46.25 106.00 43.00 105.64 43.00 104.86 C 43.00 102.50 37.91 49.46 37.59 48.50 C 37.20 47.32 36.52 51.25 35.02 63.50 C 34.42 68.45 32.50 80.04 30.77 89.25 L 27.63 106.00 L 14.81 106.00 C 3.26 106.00 2.00 105.83 2.03 104.25Z"/></g>
<g fill="#DBA40FFE">
<path d="M 393.51 103.25 C 395.16 99.23 395.02 98.17 392.41 95.07 C 389.92 92.11 389.77 91.52 390.83 88.59 C 392.71 83.41 392.23 80.34 389.00 76.65 C 385.30 72.43 383.00 67.12 383.00 62.78 C 383.01 59.95 386.65 39.06 390.08 22.22 L 391.15 16.94 L 404.10 10.45 C 421.35 1.81 426.13 0.58 435.21 2.48 C 439.02 3.27 443.52 4.61 445.22 5.46 C 446.92 6.31 448.89 7.00 449.61 7.00 C 452.17 7.00 455.97 9.34 456.59 11.30 C 456.94 12.39 458.97 14.91 461.11 16.89 C 464.79 20.31 465.07 21.00 466.41 30.00 C 467.18 35.23 467.58 42.48 467.28 46.12 C 466.80 52.09 467.00 53.11 469.37 56.60 C 472.78 61.62 472.69 62.22 468.61 61.45 C 465.41 60.85 465.15 61.02 464.06 64.33 C 462.59 68.77 460.38 70.78 458.76 69.16 C 456.02 66.42 449.18 69.56 446.16 74.93 C 443.88 78.98 442.35 80.00 438.53 80.00 C 435.97 80.00 434.87 78.21 435.64 75.28 C 435.91 74.22 435.44 72.78 434.57 72.06 C 432.43 70.28 432.60 67.67 435.00 65.50 C 437.24 63.47 437.55 60.31 435.88 56.64 C 435.01 54.72 435.09 53.52 436.27 51.15 C 438.07 47.54 437.38 46.34 434.83 48.65 C 433.42 49.93 433.00 51.78 433.00 56.70 C 433.00 62.75 432.84 63.18 430.01 64.80 C 426.37 66.87 426.32 67.72 429.49 73.98 C 430.86 76.68 431.75 79.48 431.47 80.21 C 431.20 80.93 428.88 82.63 426.33 83.98 C 421.93 86.32 416.00 92.92 416.00 95.50 C 416.00 96.97 412.76 100.00 411.18 100.00 C 410.55 100.00 409.26 98.31 408.32 96.25 C 407.38 94.19 406.46 92.24 406.28 91.92 C 406.10 91.60 407.05 90.84 408.39 90.23 C 409.73 89.62 411.12 88.20 411.47 87.08 C 411.83 85.95 414.10 84.17 416.56 83.08 C 419.74 81.67 421.00 80.53 421.00 79.06 C 421.00 77.73 420.35 77.00 419.17 77.00 C 418.17 77.00 416.29 75.88 415.00 74.50 C 413.71 73.12 412.10 72.00 411.43 72.00 C 410.15 72.00 400.97 81.60 398.19 85.84 C 396.64 88.20 396.70 88.38 399.79 90.97 C 401.56 92.44 403.00 94.29 403.01 95.07 C 403.01 95.86 403.91 97.85 405.00 99.50 C 408.28 104.45 407.77 105.00 399.89 105.00 C 393.52 105.00 392.86 104.82 393.51 103.25Z"/></g>
<g fill="#003F6FFE">
<path d="M 148.50 107.97 C 135.80 106.52 128.73 102.77 124.20 95.07 C 122.07 91.45 121.53 89.07 121.22 82.07 C 120.91 74.91 121.69 69.06 125.96 46.50 C 128.77 31.65 131.31 18.71 131.60 17.75 C 132.08 16.19 133.70 16.00 146.68 16.00 L 161.22 16.00 L 160.68 18.25 C 160.38 19.49 157.79 32.90 154.92 48.05 C 149.04 79.07 149.00 81.77 154.30 85.10 C 156.76 86.65 158.78 87.03 163.07 86.75 C 169.95 86.31 174.54 83.31 177.05 77.59 C 178.05 75.34 181.16 61.35 183.97 46.50 C 186.79 31.65 189.33 18.71 189.61 17.75 C 190.08 16.19 191.69 16.00 204.68 16.00 L 219.22 16.00 L 218.68 18.25 C 218.38 19.49 216.07 31.52 213.53 45.00 C 211.00 58.48 208.23 71.96 207.37 74.96 C 203.92 87.13 196.43 97.27 187.18 102.31 C 178.35 107.11 162.00 109.50 148.50 107.97Z"/></g>
</svg>
