<?xml version="1.0" encoding="utf-8"?>
<!DOCTYPE svg PUBLIC "-//W3C//DTD SVG 20010904//EN" "http://www.w3.org/TR/2001/REC-SVG-20010904/DTD/svg10.dtd">
<svg version="1.0" xmlns="http://www.w3.org/2000/svg" width="223pt" height="88pt" viewBox="0 0 223 88" preserveAspectRatio="xMidYMid meet">
<g fill="#050300FF">
<path d="M 3.00 44.25 L 3.00 2.50 L 111.75 2.74 L 220.50 2.98 L 220.50 44.24 L 220.50 85.50 L 111.75 85.75 L 3.00 86.01 L 3.00 44.25ZM 16.49 77.25 C 16.16 75.19 15.70 72.38 15.47 71.00 C 15.11 68.85 15.17 68.78 15.92 70.50 C 16.40 71.60 17.31 74.41 17.94 76.75 C 18.79 79.92 19.58 81.00 21.04 81.00 C 22.12 81.00 23.02 80.66 23.04 80.25 C 23.07 79.84 23.71 77.25 24.48 74.50 L 25.87 69.50 L 25.93 73.75 C 25.97 76.09 25.55 78.00 25.00 78.00 C 24.45 78.00 24.00 78.69 24.00 79.53 C 24.00 80.84 25.80 81.02 36.25 80.78 C 45.40 80.57 48.44 80.18 48.25 79.25 C 47.92 77.60 48.81 77.67 50.57 79.42 C 51.68 80.54 55.67 80.86 69.05 80.90 C 85.18 80.95 86.09 80.85 85.53 79.11 C 85.04 77.55 85.38 77.35 87.73 77.80 C 89.25 78.09 89.94 78.52 89.25 78.75 C 88.56 78.98 88.00 79.58 88.00 80.08 C 88.00 80.59 91.60 81.00 96.00 81.00 C 100.67 81.00 104.00 80.58 104.00 80.00 C 104.00 79.45 103.55 79.00 103.00 79.00 C 102.45 79.00 102.00 77.80 102.00 76.34 C 102.00 73.69 102.01 73.70 104.75 77.30 C 106.45 79.54 108.36 80.94 109.75 80.96 C 111.79 81.00 112.00 80.53 112.00 76.00 C 112.00 71.67 112.27 71.00 114.00 71.00 C 115.67 71.00 116.00 71.67 116.00 75.00 C 116.00 77.20 115.55 79.00 115.00 79.00 C 114.45 79.00 114.00 79.45 114.00 80.00 C 114.00 80.58 117.18 81.00 121.54 81.00 C 128.17 81.00 129.05 80.79 128.79 79.25 C 128.62 78.23 129.13 77.50 130.00 77.50 C 130.87 77.50 131.38 78.23 131.21 79.25 C 130.97 80.68 131.66 81.00 134.96 81.00 C 139.67 81.00 139.91 80.50 136.50 77.82 C 133.28 75.29 133.34 73.66 136.75 71.12 L 139.50 69.06 L 135.75 69.03 C 133.07 69.01 132.00 69.43 132.00 70.50 C 132.00 71.33 131.56 72.00 131.03 72.00 C 130.50 72.00 130.32 71.33 130.64 70.50 C 131.13 69.22 129.46 69.00 119.17 69.00 C 112.21 69.00 106.86 69.42 106.50 70.00 C 106.16 70.55 106.58 71.00 107.44 71.00 C 108.40 71.00 108.99 71.87 108.97 73.25 C 108.95 75.34 108.76 75.27 106.22 72.24 C 104.03 69.62 102.77 68.98 99.75 68.99 C 97.69 69.00 96.00 69.45 96.00 70.00 C 96.00 70.55 96.45 71.00 97.00 71.00 C 97.55 71.00 98.00 72.80 98.00 75.00 C 98.00 80.58 95.88 80.16 93.00 74.00 C 91.05 69.84 90.21 69.00 88.00 69.00 C 85.79 69.00 84.95 69.84 82.98 74.04 C 80.11 80.18 77.66 80.41 77.18 74.59 C 76.98 72.19 77.35 70.40 78.15 69.91 C 80.24 68.62 78.88 68.15 70.97 67.44 C 63.61 66.78 62.71 66.65 56.25 65.40 C 54.04 64.97 52.20 65.30 50.50 66.41 C 48.15 67.95 48.00 67.94 48.00 66.22 C 48.00 64.66 46.38 64.13 37.25 62.68 C 31.34 61.75 25.97 60.98 25.32 60.99 C 24.67 61.00 23.62 63.51 22.98 66.58 C 22.35 69.65 21.65 71.98 21.43 71.76 C 21.22 71.55 20.43 68.70 19.70 65.44 C 18.43 59.85 18.13 59.42 14.53 58.23 C 10.13 56.76 9.07 57.28 10.79 60.03 C 12.31 62.47 12.39 76.21 10.89 77.71 C 9.20 79.40 10.76 81.00 14.10 81.00 C 17.00 81.00 17.07 80.88 16.49 77.25ZM 62.00 77.62 C 62.00 75.25 59.82 74.52 58.42 76.44 C 56.14 79.56 53.54 77.97 53.19 73.23 C 52.83 68.27 55.27 66.28 57.67 69.56 C 58.83 71.15 59.37 71.25 61.01 70.23 C 62.09 69.55 63.20 69.00 63.49 69.00 C 64.46 69.00 64.00 77.88 63.00 78.50 C 62.45 78.84 62.00 78.44 62.00 77.62ZM 68.70 78.37 C 67.13 76.80 68.13 75.00 70.57 75.00 C 72.48 75.00 73.06 75.45 72.81 76.74 C 72.46 78.56 69.91 79.57 68.70 78.37ZM 121.00 75.00 C 121.00 71.78 121.36 71.00 122.85 71.00 C 123.86 71.00 125.43 71.82 126.34 72.83 C 127.89 74.54 127.85 74.79 125.68 76.83 C 122.25 80.05 121.00 79.56 121.00 75.00ZM 31.00 71.00 C 31.00 67.15 31.19 64.00 31.42 64.00 C 34.24 64.00 35.00 65.60 35.00 71.61 C 35.00 77.33 34.79 78.00 33.00 78.00 C 31.19 78.00 31.00 77.33 31.00 71.00ZM 40.00 75.50 C 40.00 74.12 40.45 73.00 41.00 73.00 C 41.55 73.00 42.00 73.45 42.00 74.00 C 42.00 74.55 42.67 75.00 43.50 75.00 C 44.33 75.00 45.00 75.67 45.00 76.50 C 45.00 77.43 44.06 78.00 42.50 78.00 C 40.50 78.00 40.00 77.50 40.00 75.50ZM 45.67 75.33 C 44.32 73.98 44.97 69.00 46.50 69.00 C 47.55 69.00 48.00 70.06 48.00 72.50 C 48.00 75.81 47.16 76.83 45.67 75.33ZM 68.35 71.46 C 68.02 70.61 68.00 69.67 68.30 69.37 C 69.30 68.37 73.00 70.11 73.00 71.57 C 73.00 73.49 69.09 73.40 68.35 71.46ZM 40.00 68.00 C 40.00 66.90 40.65 66.00 41.44 66.00 C 43.53 66.00 44.49 68.07 42.88 69.10 C 40.74 70.45 40.00 70.17 40.00 68.00ZM 151.00 80.07 C 151.00 79.55 151.50 77.86 152.12 76.32 L 153.23 73.50 L 154.46 77.00 C 155.37 79.62 156.25 80.50 157.97 80.50 C 159.86 80.50 160.62 79.46 162.38 74.51 C 163.54 71.22 164.95 68.62 165.50 68.74 C 166.89 69.05 167.36 77.04 166.06 78.34 C 163.81 80.59 165.35 81.00 176.00 81.00 C 185.11 81.00 187.00 80.74 187.00 79.50 C 187.00 78.67 186.52 78.00 185.94 78.00 C 185.36 78.00 185.16 77.55 185.50 77.00 C 185.84 76.45 187.22 76.00 188.56 76.00 C 189.90 76.00 191.00 76.45 191.00 77.00 C 191.00 77.55 190.55 78.00 190.00 78.00 C 189.45 78.00 189.00 78.67 189.00 79.50 C 189.00 80.71 190.55 81.00 196.94 81.00 C 202.01 81.00 205.15 80.57 205.62 79.81 C 206.02 79.15 205.82 78.44 205.18 78.23 C 203.83 77.78 203.55 72.00 204.87 72.00 C 205.35 72.00 206.31 74.03 207.00 76.50 C 208.03 80.17 208.69 81.00 210.57 81.00 C 211.84 81.00 213.13 80.60 213.42 80.12 C 213.90 79.35 212.55 75.65 210.08 71.00 C 209.61 70.12 209.86 68.62 210.69 67.36 C 212.30 64.90 211.56 60.43 209.41 59.61 C 207.03 58.69 197.00 61.14 197.00 62.64 C 197.00 63.39 197.45 64.00 198.00 64.00 C 198.57 64.00 199.00 67.00 199.00 71.00 C 199.00 80.75 196.98 80.44 193.55 70.15 C 191.17 63.01 190.72 62.33 188.61 62.73 C 186.72 63.10 185.87 64.53 183.97 70.59 C 182.69 74.66 181.28 78.00 180.82 78.00 C 180.37 78.00 180.00 77.55 180.00 77.00 C 180.00 76.45 179.32 76.00 178.50 76.00 C 177.50 76.00 177.00 75.00 177.00 72.97 C 177.00 71.20 177.62 69.70 178.50 69.36 C 179.32 69.05 180.00 67.72 180.00 66.42 C 180.00 64.39 179.61 64.12 177.25 64.52 C 175.74 64.77 170.93 65.45 166.57 66.01 C 158.12 67.10 156.76 67.62 158.90 68.94 C 159.89 69.55 160.00 70.50 159.32 72.53 L 158.40 75.29 L 157.16 71.14 C 155.40 65.25 151.97 65.68 150.22 72.00 C 149.25 75.50 149.25 75.50 148.25 73.00 C 147.69 71.62 147.64 70.35 148.12 70.17 C 150.25 69.36 148.71 68.00 145.67 68.00 C 141.89 68.00 140.62 68.81 141.87 70.41 C 142.34 71.01 143.52 73.64 144.50 76.25 C 145.93 80.08 146.73 81.00 148.64 81.00 C 149.94 81.00 151.00 80.58 151.00 80.07ZM 171.00 76.00 C 171.00 73.68 171.80 73.53 174.25 75.39 C 176.66 77.22 176.44 78.00 173.50 78.00 C 171.67 78.00 171.00 77.47 171.00 76.00ZM 171.00 69.50 C 171.00 68.57 171.94 68.00 173.50 68.00 C 176.29 68.00 176.85 69.46 174.42 70.39 C 171.92 71.35 171.00 71.11 171.00 69.50ZM 204.03 66.17 C 204.01 64.03 204.43 62.98 205.19 63.23 C 207.04 63.85 207.16 65.40 205.55 67.54 C 204.14 69.40 204.06 69.33 204.03 66.17ZM 145.50 63.96 C 158.46 62.59 174.25 59.93 176.00 58.83 C 176.95 58.23 169.97 58.16 157.00 58.63 C 130.53 59.59 91.93 59.56 66.00 58.54 C 54.72 58.10 45.82 58.08 46.21 58.50 C 47.90 60.29 75.75 64.19 95.50 65.40 C 104.42 65.94 135.20 65.06 145.50 63.96ZM 64.61 55.25 C 67.29 51.72 66.33 51.00 59.00 51.00 C 55.15 51.00 52.00 50.61 52.00 50.14 C 52.00 48.68 68.12 20.00 68.94 20.00 C 69.25 20.00 73.13 28.21 77.57 38.25 L 85.63 56.50 L 95.38 56.79 L 105.13 57.07 L 133.81 39.21 C 149.59 29.38 163.02 21.04 163.66 20.67 C 164.29 20.30 161.09 26.86 156.53 35.25 L 148.25 50.50 L 140.37 50.77 C 133.81 50.99 132.21 51.39 130.75 53.13 C 129.79 54.28 129.00 55.62 129.00 56.11 C 129.00 56.61 142.13 57.00 158.94 57.00 C 188.75 57.00 188.89 56.99 190.44 54.78 C 191.30 53.56 192.00 52.21 192.00 51.78 C 192.00 51.35 188.35 51.00 183.89 51.00 C 174.28 51.00 174.20 52.83 184.68 33.50 C 194.80 14.83 194.63 15.00 203.51 15.00 C 210.22 15.00 210.75 14.84 211.84 12.45 C 212.48 11.05 213.00 9.70 213.00 9.45 C 213.00 9.20 200.78 9.00 185.85 9.00 L 158.69 9.00 L 135.10 23.68 C 122.12 31.75 110.77 38.97 109.87 39.72 C 108.41 40.95 107.55 39.45 101.39 25.04 L 94.54 9.00 L 67.81 9.00 C 42.40 9.00 41.02 9.10 40.04 10.93 C 38.15 14.45 38.82 15.00 45.00 15.00 C 49.15 15.00 50.99 15.39 50.97 16.25 C 50.95 16.94 46.78 24.93 41.70 34.00 L 32.46 50.50 L 24.56 50.80 C 18.53 51.02 16.35 51.49 15.36 52.80 C 12.25 56.88 12.89 57.00 38.64 57.00 C 60.93 57.00 63.41 56.83 64.61 55.25ZM 212.38 54.77 C 213.21 53.44 213.08 52.66 211.81 51.38 C 208.81 48.39 204.35 52.30 207.05 55.56 C 208.60 57.43 210.92 57.09 212.38 54.77ZM 205.37 47.77 C 210.84 44.25 213.99 39.87 214.00 35.75 C 214.00 32.17 208.57 26.16 202.30 22.80 C 194.63 18.69 193.52 18.57 192.09 21.71 C 191.08 23.91 191.09 24.53 192.12 24.87 C 194.62 25.71 200.94 32.54 201.49 35.00 C 202.32 38.73 198.87 43.46 192.79 46.95 C 187.63 49.90 187.58 49.98 190.66 49.99 C 193.35 50.00 193.73 50.30 193.27 52.07 C 192.74 54.10 192.81 54.11 196.60 52.52 C 198.73 51.63 202.68 49.49 205.37 47.77ZM 31.62 48.81 C 32.04 48.13 31.74 47.42 30.93 47.15 C 30.14 46.90 27.81 45.01 25.75 42.96 C 17.62 34.88 22.48 28.03 41.24 21.11 C 50.33 17.75 51.12 16.00 43.55 16.00 C 29.58 16.00 9.00 27.66 9.00 35.58 C 9.00 39.53 11.62 43.62 16.25 46.90 C 19.62 49.29 21.57 49.92 25.69 49.96 C 28.67 49.98 31.20 49.49 31.62 48.81ZM 151.54 12.38 C 152.89 11.50 154.00 10.44 154.00 10.04 C 154.00 8.77 129.24 6.99 111.75 6.99 C 102.54 7.00 95.00 7.25 95.00 7.57 C 95.00 7.88 95.47 9.00 96.04 10.07 C 96.99 11.84 98.35 12.01 112.79 12.13 C 121.43 12.20 131.88 12.58 136.00 12.97 C 148.10 14.11 148.95 14.08 151.54 12.38Z"/></g>
<g fill="#3E3B01FF">
<path d="M 57.17 2.25 C 86.69 2.10 135.29 2.10 165.17 2.25 C 195.05 2.40 170.90 2.52 111.50 2.52 C 52.10 2.52 27.65 2.40 57.17 2.25Z"/></g>
<g fill="#3E3B01FF">
<path d="M 2.46 44.50 C 2.46 21.40 2.59 12.09 2.75 23.82 C 2.91 35.54 2.91 54.44 2.75 65.82 C 2.59 77.19 2.46 67.60 2.46 44.50Z"/></g>
<g fill="#7E7A16FF">
<path d="M 129.00 56.25 C 129.00 55.84 137.89 55.62 148.75 55.76 C 186.03 56.24 189.46 56.58 159.25 56.79 C 142.61 56.90 129.00 56.66 129.00 56.25Z"/></g>
<g fill="#7E7A16FF">
<path d="M 26.31 56.25 C 33.35 56.08 44.60 56.08 51.31 56.25 C 58.01 56.43 52.25 56.57 38.50 56.57 C 24.75 56.57 19.26 56.42 26.31 56.25Z"/></g>
<g fill="#3E3B01FF">
<path d="M 106.25 60.26 C 109.41 60.06 114.59 60.06 117.75 60.26 C 120.91 60.46 118.33 60.62 112.00 60.62 C 105.67 60.62 103.09 60.46 106.25 60.26Z"/></g>
<g fill="#3E3B01FF">
<path d="M 106.29 65.26 C 109.47 65.06 114.42 65.06 117.29 65.26 C 120.15 65.47 117.55 65.63 111.50 65.63 C 105.45 65.62 103.10 65.46 106.29 65.26Z"/></g>
<g fill="#7E7A16FF">
<path d="M 90.75 56.26 C 93.64 56.06 98.36 56.06 101.25 56.26 C 104.14 56.46 101.78 56.63 96.00 56.63 C 90.22 56.63 87.86 56.46 90.75 56.26Z"/></g>
<g fill="#7E7A16FF">
<path d="M 199.20 71.25 C 199.09 67.21 198.56 64.00 198.00 64.00 C 197.45 64.00 197.00 63.45 197.00 62.79 C 197.00 61.98 197.52 62.09 198.55 63.12 C 199.73 64.30 200.01 66.32 199.75 71.59 L 199.39 78.50 L 199.20 71.25Z"/></g>
<g fill="#ACAA3EFF">
<path d="M 108.28 7.26 C 110.91 7.06 114.96 7.06 117.28 7.27 C 119.60 7.48 117.45 7.65 112.50 7.65 C 107.55 7.64 105.65 7.47 108.28 7.26Z"/></g>
<g fill="#7E7A16FF">
<path d="M 184.00 52.00 L 176.50 51.36 L 184.25 51.18 C 188.87 51.07 192.00 51.40 192.00 52.00 C 192.00 52.55 191.89 52.92 191.75 52.82 C 191.61 52.72 188.12 52.35 184.00 52.00Z"/></g>
<g fill="#7E7A16FF">
<path d="M 131.89 51.70 C 132.33 51.26 136.03 51.04 140.10 51.21 L 147.50 51.52 L 139.30 52.01 C 134.78 52.28 131.45 52.14 131.89 51.70Z"/></g>
<g fill="#7E7A16FF">
<path d="M 12.35 69.00 C 12.35 64.33 12.52 62.41 12.73 64.75 C 12.94 67.09 12.94 70.91 12.73 73.25 C 12.52 75.59 12.35 73.67 12.35 69.00Z"/></g>
<g fill="#7E7A16FF">
<path d="M 51.67 51.33 C 51.30 50.97 51.01 50.18 51.02 49.58 C 51.02 48.90 51.31 48.94 51.79 49.70 C 52.21 50.35 55.47 51.06 59.03 51.25 L 65.50 51.61 L 58.92 51.81 C 55.30 51.91 52.03 51.70 51.67 51.33Z"/></g>
<g fill="#7E7A16FF">
<path d="M 20.25 51.27 C 22.31 51.06 25.69 51.06 27.75 51.27 C 29.81 51.49 28.12 51.66 24.00 51.66 C 19.88 51.66 18.19 51.49 20.25 51.27Z"/></g>
<g fill="#7E7A16FF">
<path d="M 30.34 71.00 C 30.34 66.88 30.51 65.19 30.73 67.25 C 30.94 69.31 30.94 72.69 30.73 74.75 C 30.51 76.81 30.34 75.12 30.34 71.00Z"/></g>
<g fill="#7E7A16FF">
<path d="M 168.25 80.27 C 170.31 80.06 173.69 80.06 175.75 80.27 C 177.81 80.49 176.12 80.66 172.00 80.66 C 167.88 80.66 166.19 80.49 168.25 80.27Z"/></g>
<g fill="#7E7A16FF">
<path d="M 211.02 54.71 C 211.01 53.72 210.44 52.99 209.75 53.07 C 207.13 53.41 205.91 52.96 206.57 51.89 C 207.04 51.12 207.51 51.20 208.11 52.14 C 208.58 52.89 208.98 53.01 208.98 52.42 C 208.99 51.82 209.66 51.33 210.46 51.33 C 211.26 51.33 211.70 51.67 211.45 52.08 C 211.20 52.49 211.43 52.98 211.96 53.16 C 212.58 53.38 212.59 54.04 211.98 55.00 C 211.18 56.27 211.03 56.23 211.02 54.71Z"/></g>
<g fill="#7E7A16FF">
<path d="M 25.85 73.00 C 25.66 70.25 25.84 68.00 26.25 68.00 C 26.66 68.00 27.00 70.25 27.00 73.00 C 27.00 79.45 26.29 79.45 25.85 73.00Z"/></g>
<g fill="#7E7A16FF">
<path d="M 61.35 79.46 C 61.02 78.61 61.03 77.63 61.38 77.29 C 61.72 76.95 62.00 77.39 62.00 78.28 C 62.00 79.44 63.17 79.99 66.25 80.27 L 70.50 80.65 L 66.22 80.83 C 63.17 80.95 61.77 80.56 61.35 79.46Z"/></g>
<g fill="#7E7A16FF">
<path d="M 39.77 80.28 C 41.57 80.05 44.27 80.06 45.77 80.29 C 47.27 80.51 45.80 80.70 42.50 80.69 C 39.20 80.68 37.97 80.50 39.77 80.28Z"/></g>
</svg>
