<?xml version="1.0" encoding="utf-8"?>
<!DOCTYPE svg PUBLIC "-//W3C//DTD SVG 20010904//EN" "http://www.w3.org/TR/2001/REC-SVG-20010904/DTD/svg10.dtd">
<svg version="1.0" xmlns="http://www.w3.org/2000/svg" width="302pt" height="62pt" viewBox="0 0 302 62" preserveAspectRatio="xMidYMid meet">
<g fill="#FFED00FF">
<path d="M 48.36 49.05 C 40.84 47.25 34.89 41.50 32.43 33.66 L 31.13 29.50 L 31.07 34.75 L 31.00 40.00 L 23.00 40.00 L 15.00 40.00 L 14.99 33.75 C 14.99 30.31 14.52 25.80 13.94 23.72 C 12.77 19.50 7.90 13.42 4.94 12.48 C 3.40 11.99 3.00 10.94 3.00 7.42 L 3.00 2.97 L 6.75 4.49 C 12.03 6.62 19.19 14.61 21.17 20.57 L 22.81 25.50 L 22.90 21.95 C 22.96 20.00 23.54 17.86 24.20 17.20 C 25.94 15.46 28.74 15.73 29.95 17.75 C 30.95 19.42 31.05 19.42 32.05 17.75 C 33.36 15.57 37.58 15.46 38.39 17.58 C 38.73 18.45 39.00 21.71 39.00 24.83 C 39.00 34.53 43.62 40.60 51.84 41.70 C 55.91 42.25 56.00 42.35 56.00 46.13 C 56.00 50.36 55.18 50.67 48.36 49.05Z"/></g>
<g fill="#FFED00FF">
<path d="M 58.00 45.00 L 58.00 40.00 L 54.15 40.00 C 45.90 40.00 39.58 31.84 42.04 24.38 C 45.61 13.57 60.21 13.09 64.62 23.64 C 65.52 25.79 66.00 30.93 66.00 38.47 L 66.00 50.00 L 62.00 50.00 L 58.00 50.00 L 58.00 45.00Z"/></g>
<g fill="#1D1D1BFF">
<path d="M 245.80 27.00 C 246.08 14.10 245.96 12.99 244.30 12.90 C 243.03 12.83 243.24 12.56 245.00 12.00 C 249.98 10.41 249.88 10.15 250.20 26.00 L 250.50 41.00 L 248.00 41.00 L 245.50 41.00 L 245.80 27.00Z"/></g>
<g fill="#1D1D1BFF">
<path d="M 281.26 48.75 C 281.49 48.06 282.91 47.50 284.42 47.50 C 287.40 47.50 290.00 44.79 290.00 41.68 C 290.00 38.98 283.11 23.77 281.20 22.25 C 279.87 21.20 280.26 21.00 283.72 21.00 C 287.28 21.00 287.75 21.25 287.31 22.94 C 287.03 24.01 288.02 27.49 289.50 30.69 L 292.21 36.50 L 294.65 30.09 C 295.99 26.57 296.86 23.08 296.58 22.34 C 296.25 21.50 296.80 21.00 298.06 21.00 C 299.91 21.00 299.95 21.20 298.63 23.75 C 297.85 25.26 295.57 30.77 293.55 36.00 C 288.75 48.46 287.69 50.00 283.89 50.00 C 281.89 50.00 280.98 49.57 281.26 48.75Z"/></g>
<g fill="#1D1D1BFF">
<path d="M 192.80 49.80 C 194.34 48.26 194.40 39.00 192.88 39.00 C 192.09 39.00 192.11 38.57 192.96 37.55 C 193.73 36.62 194.05 33.55 193.83 29.10 C 193.55 23.10 193.75 22.03 195.25 21.64 C 196.86 21.22 197.00 22.36 197.00 35.51 C 197.00 46.03 197.33 49.97 198.25 50.34 C 198.94 50.62 197.72 50.88 195.55 50.92 C 192.48 50.98 191.87 50.73 192.80 49.80Z"/></g>
<g fill="#1D1D1BFF">
<path d="M 270.67 40.33 C 270.30 39.97 270.00 35.72 270.00 30.91 C 270.00 24.20 269.67 22.07 268.59 21.82 C 267.57 21.59 267.98 20.55 270.09 18.04 L 273.00 14.58 L 273.00 17.72 C 273.00 20.39 273.42 20.93 275.75 21.28 L 278.50 21.70 L 275.75 21.85 L 273.00 22.00 L 273.00 30.50 C 273.00 38.77 273.33 39.61 276.32 39.09 C 276.78 39.01 276.86 39.41 276.52 39.98 C 275.81 41.12 271.70 41.37 270.67 40.33Z"/></g>
<g fill="#1D1D1BFF">
<path d="M 134.61 39.42 C 134.27 38.55 134.00 34.31 134.00 29.99 C 134.00 24.55 133.62 22.05 132.75 21.82 C 131.96 21.62 132.50 20.45 134.25 18.62 L 137.00 15.75 L 137.00 18.31 C 137.00 20.33 137.57 20.95 139.75 21.28 L 142.50 21.70 L 139.75 21.85 L 137.00 22.00 L 137.00 29.88 C 137.00 37.90 138.38 41.12 141.11 39.43 C 141.87 38.96 142.05 39.12 141.60 39.85 C 140.52 41.58 135.31 41.26 134.61 39.42Z"/></g>
<g fill="#1D1D1BFF">
<path d="M 103.82 32.54 C 104.14 24.22 104.10 24.06 101.63 23.44 C 100.25 23.10 98.53 23.11 97.81 23.48 C 97.09 23.85 97.37 23.44 98.44 22.57 C 100.89 20.59 104.38 20.55 105.99 22.49 C 106.67 23.31 107.53 27.81 107.89 32.49 L 108.55 41.00 L 106.03 41.00 L 103.50 41.00 L 103.82 32.54Z"/></g>
<g fill="#1D1D1BFF">
<path d="M 181.40 38.90 C 180.02 37.36 179.50 35.30 179.50 31.31 C 179.50 26.54 179.87 25.51 182.31 23.41 C 183.85 22.09 185.87 21.03 186.81 21.06 C 188.12 21.11 188.03 21.32 186.41 21.97 C 179.74 24.67 181.68 39.00 188.71 39.00 C 190.06 39.00 190.85 39.44 190.50 40.00 C 189.37 41.84 183.41 41.11 181.40 38.90Z"/></g>
<g fill="#1D1D1BFF">
<path d="M 204.87 39.35 C 204.06 38.38 203.29 34.27 203.00 29.35 C 202.55 21.87 202.68 21.00 204.25 21.00 C 205.74 21.00 206.00 21.97 206.00 27.43 C 206.00 30.97 206.46 35.07 207.02 36.55 C 207.87 38.79 208.52 39.15 210.99 38.79 C 213.36 38.44 213.73 38.62 212.85 39.68 C 211.32 41.53 206.52 41.33 204.87 39.35Z"/></g>
<g fill="#1D1D1BFF">
<path d="M 91.83 33.45 C 92.18 25.42 91.25 23.00 87.82 23.00 C 86.75 23.00 86.16 22.55 86.50 22.00 C 87.51 20.37 92.44 20.86 94.03 22.75 C 95.06 23.98 95.50 26.95 95.50 32.75 C 95.50 40.34 95.34 41.00 93.50 41.00 C 91.65 41.00 91.52 40.45 91.83 33.45Z"/></g>
<g fill="#1D1D1BFF">
<path d="M 167.86 32.82 C 168.16 26.09 167.94 24.43 166.58 23.44 C 165.12 22.37 165.24 22.16 167.59 21.57 C 169.04 21.20 170.49 21.16 170.81 21.47 C 171.12 21.79 171.27 25.67 171.14 30.11 C 170.99 35.15 171.34 38.70 172.07 39.59 C 173.04 40.75 172.73 41.00 170.37 41.00 L 167.49 41.00 L 167.86 32.82Z"/></g>
<g fill="#1D1D1BFF">
<path d="M 79.84 33.49 C 80.10 28.43 79.81 25.48 78.97 24.46 C 77.53 22.73 77.67 22.50 80.75 21.56 C 82.44 21.04 83.00 21.27 83.00 22.49 C 83.00 23.53 83.45 23.84 84.25 23.37 C 85.15 22.83 85.12 23.08 84.17 24.26 C 83.25 25.39 82.94 28.23 83.17 33.45 C 83.48 40.47 83.36 41.00 81.48 41.00 C 79.60 41.00 79.49 40.48 79.84 33.49Z"/></g>
<g fill="#1D1D1BFF">
<path d="M 258.85 32.88 C 259.13 26.87 258.88 24.54 257.89 23.93 C 256.33 22.97 256.69 22.50 259.75 21.56 C 261.97 20.88 262.00 21.00 262.00 29.73 C 262.00 35.30 262.45 39.05 263.20 39.80 C 264.13 40.73 263.74 41.00 261.44 41.00 L 258.49 41.00 L 258.85 32.88Z"/></g>
<g fill="#1D1D1BFF">
<path d="M 215.89 39.27 C 215.83 38.30 215.87 34.45 215.98 30.71 C 216.10 26.57 215.71 23.35 214.97 22.46 C 213.96 21.24 214.19 21.00 216.38 21.00 L 219.00 21.00 L 219.00 30.00 C 219.00 37.73 219.23 39.00 220.67 39.00 C 222.90 39.00 222.11 39.57 218.75 40.38 C 216.56 40.90 215.98 40.68 215.89 39.27Z"/></g>
<g fill="#1D1D1BFF">
<path d="M 236.46 39.93 C 236.09 39.34 235.08 39.14 234.20 39.47 C 232.82 40.00 232.84 39.84 234.31 38.21 C 235.50 36.89 236.00 34.60 235.98 30.42 C 235.97 24.18 235.45 22.66 233.00 21.73 C 231.96 21.33 232.15 21.13 233.63 21.08 C 237.07 20.95 238.47 23.77 239.00 31.90 C 239.37 37.49 239.85 39.43 240.82 39.23 C 241.55 39.07 241.86 39.41 241.52 39.98 C 240.68 41.32 237.30 41.29 236.46 39.93Z"/></g>
<g fill="#1D1D1BFF">
<path d="M 157.17 39.96 C 161.72 37.31 161.43 25.82 156.75 22.54 L 154.55 21.00 L 156.69 21.00 C 160.07 21.00 164.00 26.45 164.00 31.15 C 164.00 34.24 163.33 35.82 161.08 38.08 C 159.47 39.68 157.56 40.99 156.83 40.97 C 155.95 40.95 156.06 40.61 157.17 39.96Z"/></g>
<g fill="#1D1D1BFF">
<path d="M 151.33 41.30 C 144.04 39.89 141.40 29.45 146.92 23.92 C 148.53 22.32 150.31 21.00 150.88 21.00 C 151.44 21.00 150.75 22.16 149.33 23.57 C 147.06 25.85 146.82 26.75 147.25 31.29 C 147.67 35.59 148.29 36.88 151.09 39.21 C 152.92 40.75 154.22 41.94 153.96 41.86 C 153.71 41.79 152.52 41.54 151.33 41.30Z"/></g>
<g fill="#1D1D1BFF">
<path d="M 125.29 39.27 C 129.35 34.69 127.81 24.06 122.79 22.05 L 120.50 21.13 L 122.83 21.06 C 124.13 21.03 126.44 22.29 128.08 23.92 C 132.91 28.75 131.70 36.99 125.70 40.14 C 123.55 41.26 123.54 41.24 125.29 39.27Z"/></g>
<g fill="#1D1D1BFF">
<path d="M 114.19 38.70 C 110.04 34.28 110.50 25.41 115.01 23.00 C 116.62 22.13 116.65 22.35 115.35 26.10 C 113.64 31.07 114.96 37.16 118.25 39.46 C 120.39 40.96 120.40 41.00 118.40 41.00 C 117.27 41.00 115.38 39.97 114.19 38.70Z"/></g>
<g fill="#1D1D1BFF">
<path d="M 56.72 50.26 L 65.94 49.93 L 66.25 36.71 L 66.56 23.50 L 66.78 37.25 L 67.00 51.00 L 57.25 50.79 L 47.50 50.58 L 56.72 50.26Z"/></g>
<g fill="#1D1D1BFF">
<path d="M 225.05 39.56 C 223.01 37.10 224.26 33.73 228.00 31.64 L 231.50 29.68 L 229.25 31.88 C 226.22 34.84 226.41 37.61 229.75 39.43 L 232.50 40.92 L 229.37 40.96 C 227.65 40.98 225.71 40.35 225.05 39.56Z"/></g>
<g fill="#555114FF">
<path d="M 56.15 45.69 C 56.47 41.74 56.32 41.41 54.37 41.78 C 53.19 42.00 51.91 41.66 51.51 41.02 C 51.01 40.20 51.79 39.95 54.15 40.18 C 57.38 40.49 57.51 40.66 57.80 45.25 C 58.00 48.35 57.71 50.00 56.95 50.00 C 56.20 50.00 55.92 48.48 56.15 45.69Z"/></g>
<g fill="#1D1D1BFF">
<path d="M 11.62 21.61 C 10.93 18.89 4.67 13.00 2.47 13.00 C 1.31 13.00 1.04 11.66 1.19 6.75 L 1.38 0.50 L 1.74 6.20 C 2.02 10.70 2.49 12.02 3.97 12.49 C 6.41 13.27 13.00 20.57 13.00 22.50 C 13.00 24.76 12.29 24.30 11.62 21.61Z"/></g>
<g fill="#E30613FF">
<path d="M 123.13 57.75 C 124.57 54.41 126.25 54.25 128.26 57.25 L 129.76 59.50 L 131.94 57.00 C 133.87 54.78 133.99 54.75 133.05 56.69 C 131.37 60.16 129.84 60.52 127.75 57.94 L 125.83 55.57 L 123.89 58.04 L 121.95 60.50 L 123.13 57.75Z"/></g>
<g fill="#E30613FF">
<path d="M 110.88 58.31 C 111.50 57.10 112.53 55.79 113.16 55.40 C 113.87 54.96 114.04 55.13 113.60 55.85 C 112.60 57.45 118.22 57.37 119.88 55.75 C 120.90 54.75 120.90 55.06 119.86 57.36 C 119.16 58.94 118.41 59.73 118.20 59.11 C 117.70 57.60 112.72 57.70 111.08 59.25 C 109.99 60.28 109.95 60.11 110.88 58.31Z"/></g>
<g fill="#555114FF">
<path d="M 18.28 40.26 C 20.91 40.06 24.96 40.06 27.28 40.27 C 29.60 40.48 27.45 40.65 22.50 40.65 C 17.55 40.64 15.65 40.47 18.28 40.26Z"/></g>
<g fill="#1D1D1BFF">
<path d="M 13.35 33.00 C 13.35 28.32 13.52 26.41 13.73 28.75 C 13.94 31.09 13.94 34.91 13.73 37.25 C 13.52 39.59 13.35 37.67 13.35 33.00Z"/></g>
<g fill="#1D1D1BFF">
<path d="M 225.00 25.32 C 225.00 23.45 228.73 20.40 229.76 21.43 C 230.08 21.74 229.84 22.00 229.24 22.00 C 228.63 22.00 228.00 22.98 227.82 24.17 C 227.42 26.87 225.00 27.86 225.00 25.32Z"/></g>
<g fill="#E30613FF">
<path d="M 169.00 59.69 C 169.00 58.97 169.66 57.51 170.47 56.44 C 172.09 54.30 172.54 55.61 171.01 58.00 C 170.25 59.19 170.72 59.63 173.28 60.12 L 176.50 60.74 L 172.75 60.87 C 170.26 60.96 169.00 60.56 169.00 59.69Z"/></g>
<g fill="#C6B907FF">
<path d="M 14.34 33.00 C 14.34 28.88 14.51 27.19 14.73 29.25 C 14.94 31.31 14.94 34.69 14.73 36.75 C 14.51 38.81 14.34 37.12 14.34 33.00Z"/></g>
<g fill="#1D1D1BFF">
<path d="M 15.06 9.57 C 13.23 7.68 10.43 5.59 8.84 4.93 C 7.24 4.27 6.13 3.53 6.38 3.29 C 7.21 2.45 12.52 5.85 15.95 9.41 C 17.84 11.39 19.17 13.00 18.89 13.00 C 18.62 13.00 16.89 11.46 15.06 9.57Z"/></g>
<g fill="#1D1D1BFF">
<path d="M 40.00 25.00 C 40.00 21.52 40.30 18.96 40.66 19.33 C 41.39 20.06 41.23 30.11 40.47 30.86 C 40.21 31.12 40.00 28.48 40.00 25.00Z"/></g>
<g fill="#E30613FF">
<path d="M 263.56 60.10 C 263.26 59.61 263.96 58.15 265.11 56.85 L 267.22 54.50 L 265.62 57.19 L 264.03 59.88 L 267.77 60.27 L 271.50 60.66 L 267.81 60.83 C 265.78 60.92 263.87 60.60 263.56 60.10Z"/></g>
<g fill="#E30613FF">
<path d="M 208.00 59.69 C 208.00 58.03 210.93 54.09 210.97 55.69 C 210.99 56.35 210.55 57.16 210.00 57.50 C 208.07 58.69 209.03 59.88 212.25 60.28 C 215.45 60.67 215.44 60.68 211.75 60.84 C 209.25 60.95 208.00 60.57 208.00 59.69Z"/></g>
<g fill="#E30613FF">
<path d="M 135.00 59.69 C 135.00 58.03 137.93 54.09 137.97 55.69 C 137.99 56.35 137.55 57.16 137.00 57.50 C 135.07 58.69 136.03 59.88 139.25 60.28 C 142.45 60.67 142.44 60.68 138.75 60.84 C 136.25 60.95 135.00 60.57 135.00 59.69Z"/></g>
<g fill="#8E850DFF">
<path d="M 47.51 39.99 C 47.84 39.44 47.64 38.94 47.06 38.88 C 46.48 38.81 45.57 38.69 45.05 38.62 C 43.54 38.43 41.74 36.27 42.66 35.76 C 43.12 35.51 44.96 36.31 46.74 37.55 C 49.25 39.28 49.63 39.93 48.44 40.38 C 47.56 40.72 47.16 40.55 47.51 39.99Z"/></g>
<g fill="#1D1D1BFF">
<path d="M 175.24 23.34 C 173.47 22.62 174.73 21.00 177.06 21.00 C 178.13 21.00 179.00 21.68 179.00 22.50 C 179.00 23.99 177.63 24.30 175.24 23.34Z"/></g>
<g fill="#1D1D1BFF">
<path d="M 31.14 37.50 C 31.13 33.90 31.22 33.74 32.10 35.95 C 32.64 37.29 33.63 39.09 34.29 39.95 C 35.34 41.29 35.28 41.33 33.85 40.21 C 32.50 39.15 32.10 39.15 31.68 40.21 C 31.39 40.92 31.15 39.70 31.14 37.50Z"/></g>
<g fill="#E30613FF">
<path d="M 88.08 59.44 C 88.04 58.86 88.66 57.51 89.47 56.44 C 90.28 55.37 90.95 55.03 90.97 55.68 C 90.99 56.33 92.01 57.06 93.25 57.29 C 94.92 57.62 94.69 57.76 92.33 57.86 C 90.59 57.94 88.94 58.56 88.66 59.25 C 88.38 59.94 88.12 60.02 88.08 59.44Z"/></g>
<g fill="#E30613FF">
<path d="M 156.56 60.10 C 156.26 59.61 156.94 58.15 158.06 56.85 L 160.12 54.50 L 158.49 57.18 L 156.86 59.86 L 160.18 60.27 L 163.50 60.68 L 160.31 60.84 C 158.55 60.93 156.87 60.60 156.56 60.10Z"/></g>
</svg>
