<?xml version="1.0" encoding="utf-8"?>
<!DOCTYPE svg PUBLIC "-//W3C//DTD SVG 20010904//EN" "http://www.w3.org/TR/2001/REC-SVG-20010904/DTD/svg10.dtd">
<svg version="1.0" xmlns="http://www.w3.org/2000/svg" width="199pt" height="71pt" viewBox="0 0 199 71" preserveAspectRatio="xMidYMid meet">
<g fill="#060300FE">
<path d="M 88.00 51.99 C 82.78 44.32 78.13 38.16 77.69 38.30 C 77.24 38.43 70.63 44.11 63.00 50.93 L 49.13 63.31 L 41.31 63.09 C 29.60 62.76 24.11 58.86 12.60 42.71 L 7.77 35.92 L 11.34 30.55 C 15.85 23.76 26.52 12.30 30.02 10.49 C 31.83 9.55 36.85 9.05 45.49 8.94 L 58.29 8.77 L 64.79 16.14 C 68.36 20.19 72.80 25.19 74.64 27.25 L 78.00 31.00 L 91.56 19.95 L 105.13 8.90 L 137.24 8.97 C 167.58 9.05 169.52 9.16 172.60 11.06 C 176.76 13.64 186.19 23.81 190.69 30.59 L 194.19 35.86 L 190.92 40.68 C 185.37 48.86 177.71 57.22 173.05 60.18 L 168.61 63.00 L 132.84 63.00 C 101.45 63.00 97.13 63.18 97.64 64.50 C 97.95 65.33 98.05 65.98 97.86 65.96 C 97.66 65.94 93.22 59.65 88.00 51.99ZM 59.38 48.83 C 64.81 41.64 69.42 35.02 69.64 34.13 C 69.85 33.23 67.39 27.55 64.19 21.50 L 58.35 10.50 L 45.53 10.22 C 33.05 9.95 32.59 10.01 28.86 12.60 C 24.77 15.43 18.63 22.26 12.64 30.64 L 8.97 35.78 L 14.86 43.64 C 20.80 51.57 27.81 58.82 31.50 60.84 C 32.60 61.45 37.10 61.93 41.50 61.92 L 49.50 61.91 L 59.38 48.83ZM 30.35 54.25 C 30.62 53.29 32.08 44.29 33.61 34.25 L 36.39 16.00 L 47.13 16.00 L 57.87 16.00 L 57.30 19.75 C 56.98 21.81 56.58 23.67 56.40 23.87 C 56.23 24.08 53.26 24.30 49.79 24.37 L 43.50 24.50 L 43.19 27.75 L 42.87 31.00 L 48.44 31.00 C 53.65 31.00 54.00 31.15 54.00 33.42 C 54.00 38.26 53.12 39.00 47.37 39.00 C 42.47 39.00 41.86 39.25 40.98 41.57 C 39.07 46.58 39.50 47.00 46.50 47.00 C 52.58 47.00 53.00 47.15 52.99 49.25 C 52.98 50.49 52.70 52.51 52.37 53.75 C 51.79 55.91 51.33 56.00 40.82 56.00 C 30.87 56.00 29.91 55.84 30.35 54.25ZM 172.60 59.16 C 177.30 55.74 183.07 49.53 188.84 41.72 L 193.10 35.95 L 190.87 32.72 C 185.65 25.17 178.33 16.74 174.16 13.49 L 169.67 10.00 L 137.09 10.05 L 104.50 10.10 L 95.20 22.04 L 85.90 33.98 L 90.37 46.24 C 92.82 52.98 95.14 59.29 95.52 60.25 C 96.16 61.87 98.87 62.00 132.46 62.00 L 168.70 62.00 L 172.60 59.16ZM 95.30 54.75 C 95.58 54.06 100.50 45.17 106.24 35.00 C 113.82 21.55 117.23 16.42 118.70 16.20 C 120.54 15.92 121.15 17.61 125.36 34.43 C 127.91 44.62 130.00 53.65 130.00 54.48 C 130.00 55.59 128.91 56.00 126.02 56.00 C 122.61 56.00 121.95 55.64 121.41 53.50 C 120.81 51.11 120.44 51.00 113.37 51.00 C 106.43 51.00 105.88 51.16 104.82 53.50 C 103.85 55.62 103.00 56.00 99.23 56.00 C 96.07 56.00 94.93 55.64 95.30 54.75ZM 118.98 42.25 C 118.97 41.84 118.39 39.28 117.68 36.57 L 116.40 31.64 L 113.70 36.25 C 112.22 38.78 111.00 41.34 111.00 41.93 C 111.00 42.52 112.80 43.00 115.00 43.00 C 117.20 43.00 118.99 42.66 118.98 42.25ZM 132.00 55.00 C 132.00 54.02 136.06 27.78 137.53 19.25 C 137.86 17.35 138.69 16.00 139.53 16.00 C 140.32 16.00 144.19 20.30 148.14 25.55 C 155.19 34.93 156.94 35.93 156.98 30.58 C 156.99 29.53 157.50 25.81 158.10 22.33 L 159.21 16.00 L 163.42 16.00 L 167.63 16.00 L 165.33 31.05 C 161.66 55.07 161.57 55.46 159.98 55.73 C 159.11 55.87 155.64 52.04 151.59 46.49 C 147.79 41.27 144.38 37.00 144.02 37.00 C 143.65 37.00 142.70 41.16 141.92 46.25 L 140.50 55.50 L 136.25 55.81 C 133.62 56.00 132.00 55.69 132.00 55.00Z"/></g>
<g fill="#FCEB0AFF">
<path d="M 97.25 60.37 C 96.56 60.07 96.00 59.20 96.00 58.42 C 96.00 57.44 97.20 57.00 99.88 57.00 C 102.93 57.00 104.13 56.46 105.41 54.50 C 106.88 52.26 107.72 52.00 113.50 52.00 C 119.56 52.00 120.00 52.16 120.59 54.50 C 121.21 56.95 121.40 57.00 130.98 57.00 L 140.74 57.00 L 141.86 52.75 C 142.48 50.41 143.10 46.73 143.24 44.58 C 143.38 42.42 143.95 40.54 144.50 40.39 C 145.05 40.25 147.07 42.11 149.00 44.53 C 150.93 46.95 153.29 49.92 154.25 51.12 C 155.21 52.32 156.00 53.67 156.00 54.12 C 156.00 55.55 160.10 57.18 161.83 56.43 C 162.75 56.04 164.70 55.81 166.16 55.92 C 169.44 56.18 170.11 54.45 169.58 47.08 C 169.31 43.23 169.62 41.24 170.66 40.20 C 171.59 39.27 171.78 38.38 171.18 37.78 C 170.58 37.18 170.81 35.35 171.80 32.83 C 173.09 29.54 173.15 28.46 172.10 26.79 C 171.15 25.27 171.12 24.48 171.98 23.63 C 172.83 22.79 172.93 22.98 172.39 24.41 C 171.88 25.75 172.01 26.11 172.83 25.61 C 173.47 25.21 174.00 23.96 174.00 22.82 C 174.00 21.26 173.52 20.89 172.00 21.29 C 170.70 21.63 170.00 21.32 170.00 20.41 C 170.00 19.63 170.90 19.00 172.00 19.00 C 175.07 19.00 174.38 17.54 170.68 16.20 C 166.35 14.64 159.51 14.66 158.26 16.25 C 157.71 16.94 157.02 20.36 156.72 23.87 C 156.42 27.37 155.74 30.66 155.22 31.18 C 154.62 31.78 152.50 29.65 149.46 25.39 C 143.38 16.88 141.50 15.00 139.00 15.00 C 137.55 15.00 137.00 15.67 137.00 17.43 C 137.00 18.77 136.56 21.04 136.01 22.46 C 135.47 23.89 134.97 26.51 134.89 28.28 C 134.81 30.05 134.39 32.85 133.95 34.50 C 133.34 36.81 132.38 43.88 132.02 48.83 C 131.97 49.62 129.50 48.25 129.48 47.42 C 129.46 46.91 128.93 44.48 128.28 42.00 C 127.07 37.35 125.80 31.68 125.88 31.26 C 125.90 31.13 125.26 29.16 124.46 26.89 C 123.66 24.61 123.00 21.77 123.00 20.57 C 123.00 19.36 122.40 17.55 121.66 16.54 C 119.44 13.51 115.81 15.23 112.83 20.71 C 111.40 23.35 107.51 30.45 104.17 36.50 C 100.84 42.55 97.43 48.74 96.60 50.25 C 95.77 51.76 94.72 53.00 94.26 53.00 C 93.81 53.00 92.82 50.86 92.07 48.25 C 91.32 45.64 90.39 43.05 90.00 42.50 C 89.61 41.95 89.05 40.60 88.76 39.50 C 88.47 38.40 87.93 36.79 87.57 35.93 C 86.95 34.41 89.03 31.42 101.27 16.26 L 105.50 11.01 L 136.98 11.01 L 168.46 11.00 L 172.98 14.11 C 177.28 17.08 183.71 24.23 188.86 31.76 C 190.87 34.70 191.05 35.60 190.07 37.74 C 188.40 41.42 177.70 54.02 173.29 57.50 L 169.50 60.50 L 134.00 60.70 C 114.47 60.81 97.94 60.66 97.25 60.37Z"/></g>
<g fill="#FCEB0AFF">
<path d="M 28.50 57.08 C 25.75 54.95 21.70 50.87 19.50 48.02 C 17.30 45.17 14.73 41.92 13.78 40.80 C 10.26 36.64 10.55 35.22 16.41 27.68 C 24.05 17.86 24.97 16.85 29.13 13.69 C 32.72 10.98 32.94 10.94 45.62 11.22 C 56.84 11.46 58.52 11.72 58.80 13.22 C 59.10 14.75 57.86 14.97 47.33 15.22 L 35.53 15.50 L 34.78 19.50 C 34.37 21.70 33.60 26.65 33.06 30.50 C 31.16 44.00 30.15 50.53 29.45 53.75 L 28.75 57.00 L 39.21 57.00 C 44.96 57.00 49.96 57.30 50.32 57.66 C 50.69 58.02 50.48 58.92 49.87 59.66 C 49.11 60.57 46.31 60.99 41.13 60.98 C 33.80 60.97 33.30 60.81 28.50 57.08Z"/></g>
<g fill="#FCEB0AFF">
<path d="M 51.75 65.23 C 49.19 64.68 49.60 63.96 55.32 59.11 C 58.17 56.69 64.00 51.41 68.29 47.36 C 72.57 43.31 76.71 40.00 77.50 40.00 C 78.29 40.00 79.46 41.01 80.10 42.25 C 81.21 44.36 88.36 54.36 91.56 58.26 C 92.35 59.23 93.00 60.47 93.00 61.01 C 93.00 61.56 93.41 62.00 93.91 62.00 C 94.41 62.00 94.71 62.79 94.56 63.75 C 94.33 65.35 92.54 65.50 73.90 65.56 C 62.68 65.59 52.71 65.44 51.75 65.23Z"/></g>
<g fill="#FCEB0AFF">
<path d="M 75.68 26.75 C 74.83 25.51 70.92 21.12 66.99 17.00 C 55.54 4.97 54.13 6.00 81.96 6.00 C 95.18 6.00 106.00 6.20 106.00 6.45 C 106.00 7.20 99.55 12.99 98.71 13.00 C 98.27 13.00 96.92 13.95 95.71 15.10 C 94.49 16.26 91.92 18.39 90.00 19.83 C 88.08 21.27 84.73 23.93 82.57 25.73 C 80.41 27.53 78.32 29.00 77.94 29.00 C 77.55 29.00 76.53 27.99 75.68 26.75Z"/></g>
<g fill="#FCEB0AFF">
<path d="M 54.19 51.00 C 54.60 46.86 53.35 46.00 46.87 46.00 C 41.21 46.00 40.88 45.87 41.18 43.75 C 41.46 41.79 42.23 41.43 47.21 40.99 C 50.35 40.71 53.40 40.00 53.98 39.42 C 55.03 38.37 55.74 31.41 54.89 30.56 C 54.65 30.32 52.08 30.01 49.18 29.88 C 44.48 29.66 43.94 29.41 44.20 27.57 C 44.46 25.77 45.31 25.46 50.74 25.20 C 56.62 24.92 57.02 24.75 57.56 22.20 C 59.01 15.43 59.44 15.35 62.74 21.19 C 64.45 24.22 66.56 28.40 67.43 30.49 C 69.01 34.26 69.00 34.29 65.72 38.39 C 63.91 40.65 61.69 43.62 60.78 45.00 C 59.88 46.38 57.97 48.85 56.54 50.50 L 53.94 53.50 L 54.19 51.00Z"/></g>
<g fill="#E8DF47FF">
<path d="M 102.55 13.75 L 105.24 10.00 L 136.87 10.24 L 168.50 10.47 L 137.06 10.75 L 105.62 11.03 L 102.74 14.26 L 99.86 17.50 L 102.55 13.75Z"/></g>
<g fill="#A99F16FF">
<path d="M 168.75 33.26 C 167.79 33.04 167.00 32.36 167.00 31.76 C 167.00 31.16 167.28 30.95 167.63 31.30 C 168.59 32.26 172.00 30.12 172.00 28.56 C 172.00 27.68 171.28 27.38 170.00 27.71 C 168.42 28.12 168.00 27.74 167.99 25.87 C 167.98 24.56 167.74 22.38 167.47 21.00 C 167.02 18.82 167.08 18.76 167.91 20.50 C 168.72 22.21 168.87 22.02 168.93 19.14 C 168.98 16.51 169.34 15.92 170.58 16.39 C 171.45 16.73 172.58 17.00 173.08 17.00 C 173.59 17.00 174.00 17.45 174.00 18.00 C 174.00 19.44 171.25 19.23 170.74 17.75 C 170.50 17.06 170.10 18.23 169.84 20.35 C 169.42 23.85 169.51 24.03 170.81 22.35 C 172.13 20.64 172.19 20.70 171.62 23.19 C 171.27 24.67 171.44 26.16 172.00 26.50 C 174.65 28.14 171.85 33.97 168.75 33.26Z"/></g>
<g fill="#615A04FE">
<path d="M 59.19 66.25 C 66.17 66.08 77.87 66.08 85.19 66.25 C 92.51 66.42 86.80 66.56 72.50 66.56 C 58.20 66.56 52.21 66.42 59.19 66.25Z"/></g>
<g fill="#A99F16FF">
<path d="M 69.25 5.25 C 76.26 5.08 87.74 5.08 94.75 5.25 C 101.76 5.42 96.03 5.57 82.00 5.57 C 67.97 5.57 62.24 5.42 69.25 5.25Z"/></g>
<g fill="#A1250DFF">
<path d="M 143.00 64.00 C 143.00 63.39 147.52 63.00 154.56 63.00 C 162.01 63.00 165.90 63.36 165.50 64.00 C 165.15 64.57 160.16 65.00 153.94 65.00 C 147.31 65.00 143.00 64.61 143.00 64.00Z"/></g>
<g fill="#388830FE">
<path d="M 98.00 63.96 C 98.00 62.71 117.82 62.90 118.60 64.16 C 118.88 64.62 114.37 65.00 108.56 65.00 C 101.93 65.00 98.00 64.61 98.00 63.96Z"/></g>
<g fill="#E8DF47FF">
<path d="M 41.50 56.97 L 32.50 56.31 L 42.48 56.29 C 51.41 56.28 52.52 56.08 52.98 54.39 C 53.27 53.35 54.10 52.37 54.84 52.22 C 55.70 52.04 55.41 53.02 54.02 54.97 C 52.83 56.64 51.56 57.91 51.18 57.81 C 50.81 57.71 46.45 57.33 41.50 56.97Z"/></g>
<g fill="#E8DF47FF">
<path d="M 39.75 10.26 C 43.19 10.06 48.81 10.06 52.25 10.26 C 55.69 10.45 52.88 10.61 46.00 10.61 C 39.12 10.61 36.31 10.45 39.75 10.26Z"/></g>
<g fill="#C2C5B4FF">
<path d="M 119.00 63.75 C 119.00 63.34 124.29 63.08 130.75 63.17 C 142.93 63.34 141.53 63.76 127.25 64.23 C 122.71 64.38 119.00 64.16 119.00 63.75Z"/></g>
<g fill="#615A04FE">
<path d="M 124.79 61.26 C 128.25 61.06 133.65 61.06 136.79 61.26 C 139.93 61.46 137.10 61.62 130.50 61.62 C 123.90 61.62 121.33 61.45 124.79 61.26Z"/></g>
<g fill="#A99F16FF">
<path d="M 166.67 55.33 C 166.30 54.97 166.03 53.95 166.07 53.08 C 166.12 51.92 166.37 52.03 167.00 53.50 C 167.86 55.49 168.00 55.17 168.00 51.25 C 168.00 49.37 165.52 50.77 164.89 53.00 L 164.20 55.50 L 164.10 52.75 C 164.04 51.24 164.34 49.94 164.75 49.87 C 168.91 49.17 170.00 49.41 170.00 51.05 C 170.00 54.84 168.32 56.99 166.67 55.33Z"/></g>
<g fill="#615A04FE">
<path d="M 41.25 15.26 C 44.41 15.06 49.59 15.06 52.75 15.26 C 55.91 15.46 53.33 15.62 47.00 15.62 C 40.67 15.62 38.09 15.46 41.25 15.26Z"/></g>
<g fill="#FDFEFDFF">
<path d="M 125.25 64.26 C 128.41 64.06 133.59 64.06 136.75 64.26 C 139.91 64.46 137.32 64.62 131.00 64.62 C 124.67 64.62 122.09 64.46 125.25 64.26Z"/></g>
<g fill="#FCEB0AFF">
<path d="M 114.21 41.13 C 113.29 40.56 113.30 39.67 114.23 37.20 C 115.78 33.09 116.53 33.15 116.82 37.42 C 117.07 41.06 116.17 42.34 114.21 41.13Z"/></g>
<g fill="#A99F16FF">
<path d="M 166.00 39.88 C 166.00 39.39 167.15 39.00 168.56 39.00 C 170.04 39.00 170.85 38.57 170.49 37.98 C 170.14 37.42 169.44 37.23 168.93 37.54 C 168.42 37.86 168.00 37.21 168.00 36.09 C 168.00 34.70 168.47 34.24 169.49 34.64 C 170.32 34.95 170.76 35.58 170.48 36.04 C 170.20 36.49 170.41 37.13 170.94 37.46 C 172.66 38.52 170.96 40.75 168.44 40.75 C 167.10 40.75 166.00 40.36 166.00 39.88Z"/></g>
<g fill="#FCEB0AFF">
<path d="M 165.43 36.75 C 165.66 35.51 165.88 33.95 165.93 33.28 C 165.97 32.61 166.69 32.33 167.53 32.65 C 168.62 33.07 168.76 33.59 168.01 34.49 C 167.43 35.18 167.25 36.48 167.59 37.37 C 168.01 38.46 167.68 39.00 166.61 39.00 C 165.50 39.00 165.14 38.32 165.43 36.75Z"/></g>
<g fill="#FCEB0AFF">
<path d="M 167.00 29.10 C 167.00 27.46 167.40 27.21 169.07 27.83 C 171.90 28.88 171.99 30.43 169.25 30.82 C 167.55 31.06 167.00 30.64 167.00 29.10Z"/></g>
<g fill="#A99F16FF">
<path d="M 156.73 61.28 C 158.50 61.06 161.65 61.05 163.73 61.27 C 165.80 61.49 164.35 61.67 160.50 61.67 C 156.65 61.68 154.95 61.50 156.73 61.28Z"/></g>
<g fill="#615A04FE">
<path d="M 46.98 39.28 C 49.99 39.06 52.84 38.34 53.30 37.69 C 53.90 36.86 54.03 36.95 53.75 38.00 C 53.45 39.10 51.78 39.52 47.42 39.59 L 41.50 39.69 L 46.98 39.28Z"/></g>
<g fill="#A99F16FF">
<path d="M 43.75 46.28 C 45.54 46.05 48.46 46.05 50.25 46.28 C 52.04 46.50 50.58 46.68 47.00 46.68 C 43.42 46.68 41.96 46.50 43.75 46.28Z"/></g>
<g fill="#FCEB0AFF">
<path d="M 165.07 53.31 C 164.99 50.84 166.07 49.80 167.66 50.82 C 168.30 51.22 168.41 52.31 167.93 53.50 L 167.14 55.50 L 167.00 53.50 L 166.86 51.50 L 166.00 53.50 C 165.17 55.43 165.14 55.42 165.07 53.31Z"/></g>
<g fill="#A99F16FF">
<path d="M 144.77 61.28 C 146.57 61.05 149.27 61.06 150.77 61.29 C 152.27 61.51 150.80 61.70 147.50 61.69 C 144.20 61.68 142.97 61.50 144.77 61.28Z"/></g>
<g fill="#615A04FE">
<path d="M 45.77 30.28 C 47.57 30.05 50.27 30.06 51.77 30.29 C 53.27 30.51 51.80 30.70 48.50 30.69 C 45.20 30.68 43.97 30.50 45.77 30.28Z"/></g>
</svg>
