<?xml version="1.0" encoding="utf-8"?>
<!DOCTYPE svg PUBLIC "-//W3C//DTD SVG 20010904//EN" "http://www.w3.org/TR/2001/REC-SVG-20010904/DTD/svg10.dtd">
<svg version="1.0" xmlns="http://www.w3.org/2000/svg" width="1002pt" height="562pt" viewBox="0 0 1002 562" preserveAspectRatio="xMidYMid meet">
<g fill="#F27C7CFF">
<path d="M 262.20 264.80 C 261.28 263.88 261.00 238.44 261.00 156.36 L 261.00 49.12 L 264.00 45.84 C 265.65 44.03 267.00 42.20 267.00 41.78 C 267.00 41.35 372.09 41.00 500.53 41.00 C 711.30 41.00 734.12 41.15 734.66 42.56 C 734.99 43.42 736.12 45.11 737.18 46.31 C 739.04 48.44 739.10 51.50 739.11 156.24 C 739.12 215.50 738.85 264.43 738.51 264.99 C 737.53 266.57 263.78 266.38 262.20 264.80ZM 737.71 263.25 C 738.15 262.29 738.27 213.73 738.00 155.35 L 737.50 49.20 L 734.23 45.60 L 730.95 42.00 L 500.94 42.00 L 270.92 42.00 L 266.96 45.75 L 262.99 49.50 L 262.95 156.27 C 262.93 215.00 263.18 263.49 263.51 264.02 C 263.90 264.65 347.88 265.00 500.52 265.00 C 724.71 265.00 736.97 264.91 737.71 263.25ZM 312.11 226.29 C 309.15 224.76 305.67 222.12 304.38 220.43 C 298.98 213.36 299.00 213.61 299.00 148.12 C 299.00 92.40 299.14 87.22 300.75 84.03 C 301.78 82.00 303.54 80.28 305.00 79.88 C 306.38 79.50 313.93 79.15 321.79 79.10 C 337.70 78.99 340.00 79.69 341.93 85.22 C 342.63 87.25 343.00 104.84 343.00 136.96 C 343.00 175.42 343.27 185.99 344.31 187.40 C 346.06 189.80 350.14 189.12 351.59 186.20 C 352.41 184.55 352.68 170.24 352.52 135.70 C 352.40 109.19 352.60 86.38 352.95 85.00 C 353.33 83.54 355.04 81.75 357.05 80.70 C 360.02 79.16 362.65 78.95 375.84 79.20 L 391.18 79.50 L 393.59 82.31 L 396.00 85.11 L 396.00 147.94 C 396.00 196.11 395.71 211.44 394.75 213.64 C 392.50 218.76 389.78 222.05 385.10 225.31 L 380.50 228.50 L 349.00 228.79 L 317.50 229.08 L 312.11 226.29ZM 382.76 225.20 C 387.72 222.58 392.67 216.25 393.79 211.10 C 394.22 209.12 394.55 180.26 394.54 146.96 C 394.50 90.72 394.37 86.22 392.73 83.71 L 390.95 81.00 L 374.67 81.00 C 359.66 81.00 358.21 81.16 356.19 83.04 L 354.00 85.08 L 354.00 135.40 C 354.00 184.80 353.96 185.78 351.93 188.37 C 349.34 191.66 346.62 191.71 343.45 188.55 L 341.00 186.09 L 341.00 135.58 L 341.00 85.08 L 338.81 83.04 C 336.80 81.17 335.34 81.00 320.81 81.00 C 306.33 81.00 304.83 81.17 303.00 83.00 C 301.04 84.96 301.00 86.32 301.02 148.75 L 301.03 212.50 L 303.27 216.46 C 306.09 221.43 312.15 225.75 318.00 226.95 C 320.48 227.46 335.10 227.78 350.50 227.67 C 377.43 227.47 378.66 227.37 382.76 225.20ZM 408.71 226.61 L 406.00 224.10 L 406.00 209.16 C 406.00 188.48 404.87 189.57 426.53 189.27 C 437.27 189.12 443.74 188.63 444.62 187.90 C 446.38 186.44 446.48 176.63 444.75 175.23 C 444.06 174.67 438.55 174.04 432.50 173.83 C 422.96 173.50 420.95 173.12 417.39 170.98 C 412.73 168.17 408.54 163.56 407.03 159.57 C 406.40 157.93 406.00 144.74 406.00 126.05 L 406.00 95.23 L 409.25 90.43 C 416.29 80.06 419.06 79.29 450.10 79.07 C 477.39 78.87 479.92 79.33 481.70 84.72 C 482.42 86.93 482.62 101.39 482.08 113.25 C 482.04 114.21 481.10 115.90 480.00 117.00 C 478.19 118.81 476.67 119.00 464.06 119.00 C 456.29 119.00 449.86 119.42 449.53 119.95 C 448.51 121.60 448.60 132.00 449.63 133.03 C 450.18 133.58 455.54 134.14 461.56 134.28 C 473.28 134.57 475.80 135.36 481.67 140.65 C 483.41 142.22 485.77 145.29 486.92 147.49 C 488.90 151.27 489.00 153.01 489.00 182.12 L 489.00 212.77 L 485.75 217.61 C 483.96 220.26 480.55 223.80 478.17 225.47 L 473.83 228.50 L 442.63 228.81 L 411.43 229.13 L 408.71 226.61ZM 475.62 225.25 C 477.89 224.06 480.95 221.66 482.41 219.92 C 487.79 213.54 488.00 212.05 488.00 181.34 C 488.00 153.15 487.98 152.90 485.54 148.08 C 484.19 145.42 481.17 141.72 478.84 139.87 C 474.64 136.54 474.44 136.49 462.21 136.00 C 447.90 135.42 447.00 134.88 447.00 126.74 C 447.00 118.06 447.11 118.00 462.58 118.00 C 475.59 118.00 476.18 117.91 478.55 115.55 C 480.92 113.17 481.00 112.62 481.00 99.12 C 481.00 79.71 483.16 81.00 450.62 81.01 C 436.00 81.01 423.90 81.45 421.68 82.07 C 416.51 83.51 410.64 89.03 408.60 94.39 C 407.13 98.23 406.95 102.62 407.21 128.73 L 407.50 158.68 L 410.43 162.90 C 412.04 165.22 415.42 168.34 417.93 169.81 C 422.09 172.26 423.47 172.51 433.31 172.59 C 446.50 172.71 447.28 173.23 447.40 181.91 C 447.52 190.75 447.11 190.93 427.25 190.97 C 406.02 191.01 407.00 190.17 407.00 208.42 C 407.00 215.80 407.29 222.60 407.65 223.53 C 409.00 227.06 412.97 227.50 442.61 227.46 C 470.26 227.42 471.68 227.33 475.62 225.25ZM 501.45 226.35 C 500.10 224.90 498.99 222.99 498.99 222.10 C 498.98 221.22 498.98 192.68 499.00 158.69 L 499.03 96.88 L 501.41 92.19 C 504.22 86.64 510.10 81.62 515.57 80.10 C 517.98 79.43 530.40 79.01 547.63 79.01 C 571.26 79.00 576.37 79.26 579.63 80.61 C 585.57 83.09 588.97 85.88 592.12 90.85 L 595.00 95.39 L 595.00 159.74 L 595.00 224.09 L 592.55 226.55 C 590.15 228.94 589.71 229.00 574.59 229.00 C 558.01 229.00 554.93 228.33 553.11 224.34 C 551.85 221.58 551.57 197.38 552.78 196.63 C 553.22 196.37 553.39 201.88 553.17 208.89 C 552.78 221.34 552.83 221.69 555.30 224.56 L 557.83 227.50 L 574.00 227.50 C 589.79 227.50 590.22 227.44 592.09 225.14 C 593.93 222.87 594.00 220.32 594.00 159.85 C 594.00 99.53 593.92 96.76 592.06 93.12 C 589.54 88.19 584.02 83.38 579.27 81.98 C 576.76 81.25 565.22 80.98 544.83 81.19 L 514.17 81.50 L 509.83 84.54 C 507.35 86.28 504.34 89.69 502.77 92.54 L 500.05 97.50 L 500.02 159.20 C 500.01 202.98 500.33 221.63 501.13 223.39 C 502.53 226.46 506.00 227.72 512.50 227.52 C 515.25 227.44 521.80 227.28 527.06 227.18 C 540.79 226.92 540.35 227.50 540.43 209.28 C 540.51 192.56 541.03 191.00 546.54 191.00 C 550.88 191.00 553.00 191.88 553.00 193.68 C 553.00 194.92 552.76 194.90 551.43 193.57 C 549.57 191.71 544.90 191.50 543.20 193.20 C 542.37 194.03 542.00 199.03 542.00 209.25 C 542.00 223.67 541.93 224.16 539.55 226.55 C 537.14 228.95 536.78 229.00 520.50 229.00 L 503.90 229.00 L 501.45 226.35ZM 618.33 226.49 C 615.49 225.07 611.98 222.35 610.53 220.45 C 604.86 213.02 605.00 214.69 605.02 154.28 C 605.04 100.33 605.11 98.35 607.08 94.00 C 609.42 88.83 612.99 84.80 618.00 81.68 C 621.39 79.57 622.59 79.49 655.27 79.19 L 689.03 78.88 L 692.02 81.86 L 695.00 84.85 L 694.99 98.67 C 694.98 106.28 694.72 113.46 694.40 114.63 C 693.39 118.39 689.94 119.00 669.51 119.00 C 655.08 119.00 649.92 119.32 649.34 120.25 C 648.16 122.15 648.99 186.26 650.22 187.75 C 650.78 188.44 652.29 189.00 653.56 189.00 C 654.84 189.00 656.25 188.44 656.69 187.75 C 657.14 187.06 657.73 175.82 658.00 162.78 C 658.64 132.49 657.16 134.63 677.77 134.17 C 695.35 133.78 699.33 134.63 700.91 139.16 C 701.62 141.20 701.99 154.24 701.98 176.40 C 701.96 208.36 701.83 210.78 699.95 214.92 C 697.72 219.84 693.83 223.96 688.83 226.68 C 685.85 228.31 682.23 228.53 654.50 228.79 L 623.50 229.08 L 618.33 226.49ZM 689.29 224.68 C 691.84 223.18 695.18 220.31 696.72 218.31 L 699.50 214.66 L 699.80 177.37 C 700.08 140.95 700.04 140.04 698.05 138.05 C 696.16 136.16 694.78 136.00 680.00 136.00 C 665.33 136.00 663.83 136.17 662.00 138.00 C 659.61 140.39 659.75 138.55 659.98 164.50 C 660.17 184.66 660.09 185.62 658.01 188.25 C 655.34 191.65 652.65 191.74 649.45 188.55 L 647.00 186.09 L 647.00 153.17 C 647.00 125.95 647.25 120.04 648.42 119.07 C 649.39 118.26 656.26 117.83 670.01 117.69 C 695.52 117.45 693.88 118.75 693.66 98.92 C 693.51 85.40 693.40 84.74 691.14 82.91 C 688.92 81.12 686.78 81.00 656.01 81.00 C 619.91 81.00 619.11 81.12 613.06 87.19 C 606.82 93.46 607.00 91.43 607.00 154.42 C 607.00 197.42 607.31 212.61 608.22 214.70 C 610.20 219.25 615.27 223.91 620.56 226.04 C 625.17 227.89 627.47 228.00 655.07 227.71 L 684.65 227.40 L 689.29 224.68ZM 544.32 153.99 C 540.59 152.49 540.02 149.88 540.26 135.70 C 540.53 120.77 541.58 118.00 547.00 118.00 C 552.39 118.00 553.48 120.80 553.73 135.35 C 553.97 149.50 553.13 153.46 549.67 154.39 C 547.05 155.09 547.05 155.09 544.32 153.99ZM 551.39 151.42 C 551.73 150.55 552.00 143.61 552.00 135.99 C 552.00 124.73 551.71 121.85 550.43 120.57 C 548.21 118.35 545.38 118.62 543.56 121.22 C 541.57 124.06 541.27 149.87 543.20 151.80 C 544.98 153.58 550.67 153.31 551.39 151.42Z"/></g>
<g fill="#F03937FF">
<path d="M 263.51 264.02 C 263.18 263.49 262.93 215.00 262.95 156.27 L 262.99 49.50 L 266.96 45.75 L 270.92 42.00 L 500.94 42.00 L 730.95 42.00 L 734.23 45.60 L 737.50 49.20 L 738.00 155.35 C 738.27 213.73 738.15 262.29 737.71 263.25 C 736.97 264.91 724.71 265.00 500.52 265.00 C 347.88 265.00 263.90 264.65 263.51 264.02ZM 385.10 225.31 C 389.78 222.05 392.50 218.76 394.75 213.64 C 395.71 211.44 396.00 196.11 396.00 147.94 L 396.00 85.11 L 393.59 82.31 L 391.18 79.50 L 375.84 79.20 C 362.65 78.95 360.02 79.16 357.05 80.70 C 355.04 81.75 353.33 83.54 352.95 85.00 C 352.60 86.38 352.40 109.19 352.52 135.70 C 352.68 170.24 352.41 184.55 351.59 186.20 C 350.14 189.12 346.06 189.80 344.31 187.40 C 343.27 185.99 343.00 175.42 343.00 136.96 C 343.00 104.84 342.63 87.25 341.93 85.22 C 340.00 79.69 337.70 78.99 321.79 79.10 C 313.93 79.15 306.38 79.50 305.00 79.88 C 303.54 80.28 301.78 82.00 300.75 84.03 C 299.14 87.22 299.00 92.40 299.00 148.12 C 299.00 213.61 298.98 213.36 304.38 220.43 C 305.67 222.12 309.15 224.76 312.11 226.29 L 317.50 229.08 L 349.00 228.79 L 380.50 228.50 L 385.10 225.31ZM 478.17 225.47 C 480.55 223.80 483.96 220.26 485.75 217.61 L 489.00 212.77 L 489.00 182.12 C 489.00 153.01 488.90 151.27 486.92 147.49 C 485.77 145.29 483.41 142.22 481.67 140.65 C 475.80 135.36 473.28 134.57 461.56 134.28 C 455.54 134.14 450.18 133.58 449.63 133.03 C 448.60 132.00 448.51 121.60 449.53 119.95 C 449.86 119.42 456.29 119.00 464.06 119.00 C 476.67 119.00 478.19 118.81 480.00 117.00 C 481.10 115.90 482.04 114.21 482.08 113.25 C 482.62 101.39 482.42 86.93 481.70 84.72 C 479.92 79.33 477.39 78.87 450.10 79.07 C 419.06 79.29 416.29 80.06 409.25 90.43 L 406.00 95.23 L 406.00 126.05 C 406.00 144.74 406.40 157.93 407.03 159.57 C 408.54 163.56 412.73 168.17 417.39 170.98 C 420.95 173.12 422.96 173.50 432.50 173.83 C 438.55 174.04 444.06 174.67 444.75 175.23 C 446.48 176.63 446.38 186.44 444.62 187.90 C 443.74 188.63 437.27 189.12 426.53 189.27 C 404.87 189.57 406.00 188.48 406.00 209.16 L 406.00 224.10 L 408.71 226.61 L 411.43 229.13 L 442.63 228.81 L 473.83 228.50 L 478.17 225.47ZM 539.55 226.55 C 541.93 224.16 542.00 223.67 542.00 209.25 C 542.00 193.35 542.39 191.99 546.95 192.02 C 552.09 192.05 552.31 192.71 552.09 207.73 C 551.87 222.81 552.60 226.04 556.66 227.89 C 558.11 228.55 565.36 229.00 574.59 229.00 C 589.71 229.00 590.15 228.94 592.55 226.55 L 595.00 224.09 L 595.00 159.74 L 595.00 95.39 L 592.12 90.85 C 588.97 85.88 585.57 83.09 579.63 80.61 C 576.37 79.26 571.26 79.00 547.63 79.01 C 530.40 79.01 517.98 79.43 515.57 80.10 C 510.10 81.62 504.22 86.64 501.41 92.19 L 499.03 96.88 L 499.00 158.69 C 498.98 192.68 498.98 221.22 498.99 222.10 C 498.99 222.99 500.10 224.90 501.45 226.35 L 503.90 229.00 L 520.50 229.00 C 536.78 229.00 537.14 228.95 539.55 226.55ZM 543.20 151.80 C 541.27 149.87 541.57 124.06 543.56 121.22 C 545.38 118.62 548.21 118.35 550.43 120.57 C 551.71 121.85 552.00 124.73 552.00 135.99 C 552.00 143.61 551.73 150.55 551.39 151.42 C 550.67 153.31 544.98 153.58 543.20 151.80ZM 688.83 226.68 C 693.83 223.96 697.72 219.84 699.95 214.92 C 701.83 210.78 701.96 208.36 701.98 176.40 C 701.99 154.24 701.62 141.20 700.91 139.16 C 699.33 134.63 695.35 133.78 677.77 134.17 C 657.16 134.63 658.64 132.49 658.00 162.78 C 657.73 175.82 657.14 187.06 656.69 187.75 C 656.25 188.44 654.84 189.00 653.56 189.00 C 652.29 189.00 650.78 188.44 650.22 187.75 C 648.99 186.26 648.16 122.15 649.34 120.25 C 649.92 119.32 655.08 119.00 669.51 119.00 C 689.94 119.00 693.39 118.39 694.40 114.63 C 694.72 113.46 694.98 106.28 694.99 98.67 L 695.00 84.85 L 692.02 81.86 L 689.03 78.88 L 655.27 79.19 C 622.59 79.49 621.39 79.57 618.00 81.68 C 612.99 84.80 609.42 88.83 607.08 94.00 C 605.11 98.35 605.04 100.33 605.02 154.28 C 605.00 214.69 604.86 213.02 610.53 220.45 C 611.98 222.35 615.49 225.07 618.33 226.49 L 623.50 229.08 L 654.50 228.79 C 682.23 228.53 685.85 228.31 688.83 226.68ZM 495.21 183.03 C 495.23 163.71 494.96 147.63 494.62 147.29 C 494.28 146.95 493.66 147.00 493.25 147.42 C 491.97 148.70 491.77 214.70 493.04 217.08 C 493.66 218.23 494.39 218.94 494.67 218.66 C 494.96 218.38 495.20 202.34 495.21 183.03ZM 601.00 151.00 C 601.00 116.26 600.65 97.90 599.98 97.49 C 599.42 97.14 599.27 96.33 599.63 95.68 C 600.05 94.93 599.97 94.86 599.40 95.50 C 598.16 96.87 598.82 205.23 600.06 204.47 C 600.63 204.11 601.00 183.10 601.00 151.00ZM 349.12 136.86 C 349.08 110.81 349.04 88.49 349.02 87.25 C 349.01 85.93 348.38 85.00 347.50 85.00 C 346.19 85.00 346.00 91.20 346.00 134.83 C 346.00 162.24 346.31 184.97 346.68 185.35 C 348.83 187.49 349.18 180.39 349.12 136.86Z"/></g>
<g fill="#F03937FF">
<path d="M 386.00 518.99 C 379.68 518.59 350.86 518.20 321.96 518.13 L 269.42 518.00 L 266.17 515.25 L 262.91 512.50 L 262.94 396.07 C 262.95 326.64 263.34 279.26 263.88 278.72 C 265.02 277.58 736.10 277.70 737.24 278.84 C 738.35 279.95 738.33 340.07 737.22 341.18 C 736.69 341.71 687.73 341.96 618.91 341.79 L 501.50 341.50 L 493.51 338.64 C 475.37 332.16 467.51 326.86 450.37 309.54 C 435.01 294.02 429.28 290.11 415.00 285.42 C 405.60 282.34 387.79 281.14 377.47 282.91 C 368.98 284.36 360.03 286.96 358.00 288.57 C 357.18 289.22 354.48 290.71 352.00 291.88 C 345.48 294.97 336.13 300.83 329.49 306.00 C 315.80 316.64 299.49 332.42 296.60 337.82 C 296.11 338.75 293.81 341.75 291.50 344.50 C 287.80 348.89 284.69 353.67 278.95 363.77 C 278.09 365.27 276.41 368.07 275.20 370.00 C 271.22 376.36 272.59 385.70 277.91 388.45 C 281.94 390.54 286.20 390.40 294.52 387.91 C 298.36 386.77 305.10 385.00 309.50 383.99 C 313.90 382.98 319.30 381.46 321.50 380.62 C 323.70 379.78 326.37 379.07 327.43 379.04 C 328.49 379.02 332.32 378.10 335.93 377.00 C 343.99 374.55 351.86 372.49 363.00 369.92 C 377.47 366.57 382.46 369.05 389.28 383.00 C 390.76 386.02 393.14 392.28 394.57 396.89 C 396.79 404.05 397.13 406.73 396.84 415.09 C 396.51 424.69 396.43 424.97 393.11 428.38 C 389.80 431.80 380.04 435.81 371.00 437.47 C 369.07 437.82 365.93 438.72 364.00 439.46 C 362.07 440.21 357.35 441.59 353.50 442.53 C 349.65 443.47 343.12 445.06 339.00 446.07 C 317.70 451.28 302.46 456.09 299.27 458.61 C 296.96 460.44 296.60 461.48 296.56 466.43 C 296.50 471.76 296.73 472.33 300.00 475.06 C 301.93 476.67 306.43 479.89 310.00 482.22 C 313.57 484.55 316.73 486.69 317.01 486.98 C 319.12 489.16 340.88 499.86 349.60 503.00 C 358.99 506.40 375.97 510.71 382.50 511.36 C 407.12 513.82 405.97 513.79 418.61 512.18 C 438.07 509.69 455.54 498.80 468.17 481.29 C 473.57 473.80 479.90 466.99 486.87 461.17 C 492.49 456.47 507.31 448.67 513.59 447.11 C 515.74 446.58 519.52 445.38 522.00 444.44 C 526.12 442.89 535.46 442.74 632.00 442.63 L 737.50 442.50 L 737.76 477.55 L 738.03 512.60 L 735.21 515.30 L 732.40 518.00 L 572.45 518.44 C 484.48 518.69 409.12 519.08 405.00 519.31 C 400.88 519.54 392.32 519.40 386.00 518.99Z"/></g>
<g fill="#F9ACADFF">
<path d="M 485.99 435.49 C 484.93 434.21 485.01 432.91 486.46 428.12 C 487.96 423.18 488.15 419.52 487.76 403.90 C 487.27 384.39 485.30 372.72 480.84 362.83 C 479.68 360.25 479.00 357.44 479.33 356.58 C 480.08 354.63 484.19 354.54 487.80 356.38 C 489.28 357.13 494.30 358.51 498.95 359.45 C 506.61 360.98 518.00 361.13 621.96 361.04 C 720.61 360.95 736.80 361.14 738.51 362.39 C 740.40 363.76 740.52 365.24 740.80 391.02 C 741.05 414.38 740.87 418.55 739.52 420.60 L 737.95 423.00 L 636.23 423.00 C 550.06 423.01 533.05 423.24 525.00 424.53 C 514.19 426.26 504.99 429.05 497.00 433.01 C 489.10 436.93 487.49 437.29 485.99 435.49ZM 494.38 433.09 C 499.16 430.17 512.75 425.40 520.00 424.10 C 534.11 421.58 546.93 421.29 640.34 421.39 C 718.40 421.48 737.38 421.25 738.24 420.21 C 739.41 418.80 739.67 365.89 738.52 364.03 C 738.09 363.33 701.43 363.00 624.55 363.00 C 513.28 363.00 511.01 362.96 500.35 360.89 C 494.38 359.73 488.28 358.15 486.80 357.39 C 482.59 355.22 481.00 355.61 481.00 358.80 C 481.00 360.34 481.41 362.03 481.90 362.55 C 482.40 363.07 484.06 368.00 485.60 373.50 C 488.11 382.47 488.44 385.46 488.80 402.50 C 489.07 415.46 488.80 423.14 487.96 426.67 C 485.98 434.93 488.03 436.98 494.38 433.09Z"/></g>
<g fill="#F27C7CFF">
<path d="M 487.33 433.42 C 486.99 432.54 487.28 429.51 487.96 426.67 C 488.80 423.14 489.07 415.46 488.80 402.50 C 488.44 385.46 488.11 382.47 485.60 373.50 C 484.06 368.00 482.40 363.07 481.90 362.55 C 481.41 362.03 481.00 360.34 481.00 358.80 C 481.00 355.61 482.59 355.22 486.80 357.39 C 488.28 358.15 494.38 359.73 500.35 360.89 C 511.01 362.96 513.28 363.00 624.55 363.00 C 701.43 363.00 738.09 363.33 738.52 364.03 C 739.67 365.89 739.41 418.80 738.24 420.21 C 737.38 421.25 718.40 421.48 640.34 421.39 C 546.93 421.29 534.11 421.58 520.00 424.10 C 512.75 425.40 499.16 430.17 494.38 433.09 C 490.59 435.42 488.14 435.53 487.33 433.42ZM 494.85 431.18 C 498.25 428.83 510.39 424.55 520.00 422.30 C 526.85 420.70 536.52 420.52 632.29 420.25 C 734.29 419.95 737.10 419.90 737.79 418.04 C 738.18 416.99 738.27 404.74 738.00 390.82 L 737.50 365.50 L 622.00 365.00 C 496.58 364.46 506.61 364.89 488.25 359.28 C 485.36 358.40 482.76 357.90 482.48 358.19 C 482.20 358.47 482.64 360.01 483.48 361.60 C 484.31 363.20 484.99 365.28 484.99 366.24 C 485.00 367.20 485.91 370.35 487.03 373.24 C 489.90 380.68 491.47 403.10 490.18 418.08 C 489.63 424.36 488.87 430.29 488.49 431.25 C 487.52 433.65 491.30 433.61 494.85 431.18Z"/></g>
<g fill="#F27C7CFF">
<path d="M 399.00 492.87 C 382.15 491.75 360.99 486.21 344.62 478.65 C 340.65 476.82 336.24 475.03 334.82 474.67 C 331.92 473.94 330.38 471.22 331.97 469.63 C 333.11 468.49 339.48 466.61 348.00 464.91 C 351.02 464.30 354.30 463.38 355.29 462.85 C 356.28 462.32 360.10 461.24 363.79 460.46 C 395.32 453.76 406.63 447.82 413.49 434.37 C 416.45 428.57 416.48 428.31 416.35 413.50 C 416.25 403.35 415.72 396.88 414.70 393.50 C 413.87 390.75 412.52 386.25 411.72 383.50 C 409.64 376.46 401.92 363.28 396.91 358.25 C 394.59 355.91 389.79 352.63 386.26 350.96 C 380.72 348.34 378.64 347.91 371.10 347.83 C 365.45 347.77 361.15 348.25 358.93 349.20 C 355.86 350.51 349.30 352.32 332.00 356.61 C 323.57 358.70 313.81 361.55 310.68 362.84 C 309.14 363.48 307.00 364.00 305.93 364.00 C 302.09 364.00 303.76 360.57 313.01 349.50 C 322.72 337.88 335.27 326.39 346.06 319.26 C 351.25 315.83 355.97 312.68 356.54 312.26 C 359.25 310.29 371.06 304.98 375.86 303.57 C 385.92 300.63 405.78 302.05 413.63 306.29 C 421.51 310.53 427.17 314.34 431.86 318.56 C 437.07 323.25 449.15 338.46 454.04 346.50 C 457.00 351.37 462.00 361.82 462.00 363.14 C 462.00 363.68 462.93 366.15 464.07 368.65 C 466.37 373.71 468.42 383.58 470.22 398.32 C 471.31 407.29 471.21 409.35 469.07 422.32 C 462.88 459.72 449.97 479.71 425.50 489.78 C 417.99 492.87 411.11 493.67 399.00 492.87ZM 422.90 488.97 C 443.48 481.73 455.65 467.57 463.26 442.00 C 469.11 422.34 470.10 405.44 466.64 384.17 C 462.23 357.02 441.39 324.47 420.50 312.11 C 411.00 306.48 410.80 306.40 401.65 304.49 C 392.60 302.61 386.62 302.60 380.41 304.49 C 377.71 305.31 374.60 305.99 373.50 306.00 C 369.26 306.04 349.65 317.47 338.17 326.59 C 330.22 332.90 313.83 349.57 308.82 356.43 C 304.47 362.39 306.26 362.78 319.01 358.63 C 325.14 356.63 331.01 355.00 332.04 355.00 C 333.08 355.00 336.08 354.16 338.71 353.13 C 341.35 352.11 345.61 350.96 348.18 350.58 C 350.75 350.21 355.35 349.02 358.40 347.95 C 362.14 346.64 366.58 346.00 372.00 346.00 C 379.16 346.00 380.79 346.37 386.79 349.39 C 392.73 352.39 397.55 356.63 403.72 364.33 C 404.91 365.82 411.23 378.82 414.35 386.20 C 415.21 388.23 416.18 392.28 416.50 395.20 C 416.82 398.11 417.56 403.02 418.15 406.10 C 419.65 414.04 417.68 428.76 414.16 435.89 C 409.53 445.27 397.02 454.30 385.58 456.51 C 383.88 456.84 379.57 457.94 376.00 458.95 C 372.43 459.97 366.80 461.46 363.50 462.28 C 360.20 463.09 356.15 464.23 354.50 464.80 C 352.85 465.38 347.90 466.64 343.50 467.60 C 334.30 469.61 332.21 470.71 334.20 472.50 C 334.91 473.14 341.35 475.96 348.50 478.76 C 360.89 483.62 370.24 486.35 383.50 488.97 C 386.80 489.62 390.85 490.55 392.50 491.03 C 397.99 492.65 415.87 491.44 422.90 488.97Z"/></g>
<g fill="#F03937FF">
<path d="M 488.49 431.25 C 488.87 430.29 489.63 424.36 490.18 418.08 C 491.47 403.10 489.90 380.68 487.03 373.24 C 485.91 370.35 485.00 367.20 484.99 366.24 C 484.99 365.28 484.31 363.20 483.48 361.60 C 482.64 360.01 482.20 358.47 482.48 358.19 C 482.76 357.90 485.36 358.40 488.25 359.28 C 506.61 364.89 496.58 364.46 622.00 365.00 L 737.50 365.50 L 738.00 390.82 C 738.27 404.74 738.18 416.99 737.79 418.04 C 737.10 419.90 734.29 419.95 632.29 420.25 C 536.52 420.52 526.85 420.70 520.00 422.30 C 510.39 424.55 498.25 428.83 494.85 431.18 C 491.30 433.61 487.52 433.65 488.49 431.25Z"/></g>
<g fill="#F03937FF">
<path d="M 392.50 491.03 C 390.85 490.55 386.80 489.62 383.50 488.97 C 370.24 486.35 360.89 483.62 348.50 478.76 C 341.35 475.96 334.91 473.14 334.20 472.50 C 332.21 470.71 334.30 469.61 343.50 467.60 C 347.90 466.64 352.85 465.38 354.50 464.80 C 356.15 464.23 360.20 463.09 363.50 462.28 C 366.80 461.46 372.43 459.97 376.00 458.95 C 379.57 457.94 383.88 456.84 385.58 456.51 C 397.02 454.30 409.53 445.27 414.16 435.89 C 417.68 428.76 419.65 414.04 418.15 406.10 C 417.56 403.02 416.82 398.11 416.50 395.20 C 416.18 392.28 415.21 388.23 414.35 386.20 C 411.23 378.82 404.91 365.82 403.72 364.33 C 397.55 356.63 392.73 352.39 386.79 349.39 C 380.79 346.37 379.16 346.00 372.00 346.00 C 366.58 346.00 362.14 346.64 358.40 347.95 C 355.35 349.02 350.75 350.21 348.18 350.58 C 345.61 350.96 341.35 352.11 338.71 353.13 C 336.08 354.16 333.08 355.00 332.04 355.00 C 331.01 355.00 325.14 356.63 319.01 358.63 C 306.26 362.78 304.47 362.39 308.82 356.43 C 313.83 349.57 330.22 332.90 338.17 326.59 C 349.65 317.47 369.26 306.04 373.50 306.00 C 374.60 305.99 377.71 305.31 380.41 304.49 C 386.62 302.60 392.60 302.61 401.65 304.49 C 410.80 306.40 411.00 306.48 420.50 312.11 C 436.89 321.81 453.59 344.24 462.99 369.17 C 468.04 382.59 470.02 405.52 467.53 421.97 C 460.67 467.39 440.31 490.41 406.00 491.57 C 400.23 491.76 394.15 491.52 392.50 491.03Z"/></g>
<g fill="#F27C7CFF">
<path d="M 264.25 515.84 L 261.00 511.78 L 261.00 395.46 C 261.00 291.05 261.16 278.98 262.57 277.57 C 263.99 276.15 286.96 276.00 500.45 276.00 C 716.28 276.00 736.87 276.14 738.09 277.61 C 739.14 278.88 739.39 285.69 739.29 310.23 C 739.21 327.29 738.74 341.66 738.25 342.15 C 737.72 342.68 688.02 342.94 617.92 342.78 C 499.35 342.50 498.47 342.49 494.00 340.42 C 491.52 339.27 488.16 338.00 486.52 337.59 C 484.88 337.18 479.26 334.33 474.02 331.25 C 466.12 326.61 462.03 323.16 449.97 310.95 C 437.86 298.70 434.19 295.60 427.97 292.40 C 415.35 285.92 406.72 283.97 390.50 283.96 C 378.45 283.95 375.38 284.29 368.50 286.40 C 364.10 287.75 358.02 290.22 355.00 291.90 C 351.98 293.57 347.40 296.07 344.84 297.44 C 337.07 301.61 320.10 314.97 310.46 324.50 C 301.14 333.71 287.35 351.10 284.32 357.45 C 283.39 359.40 282.31 361.00 281.92 361.00 C 281.53 361.00 280.49 362.69 279.60 364.75 C 278.72 366.81 277.09 370.07 275.99 371.98 C 272.41 378.25 273.72 384.46 279.26 387.44 C 283.03 389.47 284.19 389.33 299.00 385.02 C 305.32 383.18 312.17 381.42 324.50 378.46 C 327.80 377.67 333.43 376.13 337.00 375.04 C 340.57 373.95 347.32 372.11 352.00 370.95 C 356.68 369.79 362.07 368.35 364.00 367.75 C 372.42 365.12 381.05 367.52 385.67 373.77 C 389.54 379.01 394.57 390.62 397.03 400.00 C 397.54 401.93 397.96 408.23 397.98 414.02 C 398.00 424.32 397.93 424.62 394.91 428.29 C 393.21 430.35 390.41 432.77 388.69 433.66 C 385.47 435.33 370.38 439.72 356.73 442.96 C 352.45 443.97 348.18 445.11 347.23 445.49 C 346.28 445.86 338.75 447.91 330.50 450.03 C 304.41 456.76 303.74 456.99 300.25 460.61 C 295.11 465.93 296.17 470.33 304.00 476.24 C 310.97 481.50 318.77 486.41 327.32 490.94 C 331.63 493.21 335.90 495.51 336.82 496.05 C 340.26 498.03 359.05 505.00 363.69 506.01 C 366.34 506.58 371.43 507.71 375.00 508.52 C 390.26 511.95 417.06 512.26 427.50 509.14 C 432.70 507.58 441.96 503.17 446.62 500.02 C 449.08 498.36 451.45 497.00 451.89 497.00 C 452.96 497.00 462.71 486.21 472.89 473.76 C 483.01 461.39 489.59 456.01 502.00 449.98 C 509.22 446.46 519.02 443.37 527.03 442.06 C 535.70 440.66 737.63 440.59 738.49 441.99 C 738.83 442.54 739.13 458.70 739.16 477.91 L 739.21 512.84 L 736.36 516.42 L 733.50 520.00 L 573.00 519.84 C 484.73 519.75 416.77 519.34 422.00 518.94 C 427.23 518.53 499.18 518.18 581.89 518.15 L 732.29 518.10 L 735.16 515.35 L 738.03 512.60 L 737.76 477.55 L 737.50 442.50 L 632.00 442.63 C 535.46 442.74 526.12 442.89 522.00 444.44 C 519.52 445.38 515.74 446.58 513.59 447.11 C 507.31 448.67 492.49 456.47 486.87 461.17 C 479.90 466.99 473.57 473.80 468.17 481.29 C 458.82 494.26 447.50 502.97 431.61 509.43 C 427.91 510.94 412.88 513.30 406.50 513.38 C 403.75 513.41 399.29 513.03 382.50 511.36 C 375.97 510.71 358.99 506.40 349.60 503.00 C 340.88 499.86 319.12 489.16 317.01 486.98 C 316.73 486.69 313.57 484.55 310.00 482.22 C 306.43 479.89 301.93 476.67 300.00 475.06 C 296.73 472.33 296.50 471.76 296.56 466.43 C 296.60 461.48 296.96 460.44 299.27 458.61 C 302.46 456.09 317.70 451.28 339.00 446.07 C 343.12 445.06 349.65 443.47 353.50 442.53 C 357.35 441.59 362.07 440.21 364.00 439.46 C 365.93 438.72 369.07 437.82 371.00 437.47 C 380.04 435.81 389.80 431.80 393.11 428.38 C 396.43 424.97 396.51 424.69 396.84 415.09 C 397.13 406.73 396.79 404.05 394.57 396.89 C 393.14 392.28 390.76 386.02 389.28 383.00 C 382.46 369.05 377.47 366.57 363.00 369.92 C 351.86 372.49 343.99 374.55 335.93 377.00 C 332.32 378.10 328.49 379.02 327.43 379.04 C 326.37 379.07 323.70 379.78 321.50 380.62 C 319.30 381.46 313.90 382.98 309.50 383.99 C 305.10 385.00 298.36 386.77 294.52 387.91 C 286.20 390.40 281.94 390.54 277.91 388.45 C 272.59 385.70 271.22 376.36 275.20 370.00 C 276.41 368.07 278.09 365.27 278.95 363.77 C 284.69 353.67 287.80 348.89 291.50 344.50 C 293.81 341.75 296.11 338.75 296.60 337.82 C 299.49 332.42 315.80 316.64 329.49 306.00 C 336.13 300.83 345.48 294.97 352.00 291.88 C 354.48 290.71 357.18 289.22 358.00 288.57 C 360.03 286.96 368.98 284.36 377.47 282.91 C 387.79 281.14 405.60 282.34 415.00 285.42 C 429.28 290.11 435.01 294.02 450.37 309.54 C 467.51 326.86 475.37 332.16 493.51 338.64 L 501.50 341.50 L 618.91 341.79 C 687.73 341.96 736.69 341.71 737.22 341.18 C 738.33 340.07 738.35 279.95 737.24 278.84 C 736.10 277.70 265.02 277.58 263.88 278.72 C 263.34 279.26 262.95 326.64 262.94 396.07 L 262.91 512.50 L 266.17 515.25 L 269.42 518.00 L 321.96 518.13 C 350.86 518.20 379.68 518.58 386.00 518.96 C 392.40 519.35 368.66 519.71 332.50 519.78 L 267.50 519.90 L 264.25 515.84Z"/></g>
<g fill="#F9ACADFF">
<path d="M 400.60 267.25 C 300.70 267.06 262.32 266.68 261.35 265.87 C 260.23 264.95 260.00 246.16 260.00 156.95 L 260.00 49.15 L 262.50 46.18 C 263.87 44.55 265.00 42.71 265.00 42.11 C 265.00 41.50 265.45 41.00 266.00 41.00 C 267.71 41.00 267.12 42.43 264.00 45.84 L 261.00 49.12 L 261.00 156.36 C 261.00 238.44 261.28 263.88 262.20 264.80 C 263.78 266.38 737.53 266.57 738.51 264.99 C 738.85 264.43 739.12 215.50 739.11 156.24 C 739.10 51.50 739.04 48.44 737.18 46.31 C 734.80 43.59 733.75 41.00 735.03 41.00 C 735.56 41.00 736.00 41.65 736.00 42.45 C 736.00 43.25 736.61 44.26 737.35 44.70 C 738.10 45.14 739.22 46.48 739.85 47.68 C 741.32 50.47 741.48 262.69 740.02 265.00 C 739.19 266.31 726.48 266.56 638.79 267.00 C 583.63 267.27 476.44 267.39 400.60 267.25Z"/></g>
<g fill="#F9ACADFF">
<path d="M 265.00 519.05 C 265.00 518.53 263.88 516.89 262.50 515.41 L 260.00 512.71 L 260.00 395.51 C 260.00 283.24 260.08 278.24 261.83 276.65 C 263.52 275.12 281.53 275.00 500.67 275.00 C 729.88 275.00 737.75 275.06 739.36 276.85 C 740.85 278.49 741.03 282.11 740.97 310.26 C 740.92 335.07 740.63 342.06 739.59 342.92 C 737.83 344.39 507.73 344.54 500.50 343.08 C 490.48 341.05 472.41 333.09 470.37 329.80 C 469.97 329.15 471.19 329.56 473.07 330.72 C 478.96 334.33 486.24 338.00 487.52 338.00 C 488.19 338.00 490.94 339.01 493.62 340.25 L 498.50 342.50 L 617.92 342.78 C 688.02 342.94 737.72 342.68 738.25 342.15 C 738.74 341.66 739.21 327.29 739.29 310.23 C 739.39 285.69 739.14 278.88 738.09 277.61 C 736.87 276.14 716.28 276.00 500.45 276.00 C 286.96 276.00 263.99 276.15 262.57 277.57 C 261.16 278.98 261.00 291.06 261.00 395.54 L 261.00 511.93 L 264.00 515.35 C 267.18 518.97 267.62 520.00 266.00 520.00 C 265.45 520.00 265.00 519.57 265.00 519.05Z"/></g>
<g fill="#F9ACADFF">
<path d="M 734.59 518.75 C 734.98 518.06 736.18 516.52 737.26 515.32 C 739.12 513.25 739.21 511.52 739.16 478.06 C 739.13 458.77 738.83 442.54 738.49 441.99 C 737.63 440.59 535.70 440.66 527.03 442.06 C 519.02 443.37 509.22 446.46 502.00 449.98 C 489.59 456.01 483.01 461.39 472.89 473.76 C 462.71 486.21 452.96 497.00 451.89 497.00 C 451.45 497.00 449.11 498.34 446.68 499.98 C 433.04 509.19 416.02 512.95 396.50 511.09 C 389.07 510.38 389.47 510.32 402.00 510.32 C 419.55 510.33 426.26 508.98 438.73 502.94 C 449.76 497.60 459.68 489.32 466.80 479.50 C 480.26 460.97 494.29 450.48 514.50 443.85 C 528.29 439.32 535.54 439.04 639.25 439.02 C 736.27 439.00 737.02 439.02 739.04 441.04 C 741.02 443.02 741.07 444.00 740.79 477.96 C 740.50 512.57 740.48 512.86 738.25 515.24 C 737.01 516.55 736.00 518.16 736.00 518.81 C 736.00 519.47 735.52 520.00 734.94 520.00 C 734.36 520.00 734.20 519.44 734.59 518.75Z"/></g>
<g fill="#F9ACADFF">
<path d="M 318.00 226.95 C 312.15 225.75 306.09 221.43 303.27 216.46 L 301.03 212.50 L 301.02 148.75 C 301.00 86.32 301.04 84.96 303.00 83.00 C 304.83 81.17 306.33 81.00 320.81 81.00 C 335.34 81.00 336.80 81.17 338.81 83.04 L 341.00 85.08 L 341.00 135.58 L 341.00 186.09 L 343.45 188.55 C 346.62 191.71 349.34 191.66 351.93 188.37 C 353.96 185.78 354.00 184.80 354.00 135.40 L 354.00 85.08 L 356.19 83.04 C 358.20 81.16 359.66 81.00 374.57 81.00 C 387.89 81.00 390.98 81.27 392.03 82.53 C 393.14 83.88 392.97 83.94 390.58 83.03 C 389.09 82.46 381.47 82.00 373.66 82.00 C 362.41 82.00 358.98 82.33 357.22 83.56 L 355.00 85.11 L 355.00 135.11 C 355.00 177.03 354.76 185.56 353.54 187.93 C 350.93 192.98 346.35 193.39 342.59 188.92 L 340.00 185.85 L 340.00 136.15 C 340.00 92.78 339.80 86.16 338.44 84.22 C 336.95 82.09 336.26 82.00 321.55 82.00 C 308.43 82.00 305.91 82.25 304.08 83.75 L 301.94 85.50 L 302.22 149.68 C 302.50 212.74 302.54 213.90 304.56 216.62 C 305.70 218.14 308.33 220.76 310.41 222.44 L 314.18 225.50 L 346.21 225.79 C 376.72 226.07 378.42 225.99 382.12 224.06 C 384.25 222.94 387.41 220.56 389.13 218.77 L 392.26 215.50 L 389.78 219.00 C 388.41 220.93 385.32 223.62 382.90 225.00 C 378.52 227.49 378.37 227.50 350.50 227.69 C 335.10 227.79 320.48 227.46 318.00 226.95Z"/></g>
<g fill="#F9ACADFF">
<path d="M 543.32 154.99 C 539.67 153.52 539.00 150.75 539.00 137.02 C 539.00 120.46 540.47 116.93 547.33 117.03 C 553.35 117.12 555.00 121.65 555.00 138.11 C 555.00 150.56 554.90 151.19 552.55 153.55 C 550.02 156.07 547.12 156.53 543.32 154.99ZM 549.67 154.39 C 553.13 153.46 553.97 149.50 553.73 135.35 C 553.48 120.80 552.39 118.00 547.00 118.00 C 541.58 118.00 540.53 120.77 540.26 135.70 C 540.02 149.88 540.59 152.49 544.32 153.99 C 547.05 155.09 547.05 155.09 549.67 154.39Z"/></g>
<g fill="#F9ACADFF">
<path d="M 504.26 226.70 C 503.14 226.20 501.73 224.70 501.11 223.35 C 500.33 221.64 500.01 202.47 500.02 159.20 L 500.05 97.50 L 502.77 92.54 C 504.34 89.69 507.35 86.28 509.83 84.54 L 514.17 81.50 L 544.83 81.19 C 565.22 80.98 576.76 81.25 579.27 81.98 C 584.02 83.38 589.54 88.19 592.06 93.12 C 593.92 96.76 594.00 99.53 594.00 159.85 C 594.00 218.73 593.89 222.92 592.22 224.98 C 590.61 226.97 589.31 227.22 578.97 227.59 C 570.20 227.91 568.09 227.75 570.00 226.93 C 571.38 226.34 575.42 225.94 579.00 226.04 C 588.55 226.31 589.70 226.16 591.43 224.43 C 592.82 223.03 593.00 215.78 593.00 159.67 L 593.00 96.48 L 589.75 91.55 C 587.67 88.40 584.88 85.78 582.00 84.26 C 577.51 81.90 577.46 81.90 546.00 82.20 L 514.50 82.50 L 509.82 85.87 C 506.58 88.20 504.51 90.71 503.07 94.05 C 501.05 98.75 501.00 100.34 501.02 160.19 C 501.04 217.68 501.16 221.65 502.84 223.84 C 504.61 226.13 504.98 226.18 520.51 226.05 C 530.26 225.97 536.89 225.51 537.69 224.84 C 538.66 224.04 539.00 219.91 539.00 208.88 C 539.00 195.33 539.18 193.82 541.00 192.00 C 543.79 189.21 550.29 189.29 553.14 192.14 C 555.16 194.16 555.25 194.96 554.77 208.13 C 554.25 222.50 554.50 223.66 558.50 225.85 C 560.15 226.75 560.21 226.94 558.82 226.97 C 557.90 226.99 556.19 225.78 555.02 224.29 C 553.04 221.78 552.90 220.58 553.15 207.23 C 553.44 191.26 553.36 191.04 546.87 191.02 C 540.99 190.99 540.51 192.34 540.43 209.28 C 540.35 227.51 540.79 226.93 527.06 227.16 C 521.80 227.25 514.98 227.38 511.90 227.47 C 508.82 227.55 505.38 227.20 504.26 226.70Z"/></g>
<g fill="#F9ACADFF">
<path d="M 447.11 227.15 C 446.20 226.53 450.16 226.16 458.49 226.06 C 467.18 225.97 472.38 225.45 474.78 224.45 C 478.87 222.74 483.65 218.06 485.04 214.41 C 485.58 212.98 486.00 198.77 486.00 182.02 C 486.00 147.09 485.70 145.64 477.43 140.16 C 472.75 137.06 472.43 137.00 460.85 137.00 L 449.05 137.00 L 447.53 134.05 C 445.54 130.21 445.56 122.08 447.56 119.22 C 449.03 117.12 449.82 117.00 462.31 116.98 C 469.56 116.98 476.00 116.64 476.60 116.23 C 479.26 114.46 480.00 110.62 480.00 98.57 C 480.00 80.46 482.53 81.78 448.59 82.18 L 421.32 82.50 L 417.18 85.37 C 414.91 86.95 412.14 89.65 411.04 91.37 C 409.94 93.09 409.03 93.88 409.02 93.12 C 408.99 90.63 417.33 83.28 421.50 82.12 C 423.94 81.44 435.30 81.01 450.62 81.01 C 483.16 81.00 481.00 79.71 481.00 99.12 C 481.00 112.62 480.92 113.17 478.55 115.55 C 476.18 117.91 475.59 118.00 462.58 118.00 C 447.11 118.00 447.00 118.06 447.00 126.74 C 447.00 134.88 447.90 135.42 462.21 136.00 C 474.44 136.49 474.64 136.54 478.84 139.87 C 481.17 141.72 484.19 145.42 485.54 148.08 C 487.98 152.90 488.00 153.15 488.00 181.34 C 488.00 212.05 487.79 213.54 482.41 219.92 C 477.68 225.54 473.10 227.13 460.11 227.63 C 453.68 227.88 447.88 227.67 447.11 227.15Z"/></g>
<g fill="#F9ACADFF">
<path d="M 395.50 493.92 C 379.72 492.30 362.66 487.59 343.62 479.60 C 331.55 474.53 330.00 473.55 330.00 471.00 C 330.00 467.75 329.98 467.76 362.00 460.04 C 366.12 459.05 371.52 457.57 374.00 456.77 C 376.48 455.96 380.98 454.73 384.00 454.02 C 387.02 453.32 389.95 452.40 390.50 451.99 C 391.05 451.57 392.86 450.94 394.52 450.59 C 399.48 449.53 407.07 443.02 410.80 436.64 C 415.36 428.83 416.60 419.80 415.11 405.21 C 413.81 392.44 410.81 382.36 405.09 371.50 C 400.38 362.58 394.45 355.89 389.07 353.42 C 387.11 352.52 384.19 351.16 382.60 350.39 C 379.13 348.73 363.81 348.50 360.88 350.06 C 359.78 350.65 358.35 350.93 357.69 350.68 C 354.76 349.59 363.30 347.80 371.17 347.86 C 378.67 347.92 380.71 348.34 386.26 350.96 C 389.79 352.63 394.59 355.91 396.91 358.25 C 401.92 363.28 409.64 376.46 411.72 383.50 C 412.52 386.25 413.87 390.75 414.70 393.50 C 415.72 396.88 416.25 403.35 416.35 413.50 C 416.48 428.31 416.45 428.57 413.49 434.37 C 406.63 447.82 395.32 453.76 363.79 460.46 C 360.10 461.24 356.28 462.32 355.29 462.85 C 354.30 463.38 351.02 464.30 348.00 464.91 C 339.48 466.61 333.11 468.49 331.97 469.63 C 330.38 471.22 331.92 473.94 334.82 474.67 C 336.24 475.03 340.65 476.82 344.62 478.65 C 355.62 483.73 364.38 486.63 377.00 489.35 C 393.19 492.85 394.42 493.01 406.08 493.16 C 414.16 493.27 415.60 493.48 412.50 494.09 C 407.81 495.02 406.14 495.00 395.50 493.92Z"/></g>
<g fill="#F9ACADFF">
<path d="M 311.00 455.34 C 313.48 454.54 322.25 452.15 330.50 450.03 C 338.75 447.91 346.28 445.86 347.23 445.49 C 348.18 445.11 352.45 443.97 356.73 442.96 C 370.38 439.72 385.47 435.33 388.69 433.66 C 390.41 432.77 393.21 430.35 394.91 428.29 C 397.93 424.62 398.00 424.32 397.98 414.02 C 397.96 408.23 397.54 401.93 397.03 400.00 C 394.57 390.62 389.54 379.01 385.67 373.77 C 381.05 367.52 372.42 365.12 364.00 367.75 C 362.07 368.35 356.68 369.79 352.00 370.95 C 347.32 372.11 340.57 373.95 337.00 375.04 C 333.43 376.13 327.80 377.67 324.50 378.46 C 312.17 381.42 305.32 383.18 299.00 385.02 C 284.19 389.33 283.03 389.47 279.26 387.44 C 273.72 384.46 272.41 378.25 275.99 371.98 C 277.09 370.07 278.72 366.81 279.60 364.75 C 280.49 362.69 281.59 361.00 282.04 361.00 C 282.49 361.00 283.16 360.07 283.52 358.92 C 283.89 357.78 284.43 357.09 284.73 357.39 C 285.03 357.69 284.44 359.19 283.42 360.72 C 282.41 362.25 280.84 364.85 279.94 366.50 C 279.04 368.15 277.57 370.85 276.66 372.50 C 272.54 380.01 276.26 387.00 284.39 387.00 C 286.85 387.00 290.14 386.51 291.68 385.91 C 294.11 384.97 314.35 379.54 325.00 376.97 C 328.85 376.04 347.49 370.96 358.50 367.84 C 372.56 363.86 377.07 364.39 383.89 370.83 C 388.22 374.93 391.66 381.22 396.05 393.13 C 398.68 400.27 399.00 402.37 399.00 412.63 C 399.00 419.38 398.52 425.03 397.85 426.32 C 394.84 432.01 388.28 435.83 375.92 439.07 C 371.29 440.29 363.45 442.38 358.50 443.73 C 353.55 445.07 346.35 446.99 342.50 447.99 C 338.65 448.99 329.65 451.42 322.51 453.40 C 309.78 456.93 302.12 458.22 311.00 455.34Z"/></g>
<g fill="#EC1502FF">
<path d="M 346.68 185.35 C 346.31 184.97 346.00 162.24 346.00 134.83 C 346.00 91.20 346.19 85.00 347.50 85.00 C 348.38 85.00 349.01 85.93 349.02 87.25 C 349.42 125.44 348.97 184.43 348.28 185.12 C 347.78 185.62 347.06 185.73 346.68 185.35Z"/></g>
<g fill="#F9ACADFF">
<path d="M 303.01 364.51 C 300.94 362.02 302.76 359.30 317.00 343.64 C 331.12 328.11 346.93 315.47 359.68 309.52 C 361.43 308.70 363.11 307.62 363.42 307.13 C 363.73 306.63 367.70 304.98 372.24 303.47 C 379.28 301.12 382.13 300.72 391.50 300.74 C 400.82 300.75 403.51 301.14 409.12 303.29 C 415.86 305.86 423.31 310.07 424.48 311.97 C 424.84 312.55 422.96 311.67 420.31 310.03 C 414.21 306.23 411.79 305.19 405.04 303.43 C 397.74 301.52 382.62 301.59 375.86 303.57 C 371.06 304.98 359.25 310.29 356.54 312.26 C 355.97 312.68 351.25 315.83 346.06 319.26 C 329.74 330.04 304.00 356.77 304.00 362.93 C 304.00 364.47 308.03 364.23 311.36 362.49 C 312.94 361.67 314.84 361.00 315.59 361.00 C 316.34 361.00 319.78 360.14 323.23 359.09 C 335.44 355.37 352.53 350.99 354.50 351.09 C 356.98 351.20 352.26 352.56 318.50 361.47 C 315.75 362.20 311.83 363.51 309.78 364.40 C 305.20 366.37 304.56 366.38 303.01 364.51Z"/></g>
<g fill="#F9ACADFF">
<path d="M 411.40 226.57 C 409.69 225.83 408.01 224.46 407.65 223.53 C 407.29 222.60 407.00 215.80 407.00 208.42 C 407.00 190.17 406.02 191.01 427.25 190.97 C 447.11 190.93 447.52 190.75 447.40 181.91 C 447.28 173.23 446.50 172.71 433.31 172.59 C 423.47 172.51 422.09 172.26 417.93 169.81 C 415.42 168.34 412.04 165.22 410.43 162.90 L 407.50 158.68 L 407.21 128.32 C 407.05 111.63 407.27 97.33 407.71 96.55 C 408.14 95.77 408.36 108.80 408.20 125.50 C 407.91 154.05 408.01 156.10 409.85 159.68 C 412.21 164.27 416.39 168.24 420.58 169.89 C 422.27 170.56 428.45 171.20 434.32 171.32 C 447.66 171.61 448.50 172.21 448.50 181.62 C 448.50 191.61 447.73 192.00 428.11 192.00 C 406.93 192.00 408.00 191.10 408.00 208.93 C 408.00 224.43 408.08 224.61 415.38 226.65 C 418.38 227.49 418.82 227.82 417.00 227.86 C 415.62 227.90 413.10 227.31 411.40 226.57Z"/></g>
<g fill="#EC1502FF">
<path d="M 493.04 217.08 C 491.77 214.70 491.97 148.70 493.25 147.42 C 493.66 147.00 494.28 146.95 494.62 147.29 C 495.36 148.03 495.41 217.92 494.67 218.66 C 494.39 218.94 493.66 218.23 493.04 217.08Z"/></g>
<g fill="#EC1502FF">
<path d="M 598.81 150.77 C 598.63 119.68 598.88 96.07 599.40 95.50 C 599.97 94.86 600.05 94.93 599.63 95.68 C 599.27 96.33 599.42 97.14 599.98 97.49 C 601.32 98.32 601.39 203.64 600.06 204.47 C 599.47 204.83 599.00 184.49 598.81 150.77Z"/></g>
<g fill="#F9ACADFF">
<path d="M 607.61 213.42 C 607.27 212.55 607.00 185.98 607.00 154.39 C 607.00 91.43 606.82 93.46 613.06 87.19 C 619.11 81.12 619.92 81.00 655.90 81.00 C 683.84 81.00 688.88 81.22 690.78 82.56 C 692.00 83.41 693.00 84.62 693.00 85.23 C 693.00 85.85 691.93 85.34 690.62 84.11 L 688.24 81.88 L 654.87 82.19 C 625.74 82.46 621.11 82.72 618.40 84.20 C 613.95 86.63 609.20 92.42 608.51 96.23 C 608.18 98.03 608.04 125.49 608.21 157.25 C 608.37 189.01 608.44 215.00 608.36 215.00 C 608.28 215.00 607.94 214.29 607.61 213.42Z"/></g>
<g fill="#F9ACADFF">
<path d="M 623.50 227.06 C 622.23 226.48 632.96 226.11 652.76 226.07 C 682.31 226.00 684.25 225.89 688.26 223.92 C 690.59 222.78 693.85 220.23 695.50 218.25 L 698.50 214.66 L 698.80 177.85 C 699.00 152.52 698.75 140.33 697.99 138.77 C 696.92 136.56 696.93 136.55 698.49 138.50 C 699.90 140.27 700.05 144.81 699.79 177.58 L 699.50 214.66 L 696.72 218.31 C 695.18 220.31 691.84 223.18 689.29 224.68 L 684.65 227.40 L 655.07 227.69 C 638.56 227.85 624.62 227.57 623.50 227.06Z"/></g>
<g fill="#F9ACADFF">
<path d="M 392.41 213.70 C 392.72 212.71 393.02 183.24 393.07 148.20 C 393.13 113.17 393.50 85.36 393.91 86.42 C 395.21 89.81 394.36 211.56 393.03 213.66 C 391.94 215.36 391.89 215.37 392.41 213.70Z"/></g>
<g fill="#F9ACADFF">
<path d="M 650.74 191.31 C 646.39 190.17 646.00 186.96 646.00 152.25 C 646.00 117.78 646.10 116.98 650.45 117.01 C 652.28 117.03 652.24 117.16 650.00 118.29 L 647.50 119.56 L 647.24 152.81 L 646.97 186.06 L 649.44 188.53 C 652.65 191.74 655.34 191.66 658.00 188.27 C 660.07 185.65 660.14 184.73 659.89 163.52 C 659.62 140.10 660.04 137.52 664.28 136.48 C 665.50 136.17 673.25 136.07 681.50 136.24 L 696.50 136.56 L 680.40 136.78 C 666.25 136.97 664.11 137.22 662.65 138.83 C 661.22 140.42 661.00 143.63 661.00 163.25 L 661.00 185.85 L 658.41 188.92 C 655.92 191.88 654.56 192.31 650.74 191.31Z"/></g>
<g fill="#F9ACADFF">
<path d="M 424.50 490.14 C 449.37 480.21 462.02 461.48 468.63 424.80 C 471.45 409.17 471.42 400.02 468.53 386.50 C 466.41 376.57 466.78 374.04 469.04 383.00 C 470.09 387.12 471.23 395.00 471.58 400.50 C 473.12 424.54 463.42 458.18 450.63 473.11 C 443.65 481.27 424.94 493.08 419.19 492.97 C 418.26 492.95 420.65 491.67 424.50 490.14Z"/></g>
<g fill="#F9ACADFF">
<path d="M 451.16 313.25 C 436.45 298.53 434.80 297.20 425.96 292.87 C 411.51 285.80 406.06 284.69 388.38 285.22 C 372.20 285.71 369.29 286.39 356.00 292.84 C 346.66 297.37 345.91 297.64 348.90 295.44 C 353.37 292.15 360.47 288.88 368.50 286.41 C 375.40 284.28 378.43 283.95 390.50 283.96 C 406.73 283.97 415.34 285.91 428.00 292.42 C 434.22 295.62 437.89 298.69 449.50 310.44 C 457.20 318.22 464.85 325.57 466.50 326.77 C 468.15 327.96 468.91 328.95 468.20 328.97 C 467.48 328.99 459.81 321.91 451.16 313.25Z"/></g>
</svg>
