<?xml version="1.0" encoding="utf-8"?>
<!DOCTYPE svg PUBLIC "-//W3C//DTD SVG 20010904//EN" "http://www.w3.org/TR/2001/REC-SVG-20010904/DTD/svg10.dtd">
<svg version="1.0" xmlns="http://www.w3.org/2000/svg" width="1002pt" height="562pt" viewBox="0 0 1002 562" preserveAspectRatio="xMidYMid meet">
<g fill="#3E49A0FF">
<path d="M 249.00 282.80 L 249.00 189.00 L 258.00 189.00 C 264.48 189.00 267.03 189.35 267.11 190.25 C 267.16 190.94 267.28 193.97 267.36 197.00 C 267.49 202.22 267.64 202.52 270.25 202.82 C 272.17 203.04 274.29 202.13 277.25 199.81 C 286.30 192.72 295.13 189.94 310.59 189.30 C 319.24 188.94 322.50 189.18 325.46 190.42 C 327.54 191.29 330.20 192.01 331.37 192.01 C 334.38 192.03 344.41 197.30 350.78 202.21 C 359.77 209.16 366.34 218.48 371.05 231.00 C 373.27 236.88 373.49 238.94 373.44 252.50 L 373.38 267.50 L 369.61 276.19 C 367.54 280.97 365.21 285.41 364.43 286.06 C 363.64 286.71 363.00 287.82 363.00 288.53 C 363.00 290.68 349.06 302.87 342.23 306.69 C 335.11 310.67 324.65 313.78 315.50 314.64 C 303.52 315.77 285.37 310.42 276.01 303.01 C 272.20 299.99 268.65 299.14 267.51 300.98 C 267.18 301.52 266.94 317.72 266.97 336.97 C 267.01 356.23 266.78 373.02 266.46 374.29 C 265.92 376.47 265.42 376.60 257.44 376.60 L 249.00 376.60 L 249.00 282.80ZM 328.92 290.81 C 337.20 286.80 346.47 277.64 350.49 269.50 C 354.60 261.17 355.23 248.21 352.01 238.53 C 349.69 231.56 344.36 223.62 339.46 219.83 C 337.83 218.57 335.90 216.97 335.17 216.26 C 333.20 214.37 331.18 213.43 324.08 211.10 C 312.90 207.44 301.77 208.84 290.72 215.32 C 281.34 220.81 275.12 228.47 271.38 239.11 C 269.17 245.38 268.86 247.65 269.29 254.11 C 270.19 267.72 278.21 280.75 290.00 287.77 C 300.56 294.06 299.96 293.88 311.42 293.94 C 321.71 294.00 322.72 293.82 328.92 290.81Z"/></g>
<g fill="#B2B6D9FF">
<path d="M 284.04 354.07 C 283.47 353.00 283.00 348.30 283.00 343.62 C 283.00 335.96 283.22 334.96 285.22 333.56 C 287.22 332.16 317.52 332.00 587.22 332.00 C 882.50 332.00 887.03 332.03 888.94 333.94 C 891.56 336.56 891.82 351.43 889.30 354.22 C 887.76 355.92 874.06 356.00 586.38 356.00 C 289.51 356.00 285.06 355.97 284.04 354.07ZM 888.69 353.75 C 889.13 353.06 889.56 348.90 889.65 344.50 C 889.78 338.48 889.43 336.07 888.25 334.75 C 886.77 333.09 871.15 333.00 586.92 333.00 C 320.89 333.00 286.97 333.17 285.63 334.51 C 283.82 336.32 283.45 351.63 285.17 353.70 C 286.73 355.58 887.47 355.63 888.69 353.75Z"/></g>
<g fill="#8389BFFF">
<path d="M 285.17 353.70 C 283.45 351.63 283.82 336.32 285.63 334.51 C 286.97 333.17 320.89 333.00 586.92 333.00 C 871.15 333.00 886.77 333.09 888.25 334.75 C 889.43 336.07 889.78 338.48 889.65 344.50 C 889.56 348.90 889.13 353.06 888.69 353.75 C 887.47 355.63 286.73 355.58 285.17 353.70ZM 887.70 345.56 C 887.83 340.96 887.47 337.07 886.84 336.31 C 885.31 334.46 289.05 334.35 287.20 336.20 C 285.93 337.47 285.47 352.14 286.67 353.33 C 287.04 353.70 422.37 353.89 587.40 353.75 L 887.47 353.50 L 887.70 345.56Z"/></g>
<g fill="#8389BFFF">
<path d="M 484.40 310.89 C 483.42 309.81 482.98 307.60 483.14 304.60 C 483.51 297.41 482.02 296.89 475.12 301.75 C 467.12 307.39 453.05 312.00 443.81 312.00 C 437.15 312.00 429.70 310.77 425.50 308.98 C 424.40 308.51 422.38 307.82 421.00 307.45 C 415.73 306.01 406.87 299.65 400.19 292.50 C 385.35 276.61 379.88 256.12 384.52 233.82 C 386.92 222.25 392.18 212.93 401.74 203.30 C 406.27 198.74 410.50 195.00 411.16 195.00 C 411.81 195.00 413.05 194.36 413.92 193.58 C 415.68 191.99 422.30 189.39 428.75 187.75 C 431.09 187.15 433.00 186.06 433.00 185.33 C 433.00 184.31 435.34 184.00 443.00 184.00 C 450.81 184.00 453.00 184.30 453.00 185.37 C 453.00 186.19 454.55 186.99 456.84 187.36 C 462.00 188.18 469.69 191.64 474.14 195.14 C 479.59 199.41 481.00 199.00 481.00 193.11 C 481.00 189.57 481.44 188.05 482.58 187.61 C 485.51 186.48 500.55 186.95 501.80 188.20 C 502.71 189.11 503.00 204.06 502.98 249.45 C 502.98 282.48 502.64 310.01 502.23 310.63 C 501.83 311.26 497.99 311.94 493.70 312.16 C 487.36 312.47 485.62 312.23 484.40 310.89ZM 501.09 249.42 L 501.03 189.50 L 492.00 189.21 C 482.04 188.90 481.08 189.45 482.98 194.45 C 485.03 199.85 480.12 201.87 474.98 197.75 C 468.94 192.90 467.54 192.00 466.02 192.00 C 465.15 192.00 463.56 191.39 462.47 190.65 C 458.63 188.03 445.60 186.71 436.15 187.99 C 431.39 188.64 426.38 189.74 425.00 190.45 C 423.62 191.15 421.25 192.03 419.71 192.39 C 415.10 193.49 403.82 202.23 398.50 208.84 C 393.16 215.47 387.77 227.14 386.05 235.80 C 384.69 242.66 384.71 256.46 386.08 263.20 C 387.72 271.22 394.78 284.62 400.80 291.13 C 407.44 298.33 414.40 302.96 424.00 306.57 C 430.59 309.06 432.89 309.40 443.00 309.45 C 450.46 309.48 455.73 309.02 458.00 308.13 C 465.35 305.27 472.38 301.81 475.38 299.60 C 482.76 294.15 485.00 295.08 485.00 303.56 L 485.00 309.91 L 491.75 310.20 C 495.46 310.37 499.10 310.24 499.83 309.92 C 500.91 309.44 501.14 298.26 501.09 249.42ZM 430.40 287.99 C 427.59 287.02 424.24 285.39 422.96 284.36 C 415.45 278.36 409.85 272.20 406.93 266.72 C 403.71 260.70 403.60 260.13 403.63 249.00 C 403.65 237.74 403.73 237.36 407.30 230.50 C 411.32 222.77 413.50 220.09 419.68 215.23 C 427.12 209.38 432.38 207.66 443.00 207.58 C 451.49 207.52 453.12 207.82 458.31 210.36 C 469.34 215.76 478.83 227.35 481.55 238.74 C 485.69 256.06 479.31 272.39 464.13 283.35 C 455.04 289.91 441.37 291.79 430.40 287.99ZM 452.89 286.97 C 481.71 277.94 490.54 241.21 468.99 219.99 C 449.20 200.51 416.94 208.43 406.91 235.24 C 405.05 240.20 404.81 242.48 405.21 250.78 C 405.76 261.95 408.19 268.00 415.17 275.56 C 420.00 280.81 427.54 285.99 430.42 286.04 C 431.56 286.05 433.62 286.71 435.00 287.50 C 438.52 289.51 445.42 289.31 452.89 286.97Z"/></g>
<g fill="#8389BFFF">
<path d="M 810.50 313.16 C 792.11 308.52 776.13 294.71 767.49 276.00 L 763.57 267.50 L 763.60 251.00 C 763.63 234.50 763.63 234.50 766.88 227.50 C 771.62 217.32 776.07 211.06 783.40 204.32 C 802.53 186.69 830.72 182.46 854.00 193.73 C 880.74 206.67 895.54 238.49 888.00 266.83 C 883.38 284.22 870.72 300.11 855.07 308.20 C 842.70 314.58 824.27 316.63 810.50 313.16ZM 846.00 310.12 C 869.71 302.13 885.52 281.76 888.48 255.40 C 889.85 243.15 884.22 224.68 875.70 213.50 C 860.79 193.95 835.40 185.01 811.63 190.97 C 791.96 195.89 777.35 208.25 769.14 226.89 C 765.15 235.95 763.80 246.21 764.97 258.59 C 766.31 272.79 770.85 282.49 781.35 293.63 C 789.69 302.47 798.83 308.07 809.89 311.11 C 819.19 313.66 836.93 313.17 846.00 310.12ZM 814.00 291.29 C 805.50 287.46 803.50 286.20 797.93 281.18 C 793.56 277.23 791.12 273.94 788.54 268.52 C 785.41 261.92 785.05 260.27 784.91 251.85 C 784.78 243.98 785.13 241.63 787.14 237.00 C 792.39 224.89 798.65 218.43 810.65 212.74 C 816.74 209.86 818.44 209.50 826.00 209.54 C 838.09 209.60 846.14 213.02 855.10 221.93 C 864.34 231.12 867.18 237.43 867.79 250.14 C 868.25 259.70 868.19 260.07 864.75 267.21 C 858.90 279.34 851.31 286.02 836.70 291.88 C 832.54 293.55 818.18 293.18 814.00 291.29ZM 838.07 289.83 C 849.25 285.94 858.13 277.52 863.57 265.63 C 866.00 260.31 866.19 259.01 865.83 249.67 C 865.47 240.41 865.13 238.94 862.04 233.19 C 855.69 221.35 842.58 212.54 829.50 211.32 C 806.34 209.15 784.77 229.84 786.28 252.76 C 786.99 263.59 791.09 272.86 798.17 279.66 C 809.31 290.36 825.02 294.37 838.07 289.83Z"/></g>
<g fill="#3E49A0FF">
<path d="M 491.75 310.20 L 485.00 309.91 L 485.00 303.56 C 485.00 295.08 482.76 294.15 475.38 299.60 C 472.38 301.81 465.35 305.27 458.00 308.13 C 455.73 309.02 450.46 309.48 443.00 309.45 C 432.89 309.40 430.59 309.06 424.00 306.57 C 414.40 302.96 407.44 298.33 400.80 291.13 C 394.78 284.62 387.72 271.22 386.08 263.20 C 384.71 256.46 384.69 242.66 386.05 235.80 C 387.77 227.14 393.16 215.47 398.50 208.84 C 403.82 202.23 415.10 193.49 419.71 192.39 C 421.25 192.03 423.62 191.15 425.00 190.45 C 426.38 189.74 431.39 188.64 436.15 187.99 C 445.60 186.71 458.63 188.03 462.47 190.65 C 463.56 191.39 465.15 192.00 466.02 192.00 C 467.54 192.00 468.94 192.90 474.98 197.75 C 480.12 201.87 485.03 199.85 482.98 194.45 C 481.08 189.45 482.04 188.90 492.00 189.21 L 501.03 189.50 L 501.09 249.42 C 501.14 298.26 500.91 309.44 499.83 309.92 C 499.10 310.24 495.46 310.37 491.75 310.20ZM 454.31 288.34 C 463.38 285.45 473.58 276.67 478.05 267.91 C 486.77 250.80 483.52 232.19 469.38 218.35 C 466.49 215.52 461.51 211.93 458.31 210.36 C 453.12 207.82 451.49 207.52 443.00 207.58 C 432.38 207.66 427.12 209.38 419.68 215.23 C 413.50 220.09 411.32 222.77 407.30 230.50 C 403.73 237.36 403.65 237.74 403.63 249.00 C 403.60 260.13 403.71 260.70 406.93 266.72 C 409.85 272.20 415.45 278.36 422.96 284.36 C 429.38 289.50 444.62 291.44 454.31 288.34Z"/></g>
<g fill="#3E49A0FF">
<path d="M 809.89 311.11 C 798.83 308.07 789.69 302.47 781.35 293.63 C 770.85 282.49 766.31 272.79 764.97 258.59 C 763.30 240.92 767.06 226.53 776.69 213.83 C 796.46 187.76 832.84 181.33 859.98 199.12 C 870.30 205.89 876.48 212.94 882.22 224.50 C 898.60 257.50 881.39 298.19 846.00 310.12 C 836.93 313.17 819.19 313.66 809.89 311.11ZM 836.70 291.88 C 851.31 286.02 858.90 279.34 864.75 267.21 C 868.19 260.07 868.25 259.70 867.79 250.14 C 867.18 237.43 864.34 231.12 855.10 221.93 C 846.14 213.02 838.09 209.60 826.00 209.54 C 818.44 209.50 816.74 209.86 810.65 212.74 C 798.65 218.43 792.39 224.89 787.14 237.00 C 785.13 241.63 784.78 243.98 784.91 251.85 C 785.05 260.27 785.41 261.92 788.54 268.52 C 791.12 273.94 793.56 277.23 797.93 281.18 C 803.50 286.20 805.50 287.46 814.00 291.29 C 818.18 293.18 832.54 293.55 836.70 291.88Z"/></g>
<g fill="#3E49A0FF">
<path d="M 286.67 353.33 C 285.47 352.14 285.93 337.47 287.20 336.20 C 289.05 334.35 885.31 334.46 886.84 336.31 C 887.47 337.07 887.83 340.96 887.70 345.56 L 887.47 353.50 L 587.40 353.75 C 422.37 353.89 287.04 353.70 286.67 353.33Z"/></g>
<g fill="#8389BFFF">
<path d="M 164.00 313.39 C 149.83 310.31 135.35 300.01 126.32 286.58 C 120.98 278.62 119.93 275.57 122.25 274.80 C 122.94 274.57 128.78 274.63 135.23 274.94 L 146.97 275.50 L 149.99 279.17 C 154.06 284.11 161.86 288.75 169.32 290.66 C 187.12 295.22 205.62 286.69 214.75 269.72 C 217.42 264.76 217.59 262.44 215.37 261.59 C 214.48 261.25 192.16 260.99 165.77 261.02 C 130.80 261.06 117.41 260.76 116.40 259.91 C 113.12 257.19 116.03 235.42 121.05 225.05 C 132.80 200.82 153.23 187.62 179.00 187.63 C 195.51 187.64 210.13 193.45 222.14 204.78 C 229.52 211.73 237.36 222.91 236.82 225.70 C 236.52 227.27 235.27 227.52 226.99 227.64 C 214.67 227.81 211.44 226.91 206.00 221.74 C 203.53 219.39 198.80 216.13 195.50 214.49 C 189.98 211.74 188.65 211.50 178.99 211.50 C 168.94 211.50 168.17 211.66 161.62 215.00 C 150.13 220.87 137.44 236.68 141.96 239.48 C 142.49 239.81 164.51 240.05 190.90 240.02 L 238.86 239.96 L 240.43 242.20 C 242.27 244.83 242.46 251.92 240.98 263.67 C 239.87 272.58 236.24 280.73 229.18 290.22 C 214.63 309.76 189.10 318.84 164.00 313.39ZM 196.13 310.74 C 207.41 307.43 216.09 302.05 225.83 292.32 C 227.95 290.19 232.96 282.68 232.98 281.58 C 232.99 281.07 233.60 279.95 234.33 279.08 C 237.12 275.77 238.98 268.08 239.75 256.72 C 240.19 250.24 240.17 244.28 239.72 243.47 C 239.02 242.21 231.91 242.00 189.47 242.00 L 140.04 242.00 L 139.43 239.58 C 137.48 231.82 153.43 215.03 166.97 210.60 C 172.95 208.65 184.10 208.52 190.14 210.34 C 194.86 211.76 202.95 216.77 209.34 222.22 C 213.15 225.47 213.27 225.50 224.09 225.60 C 232.66 225.67 235.00 225.40 235.00 224.34 C 235.00 221.71 226.76 210.94 220.16 204.94 C 208.97 194.75 197.64 190.22 181.11 189.31 C 174.65 188.95 170.79 189.34 164.29 191.00 C 151.90 194.16 144.76 198.25 135.35 207.58 C 127.15 215.73 124.85 219.31 120.48 230.75 C 117.55 238.42 115.96 256.04 117.98 258.48 C 119.08 259.80 125.51 260.00 167.54 260.00 C 194.10 260.00 216.55 260.27 217.42 260.61 C 219.70 261.48 219.40 263.45 215.87 270.61 C 211.98 278.51 205.52 284.67 195.87 289.68 C 188.77 293.36 188.15 293.50 179.00 293.40 C 172.22 293.33 168.64 292.83 166.50 291.66 C 164.85 290.75 163.17 290.01 162.77 290.01 C 161.20 289.99 151.32 283.01 148.05 279.60 L 144.61 276.00 L 133.80 276.00 C 123.67 276.00 123.00 276.12 123.00 278.00 C 123.00 279.10 123.45 280.00 124.00 280.00 C 124.55 280.00 125.00 280.61 125.00 281.35 C 125.00 284.03 135.29 296.22 141.28 300.62 C 153.70 309.77 164.29 313.01 180.50 312.62 C 186.12 312.49 192.97 311.66 196.13 310.74Z"/></g>
<g fill="#3E49A0FF">
<path d="M 164.09 311.43 C 155.96 309.61 149.02 306.33 141.28 300.62 C 135.29 296.22 125.00 284.03 125.00 281.35 C 125.00 280.61 124.55 280.00 124.00 280.00 C 123.45 280.00 123.00 279.10 123.00 278.00 C 123.00 276.12 123.67 276.00 133.80 276.00 L 144.61 276.00 L 148.05 279.60 C 151.32 283.01 161.20 289.99 162.77 290.01 C 163.17 290.01 164.85 290.75 166.50 291.66 C 168.64 292.83 172.22 293.33 179.00 293.40 C 188.15 293.50 188.77 293.36 195.87 289.68 C 205.52 284.67 211.98 278.51 215.87 270.61 C 219.40 263.45 219.70 261.48 217.42 260.61 C 216.55 260.27 194.10 260.00 167.54 260.00 C 125.51 260.00 119.08 259.80 117.98 258.48 C 115.96 256.04 117.55 238.42 120.48 230.75 C 124.85 219.31 127.15 215.73 135.35 207.58 C 144.76 198.25 151.90 194.16 164.29 191.00 C 170.79 189.34 174.65 188.95 181.11 189.31 C 197.64 190.22 208.97 194.75 220.16 204.94 C 226.76 210.94 235.00 221.71 235.00 224.34 C 235.00 225.40 232.66 225.67 224.09 225.60 C 213.27 225.50 213.15 225.47 209.34 222.22 C 202.95 216.77 194.86 211.76 190.14 210.34 C 184.10 208.52 172.95 208.65 166.97 210.60 C 153.43 215.03 137.48 231.82 139.43 239.58 L 140.04 242.00 L 189.47 242.00 C 231.91 242.00 239.02 242.21 239.72 243.47 C 240.17 244.28 240.19 250.24 239.75 256.72 C 238.98 268.08 237.12 275.77 234.33 279.08 C 233.60 279.95 232.99 281.07 232.98 281.58 C 232.96 282.68 227.95 290.19 225.83 292.32 C 211.65 306.49 198.95 312.18 180.50 312.62 C 174.57 312.76 167.89 312.28 164.09 311.43Z"/></g>
<g fill="#8389BFFF">
<path d="M 680.67 313.52 C 663.60 309.79 646.21 296.01 638.34 279.98 C 631.32 265.67 629.55 253.05 632.60 239.00 C 635.18 227.13 638.26 220.23 644.44 212.48 C 659.60 193.47 683.77 184.03 706.07 188.40 C 719.43 191.02 729.86 196.63 739.53 206.39 C 746.99 213.93 755.00 225.87 755.00 229.48 C 755.00 231.84 753.26 232.20 742.42 232.08 L 731.97 231.96 L 725.23 225.11 C 713.14 212.83 700.70 208.95 684.63 212.46 C 680.01 213.47 673.89 216.92 668.24 221.71 C 664.18 225.16 662.06 228.09 658.99 234.53 C 655.27 242.32 655.00 243.48 655.00 251.72 C 655.00 257.53 655.47 261.23 656.36 262.53 C 657.10 263.61 658.27 266.21 658.95 268.29 C 660.71 273.71 670.25 283.59 677.00 287.00 C 696.66 296.93 714.45 291.42 731.24 270.20 C 732.83 268.19 733.86 268.00 743.37 268.00 C 756.71 268.00 757.54 268.71 753.57 276.82 C 744.31 295.77 729.58 308.12 710.39 313.03 C 701.57 315.28 689.64 315.48 680.67 313.52ZM 709.00 311.58 C 717.44 309.52 724.14 306.55 731.04 301.81 C 737.33 297.50 746.30 287.80 748.40 283.03 C 749.01 281.64 750.24 279.38 751.13 278.00 C 752.03 276.62 753.05 274.26 753.40 272.75 L 754.04 270.00 L 746.77 269.99 C 742.77 269.98 738.48 269.70 737.24 269.37 C 735.53 268.91 734.33 269.52 732.24 271.92 C 721.43 284.36 718.18 286.89 707.50 291.14 C 695.26 296.02 677.34 291.90 667.16 281.87 C 662.67 277.44 657.00 269.83 657.00 268.22 C 657.00 267.72 656.23 265.78 655.28 263.90 C 654.01 261.40 653.56 257.99 653.55 251.00 C 653.54 242.03 653.75 241.07 657.33 233.76 C 663.09 221.98 672.64 214.17 685.81 210.47 C 693.80 208.23 701.26 208.88 710.50 212.62 C 716.12 214.90 719.00 216.95 725.14 223.05 L 732.79 230.66 L 742.40 230.49 C 747.69 230.39 752.32 230.01 752.69 229.64 C 753.06 229.27 751.86 225.95 750.03 222.26 C 747.71 217.60 744.19 213.05 738.54 207.40 C 726.11 194.97 715.00 190.18 696.53 189.28 C 681.84 188.57 667.31 193.62 655.21 203.63 C 644.25 212.71 637.54 224.08 634.62 238.52 C 632.60 248.51 632.58 254.47 634.52 263.78 C 636.62 273.85 638.54 278.33 644.38 286.88 C 652.55 298.82 665.78 308.04 679.50 311.34 C 687.20 313.19 701.94 313.31 709.00 311.58Z"/></g>
<g fill="#3E49A0FF">
<path d="M 679.50 311.34 C 665.78 308.04 652.55 298.82 644.38 286.88 C 641.60 282.82 638.59 277.60 637.69 275.28 C 635.35 269.30 633.00 257.38 633.00 251.52 C 633.00 244.47 635.81 231.47 638.72 225.00 C 648.67 202.96 672.68 188.12 696.53 189.28 C 715.00 190.18 726.11 194.97 738.54 207.40 C 744.19 213.05 747.71 217.60 750.03 222.26 C 751.86 225.95 753.06 229.27 752.69 229.64 C 752.32 230.01 747.69 230.39 742.40 230.49 L 732.79 230.66 L 725.14 223.05 C 719.00 216.95 716.12 214.90 710.50 212.62 C 701.26 208.88 693.80 208.23 685.81 210.47 C 672.64 214.17 663.09 221.98 657.33 233.76 C 653.75 241.07 653.54 242.03 653.55 251.00 C 653.56 257.99 654.01 261.40 655.28 263.90 C 656.23 265.78 657.00 267.72 657.00 268.22 C 657.00 268.73 658.31 271.04 659.91 273.36 C 668.66 286.09 680.62 292.84 694.78 293.03 C 702.49 293.13 707.00 291.93 715.93 287.41 C 719.08 285.81 725.29 279.92 732.24 271.92 C 734.33 269.52 735.53 268.91 737.24 269.37 C 738.48 269.70 742.77 269.98 746.77 269.99 L 754.04 270.00 L 753.40 272.75 C 753.05 274.26 752.03 276.62 751.13 278.00 C 750.24 279.38 749.01 281.64 748.40 283.03 C 744.72 291.37 730.47 303.83 719.63 308.18 C 707.38 313.09 691.86 314.31 679.50 311.34Z"/></g>
<g fill="#8389BFFF">
<path d="M 297.50 292.17 C 288.00 286.73 285.04 284.63 280.81 280.30 C 278.14 277.56 274.77 272.54 272.96 268.61 C 262.30 245.45 274.87 219.37 300.81 210.82 C 308.07 208.42 316.20 208.52 324.08 211.10 C 331.18 213.43 333.20 214.37 335.17 216.26 C 335.90 216.97 337.83 218.57 339.46 219.83 C 344.36 223.62 349.69 231.56 352.01 238.53 C 355.23 248.21 354.60 261.17 350.49 269.50 C 346.47 277.64 337.20 286.80 328.92 290.81 C 322.72 293.82 321.71 294.00 311.42 293.94 C 303.01 293.90 299.81 293.49 297.50 292.17ZM 328.79 288.86 C 347.26 280.05 356.26 261.09 351.15 241.75 C 342.80 210.16 304.47 200.52 282.26 224.42 C 274.31 232.98 271.49 240.36 271.53 252.50 C 271.56 260.46 271.92 262.27 274.70 268.20 C 278.79 276.95 285.36 283.87 293.52 288.01 C 301.81 292.22 305.69 293.01 314.99 292.38 C 320.51 292.01 324.14 291.08 328.79 288.86Z"/></g>
<g fill="#8389BFFF">
<path d="M 519.12 313.64 C 517.44 311.62 517.36 190.48 519.03 188.46 C 520.45 186.76 538.45 186.37 541.00 187.98 C 541.99 188.61 542.50 190.55 542.50 193.72 C 542.50 197.83 542.80 198.54 544.63 198.80 C 545.79 198.97 547.37 198.50 548.13 197.77 C 551.24 194.73 560.38 190.95 568.42 189.37 C 576.41 187.80 577.50 187.80 584.50 189.34 C 588.63 190.25 594.56 192.43 597.67 194.18 C 605.40 198.55 615.38 208.10 620.91 216.41 C 623.43 220.22 625.91 223.87 626.41 224.53 C 626.91 225.19 627.04 226.46 626.69 227.36 C 626.17 228.73 624.38 229.00 615.75 229.00 L 605.43 229.00 L 599.97 223.45 C 590.40 213.74 579.73 209.57 570.45 211.91 C 559.41 214.69 552.08 220.58 546.37 231.26 L 542.50 238.50 L 542.38 275.19 C 542.32 295.36 541.99 312.57 541.66 313.44 C 540.85 315.57 520.87 315.75 519.12 313.64ZM 541.00 275.00 L 541.50 237.50 L 544.14 232.00 C 551.75 216.10 568.55 206.41 581.70 210.32 C 589.53 212.64 593.02 214.74 599.50 221.04 L 605.50 226.86 L 614.93 227.14 C 625.24 227.44 626.78 226.62 623.27 222.68 C 622.21 221.48 620.16 218.44 618.73 215.93 C 615.35 210.00 603.93 199.30 596.98 195.55 C 591.86 192.80 588.37 191.82 578.50 190.39 C 570.24 189.19 558.16 192.87 547.78 199.76 C 542.40 203.33 541.00 202.35 541.00 195.00 L 541.00 188.93 L 530.25 189.22 L 519.50 189.50 L 519.72 250.50 C 519.83 284.05 519.95 311.85 519.97 312.28 C 519.98 312.72 524.61 312.94 530.25 312.78 L 540.50 312.50 L 541.00 275.00Z"/></g>
<g fill="#3E49A0FF">
<path d="M 519.97 312.28 C 519.95 311.85 519.83 284.05 519.72 250.50 L 519.50 189.50 L 530.25 189.22 L 541.00 188.93 L 541.00 195.00 C 541.00 202.35 542.40 203.33 547.78 199.76 C 558.16 192.87 570.24 189.19 578.50 190.39 C 588.37 191.82 591.86 192.80 596.98 195.55 C 603.93 199.30 615.35 210.00 618.73 215.93 C 620.16 218.44 622.21 221.48 623.27 222.68 C 626.78 226.62 625.24 227.44 614.93 227.14 L 605.50 226.86 L 599.50 221.04 C 593.02 214.74 589.53 212.64 581.70 210.32 C 568.55 206.41 551.75 216.10 544.14 232.00 L 541.50 237.50 L 541.00 275.00 L 540.50 312.50 L 530.25 312.78 C 524.61 312.94 519.98 312.72 519.97 312.28Z"/></g>
<g fill="#8389BFFF">
<path d="M 173.00 355.00 L 115.50 354.50 L 115.21 345.02 C 114.96 336.96 115.18 335.34 116.65 334.27 C 118.00 333.28 130.92 333.00 175.12 333.00 C 225.92 333.00 232.03 333.17 233.47 334.61 C 234.74 335.89 235.02 337.97 234.79 344.74 C 234.54 352.05 234.22 353.42 232.50 354.38 C 231.06 355.19 214.38 355.36 173.00 355.00ZM 232.50 344.50 L 232.50 335.50 L 178.00 335.21 C 148.02 335.06 122.04 335.19 120.25 335.51 L 117.00 336.09 L 117.00 345.05 L 117.00 354.02 L 174.75 353.76 L 232.50 353.50 L 232.50 344.50Z"/></g>
<g fill="#3E49A0FF">
<path d="M 117.00 345.05 L 117.00 336.09 L 120.25 335.51 C 122.04 335.19 148.02 335.06 178.00 335.21 L 232.50 335.50 L 232.50 344.50 L 232.50 353.50 L 174.75 353.76 L 117.00 354.02 L 117.00 345.05Z"/></g>
<g fill="#8389BFFF">
<path d="M 247.76 376.35 C 246.58 374.55 247.07 189.72 248.24 188.25 C 249.48 186.70 264.26 186.53 267.07 188.04 C 268.65 188.88 269.00 190.16 269.00 195.04 C 269.00 200.50 269.18 201.00 271.19 201.00 C 272.39 201.00 274.30 200.14 275.44 199.10 C 278.74 196.05 287.96 191.51 295.00 189.46 C 303.46 187.00 319.99 186.93 328.49 189.33 C 346.49 194.40 361.44 206.78 369.44 223.23 C 375.07 234.79 376.33 241.31 375.78 256.00 C 375.44 265.06 374.89 268.50 373.17 272.20 C 371.98 274.78 371.00 277.31 371.00 277.82 C 371.00 278.33 368.81 282.06 366.14 286.12 C 356.20 301.21 344.29 309.82 326.93 314.47 C 316.18 317.35 311.39 317.57 301.50 315.62 C 292.07 313.77 284.13 310.62 277.29 306.03 C 274.17 303.93 271.03 302.43 270.32 302.71 C 269.30 303.10 268.97 310.95 268.76 339.77 C 268.60 363.02 268.14 376.46 267.50 376.67 C 266.50 377.00 266.46 303.89 267.46 301.25 C 268.28 299.10 272.06 299.88 276.01 303.01 C 285.37 310.42 303.52 315.77 315.50 314.64 C 324.65 313.78 335.11 310.67 342.23 306.69 C 349.06 302.87 363.00 290.68 363.00 288.53 C 363.00 287.82 363.64 286.71 364.43 286.06 C 365.21 285.41 367.54 280.97 369.61 276.19 L 373.38 267.50 L 373.44 252.50 C 373.49 238.94 373.27 236.88 371.05 231.00 C 366.34 218.48 359.77 209.16 350.78 202.21 C 344.41 197.30 334.38 192.03 331.37 192.01 C 330.20 192.01 327.54 191.29 325.46 190.42 C 322.50 189.18 319.24 188.94 310.59 189.30 C 295.13 189.94 286.30 192.72 277.25 199.81 C 274.29 202.13 272.17 203.04 270.25 202.82 C 267.64 202.52 267.49 202.22 267.36 197.00 C 267.28 193.97 267.16 190.94 267.11 190.25 C 267.03 189.35 264.48 189.00 258.01 189.00 L 249.01 189.00 L 248.76 283.25 C 248.61 335.09 248.16 376.98 247.76 376.35Z"/></g>
<g fill="#B2B6D9FF">
<path d="M 494.47 312.25 C 498.43 312.05 501.77 311.38 502.21 310.70 C 502.63 310.04 502.98 282.44 502.98 249.37 C 503.00 201.25 502.74 189.03 501.70 188.17 C 500.99 187.57 496.60 186.93 491.95 186.75 L 483.50 186.41 L 492.00 186.24 C 497.82 186.12 501.06 186.49 502.28 187.41 C 503.95 188.68 504.06 192.42 504.02 249.55 C 503.98 292.50 503.65 310.72 502.86 311.66 C 502.10 312.59 499.55 312.94 494.63 312.80 L 487.50 312.61 L 494.47 312.25Z"/></g>
<g fill="#B2B6D9FF">
<path d="M 232.78 354.44 C 234.77 353.05 235.00 352.04 234.98 344.69 C 234.98 340.19 234.54 335.82 234.02 335.00 C 233.20 333.71 225.24 333.43 175.79 332.98 L 118.50 332.47 L 175.60 332.23 C 229.80 332.01 232.77 332.09 234.35 333.83 C 235.63 335.24 236.00 337.68 236.00 344.63 C 236.00 353.69 235.20 356.00 232.08 356.00 C 231.01 356.00 231.22 355.53 232.78 354.44Z"/></g>
</svg>
