<?xml version="1.0" encoding="utf-8"?>
<!DOCTYPE svg PUBLIC "-//W3C//DTD SVG 20010904//EN" "http://www.w3.org/TR/2001/REC-SVG-20010904/DTD/svg10.dtd">
<svg version="1.0" xmlns="http://www.w3.org/2000/svg" width="888pt" height="602pt" viewBox="0 0 888 602" preserveAspectRatio="xMidYMid meet">
<g fill="#FEFDFDFF">
<path d="M 428.53 414.75 C 428.12 412.96 418.97 360.75 414.99 337.50 C 413.72 330.10 401.25 258.33 398.92 245.00 C 397.81 238.68 396.02 228.32 394.93 222.00 C 393.84 215.68 392.73 209.49 392.46 208.25 L 391.96 206.00 L 418.96 206.00 L 445.96 206.00 L 446.48 208.25 C 446.90 210.11 455.23 267.22 459.12 295.00 C 460.13 302.21 460.59 303.82 461.36 302.92 C 461.55 302.69 465.41 282.02 469.94 257.00 C 474.46 231.97 478.41 210.25 478.71 208.73 L 479.26 205.97 L 504.34 206.23 L 529.42 206.50 L 538.55 242.62 C 547.80 279.18 548.74 282.60 549.43 281.89 C 549.80 281.51 552.10 270.50 568.00 193.00 C 572.34 171.82 577.27 147.88 578.95 139.79 C 580.63 131.70 582.00 124.84 582.00 124.54 C 582.00 124.24 595.28 124.00 611.52 124.00 L 641.04 124.00 L 640.52 126.25 C 640.24 127.49 636.61 145.82 632.45 167.00 C 628.30 188.18 621.35 223.50 617.01 245.50 C 606.76 297.43 587.60 394.83 585.24 407.00 L 583.40 416.50 L 554.33 416.76 L 525.26 417.03 L 524.73 414.26 C 524.45 412.74 519.80 386.41 514.40 355.75 C 509.00 325.09 504.34 300.00 504.03 300.00 C 503.72 300.00 500.16 323.29 496.11 351.75 C 492.06 380.21 488.30 406.54 487.75 410.25 L 486.76 417.00 L 457.90 417.00 L 429.04 417.00 L 428.53 414.75Z"/></g>
<g fill="#FEFDFDFF">
<path d="M 719.00 312.48 L 719.00 206.97 L 747.66 207.23 L 776.32 207.50 L 791.46 247.21 C 799.79 269.06 806.91 287.25 807.30 287.63 C 807.68 288.02 808.00 270.03 808.00 247.67 L 808.00 207.00 L 835.50 207.00 L 863.00 207.00 L 863.00 248.75 C 863.00 271.71 862.70 319.19 862.33 354.27 L 861.67 418.03 L 835.10 417.77 L 808.52 417.50 L 794.01 374.00 L 779.50 330.50 L 779.24 374.25 L 778.98 418.00 L 748.99 418.00 L 719.00 418.00 L 719.00 312.48Z"/></g>
<g fill="#FEFDFDFF">
<path d="M 177.67 418.33 C 177.30 417.97 177.00 370.27 177.00 312.33 L 177.00 207.00 L 229.00 207.00 L 281.00 207.00 L 281.00 230.00 L 281.00 253.00 L 257.57 253.00 C 236.70 253.00 234.11 253.18 233.82 254.63 C 233.65 255.53 233.64 262.51 233.80 270.13 L 234.11 284.00 L 258.05 284.00 L 282.00 284.00 L 282.00 307.00 L 282.00 330.00 L 258.05 330.00 L 234.10 330.00 L 233.80 345.09 C 233.64 353.38 233.69 360.36 233.92 360.59 C 234.15 360.81 245.06 361.00 258.17 361.00 L 282.00 361.00 L 282.00 389.39 C 282.00 414.36 281.81 417.86 280.42 418.39 C 278.25 419.22 178.50 419.17 177.67 418.33Z"/></g>
<g fill="#FEFDFDFF">
<path d="M 61.00 334.50 L 61.00 252.00 L 42.00 252.00 L 23.00 252.00 L 23.00 229.00 L 23.00 206.00 L 89.50 206.00 L 156.00 206.00 L 156.00 229.00 L 156.00 252.00 L 136.50 252.00 L 117.00 252.00 L 117.00 334.50 L 117.00 417.00 L 89.00 417.00 L 61.00 417.00 L 61.00 334.50Z"/></g>
<g fill="#FEFDFDFF">
<path d="M 305.68 418.34 C 305.30 417.97 305.00 370.27 305.00 312.33 L 305.00 207.00 L 332.00 207.00 L 359.00 207.00 L 359.00 285.00 L 359.00 363.00 L 385.52 363.00 L 412.03 363.00 L 411.77 390.75 L 411.50 418.50 L 358.93 418.76 C 330.01 418.90 306.05 418.71 305.68 418.34Z"/></g>
<g fill="#FEFDFDFF">
<path d="M 641.25 418.34 C 640.26 417.94 640.00 395.81 640.00 312.40 L 640.00 206.97 L 669.75 207.24 L 699.50 207.50 L 699.77 311.00 C 699.93 367.93 699.80 415.51 699.51 416.75 L 698.96 419.00 L 670.73 418.92 C 655.20 418.88 641.94 418.62 641.25 418.34Z"/></g>
<g fill="#FEFDFDFF">
<path d="M 776.55 547.27 C 768.92 545.33 763.08 537.20 760.90 525.50 C 759.34 517.10 760.29 492.83 762.41 486.94 C 765.99 477.04 773.03 471.83 782.98 471.73 C 793.96 471.63 801.41 477.79 804.45 489.49 C 809.63 509.36 806.03 535.75 797.12 543.25 C 792.28 547.32 783.49 549.04 776.55 547.27ZM 791.50 537.70 C 793.31 535.89 795.31 532.63 795.95 530.45 C 797.64 524.65 798.38 504.60 797.21 496.35 C 795.34 483.18 791.62 478.62 782.75 478.62 C 778.28 478.62 777.39 479.00 774.47 482.19 C 769.85 487.23 768.74 493.66 769.21 512.83 C 769.51 525.25 769.97 529.40 771.44 532.86 C 773.73 538.21 777.96 540.99 783.85 541.00 C 787.44 541.00 788.78 540.42 791.50 537.70Z"/></g>
<g fill="#FEFDFDFF">
<path d="M 86.00 546.41 C 80.69 544.11 76.23 539.21 73.84 533.05 C 72.14 528.68 71.58 524.65 71.22 514.04 C 70.49 492.90 73.35 482.08 81.38 475.58 C 84.77 472.84 86.02 472.47 93.07 472.15 C 100.12 471.83 101.44 472.07 105.37 474.37 C 112.79 478.72 116.50 487.51 117.62 503.40 C 118.39 514.34 116.69 528.53 113.81 535.23 C 110.22 543.56 103.09 548.04 93.50 547.96 C 91.30 547.94 87.92 547.24 86.00 546.41ZM 102.50 537.70 C 106.95 533.25 108.08 528.82 108.70 513.50 C 109.51 493.20 106.84 483.22 99.64 479.65 C 93.05 476.37 85.70 479.42 82.25 486.84 C 79.65 492.47 79.73 525.50 82.37 532.33 C 84.63 538.21 88.64 540.99 94.85 541.00 C 98.44 541.00 99.78 540.42 102.50 537.70Z"/></g>
<g fill="#FEFDFDFF">
<path d="M 557.66 546.54 C 546.84 542.68 542.52 531.97 542.52 509.00 C 542.53 497.58 542.89 494.40 544.86 488.34 C 548.64 476.73 554.99 471.81 566.15 471.87 C 576.54 471.92 583.09 477.02 586.64 487.85 C 588.17 492.49 588.49 496.55 588.46 510.50 C 588.41 525.69 588.17 528.10 586.17 533.15 C 584.94 536.25 582.71 540.03 581.22 541.54 C 575.33 547.49 565.92 549.49 557.66 546.54ZM 572.14 539.43 C 577.70 536.55 579.37 530.78 579.82 512.90 C 580.39 489.67 578.00 481.81 569.53 479.01 C 564.84 477.46 558.70 479.20 556.19 482.78 C 552.31 488.30 551.51 492.89 551.51 509.50 C 551.51 527.85 552.55 532.75 557.49 537.69 C 560.17 540.37 561.59 541.00 564.95 541.00 C 567.23 541.00 570.47 540.29 572.14 539.43Z"/></g>
<g fill="#FEFDFDFF">
<path d="M 665.49 191.26 C 642.91 183.18 638.19 153.06 657.31 139.00 C 680.06 122.27 711.49 144.15 703.62 171.24 C 698.93 187.36 680.96 196.80 665.49 191.26ZM 685.58 186.10 C 694.38 182.10 700.22 173.08 700.31 163.34 C 700.43 150.90 691.95 140.59 679.49 138.00 C 668.09 135.63 656.16 142.19 651.47 153.41 C 649.55 158.01 649.59 168.08 651.55 172.78 C 653.59 177.69 659.52 183.78 664.50 186.10 C 669.86 188.59 680.11 188.59 685.58 186.10ZM 664.00 162.00 L 664.00 146.00 L 673.05 146.00 C 685.88 146.00 689.00 147.86 689.00 155.54 C 689.00 158.17 688.26 159.50 685.67 161.57 L 682.33 164.23 L 686.79 170.87 L 691.25 177.50 L 688.38 177.84 C 686.45 178.07 685.10 177.58 684.25 176.34 C 677.37 166.43 676.42 165.50 672.71 165.19 L 669.00 164.88 L 669.00 171.44 C 669.00 177.77 668.91 178.00 666.50 178.00 L 664.00 178.00 L 664.00 162.00ZM 681.78 158.44 C 687.02 154.77 682.78 150.00 674.28 150.00 L 669.00 150.00 L 669.00 155.00 L 669.00 160.00 L 674.28 160.00 C 677.44 160.00 680.45 159.37 681.78 158.44Z"/></g>
<g fill="#FEFDFDFF">
<path d="M 485.67 546.33 C 485.30 545.97 485.00 529.32 485.00 509.33 L 485.00 473.00 L 490.93 473.00 L 496.85 473.00 L 500.03 481.25 C 508.90 504.27 520.36 532.61 521.13 533.45 C 521.63 533.99 522.00 521.17 522.00 503.64 L 522.00 472.89 L 526.25 473.19 L 530.50 473.50 L 530.78 508.00 C 530.93 526.98 530.81 543.51 530.51 544.75 C 530.06 546.59 529.28 547.00 526.23 546.99 C 518.49 546.96 519.13 547.94 507.51 518.67 C 501.58 503.73 496.13 490.38 495.40 489.00 C 494.28 486.88 494.07 490.95 494.04 516.14 C 494.00 542.23 493.81 545.86 492.42 546.39 C 490.32 547.20 486.50 547.17 485.67 546.33Z"/></g>
<g fill="#FEFDFDFF">
<path d="M 638.94 546.01 C 638.91 545.73 643.52 529.17 649.19 509.22 L 659.50 472.94 L 665.47 473.22 L 671.43 473.50 L 677.22 495.00 C 680.40 506.82 684.77 523.01 686.93 530.96 C 689.09 538.92 690.64 545.78 690.37 546.21 C 690.10 546.65 688.35 547.00 686.48 547.00 C 682.62 547.00 681.90 546.04 680.09 538.50 C 679.43 535.75 678.45 531.80 677.90 529.72 L 676.91 525.94 L 664.73 526.22 L 652.55 526.50 L 650.06 536.17 L 647.56 545.83 L 643.28 546.17 C 640.93 546.36 638.97 546.29 638.94 546.01ZM 674.62 516.75 C 674.28 515.51 672.13 507.37 669.84 498.66 C 667.39 489.32 665.37 483.37 664.93 484.16 C 664.03 485.78 655.00 516.52 655.00 517.98 C 655.00 518.61 658.88 519.00 665.12 519.00 C 675.12 519.00 675.23 518.98 674.62 516.75Z"/></g>
<g fill="#FEFDFDFF">
<path d="M 819.24 546.17 C 818.25 545.54 818.03 537.52 818.24 509.43 L 818.50 473.50 L 824.12 473.20 L 829.74 472.91 L 842.12 504.19 L 854.50 535.47 L 854.76 504.23 L 855.03 473.00 L 859.01 473.00 L 863.00 473.00 L 863.00 510.05 L 863.00 547.10 L 857.27 546.80 L 851.55 546.50 L 839.92 517.22 C 833.52 501.12 827.99 487.66 827.64 487.31 C 827.29 486.96 827.00 500.24 827.00 516.83 L 827.00 547.00 L 823.75 546.98 C 821.96 546.98 819.93 546.61 819.24 546.17Z"/></g>
<g fill="#FEFDFDFF">
<path d="M 151.42 546.08 C 151.19 545.85 151.00 529.29 151.00 509.28 L 151.00 472.90 L 156.63 473.20 L 162.26 473.50 L 173.47 502.00 C 179.64 517.67 185.10 531.40 185.59 532.50 C 186.17 533.76 186.60 523.13 186.76 503.75 L 187.03 473.00 L 191.53 473.00 L 196.02 473.00 L 195.76 509.75 L 195.50 546.50 L 190.50 546.76 C 187.75 546.90 185.01 546.68 184.41 546.26 C 183.81 545.84 178.24 532.67 172.04 517.00 C 165.83 501.32 160.48 488.05 160.13 487.50 C 159.78 486.95 159.28 499.96 159.00 516.40 L 158.50 546.31 L 155.17 546.40 C 153.33 546.46 151.65 546.31 151.42 546.08Z"/></g>
<g fill="#FEFDFDFF">
<path d="M 428.00 509.70 L 428.00 472.90 L 433.60 473.20 L 439.20 473.50 L 451.35 504.00 L 463.50 534.50 L 463.76 503.75 L 464.03 473.00 L 468.53 473.00 L 473.02 473.00 L 472.76 509.75 L 472.50 546.50 L 469.59 546.83 C 467.99 547.01 465.29 546.90 463.59 546.58 C 460.56 546.01 460.26 545.41 449.04 516.93 C 442.74 500.94 437.23 487.64 436.79 487.37 C 436.36 487.10 436.00 500.42 436.00 516.97 L 436.00 547.05 L 432.00 546.77 L 428.00 546.50 L 428.00 509.70Z"/></g>
<g fill="#FEFDFDFF">
<path d="M 278.67 546.33 C 278.30 545.97 278.00 529.32 278.00 509.33 L 278.00 473.00 L 282.00 473.00 L 286.00 473.00 L 286.00 488.00 L 286.00 503.00 L 299.00 503.00 L 312.00 503.00 L 312.00 488.00 L 312.00 473.00 L 316.51 473.00 L 321.02 473.00 L 320.76 509.74 C 320.51 544.42 320.40 546.49 318.67 546.83 C 317.66 547.02 315.75 546.90 314.42 546.57 L 312.00 545.96 L 312.00 528.48 L 312.00 511.00 L 299.00 511.00 L 286.00 511.00 L 286.00 528.39 C 286.00 543.33 285.78 545.87 284.42 546.39 C 282.33 547.19 279.50 547.17 278.67 546.33Z"/></g>
<g fill="#FEFDFDFF">
<path d="M 334.25 546.35 C 333.28 545.95 333.00 537.61 333.00 509.42 L 333.00 473.00 L 352.00 473.00 L 371.00 473.00 L 371.00 476.47 L 371.00 479.95 L 356.75 480.22 L 342.50 480.50 L 342.22 492.25 L 341.94 504.00 L 355.47 504.00 L 369.00 504.00 L 369.00 508.00 L 369.00 512.00 L 355.50 512.00 L 342.00 512.00 L 342.00 525.50 L 342.00 539.00 L 357.06 539.00 L 372.12 539.00 L 371.81 542.75 L 371.50 546.50 L 353.50 546.68 C 343.60 546.78 334.94 546.63 334.25 546.35Z"/></g>
<g fill="#FEFDFDFF">
<path d="M 613.68 545.66 C 612.81 544.97 608.86 530.59 604.02 510.50 C 599.52 491.80 595.62 475.71 595.35 474.75 C 594.94 473.28 595.56 473.00 599.24 473.00 L 603.61 473.00 L 605.79 482.25 C 606.99 487.34 610.00 500.50 612.49 511.50 C 614.97 522.50 617.27 532.62 617.58 533.99 C 618.03 535.91 618.34 536.14 618.95 534.99 C 619.38 534.17 622.83 519.89 626.62 503.26 L 633.50 473.02 L 637.75 473.01 C 640.09 473.00 642.00 473.34 642.00 473.76 C 642.00 475.22 624.16 545.17 623.66 545.67 C 622.57 546.76 615.05 546.75 613.68 545.66Z"/></g>
<g fill="#FEFDFDFF">
<path d="M 705.50 545.81 C 705.23 545.09 704.89 530.10 704.75 512.50 L 704.50 480.50 L 695.25 480.21 L 686.00 479.92 L 686.00 476.46 L 686.00 473.00 L 709.00 473.00 L 732.00 473.00 L 732.00 476.46 L 732.00 479.92 L 722.75 480.21 L 713.50 480.50 L 713.00 513.50 L 712.50 546.50 L 709.24 546.81 C 707.23 547.01 705.80 546.63 705.50 545.81Z"/></g>
<g fill="#FEFDFDFF">
<path d="M 243.47 545.75 C 243.21 545.06 242.89 530.10 242.75 512.50 L 242.50 480.50 L 233.25 480.21 L 224.00 479.92 L 224.00 476.46 L 224.00 473.00 L 247.00 473.00 L 270.00 473.00 L 270.00 476.46 L 270.00 479.92 L 260.75 480.21 L 251.50 480.50 L 251.24 512.95 C 251.04 537.38 250.67 545.59 249.74 546.18 C 247.82 547.40 243.99 547.14 243.47 545.75Z"/></g>
<g fill="#FEFDFDFF">
<path d="M 32.31 546.05 C 27.01 543.65 24.00 538.21 24.00 531.04 L 24.00 526.00 L 28.00 526.00 L 32.00 526.00 L 32.00 531.05 C 32.00 537.62 35.00 541.00 40.84 541.00 C 49.98 541.00 51.00 536.86 51.00 499.86 L 51.00 473.00 L 55.05 473.00 L 59.11 473.00 L 58.80 504.25 C 58.52 533.15 58.35 535.80 56.50 539.50 C 52.68 547.14 41.42 550.19 32.31 546.05Z"/></g>
<g fill="#FEFDFDFF">
<path d="M 739.41 545.62 C 739.17 545.00 739.09 528.52 739.24 508.99 L 739.50 473.50 L 743.76 473.19 L 748.02 472.88 L 747.76 509.69 L 747.50 546.50 L 743.67 546.62 C 741.56 546.69 739.64 546.23 739.41 545.62Z"/></g>
<g fill="#FEFDFDFF">
<path d="M 129.99 545.48 C 129.33 544.70 129.07 531.65 129.24 508.88 L 129.50 473.50 L 133.76 473.19 L 138.02 472.88 L 137.76 509.69 L 137.50 546.50 L 134.25 546.60 C 132.46 546.66 130.54 546.15 129.99 545.48Z"/></g>
<g fill="#FEFDFDFF">
<path d="M 407.00 509.83 L 407.00 473.00 L 411.00 473.00 L 415.00 473.00 L 415.00 509.48 L 415.00 545.96 L 412.75 546.42 C 406.59 547.66 407.00 550.27 407.00 509.83Z"/></g>
<g fill="#F4878FFF">
<path d="M 412.00 391.02 L 412.00 363.03 L 385.75 362.77 L 359.50 362.50 L 359.24 284.77 L 358.99 207.03 L 331.99 206.74 L 305.00 206.45 L 332.25 206.48 L 359.50 206.50 L 359.76 284.25 L 360.01 362.00 L 386.51 362.00 L 413.00 362.00 L 413.00 390.50 C 413.00 406.18 412.77 419.00 412.50 419.00 C 412.23 419.00 412.00 406.41 412.00 391.02Z"/></g>
<g fill="#F4878FFF">
<path d="M 22.47 229.25 L 22.50 205.50 L 89.50 205.49 L 156.50 205.48 L 89.77 205.75 L 23.04 206.01 L 22.74 229.51 L 22.44 253.00 L 22.47 229.25Z"/></g>
<g fill="#D8565DFF">
<path d="M 117.48 335.00 C 117.48 289.62 117.60 271.06 117.75 293.75 C 117.90 316.44 117.90 353.56 117.75 376.25 C 117.60 398.94 117.48 380.38 117.48 335.00Z"/></g>
</svg>
